/* XPM */
static char *exit401675337814[] = {
/* columns rows colors chars-per-pixel */
"80 80 188 2 ",
"   c #59543D",
".  c #60583A",
"X  c #7B692F",
"o  c #786730",
"O  c #746532",
"+  c #644D44",
"@  c #675045",
"#  c #6C5345",
"$  c #6C5549",
"%  c #715646",
"&  c #755947",
"*  c #755A4B",
"=  c #7A5D4A",
"-  c #70574B",
";  c #735C52",
":  c #7A5E50",
">  c #7F604C",
",  c #7E6252",
"<  c #776054",
"1  c #7A6561",
"2  c #88712A",
"3  c #84634C",
"4  c #89664C",
"5  c #8C694E",
"6  c #906D4A",
"7  c #9F7A47",
"8  c #947249",
"9  c #987549",
"0  c #836553",
"q  c #876956",
"w  c #8C6A53",
"e  c #8C6C59",
"r  c #886751",
"t  c #916E55",
"y  c #916F5B",
"u  c #947057",
"i  c #94725C",
"p  c #9A765E",
"a  c #9E795F",
"s  c #836D69",
"d  c #8B7263",
"f  c #957462",
"g  c #9A7760",
"h  c #977865",
"j  c #9C7A63",
"k  c #9A7569",
"l  c #977A6B",
"z  c #9C7B6D",
"x  c #927668",
"c  c #8C6B79",
"v  c #9B7B71",
"b  c #93747D",
"n  c #9A7F7E",
"m  c #8B7974",
"M  c #A37D64",
"N  c #A37E79",
"B  c #A27C77",
"V  c #DBA30A",
"C  c #D8A110",
"Z  c #F2B200",
"A  c #F5BA0D",
"S  c #E5AE17",
"D  c #F7BC13",
"F  c #F8BE19",
"G  c #DEAF35",
"H  c #DEB036",
"J  c #ECBC34",
"K  c #EDBD39",
"L  c #F9C119",
"P  c #F9C533",
"I  c #AE865E",
"U  c #B38B5B",
"Y  c #BA9157",
"T  c #9E816E",
"R  c #9D8173",
"E  c #96837C",
"W  c #9E827B",
"Q  c #A98261",
"!  c #A4816A",
"~  c #A68062",
"^  c #A28677",
"/  c #A2847C",
"(  c #A4897D",
")  c #AF8F79",
"_  c #AB8871",
"`  c #B0907D",
"'  c #FBD15C",
"]  c #FFD664",
"[  c #916F84",
"{  c #977980",
"}  c #997C81",
"|  c #97748D",
" . c #997787",
".. c #927D99",
"X. c #977995",
"o. c #9E8283",
"O. c #9A8D8D",
"+. c #9B8983",
"@. c #9B9293",
"#. c #9C969B",
"$. c #94989B",
"%. c #9A999F",
"&. c #A18684",
"*. c #A68C83",
"=. c #A88E85",
"-. c #A4848C",
";. c #A68D8A",
":. c #A88985",
">. c #B18D8F",
",. c #AA9186",
"<. c #A7928C",
"1. c #B4978C",
"2. c #A88C98",
"3. c #B48D93",
"4. c #A99E9C",
"5. c #B29695",
"6. c #BB939D",
"7. c #B99E98",
"8. c #BBA094",
"9. c #9087A7",
"0. c #968AA7",
"q. c #9992AD",
"w. c #9B9BA2",
"e. c #A783A5",
"r. c #A39FA9",
"t. c #A392A2",
"y. c #BB9AA6",
"u. c #B38DBA",
"i. c #A29DB2",
"p. c #B894BD",
"a. c #9EA1A6",
"s. c #A1A1AB",
"d. c #B6A2A6",
"f. c #A5A1B2",
"g. c #AAA4B1",
"h. c #AAAAB3",
"j. c #B1A6B6",
"k. c #BAABBE",
"l. c #B5A9B0",
"z. c #C49CAC",
"x. c #C89EB1",
"c. c #C3A6AC",
"v. c #D1A6BF",
"b. c #BB94C5",
"n. c #BEADC3",
"m. c #C19ACD",
"M. c #C59CD2",
"N. c #C3AFC7",
"B. c #CDACCF",
"V. c #D6ABC5",
"C. c #DAAECB",
"Z. c #C6B1CA",
"A. c #CAB2CD",
"S. c #D7B1C6",
"D. c #C6A1D9",
"F. c #CAA5DB",
"G. c #CBA4D7",
"H. c #DEB2D1",
"J. c #DABBDC",
"K. c #E2B4D6",
"L. c #E5B7DA",
"P. c #E7BADE",
"I. c #D1A7E3",
"U. c #D4ABE5",
"Y. c #D7B0E7",
"T. c #D9B1E7",
"R. c #DABAE5",
"E. c #DBB4E9",
"W. c #DFB8EB",
"Q. c #E0BEE2",
"!. c #EBBDE4",
"~. c #E2BDEE",
"^. c #E7C0DF",
"/. c #E5C1EE",
"(. c #E9C7EB",
"). c #F2C3ED",
"_. c #E6C2F0",
"`. c #E9C5F2",
"'. c #EECAF4",
"]. c #F5C7F3",
"[. c #F2CCF6",
"{. c #F9C8F6",
"}. c #F5CDF9",
"|. c #FFCEFF",
" X c #EED0F2",
".X c #F2D1F6",
"XX c #F5D1F9",
"oX c #FDD1FE",
/* pixels */
"|.|.|.|.|.|.|.|.|.|.|.|.|.|.|.|.|.|.|.|.|.|.|.|.|.|.|.|.|.|.|.|.|.|.|.|.|.|.|.|.|.|.|.|.|.|.|.|.|.|.|.|.oX}.}.oXoX|.|.|.|.}.}.|.|.|.|.|.|.|.|.|.|.|.|.|.|.|.|.|.",
"|.|.|.|.|.|.|.|.|.|.|.|.|.|.|.|.|.|.|.|.|.|.|.|.|.|.|.|.|.|.|.|.|.|.|.|.|.|.|.|.|.|.|.|.|.|.|.|.|.|.|.|.XX~.~.}.|.|.|.|.oXoX[.}.oX|.|.|.|.|.|.|.|.|.|.|.|.|.|.|.",
"|.|.|.|.oX}.}.oX|.|.|.|.|.|.|.|.|.|.|.|.|.|.|.|.|.|.|.|.|.|.|.|.|.|.|.|.|.|.|.|.|.|.|.|.|.|.|.|.|.|.|.|.}.`._.oX|.|.|.|.|.XX`.}.oX|.|.|.|.|.|.oX}.oX|.|.|.|.|.|.",
"|.|.|.|.oX[.}.oX|.|.|.|.|.|.|.|.|.|.|.|.|.|.|.|.|.|.|.|.|.|.|.|.|.|.|.|.|.|.|.|.|.|.|.|.|.|.|.|.|.|.|.|.oX}.[.oX|.|.|.|.oX}._.[.oX|.|.|.|.|.oX}.[.oX|.|.|.|.|.|.",
"|.|.|.|.oX`.'.oXoX|.|.|.|.|.|.|.|.|.|.|.|.|.|.|.oX}.oX|.|.|.|.|.|.|.|.|.|.|.|.|.|.|.|.|.|.|.|.|.|.|.|.|.|.|.oXoX|.|.|.|.oX[.~.'.oXoX|.|.|.oXoX.X~.oXoX|.|.|.|.|.",
"|.|.|.oXXXE.W..XoX|.|.|.|.|.|.|.|.|.|.|.|.|.|.oX}.[.oXoX|.|.|.|.|.|.|.|.|.|.|.|.|.|.|.|.|.|.|.|.|.|.|.|.|.|.oXoX|.|.|.|.oX[.T.`.oXoX|.|.oXoXoX/.E.'.oXoX|.|.|.|.",
"|.|.oX.X/.U.U.~.XXoX|.|.|.|.|.|.|.|.|.|.|.|.oXoX[.~.XXoX|.|.|.|.|.|.|.|.|.|.|.|.|.|.|.|.|.|.|.|.|.|.|.|.|.oX}.oXoX|.|.|.oX`.U.~.oX|.|.|.oXoX`.Y.U.E..XoXoX|.|.|.",
"|.|.}.~.U.I.I.Y.~.}.|.|.|.|.|.|.|.|.|.|.|.|.|.[.E.U.~.}.oX|.|.|.|.|.|.|.|.|.|.|.|.|.|.|.|.|.|.|.|.|.|.|.oX}.W.'.oX|.oXoXoX_.I.W.XXoX|.|.oX_.Y.I.I.I.E.[.|.|.|.|.",
"|.oXoXoX'.U.Y.'.oXoX|.|.|.|.|.|.|.|.|.|.|.|.oX'.W.U.W.}.|.|.|.|.|.|.|.|.|.|.|.|.|.|.|.|.|.|.|.|.|.|.|.|.oX`.T.~.XXoX|.oXXXW.I.T. XoXoX|.oXoX XE.U./.oXoX|.|.|.|.",
"|.|.|.oXoX~.~.XXoX|.|.|.|.|.|.|.|.|.|.|.|.|.oXoX'.~..XoX|.|.|.|.|.|.|.|.|.|.|.|.|.|.|.|.|.|.|.|.|.|.|.oXoX[.W.`.oX|.oXoX[.T.I.U.`.oX|.|.|.oXoX`.W..XoX|.|.|.|.|.",
"|.|.|.|.oX`.[.oXoX|.|.|.|.|.|.|.}.|.|.|.|.|.|.oXXX'.oX|.|.|.|.|.|.|.|.|.|.|.|.|.|.|.|.|.|.|.|.|.|.|.|.|.oXoX`.oXoX|.|.oX`.U.I.I.~.oXoXoX|.|.oXoX`.XX|.|.|.|.|.|.",
"|.|.|.oXoX}.}.oX|.oXoX|.|.|.|.oX[.oX|.|.|.|.|.|.oX}.|.|.|.|.|.|.|.|.|.|.!.!.L.L.L.!.].|.|.|.|.|.|.|.|.|.|.}.}.oX|.|.oXXXE.I.I.I.T..XoXoX|.|.oX}.[.oX|.|.|.|.|.|.",
"|.|.|.|.oX}.|.oXoX[.}.oX|.|.|.oX'.oX|.|.|.|.|.|.|.|.|.|.|.|.|.!.v.3.k r 4 4 4 4 4 4 4 4 B 6.V.].|.|.|.|.|.|.|.|.oXoXoX`.U.I.I.I.U./.XXoX|.|.|.|.}.|.|.|.|.|.|.|.",
"|.|.|.|.|.|.|.oX}.~.~.XXoX|.|.XX`.XXoX|.|.|.|.|.|.|.|.|.].x.z 4 4 4 4 4 4 4 4 4 4 4 4 4 4 4 4 4 / V.{.|.|.|.|.|.oXoX.XE.I.I.I.I.I.Y.`.oXoX|.|.oXoX|.|.|.|.|.|.|.",
"|.|.|.|.|.|.|.oX'.E.T.'.oX|.oXXXW.'.|.|.|.|.|.|.|.|.(.3.4 4 4 4 4 4 4 4 4 4 4 4 4 4 4 4 4 4 4 4 4 4 y z.[.|.oXoXoXXXW.I.I.I.I.I.I.I.E.'.oXoX|.|.|.|.|.|.|.|.|.|.",
"|.|.|.|.|.|.|.oXoX`.`.oXoXoXoX[.Y.`.oX|.|.|.|.|.].6.4 4 4 4 4 4 4 4 3 3 = & % % % % = 3 4 4 4 4 4 4 4 4 u V.oXoX'.W.U.I.I.I.I.I.I.I.I.Y.`.oXoXoX|.|.|.|.|.|.|.|.",
"|.|.|.|.|.|.|.|.oX}.oXoX|.|.oX(.U.W.oXoXoX|.|.H.f 4 4 4 4 4 4 3 % @ $ , q i i i p e q = @ # = 4 4 r t y j ( d.E.T.U.I.I.I.I.I.I.I.I.I.I.U.W.'..XoXoXoXoX|.|.|.|.",
"|.|.|.|.|.|.|.|.|.|.}.oX|.oXXXW.U.U..XoXoX|.z.4 4 4 4 4 4 = @ * y M M M M M M M M M M M M h q @ # r h / +.} b [ m.I.I.I.I.I.I.I.I.I.I.I.I.U.Y.W.`.'.}.oX|.|.|.|.",
"|.|.|.|.|.|.|.|.|.|.|.oXoXoX`.Y.U.I.~..XoX3.4 4 4 4 4 3 @ : g M M M M M M M M M M M M M M M M M y ; s &.{ c c c c b.I.I.I.I.I.I.I.I.I.I.U.I.I.U.E.`.}.|.|.|.|.|.",
"|.|.|.|.|.|.|.|.|.|.oXoXoX'.E.I.I.I.U._.c.h w 4 4 4 % $ p M M M M M M M M M M M M M M M M M M M M M x s W ;.{ b c c b.I.I.I.I.I.I.I.I.I.I.U.W.'..X}.oXoX|.|.|.|.",
"|.|.|.|.|.|.|.|.|.oXoX[._.Y.U.I.I.I.I.e.n ;.R f w @ , M M M M M M M M M M M M M M M M M M M M M M M M M ; d ( ;.} c c m.I.I.I.I.I.I.I.U.~.'.XXoXoXoX|.|.|.|.|.|.",
"|.|.|.|.|.|.|.|.oX}.`.E.U.I.I.I.I.I.u.c c b o.z ; e M M M M M M M p w 4 > M M M M w 3 3 4 p M M M M M M j ; , l :.&.c [ D.I.I.I.I.I.Y./.XXoXoXoX|.|.|.|.|.|.|.|.",
"|.|.|.|.|.|.|.|.|.|..X`.E.U.I.I.I.M.c c b o./ 1 f M M M M M M u 4 4 4 4 & M M M M t 4 4 4 4 3 u M M M M M M - = u ( &.b X.I.I.I.I.U./.oXoX|.|.|.|.|.|.|.|.|.|.|.",
"|.|.|.|.|.|.|.|.oXoXoXoXXX_.Y.I.I.X.c o.,.T < d M M M M M a 4 4 4 4 4 4 & M M M M w 4 4 4 4 4 4 3 g M M M M M @ 3 u =.} [ b.I.I.I.E..XoX|.|.|.|.|.|.|.|.|.|.|.|.",
"|.|.|.|.|.|.|.|.|.|.|.|.oXoX/.U.p.c n *.f > * M M M M ~ t 4 4 4 4 4 4 4 & M M M M t 4 4 4 4 4 4 4 3 y M M M M h + 4 h ,.b | I.I.U.`.oXoXoX|.|.|.|.|.|.|.|.|.|.|.",
"|.|.|.|.|.|.|.|.|.|.|.|.|.oX.XE.| c ;.h r @ M M M M M e 4 4 4 4 4 4 4 4 & M M M M t 4 4 4 4 4 4 4 4 3 w M M M M q # w ( } c b.I.E..XoXoX|.|.|.|.|.|.|.|.|.|.|.|.",
"|.|.|.|.|.|.oX|.|.|.|.|.oXoXoXB.c b =.t # e M M M M u 4 4 4 4 4 4 4 4 4 = M M M M t 4 4 4 4 4 4 4 4 4 3 y M M M M $ 3 z o.c X.I./.oXoX|.|.|.|.|.|.|.|.|.|.|.|.|.",
"|.|.|.|.|.oXXXoXoX|.|.|.oXoXoXy.b n ^ 3 $ M M M M p 4 4 4 4 4 4 4 4 4 4 & j M M M t 4 4 4 4 4 4 4 4 4 4 3 a M M M y # i ;.b c G.`.oX|.|.|.|.|.|.|.|.|.|.|.|.|.|.",
"|.|.|.|.|.[.E.'.oX|.|.|.|.|.].=.b :.h - y ~ M M M 4 4 4 4 4 4 4 4 4 4 4 = j M M M t 4 4 4 4 4 4 4 4 4 4 4 = M M M M $ w ( n c u..XoX|.|.|.|.|.|.|.|.|.|.|.|.|.|.",
"|.|.|.|.|.[.E.'.|.|.|.|.|.|.C./ } ( y $ ~ j M M t 4 4 4 4 4 4 4 4 4 4 4 = g M M M u 4 4 4 4 4 4 4 4 4 4 4 4 q M M M q * ^ o.c 2.oXoX|.|.|.|.|.|.|.|.|.|.|.|.|.|.",
"|.|.|.|.|.oX[.oXoX|.|.|.|.|.y.z o.R 0 , M M M j 4 4 4 4 4 4 4 4 4 4 4 4 = g M M M u 4 4 4 4 4 4 4 4 4 4 4 4 = M M M M @ l &.c o.}.|.|.|.|.|.|.|.|.|.|.|.|.|.|.|.",
"|.|.|.|.|.|.oX|.|.|.|.|.|.|.z f v h - p M M M u 4 4 4 4 4 4 4 4 4 4 4 4 = a M M M u 4 4 4 4 4 4 4 4 4 4 4 4 3 e M M M - i ;.b &.P.|.|.|.|.|.|.|.|.|.|.|.|.|.|.|.",
"|.|.|.|.|.|.|.|.|.|.|.|.|.{.w y f y @ M M M M 4 4 4 4 4 4 4 4 4 4 4 4 4 = a M M M u 5 4 4 4 4 4 4 4 4 4 4 4 4 = M M M 0 0 :.} ;.V.|.|.|.|.|.|.|.|.|.|.|.|.|.|.|.",
"|.|.|.|.|.|.|.|.|.|.|.|.|.).4 4 w r ; M M M g 4 4 4 4 4 4 4 4 4 4 4 4 4 = a M M M u 5 4 4 4 4 4 4 4 4 4 4 4 4 = M M M i ; / o.W z.|.|.|.|.|.|.|.|.|.|.|.|.|.|.|.",
"|.|.|.|.|.|.|.|.|.|.|.|.|.K.4 4 5 = 0 M M M p 4 4 4 4 4 4 4 4 4 4 4 4 4 = p M M M u 4 4 4 4 4 4 4 4 4 4 4 4 4 3 y M M M $ R o.W 6.|.|.|.|.|.|.|.|.|.|.|.|.|.|.|.",
"|.|.|.|.|.|.|.|.|.|.|.|.|.H.4 4 4 & q M M M w 4 4 4 4 4 4 4 4 4 4 4 4 4 = u M M M p 4 4 4 4 4 4 4 4 4 4 4 4 4 4 0 M M M $ l R T >.|.|.|.|.|.|.|.|.|.|.|.|.|.|.|.",
"|.|.|.|.|.|.|.|.|.|.|.|.|.C.4 4 4 % y M M M r 4 4 4 4 4 4 4 4 4 4 4 4 4 3 i M M M p 4 4 4 4 4 4 4 4 4 4 4 9 7 7 8 U Y M - f l x :.|.|.|.|.|.|.|.|.|.|.|.|.|.|.|.",
"|.|.|.|.|.|.|.|.|.|.|.|.|.V.4 4 4 % i M M M 4 4 4 4 4 4 4 4 4 4 4 4 4 4 3 y M M M i 4 4 4 4 4 4 4 4 4 4 7 F D P P D L ~ - w i w N |.|.|.|.|.|.|.|.|.|.|.|.|.|.|.",
"|.|.|.|.|.|.|.|.|.|.|.|.|.V.4 4 4 # g M M M r = = = = * : = = = = : = : = g M M M M 0 : 3 0 0 0 4 q q q 7 F ' ] ] ' F ~ * 4 w 5 B |.|.|.|.|.|.oXoX|.|.|.|.|.|.|.",
"|.|.|.|.|.|.|.|.|.|.|.|.|.V.4 4 4 # g M M M M M M M M M M M M M M M M M M M M M M M M M M M M M M M M M U K ] ] ] ] P Q * 3 5 3 z |.|.|.|.|.oXXX[.oXoX|.|.|.|.|.",
"|.|.|.|.|.|.|.|.|.|.|.|.|.C.4 4 4 # g M M M M M M M M M M M M M M M M M M M M M M M M M M M M M M M M M Q K ] ] ] ] J I : 3 4 4 k |.|.|.|.|.oX~.U.[.oX|.}.|.|.|.",
"|.|.|.|.|.|.|.|.|.|.|.|.|.H.4 4 4 % g M M M M M M M M M M M M M M M M M M M M M M M M M M M M M M M M M I S ] ] ] ' S I : > 4 4 k |.|.|.|.|.oX'._.oXoX}.~.|.|.|.",
"|.|.|.|.|.|.|.|.|.|.|.|.|.H.4 4 4 % p M M M M M M M M M M M M M M M M M M M M M M M M M M M M M a M M M I A V H H C A I = 3 4 4 k |.|.|.|.|.|.|.oXoXoXoX{.oX|.|.",
"|.|.|.|.|.|.|.|.|.|.|.|.|.H.4 4 4 # g M M M w r 4 r 4 4 r 3 4 3 4 4 r 4 3 p M M M M 4 4 4 4 4 4 4 4 4 4 8 D Z V V Z A I : > 4 4 f |.|.|.|.|.|.|.|.|.|.|.oX|.|.|.",
"|.|.|.|.|.|.|.|.|.|.|.|.|.K.4 4 4 % i M M M 4 4 4 4 4 4 4 4 4 4 4 4 4 4 3 e M M M a 4 4 4 4 4 4 4 4 4 4 6 D Z .   Z A U , > 4 4 y |.|.|.|.|.|.|.|.|.|.|.|.|.|.|.",
"|.|.|.|.|.|.|.|.|.|.|.|.|.L.4 4 4 % i M M M 4 4 4 4 4 4 4 4 4 4 4 4 4 4 3 e M M M p 4 4 4 4 4 4 4 4 4 4 6 D Z 2 O Z A U , > 4 4 y |.|.|.|.|.|.|.|.|.|.|.|.|.|.|.",
"|.|.|.|.|.|.|.|.|.|.|.|.|.L.4 4 4 % f M M M 4 4 4 4 4 4 4 4 4 4 4 4 4 4 3 e M M M a 4 4 4 4 4 4 4 4 4 4 8 D Z o   Z A U > 3 4 4 y |.|.|.|.|.|.|.|.|.|.|.|.|.|.|.",
"|.|.|.|.|.|.|.|.|.|.|.|.|.L.4 4 4 % i M M M 4 4 4 4 4 4 4 4 4 4 4 4 4 4 3 q M M M a 4 4 4 4 4 4 4 4 4 4 5 D Z 2 o Z A U , = 4 4 w |.|.|.|.|.|.|.|.|.|.|.|.|.|.|.",
"|.|.|.|.|.|.|.|.|.|.|.|.|.P.4 4 4 % y M M M 4 4 4 4 4 4 4 4 4 4 4 4 4 4 3 q M M M a 4 4 4 4 4 4 4 4 4 4 4 L A A A A F U q = 4 4 4 |.|.|.|.|.|.|.|.|.|.|.|.|.|.|.",
"|.|.|.|.|.|.|.|.|.|.|.|.|.!.4 4 4 & y M M M 4 4 4 4 4 4 4 4 4 4 4 4 4 4 4 q M M M a 4 4 4 4 4 4 4 4 4 4 4 7 7 7 2 I I M 0 3 4 4 4 |.|.|.|.|.|.|.|.|.|.|.|.|.|.|.",
"|.|.|.|.|.|.|.|.|.|.|.|.|.!.4 4 4 & y M M M r 4 4 4 4 4 4 4 4 4 4 4 4 4 4 q M M M a 4 4 4 4 4 4 4 4 4 4 4 4 4 4 : M M M 0 = 4 4 4 |.|.|.|.|.|.|.|.|.|.|.|.|.|.|.",
"|.|.|.|.|.|.|.|.|.|.|.|.|.!.4 4 4 & y M M M r 4 4 4 4 4 4 4 4 4 4 4 4 4 4 0 M M M a 4 4 4 4 4 4 4 4 4 4 4 4 4 4 * M M M 0 = 4 4 4 |.|.|.|.|.|.|.|.|.|.|.|.|.|.|.",
"|.|.|.|.|.|.|.|.|.|.|.|.|.!.4 4 4 % y M M M 4 4 4 4 4 4 4 4 4 4 4 4 4 4 4 0 M M M a 4 4 4 4 4 4 4 4 4 4 4 4 4 4 % M M M q = 4 4 4 {.|.|.|.|.|.|.|.|.|.|.|.|.|.|.",
"|.|.|.|.|.|.|.|.|.|.|.|.|.).4 4 4 & w M M M r 4 4 4 4 4 4 4 4 4 4 4 4 4 4 0 M M M M 4 4 4 4 4 4 4 4 4 4 4 4 4 4 = g M M q = 4 4 4 {.|.|.|.|.|.|.|.|.|.|.|.|.|.|.",
"|.|.|.|.|.|.}.}.|.|.|.|.|.).4 4 4 = e M M M 4 4 4 4 4 4 4 4 4 4 4 4 4 4 4 0 M M M a 4 4 4 4 4 4 4 4 4 4 4 4 4 4 = M M M r = 4 4 4 {.|.|.|.|.|.|.|.|.|.|.|.|.|.|.",
"|.|.|.|.|.|.}.`.oXoX|.|.|.).4 4 4 & e M M M t 4 4 4 4 4 4 4 4 4 4 4 4 4 4 0 M M M M 4 4 4 4 4 4 4 4 4 4 4 4 4 4 = a M M q = 4 4 4 {.|.|.|.|.|.|.|.|.|.|.|.|.|.|.",
"|.|.|.|.oXoX'.W..XoXoX|.|.).4 4 4 % w M M M 4 4 4 4 4 4 4 4 4 4 4 4 4 4 4 3 M M M a 4 4 4 4 4 4 4 4 4 4 4 4 4 4 = i M M t = 4 4 4 ).|.|.|.|.oX|.|.|.|.|.|.|.|.|.",
"|.|.|.|.oX[.Y.U.~.XXoX|.|.{.4 4 4 = q M M M r 4 4 w w w 4 4 4 4 4 4 4 4 4 3 M M M M 4 4 4 4 4 4 4 4 4 4 4 4 4 4 = a M M e & 4 4 4 ).|.|.|.|.}.}.|.|.|.|.|.|.|.|.",
"|.|.|.oX'.E.U.I.U.~.[.oX|.{.4 4 4 = q M M M r 4 4 w f u 4 4 4 4 4 4 4 4 r 0 M M M M 4 4 4 4 4 4 4 4 4 4 4 4 4 4 = a M M w = 4 4 4 ).|.|.|.}._.oX|.|.|.|.|.|.|.|.",
"|.|.|.oXXX`.T.I.W.[.oX}.|.{.4 4 4 = q M M M w 4 5 f v h w 4 4 3 4 4 4 4 4 : M M M M 4 4 4 4 4 4 4 4 4 4 4 4 4 4 = i M M e % 4 4 4 ).|.|.|.oX}.|.|.|.|.|.|.|.|.|.",
"|.|.|.|.oXoX/.T.'.oXoX|.|.{.4 4 4 = r M M M w 4 r l W R q 3 3 3 3 = = = = : M M M M 0 = = & = = = = * = = = = * * g M M y % 4 4 4 !.|.|.|.|.|.|.|.|.|.|.|.|.|.|.",
"|.|.|.|.|.oX.X/.oX|.|.|.|.|.4 4 4 = q M M M M p h ,.o.5.! a p j g g M M M M M M M M M M M M M M M M M M M M M M M M M M y & 4 4 4 !.|.|.|.|.|.|.|.|.|.|.|.|.|.|.",
"|.|.|.|.|.oX}.[.oXoX|.|.|.|.4 4 4 = 0 M M M M M _ 7.-.5.` M M M M M M M M M M M M M M M M M M M M M M M M M M M M M M M y & 4 4 4 !.|.|.|.|.|.|.|.|.|.|.|.|.|.|.",
"|.|.|.|.|.|.|.}.oXoX|.|.|.|.4 4 4 = 0 M M M M M ,.5. .-.1.M M M M M M M M M M M M M M M M M M M M M M M M M M M M M M M y & 4 4 4 !.|.|.|.|.|.|.|.|.|.|.|.|.|.|.",
"|.|.|.|.|.|.|.|.|.|.|.|.|.|.4 4 4 = 0 M M M M _ 8.O. . .7.) M M M M M a M M j M M ~ M M M M M M M M M M M M M M M M M M i * w r w H.[.].|.|.|.|.|.|.|.|.|.|.|.|.",
"|.|.|.|.|.|.|.|.|.|.|.(.Q.Q.;.;.2.O.m n E +.<.d.t.......0.l.4.<.@.@.O.@.@.@.@.@.@.#.@.#.#.%.#.%.#.w.w.#.%.%.%.%.$.$.$.$.$.$.$.$.$.$.$.r.|.|.|.|.|.|.|.|.|.|.|.|.",
"|.|.|.|.|.|.|.|.|.|.|.N.$.$.$.$.$.$.$.$.a.h.h.q.9.9.9.9.9.q.f.h.a.%.$.$.$.$.$.$.$.$.$.$.$.$.$.$.$.$.$.$.$.$.$.$.$.$.$.$.$.$.$.$.$.$.$.a.|.|.|.|.|.|.|.|.|.|.|.|.",
"|.|.|.|.|.|.|.|.|.|.|.Z.$.$.$.$.$.$.$.$.a.f.q.9.9.9.9.9.9.9.0.f.s.%.$.$.$.$.$.$.$.w.w.w.w.r.r.r.r.g.g.g.g.j.j.j.j.k.k.n.k.n.n.n.n.Z.Z.Z.|.|.|.|.|.|.|.|.|.|.|.|.",
"|.|.|.|.|.|.|.|.|.|.|./.J.J.J.J.Q.Q.Q.Q.(.(.(.R.F.D.D.D.F.R. X.X}.{.}.{.{.|.|.|.|.|.|.|.|.|.|.|.|.|.|.|.|.|.|.|.oXoX}.oXoX|.|.|.|.|.|.|.|.|.|.|.|.|.|.|.|.|.|.|.",
"|.|.|.|.|.|.|.|.|.|.|.|.|.|.|.|.|.|.|.|.|.|.oXoX'.U.I.U.~.oXoXoX|.|.|.|.|.|.|.|.|.|.|.|.|.|.|.|.|.|.|.|.|.|.|.|.oXoX`.oX|.|.|.|.|.|.|.|.|.|.|.|.|.|.|.|.|.|.|.|.",
"|.|.|.|.|.|.|.|.|.|.|.|.|.|.|.|.|.|.|.|.|.|.|.oXXX/.I.E.XXoXoX|.|.|.|.|.|.|.|.|.|.|.|.|.|.|.|.|.|.|.|.|.|.|.|.|.oXXXW..XoX|.|.|.|.|.|.|.|.|.|.|.|.|.oX|.|.|.|.|.",
"|.|.|.|.|.|.|.|.|.|.|.|.|.|.|.|.|.|.|.|.|.|.|.|.oX'.U./.oX|.|.|.|.|.|.|.|.|.|.|.|.|.|.|.|.|.|.|.|.|.|.|.|.|.|.|.oX'.U.`.oXoX|.|.|.|.|.|.|.|.|.|.oX}.].}.|.|.|.|.",
"|.|.|.|.|.|.|.|.|.|.|.|.|.|.|.|.|.|.|.|.|.|.|.|.oX.XT.'.oX|.|.|.|.|.|.|.|.|.|.|.|.|.oXoX|.|.|.|.|.|.|.|.|.|.|.oX[.E.I.Y.`.XXoX|.|.|.|.|.|.|.|.|.|.|.].}.oX|.|.|.",
"|.|.|.|.|.|.oXoXoXoX|.|.|.|.|.|.|.|.|.|.|.|.|.|.oXoX~.}.oX|.|.|.|.|.|.|.|.|.|.|.oXoX[.XX|.|.|.|.|.|.|.|.|.|.oX`.W.I.I.I.T.`.oX|.|.|.|.|.|.|.|.|.|.|.}.|.|.|.|.|.",
"|.|.|.|.|.|.oX`./.oXoX|.|.|.|.|.|.|.|.|.|.|.|.|.oXoX`.}.oX|.|.|.|.|.|.|.|.|.|.|.|.`.U.`.oX|.|.|.|.|.|.|.|.|.|.oX.X_.I.W..XoX|.|.|.|.|.|.|.|.|.|.|.|.|.|.|.|.|.|.",
"|.|.|.|.|.|.oX_.Y.[.|.|.|.|.|.|.|.|.|.|.|.|.|.|.oXoX[.}.oX|.|.|.|.|.|.|.|.|.|.|.oXXX_.[.|.|.|.|.|.|.|.|.|.|.|.|.oX.XY.'.oXoX|.|.|.|.|.|.|.|.|.|.|.|.|.|.|.|.|.|.",
"|.|.|.|.|.|.}.}.'.oX|.|.|.|.|.|.|.|.|.|.|.|.|.|.|.|.}.|.|.|.|.|.|.|.|.|.|.|.|.|.|.oXoXoX|.|.|.|.|.|.|.|.|.|.|.|.oXoX~.oXoX|.|.|.|.|.|.|.|.|.|.|.|.|.|.|.|.|.|.|.",
"|.|.|.|.|.|.|.|.oXoX|.|.|.|.|.|.|.|.|.|.|.|.|.|.|.|.|.|.|.|.|.|.|.|.|.|.|.|.|.|.|.|.|.|.|.|.|.|.|.|.|.|.|.|.|.|.oXoX`.oX|.|.|.|.|.|.|.|.|.|.|.|.|.|.|.|.|.|.|.|.",
"|.|.|.|.|.|.|.|.|.|.|.|.|.|.|.|.|.|.|.|.|.|.|.|.|.|.|.|.|.|.|.|.|.|.|.|.|.|.|.|.|.|.|.|.|.|.|.|.|.|.|.|.|.|.|.|.oXoX}.oXoX|.|.|.|.|.|.|.|.|.|.|.|.|.|.|.|.|.|.|.",
"|.|.|.|.|.|.|.|.|.|.|.|.|.|.|.|.|.|.|.|.|.|.|.|.|.|.|.|.|.|.|.|.|.|.|.|.|.|.|.|.|.|.|.|.|.|.|.|.|.|.|.|.|.|.|.|.|.|.|.|.|.|.|.|.|.|.|.|.|.|.|.|.|.|.|.|.|.|.|.|."
};
