/* XPM */
static char *object401675337815[] = {
/* columns rows colors chars-per-pixel */
"80 80 188 2 ",
"   c #683C3F",
".  c #6F413E",
"X  c #74453C",
"o  c #794A36",
"O  c #4E264D",
"+  c #5F3249",
"@  c #4C205C",
"#  c #552954",
"$  c #582D4A",
"%  c #68384B",
"&  c #4C1E69",
"*  c #4E236B",
"=  c #532B6C",
"-  c #5A2960",
";  c #57326D",
":  c #58336E",
">  c #592677",
",  c #5E3774",
"<  c #672E76",
"1  c #6C307D",
"2  c #6F4042",
"3  c #724242",
"4  c #654475",
"5  c #6A4C76",
"6  c #6B4C7B",
"7  c #654779",
"8  c #6D5176",
"9  c #6E5379",
"0  c #73567C",
"q  c #775C7B",
"w  c #785D7C",
"e  c #7E667F",
"r  c #804E3B",
"t  c #835231",
"y  c #8A5634",
"u  c #8E5935",
"i  c #925B37",
"p  c #955D38",
"a  c #985F39",
"s  c #9B613A",
"d  c #A4663D",
"f  c #A7683F",
"g  c #A8693F",
"h  c #975B46",
"j  c #AA6C42",
"k  c #AD7047",
"l  c #AE724B",
"z  c #B1754D",
"x  c #A86857",
"c  c #B37A54",
"v  c #B57E59",
"b  c #B27750",
"n  c #8E4D69",
"m  c #995176",
"M  c #AC6E6A",
"N  c #B37B60",
"B  c #B47B79",
"V  c #B6815E",
"C  c #BB835D",
"Z  c #B88564",
"A  c #BA8869",
"S  c #B78873",
"D  c #C08B66",
"F  c #C28D69",
"G  c #C39272",
"H  c #5E2584",
"J  c #6D2D8D",
"K  c #6F3099",
"L  c #743B98",
"P  c #75568A",
"I  c #7D4C9E",
"U  c #754D89",
"Y  c #843A96",
"T  c #8735BE",
"R  c #9F5097",
"E  c #825698",
"W  c #806780",
"Q  c #856C86",
"!  c #896F89",
"~  c #8A708B",
"^  c #8B6D96",
"/  c #906C9A",
"(  c #927593",
")  c #977A97",
"_  c #9B7D9B",
"`  c #94719C",
"'  c #AE6D92",
"]  c #B27599",
"[  c #B17584",
"{  c #8457A1",
"}  c #A45AA0",
"|  c #9266A5",
" . c #9976A5",
".. c #9665B2",
"X. c #8D65A7",
"o. c #AF70A2",
"O. c #AF6DB0",
"+. c #B374B9",
"@. c #903BC7",
"#. c #8E39C7",
"$. c #9340CB",
"%. c #9959C0",
"&. c #A455D8",
"*. c #AF6AC6",
"=. c #AE69D3",
"-. c #B16CDE",
";. c #B279CD",
":. c #B97BE1",
">. c #9D948E",
",. c #9E809E",
"<. c #BA8487",
"1. c #BA849D",
"2. c #BD8995",
"3. c #BAA89C",
"4. c #998DA2",
"5. c #A384A3",
"6. c #AB8BAB",
"7. c #BF8BA6",
"8. c #BC86AF",
"9. c #AF8AB2",
"0. c #B888B7",
"q. c #B693B6",
"w. c #B995B9",
"e. c #BE99BE",
"r. c #BFBFBF",
"t. c #B4B2B5",
"y. c #B2ADAA",
"u. c #C08DB7",
"i. c #BE91C9",
"p. c #BC86D9",
"a. c #BF88E4",
"s. c #BC80E2",
"d. c #C39EC3",
"f. c #C69EC9",
"g. c #CDA5CD",
"h. c #C7A1C7",
"j. c #C5BFC9",
"k. c #D3ABD3",
"l. c #D9AFD9",
"z. c #DCB2DC",
"x. c #C8ACD7",
"c. c #C48DE5",
"v. c #C592E5",
"b. c #CA9AE7",
"n. c #D29AEA",
"m. c #CBA9E3",
"M. c #D1A7E3",
"N. c #D4ABE5",
"B. c #D4A4EC",
"V. c #D6ABED",
"C. c #DAA9EA",
"Z. c #D3B1E5",
"A. c #D8B0E7",
"S. c #D6BEE5",
"D. c #DAB3E9",
"F. c #DFB9EB",
"G. c #DDA7F0",
"H. c #DEB5F0",
"J. c #E2B7E2",
"K. c #E5B9E5",
"L. c #E2BCED",
"P. c #EBBEEB",
"I. c #E4BCF3",
"U. c #E5B7F2",
"Y. c #CBCBCB",
"T. c #C0C0C0",
"R. c #D2C3DC",
"E. c #D3D2D3",
"W. c #DDDDDD",
"Q. c #DFD8E5",
"!. c #D6C0E4",
"~. c #E4C0EF",
"^. c #EEC1EE",
"/. c #E6C2F1",
"(. c #EAC5F2",
"). c #EDCAF4",
"_. c #EFCDF8",
"`. c #F3C4F3",
"'. c #F2CCF7",
"]. c #F3C5FA",
"[. c #F5CDF9",
"{. c #FFCEFF",
"}. c #F2D1F7",
"|. c #F5D2F9",
" X c #FED2FE",
".X c #FEDCFF",
"XX c #E2E2E2",
"oX c #FFE0FF",
/* pixels */
"{.{.{.{.{.{.{.{.{.{.{.{.{.{.{.{.{.{. X{.{.{.{.{.{.{.{.{.{.{.{.{.{.{.{.{.{.{.{.{.{.{.{.{.{.{.{.{.{.{.{.{.{.{.{.{.{.{.{.{.{.{.{.{.{.{.{.{.{.{.{.{.{.{.{.{.{.{.{.{.",
"{.{.{.{.{.{.{.{.{.{.{.{.{.{.{. X[.[.{.{.{.{.{.{.{.{.{.{.{.{.{.{.{.{.{.{.{.{.{.{.{.{.{.{.{.{.{.{.{.{.{.{.{.{.{.{.{.{.{.{.{.{.{.{.{.{.{.{.{.{.{.{.{.{.{.{.{.{.{.{.",
"{.{.{.{.{.{.{.{.{.{.{.{.{.{.{. X`.[. X{.{.{.{.{.{.{.{.{.{.{.{.{.{.{.{.{.{.{.{.{.{.{.{.{.{.{.{.{.{.{.{.{.{.{.{.{.{.{.{.{.{.{.{.{.{.{.{.{.{.{.{.{.{.{.{.{.{.{.{.{.",
"{.{.{.{.{.{.{.{.{.{.{.{.{.{.{. X/.). X X{.{.{.{.{.{.{.{.{.{.{.{.{.{.{.{.{.{.{.{.{.{.{.{.{.{.{.{.{.{.{.{.{.{.{.{.{.{.{.{.{.{.{.{.{.{.{.{.{.{.{.{.{.{.{.{.{.{.{.{.",
"{.{.{.{.{.{.{.{.{.{.{.{.{.{. X XF.~. X X{.{.{.{.{.{.{.{.{.{.{.{.{.{.{.{.{.{.{.{.{.{.{.{.{.{.{.{.{.{.{.{.{.{.{.{.{.{.{.{.{.{.{.{.{.{.{.{.{.{.{.{.{.{.{.{.{.{.{.{.",
"{.{.{.{.{.{.{.{.{.{.{.{.{.{. X}.Z.A.|. X{.{.{.{.{.{.{.{.{.{.{.{.{.{.{.{.{.{.{.{.{.{.{.{.{.{.{.{.{.{.{.{.{.{.{.{.{.{.{.{.{.{.{.{.{.{.{.{.{.{.{.{.{.{.{.{.{.{.{.{.",
"{.{.{.{.{.{.{.{.{.{.{.{.{. X X~.N.N./. X X{.{.{.{.{.{.{.{.{.{.{.{.{.{.{.{.{.{.{.{.{.{.{.{.{.{.{.{.{.{.{.{.{.{.{.{.{.{.{.{.{.{.{.{.{.{.{.{.{.{.{.{.{.{.{.{.{.{.{.",
"{.{.{.{.{.{.{.{.{.{.{. X X|./.Z.N.M.N.(.|. X{.{.{.{.{.{.{.{.{.{.{.{.{.{.{.{.{.{.{.{.{.{.{.{.{.{.{.{.{.{.{.{.{.{.{.{.{.{.{.{.{.{.{.{.{.{.{.{.{.{.{.{.{.{.{.{.{.{.",
"{.{.{.{.{.{.{.{.{.{.{.[.'.L.N.M.M.M.M.N.L.'.{. X{.{.{.{.{.{.{.{.{.{.{.{.{.{.{.{.{.{.{.{.{.{.{.{.{.{.{.{.{.{.{.{.{.{.{.{.{.{.{.{.{.{.{.{.{.{.{.{.{.{.{.{.{.{.{.{.",
"{.{.{.{.{.{.{.{.{.{. X{.'.L.Z.N.M.M.M.D./.'.[. X{.{.{.{.{.{.{.{.{.{.{.{.{.{.{.{.{.{.{.{.{.{.{.{.{.{.{.{.{.{.{.{.{.{.{.{.{.{.{.{.{.{.{.{.{.{.{.{.{.{.{.{.{.{.{.{.",
"{.{.{.{.{.{.{.{.{.{.{.{. X X).D.N.N.D.}. X X X{.{.{.{.{.{.{.{.{.{.{.{.{.{.{.{.{.{.{.{.{.{.{.{.{.{.{.{.{.{.{.{.{.{.{.{.{.{.{.{.{.{.{.{.{.{.{.{.{.{.{.{.{.{.{.{.{.",
"{.{.{.{.{.{.{.{.{.{.{.{.{. X X(.N.N.). X X{.{.{.{.{.{.{.{.{.{.{.{.{.{.{.{.{.{.{.{.{.{.{.{.{.{.{.{.{.{.{.{.{.{.{.{.{.{.{.{.{.{.{.{.{.{.{.{.{.{.{.{.{.{.{.{.{.{.{.",
"{.{.{.{.{.{.{.{.{.{.{.{.{.{. X|.A.D. X X{.{.{.{.{.{.{.{.{.{.{.{.{.{.{.{.{.{.{.{.{.{.{.{.{.{.{.{.{.{.{.{.{.{.{.{.{.{.{.{.{.{.{.{.{.{.{.{.{.{.{.{.{.{.{.{.{.{.{.{.",
"{.{.{.{.{.{.{.{.{.{.{.{. X{. X XF./. X X{.{.{.{.{.{.{.{.{.{.{.{.{.{.{.{.{.{.{.{.{.{.{.{.{.{.{.{.{.{.{.{.{.{.{.{.{.{.{.{.{.{.{.{.{.{.{.{.{.{.{.{.{.{.{.{.{.{.{.{.",
"{.{.{.{.{.{.{.{.{.{.{.{. X[.|. X/.). X{.{.{.{.{.{.{.{.{.{.{.{.{.{.{.{.{.{.{.{.{.{.{.{.{.{.{.{.{.{.{.{.{.{.{.{.{.{.{.{.{.{.{.{.{.{.{.{.{.{.{.{.{.{.{.{.{.{.{.{.{.",
"{.{.{.{.{.{.{.{.{.{.{.{. X).}. X'.[. X{.{.{.{.{.{.{.{.{. X X{.{.{.{.{.{.{.{.{.{.{.{.{.{.{.{.{.{.{.{.{.{.{.{.{.{.{.{.{.{.{.{.{.{.{.{.{.{.{.{.{.{.{.{.{.{.{.{.{.{.",
"{.{.{.{.{.{.{.{.{.{. X X|.L.~.|.}.[. X{.{.{.{.].[.{. X X.X X X{.{.{.{.{.{.{.{.{.{.{.{.{.{.{.{.{.{.{.{.{.{.{.{.{.[.{.{.{.{.{.{.{.{.{.{.{.{.{.{.{.{.{.{.{.{.{.{.{.",
"{.{.{.{.{.{.{.{.{.{.{.[./.N.Z.~.|. X X{.{.{.{.P.~.L.n.B.U..X.X.X X{.{.{.{.{.{.{.{.{.{.{.{.{.{.{.{.{.{.{.{.{.{. X'.[. X{.{.{.{.{.{.{.{.{.{.{.{.{.{.{.{.{.{.{.{.{.",
"{.{.{.{.{.{.{.{.{.{.{.{.).D.D.). X X{.{.{.{.K.g.;.#.p.m.b.c.}..X X{.{.{.{.{.{.{.{.{.{.{.{.{.{.{.{.{.{.{.{.{.{. X(.'. X{.{.{.{.{.{.{.{.{.{.{.{.{.{.{.{.{.{.{.{.{.",
"{.{.{.{.{.{.{.{.{.{.{. X X/.).|. X{.{.{.{.^.d./ I j.W.Q.XX!.v..X.X X{.{.{.{.{.{.{.{.{.{.{.{.{.{.{.{.{.{.{.{. X.XF.(. X{.{.{.{.{.{.{.{.{.{.{.{.{.{.{.{.{.{.{.{.{.",
"{.{.{.{.{.{.{.{.{.{.{.{. X[.'. X X{.{.{.{.J._ < 4.E.W.W.XXXXZ.H..X X{.{.{.{.{.{.{.{.{.{.{.{.{.{.{.{.{.{.{.{. X|.Z.F. X X{.{.{.{.{.{.{.{.{.{.{.{.{.{.{.{.{.{.{.{.",
"{.{.{.{.{.{.{.{.{.{.{.{. X[.|.{.{.{.{.{.{.K._ > t.W.W.W.W.XX!.V..X X{.{.{.{.{.{.{.{.{.{.{.{.{.{.{.{.{.{.{.{. X(.N.N.}. X{.{.{.{.{.{.{.{.{.{.{.{.{.{.{.{.{.{.{.{.",
"{.{.{.{.{.{.{.{.{.{.{.{.{.{. X{.{.`.`.`.{.].f.K T.W.W.W.W.XX!.m..X X{.{.{.{.{.{.{.{.{.{.{.{.{. X]. X{.{. X X}.A.N.N.D.|. X X X{.{.{.{.{.{.{.{.{.{.{.{.{.{.{.{.{.",
"{.{.{.{.{.{.{.{.{.{.{.{.{.{.{.{.].K.k.p.&.&.$.T E.W.W.W.W.XXm.H..X X{.{.{.{.{.{.{.{.{.{.{.{.{. X'. X X X|.~.A.N.M.M.N.D.).[. X{.{.{.{.{.{.{.{.{.{.{.{.{.{.{.{.{.",
"{.{.{.{.{.{.{.{.{.{.{.{.{.{.{.{.P.d.| ..R.XXXXXXXXW.W.W.W.W.m./..X X{.{.{.{.{.{.{.{.{.{.{.{. X|.L.|. X[.~.Z.N.M.M.M.M.N.D./.|. X{.{.{.{.{.{.{.{.{.{.{.{.{.{.{.{.",
"{.{.{.{.{.{.{.{.{.{.{.{.{.{.{.].k.( J t.E.W.XXXXXXXXW.W.W.XXa.}..X X{.{.{.{.{.{.{.{.{.{.{. X X).D.). X X X|.F.N.M.M.N./. X X X{.{.{.{.{.{.{.{.{.{.{.{.{.{.{.{.{.",
"{.{.{.{.{.{.{.{.{.{.{.{.{.{.{.`.q.5 7 r.W.W.W.W.W.W.W.W.W.XXZ./..X.X{.{.{.{.{.{.{.{.{.{.{.{.).D.N.D.'. X X X|.F.N.N.~. X X{.{.{.{.{.{.{.{.{.{.{.{.{.{.{.{.{.{.{.",
"{.{.{.{.{.{.{.{.{.{.{.{.{.{.{.^.6.4 7 r.W.W.W.W.W.W.W.W.W.W.Q.a..X.X X X X{.{.{.{.{.{.{. X).D.N.M.M.F.). X X.X).N.D.|. X{.{.{.{.{.{.{.{.{.{.{.{.{.{.{.{.{.{.{.{.",
"{.{.{.{.{.{.{.{.{.{.{.{.{.{.{.^.6.9 ; y.E.W.W.W.W.W.W.W.W.E.XXZ.b.|..X X X X X{.{.{.{.{. X X).D.N.F.}. X X{.{. XD.L. X{.{.{.{.{.{.{.{.{.{.{.{.{.{.{.{.{.{.{.{.{.",
"{.{.{.{.{.{.{.{.{.{.{.{.{.{.{.`.h.e = 9 t.Y.E.E.E.Y.Y.E.W.y.3.W.x.s./..X.X X X X X X X{.{. X.X).A.). X X{.{.{. XL.). X{.{.{.{.{.{.{.{.{.{.{.{.{.{.{.{.{.{.{.{.{.",
"{.{.{.{.{.{.{.{.{.{.{.{.{.{.{.{.J.5.w = 7 ^  .X.I L P 4.r.3.d S 3.<.0.b./. X.X X X.X X X X X X|.~.|.{.{.{.{.{. X(.'. X{.{. X{.[. X{.{.{.{.{.{.{.{.{.{.{.{.{.{.{.",
"{.{.{.{.{.{.{.{.{.{.{.{.{.{.{.{.[.k.5.Q 0 U I X. .~ 5 * P >.d f j b Z <.+.=.-.s.v.n.G.U.). X X X). X X{.{.{.{. X'.[. X{.{. X'.). X{.{.{.{.{.{.{.{.{.{.{.{.{.{.{.",
"{.{.{.{.{.{.{.{.{.{.{.{.{.{.{.{.{.[.J.h.w.w.d.g.k.d.) e ; 8 i d j j j l c c v B B ] o.O.*.=.c.H.I. X X X X X{. X{.{.{.{. X|./.F.}. X X{.{.{.{.{.{.{.{.{.{.{.{.{.",
"{.{.{.{.{.{.{.{.{.{.{.{.{.{.{.{.{.{.{.`.P.P.`.[.`.^.k.) q & X s f g g g j j j j k z l l b v S 1.u.:.B.|..X.X X{.{.{.{.{.{./.D.N.F.'.{.{.{.{.{.{.{.{.{.{.{.{.{.{.",
"{.{.{.{.{.{.{.{.{.{.{.{.{. X X X{.{.{.{.{.{.{.{.{.{.`.g.Q 5 O y d g g g d j j j g g g z j j j b v Z 7.:.V..X.X X{.{.{. X X}.F.D.(. X{.{.{.{.{.{.{.{.{.{.{.{.{.{.",
"{.{.{.{.{.{.{.{.{.{.{.{.{. X'. X{.{.{.{.{.{.{.{.{.{.{.^.q.e :   s f g g f d d j g g z C f f j C c k b Z 8.c.|..X X X{.{. X X)./.|. X{.{.{.{.{.{.{.{.{.{.{.{.{.{.",
"{.{.{.{.{.{.{.{.{.{.{.{. X X/.|. X X{.{.{.{.{.{.{.{.{.{.z.( 8 # i g g g f g g g g g g g g g g g j d j z v 1.a._.oX X{. X{.{. X).{.{.{.{.{.{.{.{.{.{.{.{.{.{.{.{.",
"{.{.{.{.{.{.{.{.{.{.{.{. X'.D.~. X[.{.{.{.{.{.{.{.{.{.{.`.6.w @ y g g g f g g g g g g g g g g g j d g b C c 2.a.}.oX X X{.{.[.{.{.{.{.{.{.{.{.{.{.{.{.{.{.{.{.{.",
"{.{.{.{.{.{.{.{.{.{.{. X'.F.N.N./. X{.{.{.{.{.{.{.{.{.{.].h.e & t d g g g g g g g g g g g z C g f f f k z j c 2.c.|..X X{.{. X{.{.{.{.{.{.{.{.{.{.{.{.{.{.{.{.{.",
"{.{.{.{.{.{.{.{.{.{.{.{. X(.Z.F.}. X{.{.{.{.{.{.{.{.{.{.{.g.e = o d g g g g g g g z C g g b F k f f f f f f j v 7.B..X.X X{.{.{.{.{.{.{.{.{.{.{.{.{.{.{.{.{.{.{.",
"{.{.{.{.{.{.{.{.{.{.{.{. X XF.'. X X{.[.{.{.{.{.{.{.{.{.{.k.e : % d g g g g g g g g k g g g g g g g g g g g g C Z 0.H.oX.X X{.{.{.{.{.{.{.{.{.{.{.{.{.{.{.{.{.{.",
"{.{.{.{.{.{.{.{.{.{.{.{.{. X). X{. X X).|.{.{.{.{.{.{.{.{.z.! , % d g g g g g g g g g g g g g g g g c k g g j v l A a.|..X X{.{.{.{.{.{.{.{.{.{.{.{.{.{.{.{.{.{.",
"{.{.{.{.{.{.{.{.{.{.{.{.{. X[. X{. X[./.|. X{.{.{.{.{.{.{.J.( 4 % a g g g g g g g g g g g z g g g g c k g g g g k c 7.H.oX X{.{.{.{.{.{.{.{.{.{.{.{.{.{.{.{.{.{.",
"{.{.{.{.{.{.{.{.{.{.{.{.{.{.{.{.{. X'.F.[. X{.{.{.{.{.{.{.K._ 5 # p g g g g g g g g g g g C z g g g g g g g g g f k A a..X.X X{.{.{.{.{.{.{.{.{.{.{.{.{.{.{.{.{.",
"{.{.{.{.{.{.{.{.{.{.{.{.{.{.{.{. X.X/.N.). X X{.{.{.{.{.{.P.5.8 O i g g g g g g g g g g g g g g g g g g g g g g g z G u./.oX X X{.{.{.{.{.{.{.{.{.{.{.{.{.{.{.{.",
"{.{.{.{.{.{.{.{.{.{.{.{.{.{.{. X X|.D.N.F.}. X{.{.{.{.{.{.`.q.q @ y g g g g g g g g g g g g g g k k g g g g v j g j V 2.B..X X{.{.{.{.{.{.{.{.{.{.{.{.{.{.{.{.{.",
"{.{.{.{.{.{.{.{.{.{.{.{.{.{. X X}.F.N.M.N.L.|. X{. X{.{.{.].d.e & o d g g g g g g g g g g g g g b v g g g z F z g g j S c.oX X X{.{.{.{.{.{.{.{.{.{.{.{.{.{.{.{.",
"{.{.{.{.{.{.{.{.{.{.{.{.{. X}./.A.N.M.M.M.N.D.(.[. X{.{. X{.k.e : % s g g g g g g g g g g g g g g g g g g g k g g g j Z p..X X X{.{.{.{.{.{.{.{.{.{.{.{.{.{.{.{.",
"{.{.{.{.{.{.{.{.{.{.{.{.{. X'./.F.M.M.M.M.N.F./.[. X{.{.{.{.J.( 4 $ i f g g g g g g g g g g g g g g g g k g g g g g g C :. X.X X{.{.{.{.{.{.{.{.{.{.{.{.{.{.{.{.",
"{.{.{.{.{.{.{.{.{.{.{.{.{.{. X X}.L.N.M.N.~.|. X X X{.{.{.{.P.6.q @ t d g g g g g g g g g g g g g g g g D l g g g v z C ;..X X{.{.{.{.{.{.{.{.{.{.{.{.{.{.{.{.{.",
"{.{.{.{.{.{.{.{.{.{.{.{.{.{.{.{. X}.F.N.L.|. X{.{.{.{.{.{.{.].h.m ;   a f g g g g g g g g g g g g g g g g g g g g z k C :..X X X{.{.{.{.{.{.{.{.{.{.{.{.{.{.{.{.",
"{.{.{.{.{.{.{.{.{.{.{.{.{.{.{.{. X X~.N.). X X{.{.{.{.{.{.{.{.J.,.9 O t d g f f g g g g g g g g g g g g g g g g g g k B v..X X{.{.{.{.{.{.{.{.{.{.{.{.{.{.{.{.{.",
"{.{.{.{.{.{.{.{.{.{.{.{.{.{.{.{.{. X'.F.'. X{.{.{.{.{.{.{.{.{.`.w.e ; + i d f f g g g g g g g g g g g g g g g g j j b ] G..X X{.{.{.{.{.{.{.{.{.{.{.{.{.{.{.{.{.",
"{.{.{.{.{.{.{.{.{.{.{.{.{.{.{.{.{. X[.~.|. X{.{.{.{.{.{.{.{.{.{.S.,.q * X a f f g g g g g g g g g g g g g g g g d j c *.[. X X{.{.{.{.{.{.{.{.{.{.{.{.{.{.{.{.{.",
"{.{.{.{.{.{.{.{.{.{.{.{.{.{.{.{.{. X X(. X X{.{.{.{.{.{.{.{.{.{.[.g.Q 5 O o a f g g g g g g g g g g g g g g g g j j ] v. X X{.{.{.{.{.{.{.{.{.{.{.{.{.{.{.{.{.{.",
"{.{.{.{.{.{.{.{.{.{.{.{.{.{.{.{.{.{.[.[.{.{.{.{.{.{.{.{.{.{.{.{.{.(.e.e 4 O X p f g g g g g g g g g g g g g g g j M &.]. X X{.{.{.{.{.{.{.{.{.{.{.{.{.{.{.{.{.{.",
"{.{.{.{.{.{.{.{.{.{.{.{.{.{.{.{.{.{.{.{.{.{.{.{.{.{.{.{.{.{.{.{.{.{.P.q.m 9 O 2 i j d d j d g g f f f f f f j j x } G. X X{.{.{.{.{.{.{.{.{.{.{.{.{.{.{.{.{.{. X",
"{.{.{.{.{.{.{.{.{.{.{.{.{.{.{.{.{.{.{.{.{.{.{.{.{.{.{.{.{.{.{.{.{.{.[.P.t.P 9 * % t p j f f f f f f j f f j j x R n. X X{.{.{.{.{.{.{.{.{.{.{.{.{.{.{.{.{.{.{.].",
"{.{.{.{.{.{.{.{.{.{.{.{.{.{.{.{.{.{.{.{.{.{.{.{.{.{.{.{.{.{.{.{.{. X[. X^.d.( e : # 3 u a d f f j f j f f f m #.n.{. X{.{.{.{.{.{.{.{.{.{.{.{.{.{.{.{.{.{.{.{.{.",
"{.{.{.{.{.{.{.{.{.{.{.{.{.{.{.{.{.{.{.{.{.{.{.{.{.{.{.{.{.{.{.{.{.[.'.{.{.(.k.5.Q 5 = - % r u p a a a h n Y ..C.].{.{. X{.{.{.{.{.{.{.{.{.{.{.{.{.{.{.{.{.{.{.{.",
"{.{.{.{.{.{.{.{.{.{.{.{.{.{.{.{.{.{.{.{.{.{.{.{.{.{.{.{.{.{.{.{. X}.~. X{.{.[.J.d.,.! q 1 > < < 1 1 J L ..i.J.`.{.{. X[.{.{.{.{.{.{.{.{.{.{.{.{.{.{.{.{.{.{.{.{.",
"{.{.{.{.{.{.{.{.{.{.{.{.{.{.{.{.{.{.{.{.{.{.{.{.{.{.{.{.{.{.{. X.X~.F. X X{.{.{.`.J.h.9.4.) ( / / o.9.d.l.P.{.{.{.{. X'.[. X{.{.{.{. X[.{.{.{.{.{.{.{.{.{.{.{.{.",
"{.{.{.{.{.{.{.{.{.{.{.{.{.{.{.{.{.{.{.{.{.{.{.{.{.{.{.{.{.{.{. X}.D.N./.|. X{.{.{.{.`.P.K.l.g.g.k.l.K.P.`.{.{.{.{.{. X(.). X{.{.{.{. X'.[. X{.{.{.{.{.{.{.{.{.{.",
"{.{.{.{.{.{.{.{.{.{.{.{.{.{.{.{.{.{.{.{.{.{.{.{.{.{.{.{.{.{.|.).F.N.N.N./.}.{.{.{.{. X{.{.{.{.].].{.{.{.{.{.{.{.{. X.XL.~. X X{.{.{. X(.'. X{.{.{.{.{.{.{.{.{.{.",
"{.{.{.{.{.{.{.{.{.{.{.{.{.{.{.{.{.{.{.{.{.{.{.{.{.{.{.{.{.{.).F.N.M.M.M.A.(.[. X{.[.{.{.{.{.{.{.{.{.{.{.{.{.{.{. X X).Z.A.(. X X X{.|.~./. X{.{.{.{.{.{.{.{.{.{.",
"{.{.{.{.{.{.{.{.{.{.{.{.{.{.{.{.{.{.{.{.{.{.{.{.{.{.{.{.{.{. X[.(.Z.N.L.}. X{.{. X'. X{.{.{.{.{.{.{.{.{.{.{.{.{.[.(.N.N.N.A./. X{. X XD.F..X X{.{.{.{.{.{.{.{.{.",
"{.{.{.{.{.{.{.{.{.{.{.{.{.{.{.{.{.{.{.{.{.{.{.{.{.{.{.{.{.{.{. X|.L.A.}. X{.{. X X~.|. X{.{.{.{.{.{.{.{.{.{.{.{. X'.L.N.N.L.'. X X X).N.Z.). X{.{.{.{.{.{.{.{.{.",
"{.{.{.{.{.{.{.{.{.{.{.{.{.{.{.{.{.{.{.{.{.{.{.{.{.{.{.{.{.{.{.{. X).L. X X X X X~.Z.~. X X{.{.{.{.{.{.{.{.{.{.{. X X|.D.L.}. X X X'.D.m.M.D.}. X X{.{.{.{.{.{.{.",
"{.{.{.{.{.{.{.{.{.{.{.{.{.{.{.{.{.{.{.{.{.{.{.{.{.{.{.{.{.{.{.{. X[.). X{.{. X(.Z.N.D.).[.{.{.{.{.{.{.{.{.{.{.{.{.{. X/.). X X|.(.A.N.M.M.M.A.(.[. X{.{.{.{.{.{.",
"{.{.{.{.{.{.{.{.{.{.{.{.{.{.{.{.{.{.{.{.{.{.{.{.{.{.{.{.{.{.{.{. X[.]. X{.{. X X(.A.~. X X{.{.{.{.{.{.{.{.{.{.{.{.{. X).'. X[./.Z.M.M.M.M.M.N.A.(.[.{.{.{.{.{.{.",
"{.{.{.{.{.{.{.{.{.{.{.{.{.{.{.{.{.{.{.{.{.{.{.{.{.{.{.{.{.{.{.{.{.{.{. X{.{.{.{. X~.|. X{.{.{.{.{.{.{.{.{.{.{.{.{.{. X'.[. X X X XL.N.N.M.N.~.|. X X{.{.{.{.{.{.",
"{.{.{.{.{.{.{.{.{.{.{.{.{.{.{.{.{.{.{.{.{.{.{.{.{.{.{.{.{.{.{.{.{.{.{.{.{.{.{.{. X'. X{.{.{.{.{.{.{.{.{.{.{.{.{.{.{.{. X{.{.{.{. X|.L.N.N.~..X X{.{.{.{.{.{.{.{.",
"{.{.{.{.{.{.{.{.{.{.{.{.{.{.{.{.{.{.{.{.{.{.{.{.{.{.{.{.{.{.{.{.{.{.{.{.{.{.{.{.{.{.{.{.{.{.{.{.{.{.{.{.{.{.{.{.{.{.{.{.{.{.{.{. X X'.A.A.|. X{.{.{.{.{.{.{.{.{.",
"{.{.{.{.{.{.{.{.{.{.{.{.{.{.{.{.{.{.{.{.{.{.{.{.{.{.{.{.{.{.{.{.{.{.{.{.{.{.{.{.{.{.{.{.{.{.{.{.{.{.{.{.{.{.{.{.{.{.{.{.{.{.{.{. X X XF.L. X X X{.{.{.{.{.{.{.{.",
"{.{.{.{.{.{.{.{.{.{.{.{.{.{.{.{.{.{.{.{.{.{.{.{.{.{.{.{.{.{.{.{.{.{.{.{.{.{.{.{.{.{.{.{.{.{.{.{.{.{.{.{.{.{.{.{.{.{.{.{.{.{.{.{.{.{. XF.(. X{.{.{.{.{.{.{.{.{.{.",
"{.{.{.{.{.{.{.{.{.{.{.{.{.{.{.{.{.{.{.{.{.{.{.{.{.{.{.{.{.{.{.{.{.{.{.{.{.{.{.{.{.{.{.{.{.{.{.{.{.{.{.{.{.{.{.{.{.{.{.{.{.{.{.{.{. X X).[. X{.{.{.{.{.{.{.{.{.{.",
"{.{.{.{.{.{.{.{.{.{.{.{.{.{.{.{.{.{.{.{.{.{.{.{.{.{.{.{.{.{.{.{.{.{.{.{.{.{.{.{.{.{.{.{.{.{.{.{.{.{.{.{.{.{.{.{.{.{.{.{.{.{.{.{.{.{. X].[. X{.{.{.{.{.{.{.{.{.{.",
"{.{.{.{.{.{.{.{.{.{.{.{.{.{.{.{.{.{.{.{.{.{.{.{.{.{.{.{.{.{.{.{.{.{.{.{.{.{.{.{.{.{.{.{.{.{.{.{.{.{.{.{.{.{.{.{.{.{.{.{.{.{.{.{.{.{. X[.{. X{.{.{.{.{.{.{.{.{.{.",
"{.{.{.{.{.{.{.{.{.{.{.{.{.{.{.{.{.{.{.{.{.{.{.{.{.{.{.{.{.{.{.{.{.{.{.{.{.{.{.{.{.{.{.{.{.{.{.{.{.{.{.{.{.{.{.{.{.{.{.{.{.{.{.{.{.{.{. X X{.{.{.{.{.{.{.{.{.{.{.",
"{.{.{.{.{.{.{.{.{.{.{.{.{.{.{.{.{.{.{.{.{.{.{.{.{.{.{.{.{.{.{.{.{.{.{.{.{.{.{.{.{.{.{.{.{.{.{.{.{.{.{.{.{.{.{.{.{.{.{.{.{.{.{.{.{.{.{.{.{.{.{.{.{.{.{.{.{.{.{.{."
};
