/* XPM */
static char *paulinor31675337816[] = {
/* columns rows colors chars-per-pixel */
"80 80 254 2 ",
"   c #010205",
".  c #0D1219",
"X  c #37310E",
"o  c #101722",
"O  c #313134",
"+  c #201E2D",
"@  c #482B03",
"#  c #563603",
"$  c #453B1B",
"%  c #4F3509",
"&  c #6E3207",
"*  c #483B2B",
"=  c #3E4C36",
"-  c #544417",
";  c #644B1A",
":  c #764919",
">  c #754E0E",
",  c #484526",
"<  c #564728",
"1  c #594D38",
"2  c #565634",
"3  c #54512E",
"4  c #694825",
"5  c #774928",
"6  c #665839",
"7  c #785636",
"8  c #734F2D",
"9  c #5C633A",
"0  c #67653A",
"q  c #766738",
"w  c #394C59",
"e  c #594D48",
"r  c #54514A",
"t  c #675745",
"y  c #6F5A4C",
"u  c #6A6646",
"i  c #7A6B4D",
"p  c #766548",
"a  c #76744C",
"s  c #6B6759",
"d  c #766C56",
"f  c #7C7256",
"g  c #7A765A",
"h  c #6D7253",
"j  c #797864",
"k  c #6F6E6F",
"l  c #5F5F65",
"z  c #963017",
"x  c #AA2C17",
"c  c #B33D2C",
"v  c #9B3C2B",
"b  c #FE2A03",
"n  c #FF3D1A",
"m  c #FF3E28",
"M  c #DE2A13",
"N  c #885613",
"B  c #AA4B1B",
"V  c #946816",
"C  c #9F7A06",
"Z  c #A76D16",
"A  c #864A2B",
"S  c #89552B",
"D  c #865737",
"F  c #97532E",
"G  c #B64A2B",
"H  c #A85837",
"J  c #B95939",
"K  c #B04D32",
"L  c #956625",
"P  c #8E6931",
"I  c #B8653C",
"U  c #B77636",
"Y  c #AE722F",
"T  c #FF431A",
"R  c #FF430F",
"E  c #C35A38",
"W  c #CC502F",
"Q  c #FF4728",
"!  c #FE4637",
"~  c #F55332",
"^  c #C5673B",
"/  c #C37538",
"(  c #F1763E",
")  c #D85517",
"_  c #925B4B",
"`  c #BA5B44",
"'  c #AE564B",
"]  c #846959",
"[  c #857A5D",
"{  c #867759",
"}  c #967757",
"|  c #8E6F4A",
" . c #BD6A44",
".. c #B96646",
"X. c #BA7248",
"o. c #A86F56",
"O. c #AA7A58",
"+. c #B97A56",
"@. c #AA6A46",
"#. c #846D67",
"$. c #867966",
"%. c #927B67",
"&. c #907873",
"*. c #AE776C",
"=. c #C25744",
"-. c #FF5B48",
";. c #FF524B",
":. c #C46948",
">. c #C77649",
",. c #C87955",
"<. c #CB724F",
"1. c #FA6A52",
"2. c #FC6E6C",
"3. c #DD6769",
"4. c #7B8469",
"5. c #7C8D74",
"6. c #AB8C19",
"7. c #B69A28",
"8. c #BB8937",
"9. c #BB9637",
"0. c #AD922E",
"q. c #B9A52C",
"w. c #BDA434",
"e. c #B6A63B",
"r. c #B0AB2A",
"t. c #BAA11C",
"y. c #C78839",
"u. c #C4973B",
"i. c #CF8D2F",
"p. c #C3A52C",
"a. c #C6AA2A",
"s. c #C5AC3B",
"d. c #C6A938",
"f. c #CBB43B",
"g. c #C7B637",
"h. c #CDB432",
"j. c #CBC43C",
"k. c #89835C",
"l. c #978B59",
"z. c #B68558",
"x. c #B8924B",
"c. c #B9A848",
"v. c #B8AC57",
"b. c #BCB156",
"n. c #B0AD56",
"m. c #8D8262",
"M. c #89866A",
"N. c #928363",
"B. c #958B6B",
"V. c #998E6E",
"C. c #958766",
"Z. c #98916E",
"A. c #878C72",
"S. c #968B75",
"D. c #949273",
"F. c #9B9374",
"G. c #9D9679",
"H. c #9D997B",
"J. c #959A7C",
"K. c #899275",
"L. c #A58769",
"P. c #A39A7B",
"I. c #A29678",
"U. c #BB9468",
"Y. c #B2A66B",
"T. c #BCB667",
"R. c #B9AB76",
"E. c #BBB67B",
"W. c #ADA674",
"Q. c #C68A48",
"!. c #C49745",
"~. c #CC8457",
"^. c #D28454",
"/. c #D18E50",
"(. c #C6A944",
"). c #C9B344",
"_. c #C8B658",
"`. c #CAB25A",
"'. c #C48662",
"]. c #C4BA6A",
"[. c #C2BB75",
"{. c #C5AE76",
"}. c #E08E57",
"|. c #BAC376",
" X c #C7C379",
".X c #CEC86E",
"XX c #D2C55A",
"oX c #727985",
"OX c #987C87",
"+X c #FF7886",
"@X c #EA7D86",
"#X c #FF7AA4",
"$X c #7C868E",
"%X c #948687",
"&X c #9A9A85",
"*X c #91898D",
"=X c #A38988",
"-X c #A58998",
";X c #A89597",
":X c #AA9B89",
">X c #BBB383",
",X c #BBB889",
"<X c #BBBB95",
"1X c #ADA986",
"2X c #B798A8",
"3X c #B697B4",
"4X c #B191A5",
"5X c #B6ADAC",
"6X c #95A493",
"7X c #FF8899",
"8X c #C3B986",
"9X c #C1BE99",
"0X c #C59AAD",
"qX c #FE94B3",
"wX c #C8A2B8",
"eX c #C7BCBF",
"rX c #FFA6B8",
"tX c #BAC18D",
"yX c #C7C588",
"uX c #C4C29B",
"iX c #C9C495",
"pX c #CDCF8A",
"aX c #CAC6A3",
"sX c #D2CCA5",
"dX c #CAA9C6",
"fX c #C7B7C5",
"gX c #D5B2CD",
"hX c #D5ADD4",
"jX c #DEB5DC",
"kX c #D0AECE",
"lX c #F7B1D1",
"zX c #DBB7E5",
"xX c #E8BDE7",
"cX c #FDB9E6",
"vX c #FF9DC6",
"bX c #D7D8D6",
"nX c #CCC7CD",
"mX c #E0E6DE",
"MX c #EAC5E9",
"NX c #F7C3E8",
"BX c #F5CAFB",
"VX c #FFCEFF",
"CX c #F9C6F6",
"ZX c #FFD3FF",
"AX c #FFDBFF",
"SX c #F3D6F5",
"DX c #EDCDF2",
"FX c #E7E8E5",
"GX c #FFE3FF",
"HX c #FFEBFF",
"JX c #FDFEFE",
"KX c #FBF6FB",
"LX c #EDF3EC",
"PX c #DFE2DF",
/* pixels */
"VXVXVXVXVXVXVXVXVXVXVXVXVXVXVXVXVXVXVXVXVXVXVXVXVXVXVXVXVXVXVXVXVXVXVXVXVXVXVXVXVXVXVXVXVXVXVXVXVXVXVXVXVXVXVXVXVXVXVXVXVXVXVXVXVXVXVXVXVXVXVXVXVXVXVXVXVXVXVXVX",
"VXVXVXVXVXVXVXVXVXVXVXVXVXVXVXVXVXVXVXVXVXVXVXVXVXVXVXVXVXVXVXVXVXVXVXVXVXVXVXVXVXVXVXVXVXVXVXVXVXVXVXVXVXVXVXVXVXVXVXVXVXVXVXVXVXVXVXVXVXVXVXVXVXVXVXVXVXVXVXVX",
"VXVXVXVXVXVXVXVXVXVXVXVXVXVXZXVXVXVXVXVXVXVXVXVXVXVXVXVXVXVXVXVXVXVXVXVXVXVXVXVXVXVXVXVXVXVXVXVXVXVXVXVXVXVXVXVXVXVXVXVXVXVXVXVXVXVXVXVXVXVXVXVXVXVXVXVXVXVXVXVX",
"VXVXVXVXVXVXVXVXVXVXVXVXVXVXVXVXVXVXVXVXVXVXVXVXVXVXVXVXVXVXVXVXVXVXVXVXVXVXVXVXVXVXVXVXVXVXVXVXVXVXVXVXVXVXVXVXVXVXVXVXVXVXVXVXVXVXVXVXVXVXVXVXVXVXVXVXVXVXVXVX",
"VXVXVXVXVXVXVXVXVXVXVXVXVXVXVXVXVXVXVXVXVXVXVXVXVXVXVXVXVXVXVXVXVXVXVXVXZXVXVXVXZXVXVXVXVXVXVXVXVXVXVXVXVXVXVXVXVXVXVXVXVXVXVXVXVXVXVXVXVXVXVXVXVXVXVXVXVXVXVXVX",
"VXVXVXVXVXVXVXVXVXVXVXVXVXVXVXVXVXVXVXVXVXVXVXVXVXVXVXVXVXVXVXVXVXVXVXVXVXVXVXVXVXVXVXVXVXVXVXVXVXVXVXVXVXVXVXVXVXZXVXVXVXVXVXVXVXVXVXVXVXVXVXVXVXVXVXVXVXVXVXVX",
"VXVXVXVXVXVXVXVXVXVXVXVXVXVXVXVXVXVXVXVXVXVXVXVXVXVXVXVXVXVXVXVXVXVXVXVXVXVXVXVXVXVXVXVXVXVXVXVXVXVXVXVXVXVXVXVXVXVXVXVXVXVXVXVXVXVXVXVXVXVXVXVXVXVXVXVXVXVXVXVX",
"VXVXVXVXVXVXVXVXVXVXVXVXVXVXVXVXVXVXVXVXVXVXVXVXVXVXVXVXVXVXVXVXVXVXVXVXVXVXVXVXVXVXVXVXVXVXVXVXVXVXVXVXVXVXVXVXVXVXVXVXVXVXVXVXVXVXVXVXVXVXVXVXVXVXVXVXVXVXVXVX",
"VXVXVXVXVXVXVXVXVXVXVXVXVXVXVXVXVXVXVXVXVXVXVXVXVXVXVXVXVXVXVXVXVXVXVXVXVXVXVXVXVXVXVXVXVXVXVXVXVXVXVXVXVXVXVXVXVXVXVXVXVXVXVXVXVXVXVXVXVXVXVXVXVXVXVXVXVXVXVXVX",
"VXVXVXVXVXVXVXVXVXVXVXVXVXVXVXVXVXVXVXVXVXVXVXVXVXVXVXVXVXVXVXZXVXVXVXVXVXVXVXVXVXVXVXVXVXVXVXVXVXVXVXVXVXVXVXVXVXVXVXVXVXVXVXVXVXVXVXVXVXVXVXVXVXVXVXVXVXVXVXVX",
"VXVXVXVXVXVXVXVXVXVXVXVXVXVXVXVXVXVXVXVXVXVXVXVXVXVXVXVXVXVXVXZXZXVXVXVXVXVXVXVXVXVXVXVXVXVXVXVXVXVXVXVXVXVXVXVXVXVXVXVXVXVXVXVXVXVXVXVXVXVXVXVXVXVXVXVXVXVXVXVX",
"VXVXVXVXVXVXVXVXVXVXVXVXVXVXVXVXVXVXVXVXVXVXVXVXVXVXVXVXVXVXZXZXVXZXVXVXVXVXVXVXVXVXVXVXVXVXVXVXVXVXVXVXVXVXVXVXVXVXVXVXVXVXVXVXVXVXVXVXVXVXVXVXVXVXVXVXVXVXVXVX",
"VXVXVXVXVXVXVXVXVXVXVXVXVXVXVXVXVXVXVXVXVXVXVXVXVXVXVXVXVXVXGX7X2.GXVXVXVXVXVXVXVXVXVXVXVXVXVXVXVXVXVXVXVXVXVXVXVXVXVXVXVXVXVXVXVXVXVXVXVXVXVXVXVXVXVXVXVXVXVXVX",
"VXVXVXZXVXVXVXVXVXVXVXVXVXVXVXVXVXVXVXVXVXVXVXVXVXVXVXVXVXAXAX! -.ZXVXVXVXVXVXVXVXVXVXVXVXVXVXVXVXVXVXVXVXVXVXVXVXVXVXVXVXVXVXZXZXZXZXVXVXVXVXVXVXVXVXVXVXVXVXVX",
"VXVXVXVXVXVXVXVXVXVXVXVXVXVXVXVXVXVXVXVXVXVXVXVXVXVXVXVXAXHXqXb 7XGXVXVXVXVXVXVXVXVXVXVXVXVXVXVXVXVXVXVXVXVXVXVXVXVXVXVXZXZXAXZXCXCXAXZXVXVXVXVXVXVXVXVXVXVXVXVX",
"VXVXVXVXVXVXVXVXVXVXVXVXVXVXVXVXVXVXVXVXVXVXVXVXVXVXVXGXGX7XT ;.CXAXVXVXVXVXVXVXVXVXVXVXVXVXVXVXVXVXVXVXVXVXVXVXVXVXZXAXAXVX3X%Xj d 3XBXGXAXVXVXVXVXVXVXVXVXVXVX",
"VXVXVXVXVXVXVXVXVXVXVXVXVXVXVXVXVXVXVXVXVXVXVXVXVXVXGXlX1.Q m 7XGXVXVXVXVXVXVXVXVXVXVXVXVXZXZXVXVXVXVXVXVXVXVXVXVXVXZXkX;X[ 0 q a 6 3 d 2XCXAXVXVXVXVXVXVXVXVXVX",
"VXVXVXVXVXVXVXVXVXVXVXVXVXVXVXVXVXVXVXVXVXVXVXVXVXAXCX;.n -.~ NXAXVXVXVXVXVXVXVXVXVXVXVXZXcXCXZXVXVXVXVXVXVXVXVXVXAXgXu q 4.m.m.k.{ q q - &.CXAXVXVXVXVXVXVXVXVX",
"VXVXVXVXVXVXVXVXVXVXVXVXVXVXVXVXVXVXVXVXVXVXVXVXZXGX7XT -.Q 7XGXVXVXVXVXVXAXZXVXVXVXVXVXAX2.rXGXVXVXVXVXVXVXVXZXGXVXB.{ F.F.B.l.m.N.t 6 | ; %.BXAXVXVXVXVXVXVXVX",
"VXVXVXVXVXVXVXVXVXVXVXVXVXVXVXVXVXVXVXVXVXVXVXVXZXZX2.! -.Q rXGXVXVXVXVXVXcXZXAXVXVXVXGXcXT vXGXVXVXVXVXVXVXAXAXxX%X[ V.Z.F.m.| | } p * | q ; &.VXZXVXVXVXVXVXVX",
"VXVXVXVXVXVXVXVXVXVXVXVXVXVXVXVXVXVXVXVXVXVXVXVXAXCX;.;.~ -.cXAXVXVXVXVXAX2.1.CXZXVXZXAX2.T cXGXVXVXVXVXVXZXBX2Xk.k.Z.Z.V.V.l.| | 7 P * * | 8 7 CXZXVXVXVXVXVXVX",
"VXVXVXVXVXVXVXVXVXVXVXVXVXVXVXVXVXVXVXVXVXVXVXVXZXVX-.~ 1.! lXHXVXVXVXZXVX2.b 7XGXVXGXrXR 2.CXZXVXVXVXVXAXBXj 0 k.Z.Z.I.Z.k.} } p B b K * 8 P D xXAXVXVXVXVXVXVX",
"VXVXVXVXVXVXVXVXVXVXVXVXVXVXVXVXVXVXVXVXVXVXVXVXVXGX2.Q -.Q 2.HXZXZXZXHXlXm Q 7XHXGXGX2.b 7XHXAXAXAXAXGXHX-X9 D.H.F.P.P.Z.{ 7 | ] A b x 8 A A & wXGXVXVXVXVXVXVX",
"VXVXVXVXVXVXVXVXVXVXVXVXVXVXVXVXVXVXVXAXZXVXVXVXVXAXcX! }.1.m qXGXAXAXNX3.~ ! @XnX5XwX1.W 3.fXfXgXgXgXfX;Xu k.D.P.H.P.H.C.} 5 D | D A 5 A A A & 0XHXVXVXVXVXVXVX",
"VXVXVXVXVXVXVXVXVXVXVXVXVXVXVXVXVXVXZXcXCXSXVXAXGXGXHX+X) i.~ W ,.*.o.K B H I } 5.4.l.U X.@.h a h u u 0 2 g D.D.P.P.P.I.B.{ 7 5 7 _ 8 D A A A & 0XGXVXVXVXVXVXVX",
"VXVXVXVXVXVXVXVXVXVXVXVXVXVXVXVXVXVXZX-.rXGXVXMXwX-X*X_ z V H H B B B H I I I k.K.D.D.z.>.>.I.J.Z.Z.A.M.m.Z.G.G.P.F.I.F.B.k.{ 7 4 5 5 A F D F & *.AXZXVXVXVXVXVX",
"VXVXVXVXVXVXVXVXVXVXVXVXVXVXVXVXVXAXcXT 2.KXZXr X = = p K U 0.J .. . .:.I I  .m.K.D.K.z.>.>.~.1XJ.J.F.H.J.H.G.H.P.P.P.V.C.V.[ } 7 & @ @ & A A S D xXAXVXVXVXVXVX",
"VXVXVXVXVXVXVXVXVXVXVXVXVXVXVXVXVXGXcX~ Q vXzX= , j M.o.:.:.w.u.<.,.>.X.U :.X.D.K.D.J.L.>.>.>.,.P.J.H.D.F.H.P.H.H.H.P.Z.B.V.[ m.y % y k &.*.o.N N kXGXVXVXVXVXVX",
"VXVXVXVXVXVXVXVXVXVXVXVXVXVXVXVXVXAXcX~ z x D j 5.5.*.^ Q...>.g.x.:.<.>.>.^ +.D.B.A.D.G.>.>.:.^ z.&XH.P.P.:XP.H.D.S.F.P.C.} N.[ - OXAXGXAXAXZXwX@.gXAXZXVXVXVXVX",
"VXVXVXVXVXVXVXVXVXVXVXVXVXVXVXVXVXGXCXx & A K ..O.+.:.:.Y.'.:.f.g.Q..... .>.>.F.K.D.M.M.>.^ ^ / / L.J.P.H.&XH.P.P.:XG.G.[ p %.| %.AXAXZXZXZXZXAXDXCXVXVXVXVXVXVX",
"VXVXVXVXVXVXVXVXVXVXVXVXVXVXVXVXAXAX*X6 c J I J ` :.:. .,.8X{.(.j.d.:.,.,.~.:.z.&XJ.J.O.>.^ / I ^ O.4.C.S.B.B.F.P.G.P.B.p i { i xXGXVXVXVXVXVXVXZXZXVXVXVXVXVXVX",
"VXVXVXVXVXVXVXVXZXVXVXVXVXVXVXAXZXOX2 j } E / 8.<.` .. .:.,.pX.Xh.(.~.~.~.~.^.^.'.+.+.>.<.Q.^ ^ ^ X.4.g i p $.S.G.F.H.[ 7 C.| { CXZXVXVXVXVXVXVXVXVXVXVXVXVXVXVX",
"VXVXVXVXVXVXVXVXVXVXVXVXVXVXAXZX=X2 u f 4.%...8.!.!.X. .X./ s. X.Xd.,.3.~.~.~.~.^.^.>.<./.u.>.:.^ X.M.{ p [ S.G.&XI.V.p p %.| i CXZXZXVXVXVXVXVXVXVXVXVXVXVXVXVX",
"VXVXVXVXVXVXVXVXVXVXVXVXVXAXVX;Xh { s s $.4.%.E U w.w.9.9.w.a.].pXu.,.,./._.x.,.>.,.,.<.s.y.:.<.^ X.K.C.[ %.B.F.I.S.f 7 { [ q #.VXZXVXVXVXVXVXVXVXVXVXVXVXVXVXVX",
"VXVXVXVXVXVXZXVXVXVXVXVXGXBXS.h N.m.f h g [ 4.%.E ` x.a.p.p.p._.pX!.<.,./.j.).:.<.>.<.^.g./.:./ ^ O.K.V.V.N.k.{ %.{ p ] N.C.3 =XGXVXVXVXVXVXVXVXVXVXVXVXVXVXVXVX",
"VXVXVXVXVXVXVXVXVXVXVXAXjX&.a P ..M.f f g g M.M.U.,.E x.a.d.a.[.pX(.<...!.g.g.Q.>.^.,.^.j.(.:.<.^ N.M.V.V.I.I.N.i i i { m.%.- 4XGXVXVXVXVXVXVXVXVXVXVXVXVXVXVXVX",
"VXVXVXVXVXVXVXVXVXBXAXCXs 2 { E H M.a d [ $.$.j C. Xz.I d.h.c.|. Xd.!.(.).f.s.>.,.}.}.>._..X~.( / C.B.V.G.I.P.P.F.m.m.[ $.i < 0XGXVXVXVXVXVXVXVXVXVXVXVXVXVXVXVX",
"VXVXVXVXVXVXVXVXVXZXGX-X$ h | W I } 4.f d f g 5.@.U |.E.|.[.[.[.[.f.h.h.f.g.u.<.} t e e s k j _ L.H.C.F.W.I.I.I.I.F.V.M.f 6 $ dXGXVXVXVXVXVXVXVXVXVXVXVXVXVXVXVX",
"VXVXVXVXVXVXVXVXVXAXhX1 u 4.@.E I ..M.4.h h M.} J G I z.x.|.yX8X[.).a.p.d.h.h.'.w . . . o + O w $X$Xk k d $.M.C.V.V.B.m.p < 1 xXAXVXVXVXVXVXVXVXVXVXVXVXVXVXVXVX",
"VXVXVXVXVXVXVXVXZXVXd 2 m.$.o.^ I ^ ..{ ] | @.J J ....J J 7.|.E.<XE.p.p.d.XXY.oXl e O O .     + O r l k k k l l j S.{ 1 < - 4XAXVXVXVXVXVXVXVXVXVXVXVXVXVXVXVXVX",
"VXVXVXVXVXVXVXVXAXMXu u j A.O.E I I G G J G G I X.:.J I  .7.q.T.,XuX X_..X&Xk #.+.,.'.*.B.l O .     . + w l k <X5X&X5X&X2 t CXAXVXVXVXVXVXVXVXVXVXVXVXVXVXVXVXVX",
"VXVXVXVXVXVXVXVXZXCX$.u g M.z.^ J U H K K J J I ..:. .U I 9.q.(.yXiXyXpX8XS.Z.).Q.J >.Q.)._.L.] e * o       = 6X5X%XbXJXFXfXDXSXBXCXVXVXVXVXVXVXVXVXVXVXVXVXVXVX",
"VXVXVXVXVXVXVXVXVXAX;Xu M.5.O.^ J I 0.Y K .. . .:...9.9.` 7.a.c. XiXyX X8X].h.).f.d.d.a.a.i.:.,.'.*.#.e e O r &.g &XFXFXKXJXKXLXLXSXBXVXVXVXVXVXVXVXVXVXVXVXVXVX",
"VXVXVXVXVXVXVXVXZXAX;Xu $.A.} ^ ..K Z r.U ..:...X.Q.j.Q.:.u.a.f.].yXsXiXsX[.h.f.f.).d.p.g./ =.^ I  .<.,.o.o.%.A.j *XbXKXmXbXFXJXJXJXKXSXCXCXCXVXVXVXZXVXVXVXVXVX",
"VXVXVXVXVXVXVXVXVXAX*X9 j M.B...J H K Y r.r.9.c.w.j.s.,.,.f.p.d.[.yX9XaXaXpX_.a.f.h.d._.p.6.K J J =./ u.^  .$.g j y j 5XPXLXPXbXbXFXJXKXKXKXSXSXZXZXVXVXVXVXVXVX",
"VXVXVXVXVXVXVXVXVXAXwX0 g j $...K P H c Y 8.9.s.(.x.>.:.!.f.a.p.].].8X8X9XiXyX_.).d.T.Y.6.6.7.Y U 8.q./ ` $.4.] f u * e wXnXFXFXPXbXbXFXLXLXmXnXnXxXVXVXVXVXVXVX",
"VXVXVXVXVXVXVXVXVXZXZX&.3 j j _ K Y 0.H ' ' ..X.,.` ` Q.g.d.p.p.v.v.{.>X{.R.{.T.`.v.E.0.6.7.p.g.g.q.Y H g m.m.[ ] 3 X kXAXjXdXdXnXPXFXFXmXmXbXnX6X3XCXZXVXVXVXVX",
"VXVXVXVXVXVXVXVXVXVXAXDXj 2 A.#.c H 0.7.U @...' ..,.x.c.g.f.p._.T.x.R.{.R.Y.{.E.W.R.v.7.7.q.7.i.i.H _ #.g f f { 6 3 3XGXZXZXBXxXkXdXnXnXnXeXeXeXdXCXZXZXVXVXVXVX",
"VXVXVXVXVXVXVXVXVXVXVXAXMX%XgXxXz v Y r.r.0.9.9.0.c.g.g.).).f. X8X`.{.R.8X8X>X>X,X8Xb.p.w.w./ K | j h j { f d 2 $ dXHXZXVXVXVXZXZXZXxXhXhXdXhXxXVXZXVXVXVXVXVXVX",
"VXVXVXVXVXVXVXVXVXVXVXVXZXAXGXZX' z @.r.w.w.7.g.e.e.s.c.s.a.XXyX XyX9X8XR.>X,X8X<X8Xb.q.9.J E $.h g d d d u X X 2XHXVXVXVXVXVXVXVXZXZXZXZXVXZXZXVXVXVXVXVXVXVXVX",
"VXVXVXVXVXVXVXVXVXVXVXVXVXVXVXGXlXc v 0.q.e.c.0.w.7.w.p.d.b.yXpX X9XiX8XU.W.8X>X,X[.b.7.I E } A.g f i i 3 < OXgXAXZXVXVXVXVXVXVXVXVXVXVXVXVXVXVXVXVXVXVXVXVXVXVX",
"VXVXVXVXVXVXVXZXVXVXVXVXVXVXVXVXGX7Xx F 0.e.Y.n.v.b.b.b.E.pXyX,X8X9X,X>XR.U.W.>X,X,Xb.Y J G { j d d u , 1 dXHXGXVXVXVXVXVXVXVXVXVXVXVXVXVXVXVXVXVXVXVXVXVXVXVXVX",
"VXVXVXVXVXVXVXVXVXVXVXVXVXVXVXVXZXGX+Xx P r.e.,X,X|.tXiXyXiXaXaXaXsX8X{.>X>XE.,X>X|.x.K G K h 3 $ , , &.BXAXVXVXVXVXVXVXVXVXVXVXVXVXVXVXVXVXVXVXVXVXVXVXVXVXVXVX",
"VXVXVXVXVXVXVXVXVXVXVXVXVXVXVXVXVXAXAX2.x L r.e.,X<XtXtXtXaXaXaXaXaX9X>XW.W.1X,XtXT.J G F 6 s OX-X3XjXZXAXVXVXVXVXVXVXVXVXVXVXVXVXVXVXVXVXVXVXVXVXVXVXVXVXVXVXVX",
"VXVXVXVXVXVXVXVXVXVXVXVXVXVXVXVXVXVXGXGX+XM B r.n.tX9XuX<XaX<XaXaX9X9X9X<X,X1X>Xb.U z S s *XMXGXGXGXAXZXVXVXVXVXVXVXVXVXVXVXVXVXVXVXVXVXVXVXVXVXVXVXVXVXVXVXVXVX",
"VXVXVXVXVXVXVXVXVXVXVXVXVXVXVXVXVXVXVXAXHXlX;.G C e.tXtX<X<XaXuXuX9X9X9XuX<X|._.L A &.fXDXAXAXVXZXVXZXVXVXVXVXVXVXVXVXVXVXVXVXVXVXVXVXVXVXVXVXVXVXVXVXVXVXVXVXVX",
"VXVXVXVXVXVXVXVXVXVXVXVXVXVXVXVXVXVXVXVXVXGXZXqX*.L Z x.[.tX<XiXiXuXuX9XE.n.l.q t 3XGXGXZXZXVXVXVXVXVXVXVXVXVXVXVXVXVXVXVXVXVXVXVXVXVXVXVXVXVXVXVXVXVXVXVXVXVXVX",
"VXVXVXVXVXVXVXVXVXVXVXVXVXVXVXVXVXVXVXVXVXVXZXHXZX3XL.} @.z.W.W.W.&XJ.D.[ u 2 1 dXGXAXVXVXVXVXVXVXVXVXVXVXVXVXVXVXVXVXVXVXVXVXVXVXVXVXVXVXVXVXVXVXVXVXVXVXVXZXVX",
"VXVXVXVXVXVXVXVXVXVXVXVXVXVXVXVXVXVXVXVXVXVXVXVXVXAXGXzXk h j s s s t 3 t u k xXAXZXVXVXVXVXVXVXVXVXVXVXVXVXVXVXVXVXVXVXVXVXVXVXVXVXVXVXVXVXVXVXVXVXVXVXVXVXVXVX",
"VXVXVXVXVXZXVXVXVXVXVXVXVXVXVXVXVXVXVXVXVXVXVXVXVXVXZXAXA.r s d d 1 1 4XfXxXZXAXVXVXVXVXVXVXVXVXVXVXVXVXVXVXVXVXVXVXVXVXVXVXVXVXVXVXVXVXVXVXVXVXVXVXVXVXVXVXVXVX",
"VXVXVXVXVXVXVXVXVXVXVXVXVXVXVXVXVXVXVXVXVXVXVXVXVXVXVXAX4X; p h 6 t jXGXAXAXZXVXVXVXVXVXVXVXVXVXVXVXVXVXVXVXVXVXVXVXZXVXVXVXVXVXVXVXVXVXVXVXVXVXVXVXVXVXVXVXVXVX",
"VXVXVXVXVXVXVXVXVXVXVXVXVXVXVXVXVXVXVXVXVXVXVXVXVXVXZXAXgXV L P - -XKXVXVXVXVXVXVXVXVXVXVXVXVXVXVXVXVXVXVXVXVXVXVXVXVXVXVXVXVXVXVXVXVXVXVXVXVXVXVXVXVXVXVXVXVXVX",
"VXVXVXVXVXVXVXVXVXVXVXVXVXVXVXVXVXVXVXVXVXVXVXVXVXVXVXZXBXD C U N #.AXZXVXVXVXVXVXZXVXVXVXVXVXVXVXVXVXVXVXVXVXVXVXVXVXVXVXVXVXVXVXVXVXVXVXVXVXVXVXVXVXVXVXVXVXVX",
"VXVXVXVXVXVXVXVXVXVXVXVXVXVXVXVXVXVXVXVXVXVXVXVXVXVXVXZXAX%X> Y 8.> 3XGXVXVXVXVXZXGXGXZXVXVXVXVXVXVXVXVXVXVXVXVXVXVXVXVXVXVXVXVXVXVXVXVXVXVXVXVXVXVXVXVXVXVXVXVX",
"VXVXVXVXVXVXVXVXVXVXVXVXVXVXVXVXVXVXVXVXVXVXVXVXVXVXVXVXZXBX$.V 8.Z 6 VXAXVXVXAXxX%XwXCXZXZXVXVXVXVXVXVXVXVXVXVXVXVXVXVXVXVXVXVXVXVXVXVXVXVXVXVXVXVXVXVXVXVXVXVX",
"VXVXVXVXVXVXVXVXVXVXVXVXVXVXVXVXVXVXVXVXVXVXVXVXVXVXVXVXVXAXBX} Z y.> 2XHXVXZXGX=X# X 3XGXVXVXVXVXVXVXVXVXVXVXVXVXVXVXVXVXVXVXVXVXVXVXVXVXVXVXVXVXVXVXVXVXVXVXVX",
"VXVXVXVXVXVXVXVXVXVXVXVXVXVXVXVXVXVXVXVXVXVXVXVXVXVXVXVXVXVXGXkXN y.Z ; xXAXGXBXS > #.MXZXVXVXZXVXVXVXVXVXVXVXVXVXVXVXVXVXVXVXVXVXVXVXVXVXVXVXVXVXVXVXVXVXVXVXVX",
"VXVXVXVXVXVXVXVXVXVXVXVXVXVXVXVXVXVXVXVXVXVXVXVXVXVXVXVXVXVXZXAX&.C /.N s AXSX#.> 4 BXJXAXGXGXGXGXAXVXVXVXVXVXVXVXVXVXVXVXVXVXVXVXVXVXVXVXVXVXVXVXVXVXVXVXVXVXVX",
"VXVXVXVXVXVXVXVXVXVXVXVXVXVXVXVXVXVXVXVXVXVXVXVXVXVXVXVXVXVXVXGXxX> Y y.: e t ; N y jXdXwX0X2X0XdXDXGXVXVXVXVXVXZXVXVXVXVXVXVXVXVXVXVXVXVXVXVXVXVXVXVXVXVXVXVXVX",
"VXVXVXVXVXVXVXVXVXVXVXVXVXVXVXVXVXVXVXVXVXVXVXVXVXVXVXVXVXVXVXVXHX=XN y.Y # @ ; 5 7 ; @ - % @ @ X $ 2XZXVXVXVXVXVXVXVXVXVXVXVXVXVXVXVXVXVXVXVXVXVXVXVXVXVXVXVXVX",
"VXVXVXVXVXVXVXVXVXVXVXVXVXVXVXVXVXVXVXZXVXVXVXVXVXVXVXVXVXVXVXZXSX&.> U U L : S L S } 2X;X4X2XS.#.1 s ZXZXVXVXVXVXVXVXVXVXVXVXVXVXVXVXVXVXVXVXVXVXVXVXVXVXVXVXVX",
"VXVXVXVXVXVXVXVXVXVXVXVXVXVXVXVXVXVXVXVXVXVXVXVXVXVXVXVXVXVXGXzX< # # N Y L 8 : 7 xXAXHXGXGXGXGXAXZXCXVXVXVXVXVXVXVXVXVXVXVXVXVXVXVXVXVXVXVXVXVXVXVXVXVXVXVXVXVX",
"VXVXVXVXVXVXZXVXVXVXVXVXVXVXVXVXVXVXVXVXVXVXVXVXVXVXVXVXVXVXAXxX6 4 #.7 # & > # 4 jXGXVXVXVXVXVXZXZXZXVXVXVXVXVXVXVXVXVXVXVXVXVXVXVXVXVXVXVXVXVXVXVXVXVXVXVXVXVX",
"VXVXVXVXVXVXVXVXVXVXVXVXVXVXVXVXVXVXVXVXVXVXVXVXVXVXVXVXVXVXVXZXBXDXAXxXOX] 7 4 % X dXGXVXVXVXVXVXVXVXVXVXVXVXVXVXVXVXVXVXVXVXVXVXVXVXVXVXZXVXVXVXVXVXVXVXVXVXVX",
"VXVXVXVXVXVXVXVXVXVXVXVXVXVXVXVXVXVXVXVXVXVXVXVXVXVXVXVXVXVXVXVXZXAXZXAXHXAXBXjX2X*XhXZXZXVXVXVXVXVXVXVXVXVXVXVXVXVXVXVXVXVXVXVXVXVXVXVXVXVXVXVXVXVXVXVXVXVXVXVX",
"VXVXVXVXVXVXVXVXVXVXVXVXVXVXVXVXVXZXVXVXVXVXVXVXVXVXVXVXVXVXVXVXVXVXVXVXZXZXZXAXGXHXZXVXVXVXVXVXVXVXVXVXVXVXVXVXVXVXVXVXVXVXVXVXVXVXVXVXVXVXVXVXVXVXVXVXVXVXVXVX",
"VXVXVXVXVXVXVXVXVXVXVXVXVXVXVXVXVXVXVXVXVXVXVXVXVXVXVXVXVXVXVXVXVXVXVXVXVXVXVXVXZXVXVXVXVXVXVXVXVXVXVXVXVXVXVXVXVXVXVXVXVXVXVXVXVXVXVXVXVXVXVXVXVXVXVXVXVXVXVXVX",
"VXVXVXVXVXVXVXVXVXVXVXVXVXVXVXVXVXVXVXVXVXVXVXVXVXVXVXVXVXVXVXVXVXVXVXVXVXVXVXVXVXVXVXVXVXVXVXVXVXVXVXVXVXVXVXVXVXVXVXVXVXVXVXVXVXVXVXVXVXVXVXVXVXVXVXVXVXVXVXVX",
"VXVXVXVXVXVXVXVXVXVXVXVXVXVXVXVXVXVXVXVXVXVXVXVXVXVXVXVXVXVXVXVXVXVXVXVXVXVXVXVXVXVXVXVXVXVXVXVXVXVXVXVXVXVXVXVXVXVXVXVXVXVXVXVXVXVXVXVXVXVXVXVXVXVXVXVXVXVXVXVX",
"VXVXVXVXVXVXVXVXVXVXVXVXVXVXVXVXVXVXVXVXVXVXVXVXVXVXVXVXVXVXVXVXVXVXVXVXVXVXVXVXVXVXVXVXVXVXVXVXVXVXVXVXVXVXVXVXVXVXVXVXVXVXVXVXVXVXVXVXVXVXVXVXVXVXVXVXVXVXVXVX"
};
