/* XPM */
static char *paulinor21675337816[] = {
/* columns rows colors chars-per-pixel */
"80 80 256 2 ",
"   c #010205",
".  c #0C1019",
"X  c #39300C",
"o  c #111623",
"O  c #303032",
"+  c #482A04",
"@  c #563603",
"#  c #463A1A",
"$  c #4F3509",
"%  c #6B3506",
"&  c #493A26",
"*  c #693C30",
"=  c #3B4522",
"-  c #544417",
";  c #644B1A",
":  c #764919",
">  c #754F0E",
",  c #484525",
"<  c #564728",
"1  c #594D38",
"2  c #565736",
"3  c #514F32",
"4  c #694825",
"5  c #774828",
"6  c #685738",
"7  c #785636",
"8  c #75502C",
"9  c #5C633B",
"0  c #67653A",
"q  c #78683A",
"w  c #384459",
"e  c #595947",
"r  c #544D4C",
"t  c #665848",
"y  c #755E46",
"u  c #695957",
"i  c #59694C",
"p  c #6A6646",
"a  c #78684A",
"s  c #776B57",
"d  c #7A7559",
"f  c #706C51",
"g  c #5D6A76",
"h  c #787665",
"j  c #70706C",
"k  c #5C5E64",
"l  c #2C3745",
"z  c #972E12",
"x  c #963725",
"c  c #A73B2C",
"v  c #AC3217",
"b  c #FF1803",
"n  c #CF2A14",
"m  c #FF2301",
"M  c #FE2B06",
"N  c #FF360B",
"B  c #FF3917",
"V  c #E43D0F",
"C  c #FF3C26",
"Z  c #D83F30",
"A  c #895413",
"S  c #AD551A",
"D  c #956617",
"F  c #926C0F",
"G  c #A87314",
"H  c #864A2A",
"J  c #89552A",
"K  c #865636",
"L  c #975232",
"P  c #AD4E2D",
"I  c #B74B2A",
"U  c #AA4B36",
"Y  c #B64935",
"T  c #A95837",
"R  c #B65837",
"E  c #B25328",
"W  c #90652F",
"Q  c #AA7A2B",
"!  c #B4792B",
"~  c #BA663A",
"^  c #B87B37",
"/  c #AE6D35",
"(  c #FF431D",
")  c #FF410B",
"_  c #CB532F",
"`  c #FE4629",
"'  c #FF4B3A",
"]  c #FF563A",
"[  c #E15434",
"{  c #C5673A",
"}  c #CA7033",
"|  c #B55543",
" . c #876A48",
".. c #87754A",
"X. c #867A5D",
"o. c #877859",
"O. c #927758",
"+. c #906C51",
"@. c #A76849",
"#. c #BC6B43",
"$. c #BB6547",
"%. c #BC764A",
"&. c #A77755",
"*. c #B67954",
"=. c #AB6B56",
"-. c #877967",
";. c #8F756F",
":. c #AA756C",
">. c #9F5F57",
",. c #FF4943",
"<. c #FF5648",
"1. c #FF5A54",
"2. c #C26D44",
"3. c #C66948",
"4. c #C3734B",
"5. c #C67848",
"6. c #D67747",
"7. c #C87A54",
"8. c #D2744D",
"9. c #F66951",
"0. c #FF6668",
"q. c #FC7477",
"w. c #C77159",
"e. c #7A836D",
"r. c #73815A",
"t. c #B5971D",
"y. c #AF8F19",
"u. c #BAA41C",
"i. c #B79927",
"p. c #BA8837",
"a. c #B99835",
"s. c #AC9029",
"d. c #BBA728",
"f. c #BBA635",
"g. c #B7B132",
"h. c #C5973C",
"j. c #C88B39",
"k. c #C3A72B",
"l. c #C7AB37",
"z. c #CAB639",
"x. c #CBB533",
"c. c #C5A21A",
"v. c #C9C538",
"b. c #E0D336",
"n. c #8E8558",
"m. c #B18959",
"M. c #B9A948",
"N. c #B7AA58",
"B. c #B9B359",
"V. c #B1AB47",
"C. c #8A8467",
"Z. c #928363",
"A. c #958B6B",
"S. c #99896A",
"D. c #9B926C",
"F. c #888973",
"G. c #958C73",
"H. c #8C9476",
"J. c #959374",
"K. c #9B9374",
"L. c #9D9679",
"P. c #9E997B",
"I. c #94987B",
"U. c #B49469",
"Y. c #A29A7C",
"T. c #A49878",
"R. c #AF896A",
"E. c #B8A869",
"W. c #B8B36A",
"Q. c #B8AB78",
"!. c #BDBB74",
"~. c #BAB779",
"^. c #AEAB73",
"/. c #C78748",
"(. c #C59646",
"). c #CA8657",
"_. c #D3904D",
"`. c #C4A847",
"'. c #CCB545",
"]. c #CBB354",
"[. c #C3BA78",
"{. c #C3B56A",
"}. c #E2866D",
"|. c #BDC177",
" X c #CBC443",
".X c #C7C37C",
"XX c #D2C76A",
"oX c #6D7587",
"OX c #977B87",
"+X c #A57581",
"@X c #FF7A8C",
"#X c #798591",
"$X c #948588",
"%X c #989A85",
"&X c #938C93",
"*X c #A38988",
"=X c #A89696",
"-X c #A99191",
";X c #9AA285",
":X c #95A493",
">X c #BAB686",
",X c #B9B894",
"<X c #AAA783",
"1X c #B798A8",
"2X c #B395AD",
"3X c #B6ACAE",
"4X c #FF8A93",
"5X c #C3B988",
"6X c #C1BD96",
"7X c #C59AAD",
"8X c #FF93A9",
"9X c #FF96B5",
"0X c #C8A4B9",
"qX c #C3BDB5",
"wX c #FFA4BC",
"eX c #D19499",
"rX c #BAC28E",
"tX c #C6C484",
"yX c #C5C39C",
"uX c #C9C395",
"iX c #D2CB9B",
"pX c #C9C7A2",
"aX c #D2CFA4",
"sX c #FF9BC5",
"dX c #CAA9C6",
"fX c #C6B9C4",
"gX c #D4B2CC",
"hX c #D5ADD4",
"jX c #DEB5DC",
"kX c #D2AFCE",
"lX c #FFA8C8",
"zX c #FFB2D9",
"xX c #F3B3D2",
"cX c #DBB9E2",
"vX c #E8BDE7",
"bX c #FEB9E5",
"nX c #FFB3EA",
"mX c #D2D0D1",
"MX c #E0E6DE",
"NX c #E7C5E8",
"BX c #EDC7F4",
"VX c #F5CAFB",
"CX c #FFCEFF",
"ZX c #F8C7F7",
"AX c #FFD3FF",
"SX c #FFDBFF",
"DX c #F6D6F7",
"FX c #F3CDF0",
"GX c #E7E8E5",
"HX c #FFE3FF",
"JX c #FFEAFF",
"KX c #FEF3FE",
"LX c #FEFEFE",
"PX c #F6FBF6",
"IX c #EDF3EC",
"UX c #DFE2DF",
/* pixels */
"CXCXCXCXCXCXCXCXCXCXCXCXCXCXCXCXCXCXCXCXCXCXCXCXCXCXCXCXCXCXCXCXCXCXCXCXCXCXCXCXCXCXCXCXCXCXCXCXCXCXCXCXCXCXCXCXCXCXCXCXCXCXCXCXCXCXCXCXCXCXCXCXCXCXCXCXCXCXCXCX",
"CXCXCXCXCXCXCXCXCXCXCXCXCXCXCXCXCXCXCXCXCXCXCXCXCXCXCXCXCXCXCXCXCXCXCXCXCXCXCXCXCXCXCXCXCXCXCXCXCXCXCXCXCXCXCXCXCXCXCXCXCXCXCXCXCXCXCXCXCXCXCXCXCXCXCXCXCXCXCXCX",
"CXCXCXCXCXCXCXCXCXAXCXCXCXCXCXCXCXCXCXCXCXCXCXCXCXCXCXCXCXCXCXCXCXCXCXCXCXCXCXCXCXCXCXCXCXCXCXCXCXCXCXCXCXCXCXCXCXCXCXCXCXCXCXCXCXCXCXCXCXCXCXCXCXCXCXCXCXCXCXCX",
"CXCXCXCXCXCXCXCXCXCXCXCXCXCXCXCXCXCXCXCXCXCXCXCXAXCXCXCXCXCXCXCXCXCXCXCXCXCXCXCXCXCXCXCXCXCXCXCXCXCXCXCXCXCXAXCXCXCXCXCXCXCXCXCXCXCXCXCXCXCXCXCXCXCXCXCXCXCXCXCX",
"CXCXCXCXCXCXCXCXCXCXCXCXCXCXCXCXCXCXCXCXCXCXCXCXCXCXCXCXCXCXCXCXCXCXCXCXCXCXCXCXCXCXCXCXCXCXCXCXCXCXCXCXCXCXCXCXCXCXCXCXCXCXCXCXCXCXCXCXCXCXCXCXCXCXCXAXCXCXCXCX",
"CXCXCXCXCXCXCXCXCXCXCXCXCXCXCXCXCXCXCXCXCXCXCXCXCXCXCXCXCXCXCXCXCXCXCXCXCXCXCXCXCXCXCXCXCXCXCXCXCXCXCXCXCXCXCXCXCXCXCXCXCXCXCXCXCXCXCXCXCXCXCXCXCXCXCXCXCXCXCXCX",
"CXCXCXCXCXCXCXCXCXCXCXCXCXCXCXCXCXCXCXCXCXCXCXCXCXCXCXCXCXCXCXCXCXCXCXCXCXCXCXCXCXCXCXCXCXCXCXCXCXCXCXCXCXCXCXCXCXCXCXCXCXCXCXCXCXCXCXCXCXCXCXCXCXCXCXCXCXCXCXCX",
"CXCXCXCXCXCXCXCXCXCXCXCXCXCXCXCXCXCXCXCXCXCXCXCXCXCXCXCXAXCXCXCXCXCXCXCXCXCXCXCXCXCXCXCXCXCXCXCXCXCXCXCXCXCXCXCXCXCXCXCXCXCXCXCXCXCXCXCXCXCXCXCXCXCXCXCXCXCXCXCX",
"CXCXCXCXCXCXCXCXCXCXCXCXCXCXCXCXCXCXCXCXCXCXCXCXCXCXCXHXCXCXCXCXCXCXCXCXCXCXCXCXCXCXAXCXCXCXCXCXCXCXCXCXCXCXCXCXCXCXCXCXCXCXCXCXCXCXCXCXCXCXCXCXCXCXCXCXCXCXCXCX",
"CXCXCXCXCXCXCXCXCXCXCXCXCXCXCXCXCXCXCXCXCXCXCXCXCXCXJXwX@XSXCXCXCXCXCXCXCXCXCXCXCXAXCXCXCXCXCXCXCXCXCXCXCXCXCXCXCXCXCXCXCXCXCXCXCXCXCXCXCXCXCXCXCXCXCXCXCXCXCXCX",
"CXCXCXCXCXCXCXCXCXCXCXCXCXCXCXCXCXCXCXCXCXCXCXCXCXHXxXM 4XJXCXCXCXCXAXCXCXCXCXSXSXsXZXCXCXCXCXCXCXCXCXCXCXCXCXCXCXCXCXCXCXCXCXCXCXCXCXCXCXCXCXCXCXCXCXCXCXCXCXCX",
"CXCXCXCXCXCXCXCXCXCXCXCXCXCXCXCXCXCXCXCXCXCXCXCXCXSX<.M zXHXCXCXCXCXCXCXCXCXSXSX0.0.HXCXCXCXCXCXCXCXCXCXCXCXCXCXCXCXCXCXCXCXCXCXCXCXCXCXCXCXCXCXCXCXCXCXCXCXCXCX",
"CXCXCXCXCXCXCXCXCXCXCXCXCXCXCXCXCXCXCXCXCXCXCXCXHXlXM ( zXHXAXCXCXCXCXCXCXSXZX` m zXHXCXCXCXCXCXCXCXCXCXCXCXCXCXCXCXCXCXCXCXCXCXCXCXCXCXCXCXCXCXCXCXCXCXCXCXCXCX",
"CXCXCXCXCXCXCXCXCXCXCXCXCXCXCXCXCXCXCXCXCXCXCXCXJXwXM B lXHXCXCXCXCXCXCXCXJXq.b lXLXCXCXCXCXCXCXCXCXCXCXCXCXCXCXCXCXCXCXCXCXCXAXAXAXAXCXCXCXCXCXCXCXCXCXCXCXCXCX",
"CXCXCXCXCXCXAXCXCXCXCXCXCXCXCXCXCXCXCXCXCXCXCXCXHXzXC M wXJXCXCXCXCXCXCXAXHX' q.LX8X8XHXCXCXCXCXCXCXCXCXCXCXCXCXCXCXCXCXCXCXSXAXCXvXSXSXCXCXCXCXCXCXCXCXCXCXCXCX",
"CXCXCXCXCXCXCXCXCXCXCXCXCXCXCXCXCXCXCXCXCXCXCXCXSXAX,.m 8XKXCXCXCXCXCXCXCXAX8XCXJX' 4XHXCXCXCXCXCXCXCXCXCXCXCXCXCXCXCXSXSXCX3X$Xh s 2XVXHXSXCXCXCXCXCXCXCXCXCXCX",
"CXCXCXCXCXCXCXCXCXCXCXCXCXCXCXCXCXCXCXCXCXCXCXCXAXCX<.) B wXHXCXCXCXCXCXCXCXAXSXCX( 8XJXCXCXCXCXCXCXCXCXCXCXCXCXCXCXSXkX-XZ.p 0 a 0 3 a 1XVXSXCXCXCXCXCXCXCXCXCX",
"CXCXCXCXCXCXCXCXCXCXCXCXCXCXCXCXCXCXCXCXCXCXCXCXAXCX,.( M ,.AXAXCXCXCXAXAXCXAXAXZXB 4XJXCXCXCXCXCXCXCXCXCXCXCXCXCXSXhXp q r.Z.Z.O.o.q q - ;.ZXSXCXCXCXCXCXCXCXCX",
"CXCXCXCXCXCXCXCXCXCXCXCXCXCXCXCXCXCXCXCXCXCXCXCXHXzXB ' B ] CXAXCXAXKXAXnXSXCXAXHX] ,.HXCXCXCXCXCXCXCXCXCXCXCXCXHXZXG.d D.T.Z.Z.Z.n.y 6 ..; ;.VXAXCXCXCXCXCXCXCX",
"CXCXCXCXCXCXCXCXCXCXCXCXCXCXCXCXCXCXCXCXCXCXCXAXKX}.M ,.m 4XHXCXHXSXlX1.9XHXCXCXJXq.m nXHXCXCXCXCXCXCXCXCXCXSXSXvX$Xn.A.D.D.Z...o.O.0 O ..K ; G.AXAXCXCXCXCXCXCX",
"CXCXCXCXCXCXCXCXCXCXCXCXCXCXCXCXCXCXCXCXCXCXAXJXlXB ` N ' AXSXSXZX0.b N FXSXCXAXSX1.m 0.HXAXAXCXCXCXCXCXCXAXVX2Xh n.D.D.A.A.Z. .W q W * & +.8 7 BXSXCXCXCXCXCXCX",
"CXCXCXCXCXCXCXCXCXCXCXCXCXCXCXCXCXCXCXCXCXAXJXsXB B ` B zXJXAXAX,.b ` nXHXCXCXJXwXM ` C bXHXCXCXCXCXCXAXSXVX-.0 n.K.D.K.D.Z.O.O.a x M U & 7 W K NXAXCXCXCXCXCXCX",
"AXCXCXCXCXCXCXCXCXCXCXCXCXCXCXCXCXCXCXCXAXHX@Xm B ' M 4XKXCXJX@Xm N q.KXDXAXHXCX,.M ` N zXKXSXSXSXSXSXHXJX-X9 K.P.P.Y.Y.D.O.K ..d L b v 8 5 H % 0XHXCXCXCXCXCXCX",
"CXCXCXCXCXCXCXCXCXCXCXCXCXCXCXCXCXCXCXCXHXlXM ( ' ` B bXKXHXKX1.M N 9.SXNXNXNXq.V [ [ [ eXqX0XqXgXgXgXgX=Xp r.L.P.P.Y.P.Z.O.8 K +.K H 5 H H H % 7XHXCXCXCXCXCXCX",
"CXCXCXCXCXCXCXCXCXCXCXCXCXCXCXCXCXCXCXCXHX@XM ] ' C 1.AXNX0X3X2._ _ I O.j r.@.E %.*.m.*.n.d d f f f f 9 2 d G.J.T.Y.Y.T.Z.o.7 4 H K y H L H H % 7XHXCXCXCXCXCXCX",
"CXCXCXCXCXCXCXCXCXCXCXCXCXCXCXCXCXCXAXAXCX1.B ` Z n | j e 3 i a T / T S W @.~ #.%.2.} *.;XP.K.K.J.S.C.C.C.J.P.K.P.P.Y.K.A.Z.o.7 5 * 5 K K K L % :.SXAXCXCXCXCXCX",
"CXCXCXCXCXCXCXCXCXCXCXCXCXCXCXCXCXCXCXHXnX( B x > x 5 i d -.C.-.#.2.#.2.{ ~ ~ #.#.5.2.A.;XP.<X;Xm.5.I.P.P.K.L.P.Y.Y.Y.A.A.S.O.X.t % + + % A H H K vXSXCXCXCXCXCX",
"CXCXCXCXCXCXCXCXCXCXCXCXCXCXCXCXCXCXCXJXzXN n > F U $.F.H.G.H.J.%.5.5.4.#.#.#.2.2.5.R.H.A.H.I.T.6.m.I.J.P.P.Y.L.P.Y.Y.D.A.D.C.O.K + u j ;.:.=.D A kXHXCXCXCXCXCX",
"CXCXCXCXCXCXCXCXCXCXCXCXCXCXCXCXCXCXJXhX1 v P s.s.| 3.R.H.G.%XJ.$.j./.3.2.4.4.2.{ *.H.J.D.K.H.m.} U.I.Y.Y.<XT.Y.K.K.K.T.A.o.O.O.; OXSXHXSXSXAX7X@.xXSXAXCXCXCXCX",
"CXCXCXCXCXCXCXCXCXCXCXCXCXCXCXCXAXSXHXk + c p.g.m.$.2.4.H.%X%X).3.(.%.$.2.5.4.4.3.S.F.C.J.A.H.&.[ R.I.Y.Y.%XT.%X%X%XL.T.X.a O.d -.SXSXAXAXAXSXSXVXFXCXCXCXCXCXCX",
"CXCXCXCXCXCXCXCXCXCXCXCXCXCXCXAXSXAXOX2 @.Y p.g.p.3.%.2.%.U.).).7././.4.).).4.p./.T.I.A.J.S.F.m._ &.e.A.K.A.;.K.T.T.L.A.a  .O.a vXHXCXCXCXCXCXCXAXAXCXCXCXCXCXCX",
"CXCXCXCXCXCXCXCXCXCXCXCXCXCXAXHX4X;.e h @._ p.g.(.| %.U.5.8.).).).).].7.w.)._. X_.D.I.K.T.K.A.&.} %.d o.a a -.G.L.K.L.o.y Z.o.o.VXAXCXCXCXCXCXCXCXCXCXCXCXCXCXCX",
"CXCXCXCXCXCXCXCXCXCXCXCXCXCXJX9Xn 9 i d T | a.x.(.3.3.E.m.3.5.4.8.).`._.`.`._. X_.U.:XY.T.K.I.*.} ^ X.d a d K.L.*XY.S.y a O.o.a BXAXCXCXCXCXCXCXCXCXCXCXCXCXCXCX",
"CXCXCXCXCXCXCXCXCXCXCXCXCXHXvXZ S +.j a R R p.g.a.$.R {.m.R 7.7.5.w./. X X(.). X/.w.;XY.T.G.L.4.j.} &.G.X.Z.G.K.K.K.a y X.X.y o.CXAXCXCXCXCXCXCXCXCXCXCXCXCXCXCX",
"CXCXCXCXCXCXCXCXCXCXCXCXSXBX| S ~ E T U R R / k.f.{ $.>X4.3.4.7.).7.7.'. X(.(.v.h.8.U.;XY.;XT.3.k.^ $.K.J.Z.Z.X.-.o.a o.Z.A.1 *XHXCXCXCXCXCXCXCXCXCXCXCXCXCXCXCX",
"CXCXCXCXCXCXCXCXCXCXAXHXcX;.S ~ ~ { I I U R ~ a.k.a.{.!.2.3.4.5.7.7.7.l.'.)./.v.l.6.).U.Y.^.7.{ j.a.{ *.I.K.K.Z.a a  .o.Z.O.# 1XHXCXCXCXCXCXCXCXCXCXCXCXCXAXCXCX",
"CXCXCXCXCXCXCXCXCXCXSXZXj : E ~ R ~ Y P R ~ R ! u.B.rXW.5.7.3.4.7.w./.'.z./.$.l.b.'.6.6._.6.} _.} i.~ 3.U.%XT.T.K.Z.C.X.X.a < 1XHXCXCXCXCXCXCXCXCXCXCXCXCXCXCXCX",
"CXCXCXCXCXCXCXCXCXAXHX&X, L E R ~ R ~ P P P Y / f.W.|.W.$.3.#.4.3.4.l.l.z.l.3._.m.k r r u u y o.:.`./.[ 6.U.P.T.T.J.A.Z.o.6 # dXHXCXCXCXCXCXCXCXCXCXCXCXCXCXCXCX",
"CXCXCXCXCXCXCXCXCXSXhX1 p R R R #.~ ~ R P P Y ~ V.~.W.W./ R 3.3.2.(.z.l.k.x._.R.l o . . o O l r #X#Xs  .L @.H.F.D.D.A.Z.a < 1 bXAXCXCXCXCXCXCXCXCXCXCXCXCXCXCXCX",
"CXCXCXCXCXCXCXAXAXCXs 2 -.~ { #.^ #.#.R T E R / f.W..X|.M.p.%.^ i.g.k.].].x.U.oXk r 3 O .     o O r g g g j k u j G.o.1 < # 2XSXCXCXCXCXCXCXCXCXCXCXCXCXCXCXCXCX",
"CXCXCXCXCXCXCXCXSXBXp p d $.{ _ i.~ | P R P Y ~ u.B.[.W.!.g.d.d.d.k.l.XXXXm.g h *.7.U.U.C.u O .     . O r k e.3X3X%X3XG.1 t ZXAXCXCXCXCXCXCXCXCXCXCXCXCXCXCXCXCX",
"CXCXCXCXCXCXCXCXAXVX-.p d @.3.$.a.d.U c T R U a.d.f.!.~.!.[.f.u.x.l.'.tX{.Z.D.'.(.} 3.3.7.w.:.-.u O .       O =X,X$XUXLXIXfXGXFXZXCXCXCXCXCXCXCXCXCXCXCXCXCXCXCX",
"CXCXCXCXCXCXCXCXCXSX-Xp F.&.{ $.! u.s./ T $.m.k.f.k.`.~.!.W..X].'.'.{.uX_.l.z.'.z.l.j./.} } 5.`.N.m.o.e r O r h h %XGXGXPXLXPXPXIXDXCXZXCXCXCXCXCXCXCXCXCXCXCXCX",
"CXCXCXCXCXCXCXCXAXSX=X0 e.Z.{ R ^ i.y.s.s.a.x.k.l.l.l.XX6X[.[..X{.tXiXtX'.x.z.z.l.z.x.x.k.k.x.c.f.M.z.7.=.;.F.F.j $XUXPXGXmXUXLXLXKXPXHXZXZXCXCXCXCXCXCXCXCXCXCX",
"CXCXCXCXCXCXCXCXCXSX&X9 h F.#.R W y.s.y.s.i.f.l.f.l.k.].6XiX[.[.[.tX5XiX].l.'.z.'.'.l.l.k.y.y.f.W.g.h.{ 3.Z.-.X.-.u h 3XUXIXGXUXmXGXLXLXPXPXDXDXAXAXZXCXCXCXCXCX",
"CXCXCXCXCXAXCXCXAXSX0X0 d h @.R T s.V.s.y.i.a.`.l.f.k.{.tXtX6X[.[.5X5X5X[.'.k.l.z.l.k.y.G y.a.~.B.c.^ _ &.C.X.d a t # r dXfXGXGXUXmXmXGXIXIXMXmXmXvXCXCXCXCXCXCX",
"CXCXCXCXCXCXCXCXCXAXSX;.3 r.n.P T Q V.^.a.t.i.d.k.k.].5X.X[.[.5X[.E.5XE.].E.`.i.c.i.y.y.a.E.~.[.k.t.E I d X.Z.C.o.3 X hXSXjX0XdXmXUXIXGXGXUXUXqX:X2XCXAXCXCXCXCX",
"CXCXCXCXCXCXCXCXCXCXSXBXh 9 #X| v W y.W.>XN.N.N.B..X>X.X.X.X.XiX5XU.Q.5XE.N.W.E.m.M.N.W.>X~.!.N.k.! I &.d d d d 6 < 3XSXAXCXCXcXhXdXfXfXmXfXfXfXdXBXAXCXCXCXCXCX",
"CXCXCXCXCXCXCXCXCXCXCXSXBX$XgXxXz x s.f.<X~.rXrX~.rX|.rX.XtXuXyX6X[.[.Q.5X[.{.Q.~.[.5X6X>X!.~.d.y.Y U d d d s 3 # 0XJXAXCXCXCXAXAXAXvXhXhXdXhXvXCXAXCXCXCXCXCXCX",
"CXCXCXCXCXCXCXCXCXCXCXCXAXSXSXSX>.z T i.B.rX^.|.W.!..X|.tXuXaXyX6X6X5X[.Q.>X5X5X>X>X6X,X>X!.M.t.I Y d f a p # X 2XJXAXCXCXCXCXCXCXCXAXAXAXCXAXAXAXCXCXCXCXCXCXCX",
"CXCXCXCXCXCXCXCXCXCXCXCXCXCXAXSXNX| z / g.^.,X>XtX>X~.rXyX6XpXaX6XiXuX5XU.E.Q.>X5X>X<X>X>XB.d.! U d f s 3 < OXkXSXAXCXCXCXCXCXCXCXCXAXCXCXCXCXCXCXCXCXCXCXCXCXCX",
"CXCXCXCXCXCXCXCXCXCXCXCXCXCXCXCXJXbXY x Q g.rX<X,X,X,XyX6XpXpX,X6X5X5X>XQ.U.Q.>X>X6X>X~.B.u.S | s h p , 1 dXKXHXAXCXCXCXCXCXCXCXCXCXCXCXCXCXCXCXCXCXCXCXCXCXCXCX",
"CXCXCXCXCXCXCXCXCXCXCXCXCXCXCXCXCXHXZXU z s.V.,X,X,X,X,XpXpXpXpX6XiX5X5X>XQ.>X~.>X,X,XB.y.S L 2 = , 3 ;.VXSXCXCXCXAXCXCXCXCXCXCXCXCXCXCXCXCXCXCXCXCXCXCXCXCXCXCX",
"CXCXCXCXCXCXCXCXCXCXCXCXCXCXCXCXCXCXHXNX>.z G V.rX,XpX6X,XpXpXpXaXqX6X5X^.^.<X,X,X>XM.G S 5 u $X-X2XjXAXSXCXCXCXCXCXCXCXCXCXCXCXCXCXCXCXCXCXCXCXCXCXCXCXCXCXCXCX",
"CXCXCXCXCXCXCXCXCXCXCXCXCXCXCXCXCXCXCXSXSXeX| D f.|.yXpXpXrXpXpXpX6X6X5X,X,X,X>XB.a.F H u &XBXHXHXHXSXAXCXCXCXCXCXCXCXCXCXCXCXCXCXCXCXCXCXCXCXCXCXCXCXCXCXCXCXCX",
"CXCXCXCXCXCXCXCXCXCXCXCXCXCXCXCXCXCXCXCXAXHXVX+XJ Q N.~.,XpXpXpXpXpXpX6XuX!.N.p.D J ;.fXBXSXSXCXCXCXCXCXCXCXCXCXCXCXCXCXCXCXCXCXCXCXCXCXCXCXCXCXCXCXCXCXCXCXCXCX",
"CXCXCXCXCXCXCXCXCXCXCXCXCXCXCXCXCXCXCXCXCXCXSXDX&Xs W n.U.<X,X,X,X>XQ.^.D.n...8 t 3XAXHXSXCXCXCXCXCXCXCXCXCXCXCXCXCXCXCXCXCXCXCXCXCXCXCXCXCXCXCXCXCXCXCXCXCXCXCX",
"CXCXCXCXCXCXCXCXCXCXCXCXCXCXCXCXCXCXCXCXCXCXCXAXAX3X&Xj h -.F.h ;.G.-.h s u e e dXHXAXCXCXCXCXCXCXCXCXCXCXCXCXCXCXCXCXCXCXCXCXCXCXCXCXCXCXCXCXCXCXCXAXCXCXCXCXCX",
"CXCXCXCXCXCXCXCXCXCXCXCXCXCXCXCXAXCXCXCXCXCXCXCXAXSXHXjXj h d f j s t 1 p p h vXSXAXCXCXCXCXCXCXCXCXCXCXCXCXCXCXCXCXCXCXCXCXCXCXCXCXCXCXCXCXCXCXCXCXCXCXCXCXCXCX",
"CXCXCXCXCXCXCXCXCXCXCXCXCXCXCXCXCXCXCXCXCXCXCXCXCXCXAXSX;.e j s a 3 e =XdXvXAXSXCXCXCXCXCXCXCXCXCXCXCXCXCXCXCXCXCXCXCXCXCXCXCXCXCXCXCXCXCXCXCXCXCXCXCXCXCXCXCXCX",
"CXCXCXCXCXCXCXCXCXCXCXCXCXCXCXCXCXCXCXCXCXCXCXCXCXCXCXHX1X; f s 6 t jXHXHXSXAXCXCXCXCXCXCXCXCXCXCXCXAXCXCXCXCXCXCXCXCXCXCXCXCXCXCXCXCXCXCXCXCXCXCXCXCXCXCXCXCXCX",
"CXCXCXCXCXCXCXCXCXCXCXCXCXCXCXCXCXCXCXCXCXCXCXCXCXCXCXSXgXD D W - &XKXCXCXCXCXCXCXCXCXCXCXCXCXCXCXCXCXCXCXCXCXCXCXCXCXCXCXCXCXCXCXCXCXCXCXCXCXCXCXCXCXCXCXCXCXCX",
"CXCXCXCXCXCXCXCXCXCXCXCXCXCXCXCXCXCXCXCXCXCXCXCXCXCXCXAXBXK G ! D -.HXAXCXCXCXCXCXAXCXCXCXCXCXCXCXCXCXCXCXCXCXCXCXCXCXCXCXCXCXCXCXCXCXCXCXCXCXCXCXCXCXCXCXCXCXCX",
"CXCXCXCXCXCXCXCXCXCXCXCXAXCXCXCXCXCXCXCXCXCXCXCXCXCXCXAXSXOX> ! ! : 2XHXCXCXCXCXAXHXHXAXCXCXCXCXCXCXCXCXCXCXCXCXCXCXCXCXCXCXCXCXCXCXCXCXCXCXCXCXCXCXCXCXCXCXCXCX",
"CXCXCXCXCXCXCXCXCXCXCXCXCXCXCXCXCXCXCXCXCXCXCXCXCXCXCXCXAXVX-.D j.G 6 CXAXCXCXAXNXOX0XVXAXAXCXCXCXCXCXCXCXCXCXCXCXCXCXCXCXCXCXCXCXCXCXCXCXCXCXCXCXCXCXCXCXCXCXCX",
"CXCXCXCXCXCXCXCXCXCXCXCXCXCXCXCXCXCXCXCXCXCXCXCXCXCXCXCXCXSXVXO.G j.> 2XJXZXCXHX*X@ X 2XHXCXCXCXCXCXCXCXCXCXCXCXCXCXCXCXCXCXCXCXCXCXCXCXCXCXCXCXCXCXCXCXCXCXCXCX",
"CXCXCXCXCXCXCXCXCXCXCXCXCXCXCXCXCXCXCXCXCXCXCXCXCXCXCXCXCXCXHXdXA j.Q ; BXHXHXZXK > -.NXAXCXCXCXCXCXCXCXCXCXCXCXCXCXCXCXCXCXCXCXCXCXCXCXCXCXCXCXCXCXCXCXCXCXCXCX",
"CXCXCXCXCXCXCXCXCXCXCXCXCXCXCXCXCXCXCXCXCXCXCXCXCXCXCXCXCXCXAXHX;.D h.A u SXDX-.A 4 VXKXSXHXHXHXHXSXCXCXCXCXCXCXCXCXCXCXCXCXCXCXCXCXCXCXCXCXCXCXCXCXCXCXCXCXCXCX",
"CXCXCXCXCXCXCXCXCXCXCXCXCXCXCXCXCXCXAXCXCXCXCXCXCXCXCXCXCXCXCXHXvX: ! j.> r t ; : y jXdX0X7X1X1X0XBXHXAXCXCXCXCXCXCXCXCXCXCXCXCXCXCXCXCXCXCXCXCXCXCXCXCXCXCXCXCX",
"CXCXCXCXCXCXCXCXCXCXCXCXCXCXCXCXCXCXCXCXCXCXCXCXCXCXCXCXCXCXCXCXHX*XA j./ $ + ; 8 8 - @ - $ + + X , 1XSXCXCXCXCXCXCXCXCXCXCXCXCXCXCXCXCXCXCXCXCXCXCXCXCXCXCXCXCX",
"CXCXCXCXCXCXCXAXCXCXCXCXCXCXCXCXCXCXCXCXCXCXCXCXCXCXCXCXCXCXCXAXFX;.> / ! J : J W J O.1X1X-X1XL.;.1 u AXAXCXCXCXCXCXCXCXCXCXCXCXCXCXAXCXCXCXCXCXCXCXCXCXCXCXCXCX",
"CXCXCXCXCXCXCXCXCXCXCXCXCXCXCXCXCXCXCXCXCXCXCXCXCXCXCXCXCXAXSXcX; @ - D / D 8 > 7 jXHXJXHXHXJXSXSXAXZXCXCXCXCXCXCXCXCXCXCXCXCXCXCXCXCXCXCXCXCXCXCXCXCXCXCXCXCXCX",
"CXCXCXCXCXCXCXCXCXCXCXCXCXCXCXCXCXCXCXCXCXCXCXCXCXCXCXAXCXCXSXvX6 1 -.8 @ % ; % 4 jXHXAXCXCXCXCXCXAXAXCXCXCXCXCXCXCXCXCXCXCXCXCXCXCXCXCXCXCXCXCXCXCXCXCXCXCXCXCX",
"CXCXCXCXCXCXCXCXCXCXCXCXCXCXCXCXCXCXCXCXCXCXCXCXCXCXCXCXCXCXCXAXCXBXSXvXOX+.7 4 $ X dXHXCXCXCXCXCXCXCXCXCXCXCXCXCXCXCXCXCXAXCXCXCXCXCXCXCXCXCXCXCXCXCXCXCXCXCXCX",
"CXCXCXCXCXCXCXCXCXCXCXCXCXCXCXCXCXCXCXCXCXCXCXCXCXCXCXCXCXCXCXCXAXSXAXSXHXSXVXjX2X$XhXAXCXCXCXCXCXCXCXCXCXCXCXCXCXCXCXCXCXCXCXCXCXCXCXCXCXCXCXCXCXCXCXCXCXCXCXCX",
"CXCXCXCXCXCXCXCXCXCXCXCXCXCXCXCXCXCXCXCXCXCXCXCXCXCXCXCXCXCXCXCXCXCXCXCXCXAXAXHXHXJXAXCXAXCXCXCXCXCXCXCXCXCXCXCXCXCXCXCXCXCXCXCXCXCXCXCXCXCXCXCXCXCXCXCXCXCXCXCX",
"CXCXCXCXCXCXCXCXCXCXCXCXCXCXCXCXCXCXCXCXCXCXCXCXCXCXCXCXCXCXCXCXCXCXCXCXCXCXCXCXAXAXCXCXCXCXCXCXCXCXCXCXCXCXCXCXCXCXCXCXCXCXCXCXCXCXCXCXCXCXCXCXCXCXCXCXCXCXCXCX",
"CXCXCXCXCXCXCXCXCXCXCXCXCXCXCXCXCXCXCXCXCXCXCXCXCXCXCXCXCXCXCXCXCXCXCXCXCXCXCXCXCXCXCXCXCXCXCXCXCXCXCXCXCXCXCXCXCXCXCXCXCXCXCXCXCXCXCXCXCXCXCXCXCXCXCXCXCXCXAXCX",
"CXCXCXCXCXCXCXCXCXCXCXCXAXCXCXCXCXCXCXCXCXCXCXCXCXCXCXCXCXCXCXCXCXCXCXCXCXCXCXCXCXCXCXCXCXCXCXCXCXCXCXCXCXCXCXCXCXCXCXCXCXCXCXCXCXCXCXCXCXCXCXCXCXCXCXCXCXCXCXCX",
"CXCXCXCXCXCXCXCXCXCXCXCXCXCXCXCXCXCXCXCXCXCXCXCXCXCXCXCXCXCXCXCXCXCXCXCXCXCXCXCXCXCXCXCXAXCXCXCXCXCXCXCXCXCXCXCXCXCXCXCXCXCXCXCXCXCXCXCXCXCXCXCXCXCXCXCXCXCXCXCX"
};
