/* XPM */
static char *paulinol21675337815[] = {
/* columns rows colors chars-per-pixel */
"80 80 256 2 ",
"   c #010205",
".  c #0C1019",
"X  c #39300C",
"o  c #111623",
"O  c #303032",
"+  c #482A04",
"@  c #563603",
"#  c #463A1A",
"$  c #4F3509",
"%  c #6B3506",
"&  c #493A26",
"*  c #693C30",
"=  c #3B4522",
"-  c #544417",
";  c #644B1A",
":  c #764919",
">  c #754F0E",
",  c #484525",
"<  c #564728",
"1  c #594D38",
"2  c #565736",
"3  c #514F32",
"4  c #694825",
"5  c #774828",
"6  c #685738",
"7  c #785636",
"8  c #75502C",
"9  c #5C633B",
"0  c #67653A",
"q  c #78683A",
"w  c #384459",
"e  c #595947",
"r  c #544D4C",
"t  c #665848",
"y  c #755E46",
"u  c #695957",
"i  c #59694C",
"p  c #6A6646",
"a  c #78684A",
"s  c #776B57",
"d  c #7A7559",
"f  c #706C51",
"g  c #5D6A76",
"h  c #787665",
"j  c #70706C",
"k  c #5C5E64",
"l  c #2C3745",
"z  c #972E12",
"x  c #963725",
"c  c #A73B2C",
"v  c #AC3217",
"b  c #FF1803",
"n  c #CF2A14",
"m  c #FF2301",
"M  c #FE2B06",
"N  c #FF360B",
"B  c #FF3917",
"V  c #E43D0F",
"C  c #FF3C26",
"Z  c #D83F30",
"A  c #895413",
"S  c #AD551A",
"D  c #956617",
"F  c #926C0F",
"G  c #A87314",
"H  c #864A2A",
"J  c #89552A",
"K  c #865636",
"L  c #975232",
"P  c #AD4E2D",
"I  c #B74B2A",
"U  c #AA4B36",
"Y  c #B64935",
"T  c #A95837",
"R  c #B65837",
"E  c #B25328",
"W  c #90652F",
"Q  c #AA7A2B",
"!  c #B4792B",
"~  c #BA663A",
"^  c #B87B37",
"/  c #AE6D35",
"(  c #FF431D",
")  c #FF410B",
"_  c #CB532F",
"`  c #FE4629",
"'  c #FF4B3A",
"]  c #FF563A",
"[  c #E15434",
"{  c #C5673A",
"}  c #CA7033",
"|  c #B55543",
" . c #876A48",
".. c #87754A",
"X. c #867A5D",
"o. c #877859",
"O. c #927758",
"+. c #906C51",
"@. c #A76849",
"#. c #BC6B43",
"$. c #BB6547",
"%. c #BC764A",
"&. c #A77755",
"*. c #B67954",
"=. c #AB6B56",
"-. c #877967",
";. c #8F756F",
":. c #AA756C",
">. c #9F5F57",
",. c #FF4943",
"<. c #FF5648",
"1. c #FF5A54",
"2. c #C26D44",
"3. c #C66948",
"4. c #C3734B",
"5. c #C67848",
"6. c #D67747",
"7. c #C87A54",
"8. c #D2744D",
"9. c #F66951",
"0. c #FF6668",
"q. c #FC7477",
"w. c #C77159",
"e. c #7A836D",
"r. c #73815A",
"t. c #B5971D",
"y. c #AF8F19",
"u. c #BAA41C",
"i. c #B79927",
"p. c #BA8837",
"a. c #B99835",
"s. c #AC9029",
"d. c #BBA728",
"f. c #BBA635",
"g. c #B7B132",
"h. c #C5973C",
"j. c #C88B39",
"k. c #C3A72B",
"l. c #C7AB37",
"z. c #CAB639",
"x. c #CBB533",
"c. c #C5A21A",
"v. c #C9C538",
"b. c #E0D336",
"n. c #8E8558",
"m. c #B18959",
"M. c #B9A948",
"N. c #B7AA58",
"B. c #B9B359",
"V. c #B1AB47",
"C. c #8A8467",
"Z. c #928363",
"A. c #958B6B",
"S. c #99896A",
"D. c #9B926C",
"F. c #888973",
"G. c #958C73",
"H. c #8C9476",
"J. c #959374",
"K. c #9B9374",
"L. c #9D9679",
"P. c #9E997B",
"I. c #94987B",
"U. c #B49469",
"Y. c #A29A7C",
"T. c #A49878",
"R. c #AF896A",
"E. c #B8A869",
"W. c #B8B36A",
"Q. c #B8AB78",
"!. c #BDBB74",
"~. c #BAB779",
"^. c #AEAB73",
"/. c #C78748",
"(. c #C59646",
"). c #CA8657",
"_. c #D3904D",
"`. c #C4A847",
"'. c #CCB545",
"]. c #CBB354",
"[. c #C3BA78",
"{. c #C3B56A",
"}. c #E2866D",
"|. c #BDC177",
" X c #CBC443",
".X c #C7C37C",
"XX c #D2C76A",
"oX c #6D7587",
"OX c #977B87",
"+X c #A57581",
"@X c #FF7A8C",
"#X c #798591",
"$X c #948588",
"%X c #989A85",
"&X c #938C93",
"*X c #A38988",
"=X c #A89696",
"-X c #A99191",
";X c #9AA285",
":X c #95A493",
">X c #BAB686",
",X c #B9B894",
"<X c #AAA783",
"1X c #B798A8",
"2X c #B395AD",
"3X c #B6ACAE",
"4X c #FF8A93",
"5X c #C3B988",
"6X c #C1BD96",
"7X c #C59AAD",
"8X c #FF93A9",
"9X c #FF96B5",
"0X c #C8A4B9",
"qX c #C3BDB5",
"wX c #FFA4BC",
"eX c #D19499",
"rX c #BAC28E",
"tX c #C6C484",
"yX c #C5C39C",
"uX c #C9C395",
"iX c #D2CB9B",
"pX c #C9C7A2",
"aX c #D2CFA4",
"sX c #FF9BC5",
"dX c #CAA9C6",
"fX c #C6B9C4",
"gX c #D4B2CC",
"hX c #D5ADD4",
"jX c #DEB5DC",
"kX c #D2AFCE",
"lX c #FFA8C8",
"zX c #FFB2D9",
"xX c #F3B3D2",
"cX c #DBB9E2",
"vX c #E8BDE7",
"bX c #FEB9E5",
"nX c #FFB3EA",
"mX c #D2D0D1",
"MX c #E0E6DE",
"NX c #E7C5E8",
"BX c #EDC7F4",
"VX c #F5CAFB",
"CX c #FFCEFF",
"ZX c #F8C7F7",
"AX c #FFD3FF",
"SX c #FFDBFF",
"DX c #F6D6F7",
"FX c #F3CDF0",
"GX c #E7E8E5",
"HX c #FFE3FF",
"JX c #FFEAFF",
"KX c #FEF3FE",
"LX c #FEFEFE",
"PX c #F6FBF6",
"IX c #EDF3EC",
"UX c #DFE2DF",
/* pixels */
"CXCXCXCXCXCXCXCXCXCXCXCXCXCXCXCXCXCXCXCXCXCXCXCXCXCXCXCXCXCXCXCXCXCXCXCXCXCXCXCXCXCXCXCXCXCXCXCXCXCXCXCXCXCXCXCXCXCXCXCXCXCXCXCXCXCXCXCXCXCXCXCXCXCXCXCXCXCXCXCX",
"CXCXCXCXCXCXCXCXCXCXCXCXCXCXCXCXCXCXCXCXCXCXCXCXCXCXCXCXCXCXCXCXAXCXCXCXCXCXCXCXCXCXCXCXCXCXCXCXCXCXCXCXCXCXCXCXCXCXCXCXCXCXCXCXCXCXCXCXCXCXCXCXCXCXCXCXCXCXCXCX",
"CXCXCXCXCXCXCXCXCXAXCXCXCXCXCXCXCXCXCXCXCXCXCXCXCXCXCXCXCXCXCXCXCXCXCXCXCXCXCXCXCXCXCXCXCXCXCXCXCXCXCXCXCXCXCXCXAXCXCXCXCXCXCXCXCXCXCXCXCXCXCXCXCXCXCXCXCXCXCXCX",
"CXCXCXCXCXCXCXCXCXCXCXCXCXCXCXCXCXCXCXCXCXCXCXCXCXCXCXCXCXCXCXCXCXCXCXCXCXCXCXCXCXCXCXCXCXCXCXCXCXCXCXCXCXCXCXCXCXCXCXCXCXCXCXCXCXCXCXCXCXCXCXCXCXCXCXCXCXCXCXCX",
"CXCXCXCXCXCXCXCXCXCXCXCXCXCXCXCXCXCXCXCXCXCXCXCXCXCXCXCXCXCXCXCXCXCXCXCXCXCXCXCXCXCXCXCXAXCXCXCXCXCXCXCXCXCXCXCXCXCXCXCXCXCXCXCXCXCXCXCXCXCXCXCXCXCXCXCXCXCXCXCX",
"CXCXCXCXCXCXCXCXCXCXCXCXCXCXCXCXCXCXCXCXCXCXCXCXCXCXCXCXCXCXCXCXCXCXCXCXCXCXCXCXCXCXCXCXCXCXCXCXCXCXCXCXCXCXCXCXCXCXCXCXCXCXCXCXCXCXCXCXCXCXCXCXCXCXCXAXCXCXCXCX",
"CXCXCXCXCXCXCXCXCXCXCXCXCXCXCXCXCXCXCXCXCXCXCXCXCXCXCXCXCXCXCXCXCXCXCXCXCXCXCXCXCXCXCXCXCXCXCXCXCXCXCXCXCXCXCXCXCXCXCXCXCXCXCXCXCXCXCXCXCXCXCXCXCXCXCXCXCXCXCXCX",
"CXCXCXCXCXCXCXCXCXCXCXCXCXCXCXCXCXCXCXCXCXCXCXCXCXCXCXCXCXCXCXCXCXCXCXCXCXCXCXCXCXCXCXCXCXCXCXCXCXCXCXAXCXCXCXCXCXCXCXCXCXCXCXCXCXCXCXCXCXCXCXCXCXCXCXCXCXCXCXCX",
"CXCXCXCXCXCXCXCXCXCXCXCXCXCXCXCXCXCXCXCXCXCXCXCXCXCXCXCXCXCXCXCXCXCXCXCXCXCXAXCXCXCXCXCXCXCXCXCXCXCXZXCXSXCXCXCXCXCXCXCXCXCXCXCXCXCXCXCXCXCXCXCXCXCXCXCXCXCXCXCX",
"CXCXCXCXCXCXCXCXCXCXCXCXCXCXCXCXCXCXCXCXCXCXCXCXCXCXCXCXCXCXCXCXCXCXCXCXAXZXAXAXCXCXCXCXCXCXCXCXCXCXSX4XwXHXCXCXCXCXCXCXCXCXCXCXCXCXCXCXCXCXCXCXCXCXCXCXCXCXCXCX",
"CXCXCXCXCXCXCXCXCXCXCXCXCXCXCXCXCXCXCXCXCXCXCXCXCXCXCXCXCXCXCXCXCXCXCXCXCXZXsXHXAXCXCXCXCXCXCXCXCXCXJX4XM zXHXCXCXCXCXCXCXCXCXCXCXCXCXAXCXCXCXCXCXCXCXCXCXCXCXCX",
"CXCXCXCXCXCXCXCXCXCXCXCXCXCXCXCXCXCXCXCXCXCXCXCXCXCXCXCXCXCXCXCXCXCXCXCXCXHX0.q.HXSXCXCXCXCXCXCXCXCXHXzXM ] SXAXCXCXCXCXCXCXCXCXCXCXCXCXCXCXCXCXCXCXCXCXCXCXCXCX",
"CXCXCXCXCXCXCXCXCXCXCXCXCXCXCXCXCXCXCXCXCXCXCXCXCXCXCXCXCXCXCXCXCXCXCXCXCXHXzXm ` ZXSXCXCXCXCXCXCXCXHXzX( N zXHXCXCXCXCXCXCXCXCXCXCXCXCXCXCXCXCXCXCXCXCXCXCXCXCX",
"CXCXCXCXCXCXCXCXCXCXCXCXCXAXSXAXAXCXCXCXCXCXCXCXCXCXCXCXCXCXCXCXCXCXCXCXCXCXKXlXb q.JXCXCXCXCXCXCXCXHXlXB M 9XHXCXCXCXCXCXCXCXCXCXCXCXCXCXCXCXCXCXCXCXCXCXCXCXCX",
"CXCXCXCXCXCXCXCXCXCXCXCXSXAXBXZXAXSXAXAXCXCXCXCXCXCXCXCXCXCXCXCXCXCXCXCXHX9X8XLXq.,.HXCXCXCXCXCXCXCXJXwXN B zXHXCXCXCXCXCXCXCXCXCXCXCXCXCXCXCXCXCXCXCXCXCXCXCXCX",
"CXCXCXCXCXCXCXCXCXCXAXHXVX2Xs -.$X0XVXSXSXAXCXCXCXCXCXCXCXCXCXCXCXCXCXCXJX@X' JXZX8XAXAXCXCXCXCXCXCXLX4Xm ' CXAXCXAXCXCXCXCXCXCXCXCXCXCXCXCXCXCXCXCXCXCXCXCXCXCX",
"CXCXCXCXCXCXCXCXCXSXVX2Xs < 0 a 0 p -.=XdXAXAXAXCXCXCXCXCXCXCXCXCXCXCXCXHX8X( CXSXAXCXAXCXCXCXCXCXHXwXB ) <.AXSXCXCXCXCXCXCXCXCXCXCXCXCXCXCXCXCXCXCXCXCXCXCXCXCX",
"CXCXCXCXCXCXCXCXSXBX;.- 0 a o.O.Z.n.n.q p hXSXCXCXCXCXCXCXCXCXCXCXCXCXCXJX4X) DXAXAXCXAXAXCXCXCXAXAX,.M ( ,.CXAXCXCXCXCXCXCXCXCXCXCXCXCXCXCXCXCXCXCXCXCXCXCXCXCX",
"CXCXCXCXCXCXCXSXVX;.; ..7 t Z.Z.A.S.T.D...G.VXSXAXCXCXCXCXCXCXCXCXCXCXAXHX,.] HXAXCXAXnXCXJXAXCXAXCX] B ' B zXHXCXCXCXCXCXCXCXCXCXCXCXCXCXCXCXCXCXCXCXCXCXCXCXCX",
"AXCXCXCXCXCXAXCX:.; q +.X f n.....n.D.A.A.X.%XvXSXAXCXCXCXCXCXCXCXCXCXHXnXm q.SXCXCXHXwX<.lXHXHXCXHX4Xm ,.M }.KXCXCXCXCXCXCXCXCXCXCXCXCXCXCXCXCXCXCXCXCXCXCXCXCX",
"CXCXCXCXCXCXSXBX7 8 +.< 1 L K  . .n.A.S.K.D.n.h 2XZXSXCXCXCXCXCXCXCXAXHX0.b 1.DXAXCXAXZXB b 0.bXSXSXZX] N ` B lXKXAXCXCXCXCXCXCXCXCXCXCXCXCXCXCXCXCXCXCXCXCXCXCX",
"CXCXCXCXCXCXAXvXK J 8 & P m H a n.O.Z.D.K.D.D.C.9 -.VXSXCXCXCXCXCXCXSXzXC C M lXKXCXCXHXbX` m ,.CXAXJXnXB ` B B wXHXAXCXCXCXCXCXCXCXCXCXCXCXCXCXCXCXCXCXCXCXCXCX",
"CXCXCXCXCXCXHX0X5 L 8 4 v b H +.+.K ..D.Y.Y.L.P.K.9 -XJXHXSXSXHXSXSXKXzXB C M ,.SXJXSXSXKXq.N m @XJXAXKX@XM ' ( m @XHXAXCXCXCXCXCXCXCXCXCXCXCXCXCXCXCXCXCXAXCXCX",
"CXCXCXCXCXAXHX7X% 5 H H H H K  .K 8 n.A.T.Y.T.L.L.r.p =XgXgXgXfXdXdXqXeX[ [ [ V q.NXNXNXDX9.N M 1.JXHXKXbXB ' ` ( m lXHXCXCXCXCXCXCXCXCXCXCXCXCXCXCXCXCXCXCXCXCX",
"CXCXCXCXCXCXHX7X% H H L H 7 K 7 4 7 o.S.T.Y.Y.T.J.J.d 2 p p f f d r.r.n.*.m.*.%.E @.r.j o.E _ _ 2.3X0XNXDX1.C ' ] M @XSXCXCXCXCXCXCXCXCXCXCXCXCXCXCXCXCXCXCXCXCX",
"CXCXCXCXCXAXSX:.% H J H L * 5 4 7 O.X.S.K.T.T.P.K.L.A.C.C.C.Z.K.J.D.P.I.m.{ %.4.~ R / @.S T @.R a i 3 e j | n Z ` B <.AXAXCXCXCXCXCXCXCXCXCXCXCXCXCXCXCXCXCXCXCX",
"CXCXCXCXCXSXvXW A H A % + + % 8 o.Z.S.S.G.Y.Y.Y.P.P.I.P.T.I.4.7.<X^.%X;XG.#.{ 2.#.#.~ { #.#.~ ~ C.e.-.d i 5 x > x ` ` nXHXCXCXCXCXCXCXCXCXCXCXCXCXCXCXCXCXCXCXCX",
"CXCXCXCXCXSXgXA W =.:.;.;.r & a O.X.D.A.G.Y.P.L.P.P.P.P.K.%Xm.6.K.I.J.A.I.U.2.4.2.#.2.#.%.5./.7.J.G.G.H.F.$.Y F > n N lXJXCXCXCXCXCXCXCXCXCXCXCXCXCXCXCXCXCXCXCX",
"CXCXCXCXCXSXgX&.7XAXSXHXHXSXOX< -.Z.o.Z.T.L.K.K.L.Y.Y.Y.Y.%XR.6.m.H.L.K.J.H.&.{ 3.4.#.2.3././.3.J.I.K.H.D.3.| i.s.L v * hXJXCXAXCXCXCXCXCXCXCXCXCXCXCXCXCXCXCXCX",
"CXCXCXCXCXAXZXZXSXAXCXAXAXSXSX-...Z.a o.T.L.Y.-XY.P.%XP.Y.I.m.} m.H.A.A.C.F.D.2.4.4.4.4.$.^ j.8.m.%X%XI.4.2.3.m.g.^ c + k HXSXCXCXCXCXCXCXCXCXCXCXCXCXCXCXCXCXCX",
"CXCXCXCXCXCXCXAXAXCXCXCXCXCXHXvXa o. .y G.L.L.L.K.A.A.K.A.e.%._ &.F.A.K.A.J.T./.(.4.}.7.3.m.(.7.).).U.%.2.%.$.p.g.p.Y @.3 OXSXSXAXCXCXCXCXCXCXCXCXCXCXCXCXCXCXCX",
"CXCXCXCXCXCXCXCXCXCXCXCXCXCXAXZXo...S.y o.L.G.T.K.-.p a X.h @.} &.F.K.L.K.I.R._.'.`.).7.8.`./.7.}.).6.4.U.4.| (.k.a._ @.h e ;.8XHXAXCXCXCXCXCXCXCXCXCXCXCXCXCXCX",
"CXCXCXCXCXCXCXCXCXCXCXCXCXCXAXBXs ..O.a y G.T.Y.T.J.d a X.X.^ } %.I.K.T.T.;XR._. X`.(.`.`.].7.7.4.5.3.m.W.$.3.(.k.a.R R d i 9 n 9XHXZXCXCXCXCXCXCXCXCXCXCXCXCXCX",
"CXCXCXCXCXCXCXCXCXCXCXCXCXCXAXCXo.q -.-.y a G.T.G.A.Z.-.F.&.} j./.I.G.T.L.;Xw./.v./.). X'.).4.4.7.7.R ).E.3.$.a.g.p.Y R  .g @.S _ bXHXCXCXCXCXCXCXCXCXCXCXCXCXCX",
"CXCXCXCXCXCXCXCXCXCXCXCXCXCXCXHXOX6 S.Z...a o.-.-.-.Z.J.J.3.} k.3.K.;X%X:XU.8.(.v.(._. X'.7.7.).7.4.{ %.[.$.} g.k./ Y R T T R ~ S @.VXJXCXCXCXCXCXCXCXCXCXCXCXCX",
"CXCXCXCXCXCXCXCXCXCXCXCXCXCXCXHX2X- Z.O.-.a a a Z.T.P.I.&._ a.j.{ 7.T.Q.U.8./.l.z.).(.z.l.).7.7.5.7.$.3.~.{.a.d.a.~ R T P I ~ ~ R S ;.cXAXCXCXCXCXCXCXCXAXCXCXCX",
"CXCXCXCXCXCXCXCXCXCXCXCXCXCXCXHX1X&  .X.X.-.C.D.T.T.P.U.{ { c.} _.6.8./.6.8.].b.l.3./.z.'./.3.).4.2.7.4.E.tXB.d.! T ~ R P P ~ ~ ~ I : f ZXSXCXCXCXCXCXCXCXCXCXCX",
"CXCXCXCXCXCXCXCXCXCXCXCXCXCXCXHXdX# 6 o.A.A.K.T.T.P.U.6.8.j.M.:...a u t t r u M._.[ (.x.x.`.7.3.%.#.2.$.!.|.^.f.~ R P P P R ~ R R E T = *XHXCXCXCXCXCXCXCXCXCXCX",
"CXCXCXCXCXCXCXCXCXCXCXCXCXCXCXSXvX< < a Z.Z.D.K.G.H.@.L  .h &X#Xr l O o . . . w R._.l.d.f.z.h.~ 3.3.R ~ W.W.~.V.~ R P P R ~ ~ #.R R ~ p e kXSXCXCXCXCXCXCXCXCXCX",
"CXCXCXCXCXCXCXCXCXCXCXCXCXCXCXCXAX2X, < 1 o.G.h k k j g g k w O o     . O O r k oXN.x.].{.d.k.h.^ %.p.M.|.!.W.f.~ R P R R ~ #.^ $.~ ~ -.3 s CXAXCXCXCXCXCXCXCXCX",
"CXCXCXCXCXCXCXCXCXCXCXCXCXCXCXCXAXZXt 2 L.3X%X3X3Xe.k r o .     o O u O.U.).7.*.-.oXn.XXXXl.l.k.d.d.g..XW.>XB.d./ Y P R P | ~ a.R 3.#.o.p p ZXSXCXCXCXCXCXCXCXCX",
"CXCXCXCXCXAXCXCXCXCXCXCXCXCXCXZXFXDXfXIXLXmXJ.3X=XO       o O u +.:.w.w.8.3.~ (.'.D.n.{.tXz.l.x.k.f.[.W.!.W.f.d.p.R | U U U i.i.3.{ @.d p h VXAXCXCXCXCXCXCXCXCX",
"CXCXCXCXCXCXCXCXCXCXCXVXZXZXDXIXPXPXLXPXIXGX%Xh F.r O r u o.m.M.`.} } 5.} (.l.z.'.z.f.`.tX.X].`.M..XW.!.[.`.i.l.g.p.3.Y T s.d.p.$.{ &.e.p =XSXCXAXCXCXCXCXCXCXCX",
"CXCXCXCXCXCXCXCXCXZXZXVXSXKXLXLXLXMXmXGXKXmX$Xh ;.F.O.=.m.z.M.f.k.x.k.g.z.z.z.l.z.z.z.'.tXiX[.{..X[.[.uX{.k.l.l.l.g.a.s.s.y.t.! | { S.e.p =XSXCXCXCXCXCXCXCXCXCX",
"CXCXCXCXCXCXAXAXDXDXPXPXLXLXGXmXUXUXGXUX3Xh f h X.C.Z.2.{ j.k.{.f.y.y.d.l.l.z.'.z.'.x.].iXuX5X[.[.[.iXuX].x.l.l.g.i.t.s.y.s.s./ R #.C.h 9 *XSXCXCXCXCXCXCXCXCXCX",
"CXCXCXCXCXCXjXmXmXMXIXIXGXmXmXUXGXUXmXdXr X t o.o.o.e.=._ ^ d.N.~.a.y.G y.k.l.z.l.k.'.[.[.5X5X5X[.uX5XtX{.k.d.f.M.f.f.s.s.V.s.T R @.h d 9 0XSXCXCXCXCXCXCXCXCXCX",
"CXCXCXCXAXCX2X:XqXMXUXGXGXIXUXmX0XdXjXSXdXX 1 o.X.-.X.d I E t.l.[.~.W.a.y.t.t.i.h.`.E.N.Q.>XU.{.5X[.{..XtXB.f.k.d.i.s.f.^.g.G U P C.h 3 ;.SXAXCXCXCXCXCXCXCXCXCX",
"CXCXCXCXCXAXBXdXfXfXfXfXmXfXdXhXvXVXAXAXSX0X3 6 o.d d h @.I ! k.B.~.[.>XE.N.M.m.].W.N.E.5X{.E.5XiX.X.XtXtX!.[.{.N.N.V.|.^.y.T c >.e.9 -.BXSXCXCXCXCXCXCXCXCXCXCX",
"CXCXCXCXCXCXAXCXvXhXdXhXhXvXCXAXAXAXCXCXCXJXdX# 3 a d X.h L Y y.f.!.!.>XuX5X5X~.!.E.{.5X5X[.{.6XpXuXtX.X.XtXrX>XrX~.^.^.g.s.x z xXhX$XBXSXAXCXCXCXCXCXCXCXCXCXCX",
"CXCXCXCXCXCXCXAXAXAXAXAXCXAXAXCXCXCXCXCXCXAXJX2XX # 0 s s d T E u.M.!.>X,XuX>X>X5X>XeX[.Q.5XiXiXyXaXtXtX|..X!.W..X^.rXW.s.+.z >.SXSXSXDXCXCXCXCXCXCXCXCXCXCXCXCX",
"CXCXCXCXCXCXCXCXCXCXCXCXCXCXCXCXCXCXCXCXCXCXAXSXgXOX< 3 f f d Y ! t.V.>X>X<X>X5X>XQ.E.Q.5X6XuX6XaXyXyXuX,X>X>X>X~.>X~.s./ z | NXSXCXCXCXCXCXCXCXCXCXCXCXCXCXCXCX",
"CXCXCXCXCXCXCXCXCXCXCXCXCXCXCXCXCXCXCXCXCXCXCXCXHXJXdX1 , y h s Y ! u.N.>X>X>X>X>XQ.U.E.5X5X6X6X6XyXpXpXpX,XrX,X,X>Xg.s.x Y FXJXCXCXCXCXCXCXCXCXCXCXCXCXCXCXCXCX",
"CXCXCXCXCXCXCXCXCXCXCXCXCXCXCXCXCXCXCXCXCXCXCXCXCXAXHXVX;., , = 3 L E y.B.5X>X5X>XQ.>XQ.>X5XyX6XyXpXpXpX6X,X,X,XrXV.Q z U FXHXCXCXCXCXCXCXCXCXCXCXCXCXCXCXCXCXCX",
"CXCXCXCXCXCXCXCXCXCXCXCXCXCXCXCXAXCXCXCXCXCXCXCXCXCXCXSXAXcX2X-X$Xu 4 S G M.rX,X>X<X^.Q.>X6XpXpXaXpXpXrX6XpXrXrXV.G z =.vXSXCXCXCXCXAXCXCXCXCXCXCXCXCXCXCXCXCXCX",
"CXCXCXCXCXAXCXCXCXCXCXCXCXCXCXCXCXCXCXCXCXCXCXCXCXCXCXCXAXSXHXHXHXBX&Xu 5 F i.E.<X,X,X,X,XyX6XpXpX6X6X6XqXrXrXa.S | eXSXSXCXCXCXCXCXCXCXCXCXCXCXCXCXCXCXCXCXCXCX",
"CXCXCXCXCXCXCXCXCXCXCXCXCXCXCXCXCXCXCXCXCXCXCXCXCXCXCXCXCXCXCXCXCXSXSXBXdXOX8 D a.].[.6XyXpXpXyXpXpXpX,X5XM.! J +XVXHXAXCXCXCXCXCXCXCXCXCXCXCXCXCXCXCXCXCXCXCXCX",
"CXCXCXCXCXCXCXCXCXCXCXCXCXCXCXCXCXCXCXCXCXCXCXCXCXCXCXCXCXCXCXCXCXCXAXAXHXSX3Xu 6 ..n.D.Q.Q.>X,X,X>X^.T.n.q s &XDXHXCXCXCXCXCXCXCXCXCXCXCXCXCXCXCXCXCXCXCXCXCXCX",
"CXCXCXCXCXCXCXCXCXCXCXCXCXCXCXCXCXCXCXCXCXCXCXCXCXCXCXCXCXCXCXCXCXCXCXCXCXAXSXdXe r p s d -.F.F.h F.;.d ;.&X3XAXSXCXCXCXCXCXCXCXCXCXCXCXCXCXCXCXCXCXCXCXCXCXCXCX",
"CXCXCXCXCXCXCXCXCXCXCXCXCXCXCXCXCXCXCXCXCXCXCXCXCXCXCXCXCXCXCXCXCXCXCXCXCXCXAXSXjXh p p 2 e h s s j h j cXSXAXAXVXCXCXCXCXCXCXCXCXCXCXCXCXCXCXCXCXCXCXAXCXCXCXCX",
"CXCXCXCXCXCXCXCXCXCXCXCXCXCXCXCXCXCXCXCXCXCXCXCXCXCXCXCXCXCXCXCXCXCXCXCXCXCXCXAXSXCXvXgX1X1 < s s s e ;.SXAXAXCXCXCXCXCXCXCXCXCXCXCXCXCXCXCXCXCXCXCXCXCXCXCXCXCX",
"CXCXCXCXCXCXCXCXCXCXCXCXCXCXCXCXCXCXCXCXCXCXCXCXCXCXCXCXCXCXCXCXCXCXCXCXCXCXCXCXCXAXAXHXHXjXt 6 f a ; =XHXCXCXCXCXCXCXCXCXCXCXCXCXCXCXCXCXCXCXCXCXCXCXCXCXCXCXCX",
"CXCXCXCXCXCXCXCXCXCXCXCXCXCXCXCXCXCXCXCXCXCXCXCXCXCXCXCXCXCXCXCXCXCXCXCXCXCXCXCXCXCXCXCXAXKX*X- W W D gXSXCXCXCXCXCXCXCXCXCXCXCXCXCXCXCXCXCXCXCXCXCXCXCXCXCXCXCX",
"CXCXCXCXCXAXCXCXCXCXCXCXCXCXCXCXCXCXCXCXCXCXCXCXCXCXCXCXCXCXCXCXCXCXCXCXCXAXCXCXCXCXCXCXAXHX-.A ! D W VXAXCXCXCXCXCXCXCXCXCXCXCXCXCXCXCXCXCXCXCXCXCXCXCXCXCXCXCX",
"CXCXCXCXCXCXCXCXCXCXCXCXCXCXCXCXCXCXCXCXCXCXCXCXCXCXCXCXCXCXCXCXCXCXCXCXAXHXHXAXCXCXCXCXHX2X> p.! > &XSXAXCXCXCXCXCXCXCXCXCXCXCXCXCXCXCXCXCXCXCXCXCXCXCXCXCXCXCX",
"CXCXCXCXCXCXCXCXCXCXCXCXCXCXCXCXCXCXCXCXCXCXCXCXCXCXCXCXCXCXCXCXCXCXCXAXFX0XOXvXSXCXCXAXCX4 G p.D ;.VXSXCXCXCXCXCXCXCXCXCXCXCXCXCXCXCXCXCXCXCXCXCXCXCXCXCXCXCXCX",
"CXCXCXCXCXCXCXCXCXCXCXCXCXCXCXCXCXCXCXCXCXCXCXCXCXCXCXCXCXCXCXCXCXCXCXHX2XX @ *XJXCXCXJX1X> j.G O.VXSXCXCXCXCXCXCXCXCXCXCXCXCXCXCXCXCXCXCXCXCXCXCXCXCXCXCXCXCXCX",
"CXCXCXCXCXCXCXCXCXCXCXCXCXCXCXCXCXCXCXCXAXCXCXCXCXCXCXCXCXCXCXCXAXCXAXSXNX;.> 8 VXHXHXBX; ! j.A dXHXAXCXCXCXCXCXCXCXCXCXCXCXCXCXCXCXCXCXCXCXCXCXCXCXCXCXCXCXCXCX",
"CXCXCXCXCXCXCXCXCXCXCXCXCXCXCXCXCXCXCXCXCXCXCXCXCXCXCXCXCXCXSXHXHXHXHXHXLXVX4 A -.DXSXu > _.F ;.SXAXCXCXCXCXCXCXCXCXCXCXCXCXCXCXCXCXCXCXCXCXCXCXCXCXCXCXCXCXCXCX",
"CXCXCXCXCXCXCXCXCXCXCXCXCXCXCXCXCXCXCXCXCXCXCXCXCXCXCXCXCXHXBXdX1X1X7X0XdXcXy : ; 1 r > j.! > vXHXCXCXCXCXCXCXCXCXCXCXCXCXCXCXCXCXCXCXCXCXCXCXCXCXCXCXCXCXCXCXCX",
"CXCXCXCXCXCXCXCXCXCXCXCXCXCXCXCXCXCXCXCXCXCXCXCXCXCXCXAXAX1X# X X + + @ @ - 7 8 4 + @ / j.A *XJXCXCXCXCXCXCXCXCXCXCXCXCXCXCXCXCXCXCXCXCXCXCXCXCXCXCXCXCXCXCXCXCX",
"CXCXCXCXCXCXCXCXCXCXCXCXCXCXCXCXCXCXCXCXCXCXCXCXCXCXCXAXSXu 1 -.*X1X1X1X1XO.J D J : J ! ^ A ;.DXAXCXCXCXCXCXCXCXCXCXCXCXCXCXCXCXCXCXCXCXAXCXCXCXCXCXCXCXCXCXCXCX",
"CXCXCXCXCXCXCXCXCXCXCXCXCXCXCXCXCXCXCXCXCXCXCXCXCXCXCXCXCXZXAXSXHXHXSXHXHXHXNX7 : J W Q A @ @ < cXSXCXCXCXCXCXCXCXCXCXCXCXCXCXCXCXCXCXCXCXCXCXCXCXCXCXCXCXCXCXCX",
"CXCXCXCXCXCXCXCXCXCXCXCXCXCXAXCXCXCXCXCXCXCXCXCXCXCXCXCXCXAXAXAXAXCXCXCXCXHXjX< % % > @ 5 -.1 6 NXSXCXCXCXCXCXCXCXCXCXCXCXCXCXCXCXCXCXCXCXCXCXCXCXCXCXCXCXCXCXCX",
"AXCXCXCXCXCXCXCXCXCXCXCXCXCXCXCXCXCXCXCXCXCXCXCXCXCXCXCXCXCXCXCXCXCXCXCXHXdXX $ 4 7  .OXvXHXBXCXAXCXCXCXCXCXCXCXCXCXCXCXCXCXCXCXCXCXCXCXCXCXCXCXCXCXCXCXCXCXCXCX",
"CXCXCXCXCXCXCXCXCXCXCXCXCXCXCXCXCXCXCXCXCXCXCXCXCXCXCXCXCXCXCXCXCXCXCXCXDXjX$X1XcXVXSXJXSXVXSXAXCXCXCXCXCXCXCXCXCXCXCXCXCXCXCXCXCXCXCXCXCXCXCXCXCXCXCXCXCXCXCXCX",
"CXCXCXCXCXCXCXCXCXCXCXCXCXCXCXCXCXCXCXCXCXCXCXCXCXCXCXCXCXCXCXCXCXCXCXCXVXAXHXHXSXSXCXCXCXCXCXCXCXCXCXCXCXCXCXCXCXCXCXCXCXCXAXCXCXCXCXCXCXCXCXCXCXCXCXCXCXCXCXCX",
"CXCXCXCXCXCXCXCXCXCXCXCXCXCXCXCXCXCXCXCXCXCXCXCXCXCXCXCXCXCXCXCXCXCXCXCXAXCXCXCXCXCXCXCXCXCXCXCXCXCXCXCXCXCXCXCXCXCXCXCXCXCXCXCXCXCXCXCXCXCXCXCXCXCXCXCXCXCXCXCX",
"CXCXCXCXCXCXCXCXCXCXCXCXCXCXCXCXCXCXCXCXCXCXCXCXCXCXCXCXCXCXCXCXCXCXCXCXCXCXCXCXCXCXCXCXCXCXCXCXCXCXCXCXCXCXCXCXCXCXCXCXCXCXCXCXCXCXCXCXCXCXCXCXCXCXCXCXCXCXCXCX",
"CXCXCXCXCXCXCXCXCXCXCXCXCXCXCXCXCXCXCXCXCXCXCXCXCXCXCXCXCXCXCXCXCXCXCXCXCXCXCXCXCXCXCXCXCXCXCXCXCXCXCXCXCXCXCXCXCXCXCXCXCXCXCXCXCXCXCXCXCXCXCXCXCXCXCXCXCXCXAXCX",
"CXCXCXCXCXCXCXCXCXCXCXCXCXCXCXCXCXCXCXCXCXCXCXCXCXCXCXCXCXCXCXCXCXCXCXCXCXCXCXCXCXCXCXCXCXCXCXCXCXCXCXCXCXCXCXCXCXCXCXCXCXCXCXCXCXCXCXCXCXCXCXCXCXCXCXCXCXCXCXCX"
};
