/* XPM */
static char *c414de73016e474580c5d5daf09ac125BrU6j2Ich8Yz3dCR[] = {
/* columns rows colors chars-per-pixel */
"80 80 245 2 ",
"   c #050404",
".  c #0A0403",
"X  c #0B0907",
"o  c #0D0B09",
"O  c #140A06",
"+  c #1A0D06",
"@  c #130D0A",
"#  c #1A0E09",
"$  c #170401",
"%  c #15110D",
"&  c #1C120C",
"*  c #161211",
"=  c #1C1511",
"-  c #1E1813",
";  c #1B1319",
":  c #100D10",
">  c #23150C",
",  c #29160B",
"<  c #25180E",
"1  c #2C1A0D",
"2  c #281406",
"3  c #321D0D",
"4  c #381D08",
"5  c #221611",
"6  c #241A13",
"7  c #2B1D13",
"8  c #241C19",
"9  c #2A1D19",
"0  c #311E12",
"q  c #351D18",
"w  c #250B07",
"e  c #34210E",
"r  c #3A240D",
"t  c #3F280F",
"y  c #2D2016",
"u  c #2D231B",
"i  c #26211D",
"p  c #342214",
"a  c #3A2514",
"s  c #3C2915",
"d  c #33251B",
"f  c #3A261B",
"g  c #36281D",
"h  c #3B2A1C",
"j  c #372816",
"k  c #2E200F",
"l  c #2B1B24",
"z  c #361B25",
"x  c #2A2424",
"c  c #342623",
"v  c #352A22",
"b  c #3B2D23",
"n  c #3A2829",
"m  c #3E3126",
"M  c #3E322A",
"N  c #3A2535",
"B  c #3D3633",
"V  c #3F3A37",
"C  c #4E1B09",
"Z  c #432B16",
"A  c #422D1B",
"S  c #472B19",
"D  c #44311D",
"F  c #4B341C",
"G  c #493217",
"H  c #55391C",
"J  c #623C1D",
"K  c #412E22",
"L  c #44262D",
"P  c #433224",
"I  c #4B3523",
"U  c #4E3925",
"Y  c #44352B",
"T  c #4A3629",
"R  c #46392D",
"E  c #4C3A2C",
"W  c #523A25",
"Q  c #5A3D24",
"!  c #523D2B",
"~  c #563B25",
"^  c #462737",
"/  c #423632",
"(  c #493532",
")  c #453A33",
"_  c #4C3D32",
"`  c #483E39",
"'  c #513E32",
"]  c #553E39",
"[  c #542F37",
"{  c #683F2C",
"}  c #5D4225",
"|  c #55402D",
" . c #5B432D",
".. c #4B413B",
"X. c #4F4234",
"o. c #544233",
"O. c #5A4634",
"+. c #53443B",
"@. c #59463B",
"#. c #5B493C",
"$. c #5C4836",
"%. c #64452C",
"&. c #684A2C",
"*. c #6E502B",
"=. c #644B33",
"-. c #6A4D34",
";. c #634D3B",
":. c #664934",
">. c #66503C",
",. c #6B533C",
"<. c #6E5231",
"1. c #75553B",
"2. c #775639",
"3. c #774E2D",
"4. c #7D623C",
"5. c #4D2B45",
"6. c #542D43",
"7. c #5B3447",
"8. c #593B50",
"9. c #673658",
"0. c #63364A",
"q. c #753C67",
"w. c #793F71",
"e. c #524541",
"r. c #5A4443",
"t. c #5C4D43",
"y. c #564A48",
"u. c #5D534B",
"i. c #574F4F",
"p. c #624C43",
"a. c #674D4A",
"s. c #635244",
"d. c #64544C",
"f. c #6B564D",
"g. c #6B5848",
"h. c #7C5D43",
"j. c #745947",
"k. c #674C55",
"l. c #6C5454",
"z. c #6D5C52",
"x. c #695A58",
"c. c #745B5C",
"v. c #755B54",
"b. c #7D644B",
"n. c #776146",
"m. c #68615B",
"M. c #776659",
"N. c #755A66",
"B. c #754367",
"V. c #7C626B",
"C. c #776866",
"Z. c #7E736B",
"A. c #6D6663",
"S. c #825A35",
"D. c #82442A",
"F. c #8A6538",
"G. c #916F3E",
"H. c #866648",
"J. c #96774B",
"K. c #846953",
"L. c #927459",
"P. c #977657",
"I. c #8F7458",
"U. c #A57D5A",
"Y. c #874877",
"T. c #8A5674",
"R. c #856B69",
"E. c #85766C",
"W. c #947766",
"Q. c #876A75",
"!. c #887B78",
"~. c #94767A",
"^. c #936773",
"/. c #A37E7F",
"(. c #A17F63",
"). c #AB8751",
"_. c #9A8168",
"`. c #928477",
"'. c #A78869",
"]. c #A68A72",
"[. c #A99379",
"{. c #B69879",
"}. c #C8A67B",
"|. c #9B558C",
" X c #934D86",
".X c #A85A98",
"XX c #B05D9D",
"oX c #987988",
"OX c #9E7D92",
"+X c #8E7282",
"@X c #A76798",
"#X c #A37F85",
"$X c #AD5EA0",
"%X c #AF62A3",
"&X c #B672A7",
"*X c #C77EB7",
"=X c #948B85",
"-X c #9E8290",
";X c #AB8687",
":X c #A98798",
">X c #B18C9B",
",X c #A49A95",
"<X c #BA9597",
"1X c #B39587",
"2X c #B9A489",
"3X c #B5A699",
"4X c #B18DA6",
"5X c #BA95AB",
"6X c #BC97B3",
"7X c #AF8CA4",
"8X c #B2AFAB",
"9X c #C29987",
"0X c #C59E96",
"qX c #C4A989",
"wX c #C7AA94",
"eX c #CEB79B",
"rX c #C49EBB",
"tX c #C39CB5",
"yX c #C79CA3",
"uX c #D2BCA6",
"iX c #D6A9B8",
"pX c #D0A6AC",
"aX c #D7C4AA",
"sX c #DFD0B8",
"dX c #E8D8BA",
"fX c #CAA3C2",
"gX c #C7A1C2",
"hX c #D4ABCB",
"jX c #D9AED2",
"kX c #D5ABD1",
"lX c #DEB2D8",
"zX c #E4B7DC",
"xX c #E6BBC6",
"cX c #E6B9E3",
"vX c #E9BCE6",
"bX c #ECBEE9",
"nX c #E3B7E0",
"mX c #EEC5D5",
"MX c #EEC0EC",
"NX c #EDC0E1",
"BX c #F1C3EE",
"VX c #F4C6E5",
"CX c #F5C6F3",
"ZX c #F9C9F5",
"AX c #FFCEFF",
/* pixels */
"AXAXAXAXAXAXAXAXAXAXAXAXAXAXAXAXAXAXAXAXAXAXAXAXAXAXAXAXAXAXAXAXAXAXAXAXAXAXAXAXAXAXAXAXAXAXAXAXAXAXAXAXAXAXAXAXAXAXAXAXAXAXAXAXAXAXAXAXAXAXAXAXAXAXAXAXAXAXAXAX",
"AXAXAXAXAXAXAXAXAXAXAXAXAXAXAXAXAXAXAXAXAXAXAXAXAXAXAXAXAXAXAXAXAXAXAXAXAXAXAXAXAXAXAXAXAXAXAXAXAXAXAXAXAXAXAXAXAXAXAXAXAXAXAXAXAXAXAXAXAXAXAXAXAXAXAXAXAXAXAXAX",
"AXAXAXAXAXAXAXAXAXAXAXAXAXAXAXAXAXAXAXAXAXAXAXAXAXAXAXAXAXAXAXAXAXAXAXAXAXAXAXZXvXZXAXAXjXnXAXAXAXAXAXAXAXAXAXAXAXAXAXAXAXAXAXAXAXAXAXAXAXAXAXAXAXAXAXAXAXAXAXAX",
"AXAXAXAXAXAXAXAXAXAXAXAXAXAXAXAXAXAXAXAXAXAXAXAXAXAXAXAXAXAXAXAXAXAXAXAXjX6XOXV.V.x.N.Q.@.r.4XtXlXAXAXZXAXCXCXCXMXAXAXAXAXAXAXAXAXAXAXAXAXAXAXAXAXAXAXAXAXAXAXAX",
"AXAXAXAXAXAXAXAXAXAXAXAXAXAXAXAXAXAXAXAXAXAXAXAXAXAXAXAXAXAXAXAXAXAXBX:Xd.X.E g f g d b b d / m h oXAXAXCXCXCXZXAXAXAXAXAXAXAXAXAXAXAXAXAXAXAXAXAXAXAXAXAXAXAXAX",
"AXAXAXAXAXAXAXAXAXAXAXAXAXAXAXAXAXAXAXAXAXAXAXAXAXAXAXAXAXAXAXAXCXgXZ.O.+.X.b 9 9 9 9 u 7 7 u u K Y oXCXAXAXAXAXAXAXAXAXAXAXAXAXAXAXAXAXAXAXAXAXAXAXAXAXAXAXAXAX",
"AXAXAXAXAXAXAXAXAXAXAXAXAXAXAXAXAXAXAXAXAXAXAXAXAXAXAXAXAXAXAXAX7Xf.s.@...) n i d u 8 6 7 7 k k c K b :XCXAXAXAXAXAXAXAXAXAXAXAXAXAXAXAXAXAXAXAXAXAXAXAXAXAXAXAX",
"AXAXAXAXAXAXAXAXAXAXAXAXAXAXAXAXAXAXAXAXAXAXAXAXAXAXAXAXAXAXAXCXd.+.u.....V B M c x 8 7 6 9 i k 0 d b b l.vXAXAXAXAXAXAXAXAXAXAXAXAXAXAXAXAXAXAXAXAXAXAXAXAXAXAX",
"AXAXAXAXAXAXAXAXAXAXAXAXAXAXAXAXAXAXAXAXAXAXAXAXAXAXAXZXAXAXAX6Xs.d.i.....) R V g u k k 6 y y y d p f h d 7XAXAXAXAXAXAXAXAXAXAXAXAXAXAXAXAXAXAXAXAXAXAXAXAXAXAX",
"AXAXAXAXAXAXAXAXAXAXAXAXAXAXAXAXAXAXAXAXAXAXAXAXAXAXAXCXAXAX6X`.M.y.......V R m j i u u u y y k d 9 d d p r.vXAXAXAXAXAXAXAXAXAXAXAXAXAXAXAXAXAXAXAXAXAXAXAXAXAX",
"AXAXAXAXAXAXAXAXAXAXAXAXAXAXAXAXAXAXAXAXAXAXAXAXAXAXAXAXcXfXM.C.V u Y ) ....R h k i k i i u u y 7 7 9 7 7 d oXAXAXAXAXAXAXAXAXAXAXAXAXAXAXAXAXAXAXAXAXAXAXAXAXAX",
"AXAXAXAXAXAXAXAXAXAXAXAXAXAXAXAXAXAXAXAXAXAXAXAXAXAXAXhXA.d.u.V & & u m ..X.X.g k k u v g u u u 9 7 7 u 7 7 f OXBXAXAXAXAXAXAXAXAXAXAXAXAXAXAXAXAXAXAXAXAXAXAXAX",
"AXAXAXAXAXAXAXAXAXAXAXAXAXAXAXAXAXAXAXAXAXAXAXAXAXAX6XR.d.t.y.i % - = u ..+.X.b u v g R M v v v d d u y 6 7 d K l.vXAXAXAXAXAXAXAXAXAXAXAXAXAXAXAXAXAXAXAXAXAXAX",
"AXAXAXAXAXAXAXAXAXAXAXAXAXAXAXAXAXAXAXAXAXAXAXAXAXfXx.z.y.x.X.- * - % % u X.X.R m X.m m M m m g v g d 9 7 7 p d b Q.AXAXAXAXAXAXAXAXAXAXAXAXAXAXAXAXAXAXAXAXAXAX",
"AXAXAXAXAXAXAXAXAXAXAXAXAXAXAXAXAXAXAXAXAXAXAXAXvXN.d.x.x.e.b # & o o @ y P X.M g b m v g u u v u y u u 7 6 7 d b K zXAXAXAXAXAXAXAXAXAXAXAXAXAXAXAXAXAXAXAXAXAX",
"AXAXAXAXAXAXAXAXAXAXAXAXAXAXAXAXAXAXAXAXMXAXAXvX7XM.x.A.i.d.T * 8 o o < j s h g i y v m m g u k y y y 9 < 6 7 u j K k.AXAXAXAXAXAXAXAXAXAXAXAXAXAXAXAXAXAXAXAXAX",
"AXAXAXAXAXAXAXAXAXAXAXAXAXAXAXAXAXAXrXrXQ.c.N.Q.] @.V.C.`.Z.:.# i g % < j D j g u b T b R g 6 7 p g d 9 < < i u d h h V.CXAXAXAXAXAXAXAXAXAXAXAXAXAXAXAXAXAXAXAX",
"AXAXAXAXAXAXAXAXAXAXAXAXAXAXAXvXhXoXz.+.R K b b 9 c =Xm.X.M.K.> i P - - s F s j g m d % 8 u 1 7 d j d y < > < p u g d f oXAXAXAXAXAXAXAXAXAXAXAXAXAXAXAXAXAXAXAX",
"AXAXAXAXAXAXAXAXAXAXAXAXAXAXjX~.g.t.R v Y ' L u = B !.n 3.{.j.K o j k k U G t j g k O . O < 8 < 7 y v d 6 & 6 u y g K p j zXAXAXAXAXAXAXAXAXAXAXAXAXAXAXAXAXAXAX",
"AXAXAXAXAXAXAXAXAXAXAXAXAXAX!.m.t.t.Y u Y ( u 8 : x E.p.C &.L f % - i D G G m j 6 X X o X O y g d d u y 9 > 7 p y h P p 1 7.vXAXAXAXAXAXAXAXAXAXAXAXAXAXAXAXAXAX",
"AXAXAXAXAXAXAXAXAXAXAXAXCX5XM.t.+.t.M b c - @ @ l X R.=Xq $ S b - - j F F s | b @ X   o @ O u b y g b y 8 6 7 d d h b 1 , 3 c.bXAXAXAXAXAXAXAXAXAXAXAXAXAXAXAXAX",
"AXAXAXAXAXAXAXAXAXAXAXAXrXC.#.X.Y _ R Y x X @ * ; : _ Z.i.) r./ % k X.D s s | u o X o % & @ > 6 % > h j > < < d f f p 1 , 1 a N.CXAXAXAXAXAXAXAXAXAXAXAXAXAXAXAX",
"AXAXAXAXAXAXAXAXAXAXAXAX:Xd.#.R j / ] _ 8   : ; ; ; c l.A.E.C.5 % g X.j D s X.y X @ o % 6 @ $ a < + d b > > 7 p d d 7 , 2 , 1 p 7XAXAXAXAXAXAXAXAXAXAXAXAXAXAXAX",
"AXAXAXAXAXAXAXAXAXAXAXCXE.t.#.U g g ' B x : ; l N N ^ k.t.d...o - X.m G G j m - X - % @ O c ] f s > 9 b 6 < 9 7 d a , > , , , 0 r.AXAXAXAXAXAXAXAXAXAXAXAXAXAXAX",
"AXAXAXAXAXAXAXAXAXAXAXlXV.d.O.I g p I M B l l 5.w.q.q.V.y.9 * * b P h G m j j % X 6 - = 9 {.U.w h p & b u & 9 9 & > 1 2 1 7 1 q b gXAXAXAXAXAXAXAXAXAXAXAXAXAXAX",
"AXAXAXAXAXAXAXZXZXAXAX-Xr.+.X.j b P m M M B 5.B..X.X|.|.k.x u n P D m s j p p -   @ T I q 1.D.C A u # h p & = - @ , < # > 0 0 d u k.CXAXAXAXAXAXAXAXAXAXAXAXAXAX",
"AXAXAXAXAXAXAXAXCXAXrXc u _ E p Y O.D i u n 8. X$X$X%X|.N.y.e./ m m s j y e j y X 6 A A & $ C 4 b x 7 y 8 & % % & , > + + , 9 c u Y kXAXAXAXAXAXAXAXAXAXAXAXAXAX",
"AXAXAXAXAXAXAXAXAXfX+.6 7 M E d u #. .u 6 c 5.B.|.$X&XOXT.i.e./ v u b j k e j y % # q I T 9 9 c Y d 6 & & % o o & & + + O > 5 7 b n Q.ZXAXAXAXAXAXAXAXAXAXAXAXAX",
"AXAXAXAXAXAXAXAXjXN.b d d v P P y R >.P 8 9 ^ 9. X&X*X&Xk.B P M b v h p 1 3 e 1 & p I I I ] I c 7 X & & 6 % X X @ # w # + $ , 6 d b n 6XAXAXAXAXAXAXAXAXAXAXAXAX",
"AXAXAXAXAXAXAXMXE.o.E b d v M Y d 9 X.E 8 * l 8.@X&X@XN.( b b c b b d p 1 1 k k > 7 f a 3 , 5 # + & & 5 - & o X # > > # > + > , a h K r.cXAXAXAXAXAXAXAXAXAXAXAX",
"AXAXAXAXAXAXZX-Xp.#.@.Y b Y ) b 7 & n v = * ; x.oXQ.k.p.T I c n b c p 1 , , y p , > p f 5 & 5 9 q 5 * 5 6 = @ % 5 > # # , , , 0 7 0 b T cXAXAXAXAXAXAXAXAXAXAXAX",
"AXAXAXAXAXAXZX~.s.#._ P R ' _ 5 6 6 Y u o * @ c u.x.a.] O.' K M c c k 3 1 3 e p 0 7 f z z L 6.7.5.N 8 - % o o , p 1 > # w 1 , 0 0 0 p o.rXAXAXAXAXAXAXAXAXAXAXAX",
"AXAXAXAXAXAXAXQ.+.) _ _ _ Y b d - = m u o o % - +.f.#.O.O.! Y n v d 7 1 1 0 p p q q f ^ 0.q.Y.Y.Y.9.z ; X o - y s p , # & 1 1 , d f 3 P >XAXAXAXAXAXAXAXAXAXAXAX",
"AXAXAXAXAXAXAX+Xb P o.+.Y Y _ c % o v u o X i u.m.g.@.>.O.Y u d d d p < e r p p A q L 9.Y.|.|..X.XY.5.; o & g d k j 1 + > 1 q 0 p K q f c.CXAXAXAXAXAXAXAXAXAXAX",
"AXAXAXAXAXAXlXV.P b b P Y Y M = @ & v u X % g.M.s.$.>.O.h 6 7 d d q d p p r a p a K 0.Y..XXX.XXX$XY.5.; o i g p e p 1 + 2 1 1 p I I T f @.CXAXAXAXAXAXAXAXAXAXAX",
"AXAXAXAXAXkX+XE P h d A c 6 & 9 > & v k   M E.#.o.n.>.1 & # 9 b 0 d y p e a p e a F 0.Y.XXXX.X.X Xq.N ; i j h p , 7 7 , 7 q 7 a T o.' Y a.AXAXAXAXAXAXAXAXAXAXAX",
"AXAXAXAXAXV...Y b h d g d > 9 b 6 = d 6 x M.M.o.;.%.7 O w 7 f 0 < k 1 r p s p r 0 f [ q. X|. XY.q.5.l * u h s k , 1 0 3 0 a a h I o.O.E OXZXAXAXAXAXAXAXAXAXAXAX",
"AXAXAXAXMXk.X.P b P b b b h 7 h d = u 9 m.`.,.| E + . + 0 b h 7 2 1 j s j s p p q q z [ 9.9.0.6.^ l @ * v P t r 3 r 3 0 1 q f A K P ;.:XbXAXAXAXAXAXAXAXAXAXAXAX",
"AXAXAXAXbXN.X.Y P P P p A f 7 m m & X * Z.M.U .._ v @ & d h p , > p A p p s s p d > w 9 z L n c z * X - P D r e a j e p p a a p h Y f.tXAXAXAXAXAXAXAXAXAXAXAXAX",
"AXAXAXAXAXZ.T T Y P h d h h u m Y * @ V E.R Z.+Xu.y.v > 7 j e 1 3 1 > > p s D j , * # # # q i k 9 @ @ u T m t r p h d a a a 3 0 A o.c.kXAXAXAXAXAXAXAXAXAXAXAXAX",
"AXAXAXAXAX5XX.Y T P m b h d y m Y + i m.Z.A.8X,Xu.+.Y d p d p , > + + & p P D p 1 6 > & - 6 6 > % o % u Y D t r e p p p r r e s P @.Q.vXAXAXAXAXAXAXAXAXAXAXAXAX",
"AXAXAXAXAXCX..m Y m P m f y y ) R + B Z.Z.8X8X,XE.M.M.o.P P f & & + , e j I s < 6 < + & k < > & @ o % u Y Y D r r 4 1 r t j p A ! t.jXZXAXAXAXAXAXAXAXAXAXAXAXAX",
"AXAXAXAXAXZX+Xo.R P b v p 6 c e.R @ y.`.M._...,X3X`.1XK.+._ P 9 6 & + 1 j T d + & & % - - & < % o o @ = m I Y D Z r r r a a p P f.tXZXAXAXAXAXAXAXAXAXAXAXAXAXAX",
"AXAXAXAXAXAXrX#.P Y h d g v Y ..g 6 m.E.M z.@ +.`.g.M.v.s.+.E d - 2 & > j | d + & & % 6 = - > & @ @ @ % d Y E E Z e r Z a a P o.Q.CXAXAXAXAXAXAXAXAXAXAXAXAXAXAX",
"AXAXAXAXAXCXk.c h P I P P _ _ d o M `.E.i t.u.o @.6 # 5 m @.| 7 O & 1 , s $.h @ + @ - - - 6 < & - = & % , d b I A a I K p A E E d.bXAXAXAXAXAXAXAXAXAXAXAXAXAXAX",
"AXAXAXAXZX5X9 > d P P P b d 9 & - ..=XC.% y M.u > & @ @ % +.m & O 2 > , a O.g X % & - & - 6 > 6 6 k & - 7 1 < p p d 7 p 1 p f j f MXAXAXAXAXAXAXAXAXAXAXAXAXAXAX",
"AXAXAXAX5X7.0 p d b b b p 7 6 > * x =Xe.7 . j 5 1 & p h d 8 6 & < , @ + p Y y + & 6 6 & < 6 6 6 k 6 & & h 7 2 , < > # f p 2 a h a.cXAXAXAXAXAXAXAXAXAXAXAXAXAXAX",
"AXAXAX>Xt.f f b b K K A P f 7 > . V ,Xe.> 6 # 7 7 7 y I p + y P d 7 & + b m < @ & 6 - - - < 6 8 8 < & y b < > 2 1 0 3 U I q 1 A @.jXAXAXAXAXAXAXAXAXAXAXAXAXAXAX",
"AXAXMXV.;.b h T E E K P U a 7 & . / 3Xx.$ & 8 u 8 Z 0 1 s u g d 7 < > j m j & % & 6 - * 9 = 9 b - % < g d > , 2 3 a a ! ~ a 0 0 ! ~.AXAXAXAXAXAXAXAXAXAXAXAXAXAX",
"AXAXAXhX~.o.' E T h A h I A > O @ 6 !.E.E 7 u u * p S d j h < 1 < & & h j & + & & - & - u u g g - % u g < # , 1 3 Z A h q A f a P v.bXAXAXAXAXAXAXAXAXAXAXAXAXAX",
"AXAXAXAXAXhXOXe.b h P h A A & X @ . B !.M.,.>.#.> , p p h g y y 7 & & 6 & @ & & & % * % 6 b b d - 6 m d < & , 3 a A A h 1 0 f S ! ;.fXAXAXAXAXAXAXAXAXAXAXAXAXAX",
"AXAXAXAXAXAXZXoX! Y P A 7 d & @ @ . X e.d.m.j.H.-.r 1 6 - 9 p > < 8 k @ @ & > & o o % o % u v d d h m y p < 2 7 W S a U f 1 S E ! a.hXAXAXAXAXAXAXAXAXAXAXAXAXAX",
"AXAXAXAXAXAXCXQ.I U I A 7 & O @ @ o X - / M s H 2.:.I D h h F j & 9 < & - < < @ o o o o o u g m T Y g y y y 1 , h W 1 A W A F E ! j.CXAXAXAXAXAXAXAXAXAXAXAXAXAX",
"AXAXAXAXAXAXfX+.! W ! I p + # # > > # @ - * X 2 :.,.| |  .! A f 6 5 < < < % o o o o o o X - m P m d p < 6 y < , 1 A 7 1 F I S T ' R.AXAXAXAXAXAXAXAXAXAXAXAXAXAX",
"AXAXAXAXAXAXfX#. . .;.! 0 > 9 0 1 1 > > & - 7 Z G h j o.I j + > - & y < % o o o o o o o . - h g y h p & > p 1 a 0 0 q 7 a f I T O.>XAXAXAXAXAXAXAXAXAXAXAXAXAXAX",
"AXAXAXAXAXAXMX#. .%.:.! 5 0 A Z p 1 < > & 1  .D & 5 u u u y * X m % < & o o o o o o o : % y f d m y - - > < I I a @ & @ O -.;.b ! hXAXAXAXAXAXAXAXAXAXAXAXAXAXAX",
"AXAXAXAXAXAXCX;.$.|  .| h Z S A a 0 7 7 # 7 >.,.X.X.g - % % s F.n.i o * o o o o o o o = < 6 d d 7 6 < 7 < 6 P I #   o * K P.] p R.CXAXAXAXAXAXAXAXAXAXAXAXAXAXAX",
"AXAXAXAXAXAXCX:Xo.T ! ! D s a Z a d d 5 0 p >.b.>.n.F k < o W G.s.x X - o o o o % % % 6 u d d d < 8 j f < @ 6 < o o @ _ h.:.> r.kXAXAXAXAXAXAXAXAXAXAXAXAXAXAXAX",
"AXAXAXAXAXAXAXCXE.$.E U { H a a a a h 1 d U 2.h g | <.G b.g.>.P.- % - * o o o o o 6 6 i g m m ! P 7 < p X = y & @ o o c ;.f . ^.CXAXAXAXAXAXAXAXAXAXAXAXAXAXAXAX",
"AXAXAXAXAXAXAXAXMX<X<.=.%.&.F 0 p p 7 > 0 :.H.j.| H t } }.aX2XP.  % % - : % o @ % y u c m P P  .P + & O & h f % = @ X % K P 7 :XAXAXAXAXAXAXAXAXAXAXAXAXAXAXAXAX",
"AXAXAXAXAXAXAXAXAXCX1X2.S.1.{ > & < , + y <.1.K._.1.&.K.3XaX{.X.X o % - - % o % 6 b B P P Y I I p p A < 6 j & X & % o o 5 O. .c.CXAXAXAXAXAXAXAXAXAXAXAXAXAXAXAX",
"AXAXAXAXAXAXAXAXAXAXZXwX).H.H q 8 p A 7 p <.<.I.P.'.{.2X2X2X).u X o o % o o % - i v R | Y U W I I I P , & + % & % : o % 9 ' T q l.jXAXAXAXAXAXAXAXAXAXAXAXAXAXAX",
"AXAXAXAXAXAXAXAXAXAXAXZXyXU.Q f I f I A W {.1.G '.aXaX[._.2XP.y   X X X o @ % & d n X.$.! W W U I I f 7 6 , k % @ o X % c 9 , 5 < a.MXAXAXAXAXAXAXAXAXAXAXAXAXAX",
"AXAXAXAXAXAXAXAXAXAXAXAXCXiXU.{ ~ F I -.2._.E.I.aXsX2XW.{.wX+.  X X X X o o @ y M E ! O.| D I W I F h 0 Z D k @ o % % - c @ O 1 < 1 5XAXAXAXAXAXAXAXAXAXAXAXAXAX",
"AXAXAXAXAXAXAXAXAXAXAXAXAXAXxXqX2.-.Q O.1.K.qXaXaXuXaXeXeX].i   o o @ o X @ > f / E E ' ! F W W I K f Z H A 7 6 & % 7 y i > > 1 3 0 Q CXAXAXAXAXAXAXAXAXAXAXAXAX",
"AXAXAXAXAXAXAXAXAXAXAXAXAXAXAXVX9XJ.:.I -.I.P.2X3XaXdXwX'.g o   o o o X X * 5 n _ R _ ! ~ W ! a d A A S F Z s s 0 3 < 1 < 9 7 , 1 p I >XAXAXAXAXAXAXAXAXAXAXAXAX",
"AXAXAXAXAXAXAXAXAXAXAXAXAXAXAXAXZXpXS.! | K.I.K.I.].K.2.>.% o @ X   X @ + @ > q _ R ] O.! I U f 1 p A F H G p Z Z W A O @ y j u f P I #XZXAXAXAXAXAXAXAXAXAXAXAX",
"AXAXAXAXAXAXAXAXAXAXAXAXAXAXAXAXAXAXhX~.4.1.b.b.| f > y u o % % = O O O X + @ 9 ( R O.$.U S U W q 0 U ~ G Z 0 < Z W A + > < b I ' T F :XZXAXAXAXAXAXAXAXAXAXAXAX",
"AXAXAXAXAXAXAXAXAXAXAXAXAXAXAXAXAXAXAXNX0XH.[.'.j.< O . % i % u ! 6   O @ @ # = K R o.;.o.D I I f f W G G A p # a Z 1 , 3 3 P ! o.E %.R.BXAXAXAXAXAXAXAXAXAXAXAX",
"AXAXAXAXAXAXAXAXAXAXAXAXAXAXAXAXAXAXAXAXAXiX2X}.}.W.d 7 6 d i j I 9 . O > # > , c Y E | ! W W I a P W H H D A 7 0 s < , , 3 U O.O.O.-.W.lXAXAXAXAXAXAXAXAXAXAXAX",
"AXAXAXAXAXAXAXAXAXAXAXAXAXAXAXAXAXAXAXAXAXZXVXuX).).-.~ W | U p 1 0 > # # # > > & u u i M | E D h P Q W H U U I a a < < 1 , I ;.O.,.h.<XCXAXAXAXAXAXAXAXAXAXAXAX",
"AXAXAXAXAXAXAXAXAXAXAXAXAXAXAXAXAXAXAXAXAXAXAXAXiXW.g.} *.*.4.*.W -.O.p a d 0 a p > 6 6 u E | I I I ! } Q Q ~ %.J Z 3 P S , S s.,.h.I.yXAXAXAXAXAXAXAXAXAXAXAXAX",
"AXAXAXAXAXAXAXAXAXAXAXAXAXAXAXAXAXAXAXAXAXAXAXAXAXMX6Xl.S S 3.J.P.J.H.h.1.2.%.W I a p q 6 p I ! D I I ~ H } }  .*.S.2.f f Z S ;.H.H.;XzXAXAXAXAXAXAXAXAXAXAXAXAX",
"AXAXAXAXAXAXAXAXAXAXAXAXAXAXAXAXAXAXAXAXAXAXAXAXAXAXAXkXOXi._ <.S.3.Q 3.2.2.-.%.%.,.j.~.~.v.O.| I U | | H %.%.%.&.H.H.3 + W ! o.H.yXbXAXAXAXAXAXAXAXAXAXAXAXAXAX",
"AXAXAXAXAXAXAXAXAXAXAXAXAXAXAXAXAXAXAXAXAXAXAXAXAXAXAXAXCXlX6X>X9X#Xa.h.j.;.( T #XiXAXCXCXCXiX/.v.U | =.>.} %.=.:.%.3.S.P  .,.R.<XBXAXAXAXAXAXAXAXAXAXAXAXAXAXAX",
"AXAXAXAXAXAXAXAXAXAXAXAXAXAXAXAXAXAXAXAXAXAXAXAXAXAXAXAXAXAXAXAXCXbXzXzXzXrXzXbXCXAXAXAXAXAXAXBXjX~.F $.,.=.&.=.%.3.F.}.].f.yXzXAXAXAXAXAXAXAXAXAXAXAXAXAXAXAXAX",
"AXAXAXAXAXAXAXAXAXAXAXAXAXAXAXAXAXAXAXAXAXAXAXAXAXAXAXAXAXAXAXAXAXAXAXAXAXAXAXAXAXAXAXAXAXAXAXAXAXAXzXtX>X;X;X;XW.9XmXmXBXCXZXAXAXAXAXAXAXAXAXAXAXAXAXAXAXAXAXAX",
"AXAXAXAXAXAXAXAXAXAXAXAXAXAXAXAXAXAXAXAXAXAXAXAXAXAXAXAXAXAXAXAXAXAXAXAXAXAXAXAXAXAXAXAXAXAXAXAXAXAXAXAXAXAXCXAXAXAXAXAXAXAXAXAXAXAXAXAXAXAXAXAXAXAXAXAXAXAXAXAX",
"AXAXAXAXAXAXAXAXAXAXAXAXAXAXAXAXAXAXAXAXAXAXAXAXAXAXAXAXAXAXAXAXAXAXAXAXAXAXAXAXAXAXAXAXAXAXAXAXAXAXAXAXAXAXAXAXAXAXAXAXAXAXAXAXAXAXAXAXAXAXAXAXAXAXAXAXAXAXAXAX",
"AXAXAXAXAXAXAXAXAXAXAXAXAXAXAXAXAXAXAXAXAXAXAXAXAXAXAXAXAXAXAXAXAXAXAXAXAXAXAXAXAXAXAXAXAXAXAXAXAXAXAXAXAXAXAXAXAXAXAXAXAXAXAXAXAXAXAXAXAXAXAXAXAXAXAXAXAXAXAXAX"
};
