/* XPM */
static char *e44c5674c837420b93cc2bdc24b19ef6PQZcXyqD1nCqZWDX[] = {
/* columns rows colors chars-per-pixel */
"80 80 105 2 ",
"   c #815DC3",
".  c #8561C6",
"X  c #8764C9",
"o  c #8866CA",
"O  c #8C6ACD",
"+  c #906FCF",
"@  c #9070CF",
"#  c #8E6CD1",
"$  c #916ED2",
"%  c #9474D4",
"&  c #9778D5",
"*  c #997AD7",
"=  c #9775D8",
"-  c #9876DA",
";  c #9C7CDB",
":  c #9F7CE0",
">  c #9D73FB",
",  c #A07EE2",
"<  c #9E81DB",
"1  c #A184DE",
"2  c #A489DE",
"3  c #A484E3",
"4  c #A689E3",
"5  c #A98CE6",
"6  c #A786E8",
"7  c #A887E8",
"8  c #AC8DEA",
"9  c #AC91E6",
"0  c #AE91EB",
"q  c #B194EE",
"w  c #B499EE",
"e  c #AC8AFC",
"r  c #B396F1",
"t  c #B69AF2",
"y  c #B99DF5",
"u  c #BA9FF4",
"i  c #BA9EF5",
"p  c #BB9FF6",
"a  c #BA9FF7",
"s  c #BB9FF7",
"d  c #BBA1F5",
"f  c #BCA1F7",
"g  c #BCA2F6",
"h  c #BCA1F8",
"j  c #BEA2F8",
"k  c #BDA4F8",
"l  c #BEA4F8",
"z  c #BFA5F9",
"x  c #BEA4FA",
"c  c #BFA4FA",
"v  c #BFA5FA",
"b  c #CDBEEA",
"n  c #C0A5FA",
"m  c #C1A6FB",
"M  c #C1A7FB",
"N  c #C1A7FC",
"B  c #C2A7FC",
"V  c #C1A8FB",
"C  c #C2A8FB",
"Z  c #C4A9FD",
"A  c #C4AAFC",
"S  c #C4ABFC",
"D  c #C4ABFD",
"F  c #C5ACFD",
"G  c #D2C4EE",
"H  c #D5C8EF",
"J  c #D5C9EF",
"K  c #D5C6F1",
"L  c #D7C9F1",
"P  c #D7CBF0",
"I  c #D8CBF2",
"U  c #D9CDF2",
"Y  c #DACEF2",
"T  c #DBCFF3",
"R  c #DACCF4",
"E  c #DBCEF4",
"W  c #DBCFF4",
"Q  c #DCCEF6",
"!  c #DCCFF8",
"~  c #DBD0F4",
"^  c #DDD1F4",
"/  c #DCD0F5",
"(  c #DDD3F5",
")  c #DDD0F6",
"_  c #DED2F8",
"`  c #DED2F9",
"'  c #DFD4F9",
"]  c #DFD5F9",
"[  c #E0D4FA",
"{  c #E1D7FA",
"}  c #E1D6FB",
"|  c #E3D8FB",
" . c #E3D9FC",
".. c #E4D9FD",
"X. c #E5D9FD",
"o. c #E6DBFE",
"O. c #EFEBFA",
"+. c #F0EBFC",
"@. c #F1ECFD",
"#. c #F9F7FD",
"$. c #FCFAFE",
"%. c #FCFBFE",
"&. c #FCFBFF",
"*. c #FCFCFE",
"=. c #FDFCFF",
/* pixels */
"=.=.=.=.=.=.=.=.=.=.=.=.=.=.=.=.=.=.=.=.=.=.=.=.=.=.=.=.=.=.=.=.=.=.=.=.=.=.=.=.&.&.=.=.=.=.=.=.=.%.=.=.=.=.*.%.%.=.=.=.*.%.%.%.=.=.=.=.=.=.=.=.=.=.=.=.*.%.*.=.",
"=.=.=.&.=.=.=.=.=.=.=.=.=.=.=.=.=.=.=.=.=.=.=.=.=.=.=.=.=.=.=.=.&.=.=.=.=.=.*.*.&.&.=.=.=.=.=.=.*.%.&.%.=.=.*.*.%.%.=.=.*.%.%.%.=.&.=.=.#.&.=.=.=.=.%.%.=.=.%.%.",
"=.=.> > > > > > > > > > > > > > > > > > > > > > > > > > > > > > > > > > > > > > > > > > > > > > > > > > > > > > > > > > > > > > > > > > > > > > > > > > > > %.%.",
"=.=.> > > > > > > > > > > > > > > > > > > > > > > > > > > > > > > > > > > > > > > > > e > > > > > > > > > > > > > > > > > > > > > > > > > > > > > > > > > > %.%.",
"=.&.> > > > > e > > > > > > > > > e > > > > > > > > > > > > > > > > > > > > > > > > > > > > > > > > > > > > > > > > > > > > > > > > > > > > > > > > > > > > %.%.",
"&.&.> > > > > > > > > > > > > > > > > > > > > > > > > > > > > > > e > > > > > > > > > > > > > > > > > > > > e > > > > > > > > > > > > > > > > > > > > > > > *.=.",
"&.=.> > > > > > > > > > e > > > > > > > > > > > > > > > > > > > > > > > > > > > > > > > > > > > > > > > > > > > > > > > > > > > > > > > > > > > > > > > > > =.=.",
"&.=.> > > > > > > > > > > > > > > > > > > > > > > > > > > e > > > > > > > > > > > > > > > > > > > > > > > > > > > > > > > > > > > > > > > > > > > > > > > > =.=.",
"=.=.> > > > > > > > e A A A A A S S S C S S S A A A A A A A A A S S S S C S S C C S S S S S M S S S S S S N S S S S A C C C C A A A A A M e > > > > > > > > &.%.",
"=.=.> > e > > > > +.&.&.&.&.=.&.&.&.&.&.=.=.=.=.&.&.=.=.*.*.%.&.=.*.&.&.=.=.=.&.=.=.&.&.&.&.&.&.&.&.&.&.&.&.&.=.=.=.&.=.=.&.=.=.&.&.&.&.&.&.X.> > > > > > > &.%.",
"=.=.> > > > > > e =.+.| o.X.X.{ ( ( | | X.| | ( ^ { | | | { ^ ^ | X.| | ] ~ ~ ] { X.{ ] ^ U { | [ } [ ^ I [ { { X.{ U U Q { { { ^ Q I Q { +.&.e > > > > > > %.%.",
"=.=.> > > > > > F =.X.C S C w 9 w g C C C w 4 w y M n n y 2 q u l l l w 4 0 y h l d w 4 0 t a g s w 2 5 w y g y q 2 5 w t d y 0 1 3 w w y [ &.A > > > > > > %.%.",
"=.&.> > > > > > S =. .S l w w 9 d C C d d 9 9 y C C d w q 9 u n l h w 9 9 w l v a w 9 9 w g h a w 5 4 w a a y 9 5 4 q y a t 0 5 3 8 y y y Q =.F > > > > > > &.#.",
"=.=.> > > > > > S =.o.S t 2 9 C C S C w 2 9 k C C n w 2 9 u g M l t 2 9 d k l v w 1 3 a h g g w 1 4 t s d y w 1 4 w y d y w 1 1 q y y y w J &.F > > > > > > &.%.",
"=.=.> > > > > > S =.| w 9 w g F A g w 9 9 d C n d w 9 q w M n d r 9 9 w l l d 0 9 9 w g l s q 4 5 w y d y q 5 5 q w a y 0 4 4 0 y y d 5 3 P &.A > > > > > > &.&.",
"=.=.> > > > > > F =.| 9 9 l C C k d 9 9 g C C k w 9 9 d n A d w 4 4 d l l h t 4 4 t d h s w 4 2 t s s u w 4 1 w y g t w 4 < 0 t y w w 1 ; E &.A > > > > > > &.&.",
"=.=.> > > > > > S &.~ w d C l z w 9 w d d l l t 9 w w d M n w 5 q w g g M w 4 0 w y g g q 4 9 q t u s q 4 4 q y y d 0 2 5 q t t t 8 1 4 8 [ &.S > > > > > > &.&.",
"=.=.> > > > > > S &.~ d k S g d 9 9 d S l l d 9 4 y n n d w q 2 t h n d w 9 4 r h g g w 9 4 q y y d w 4 1 q y y w w 3 1 0 w y t w 4 ; 9 w { &.S > > > > > > &.&.",
"=.&.> > > > > > S &.| l S l w 9 d d l l l w 2 q y n n n w 2 q y g h g w 2 5 t a h a q 2 9 w y d s q 1 5 w w y t q 1 3 w t t t 0 1 4 8 w t ^ &.S > > > > > > $.$.",
"=.=.> > > > > > S =.X.C d t q 9 d l l d w 9 9 d g M y w 9 9 w n n a w 9 4 w g s y 0 9 4 0 d y a q 4 4 q y y y 0 4 3 q w t t 0 4 1 8 r y w Q &.S > > > > > > #.$.",
"=.=.> > > > > > F =.o.l d 2 9 l l l l w 2 9 d l M g w 2 9 u g n g w 2 4 t s g g w 2 4 w y g y q 2 2 q y d y w < 1 w t a t q 1 ; q r r r q H &.A > > > > > > &.&.",
"=.=.> > e > > > S =.| w 9 9 t l S d w 9 9 d l l d w 9 9 w g s y q 5 9 q g g a 0 5 5 0 a a g 8 5 4 9 y y w 0 4 2 8 w t r 5 4 4 5 r r y 8 1 H %.A > > > > > > &.&.",
"=.=.> > > > > > S =.] 2 9 l l C l a 5 9 d l l l w 2 2 s g g s u 4 2 w g k d w 4 3 w y g d w 4 ; w t y y r 1 1 q r s y w 2 ; q w t w w 1 * Q &.A > > > > > > &.&.",
"=.=.> > > > > > S &.~ t d l C l w 9 0 t k l d w 5 q y s M s w 4 9 w a g g 0 4 9 0 y y s 9 4 9 0 t y y 8 3 5 8 t t t 5 2 3 8 q w t 8 1 3 4 Q &.A > > > > > > &.$.",
"=.=.> > > > > > S &.^ d l M d t 9 9 w l M d t 9 2 d d g g w 9 4 w g y d w 5 2 w y g a w 4 1 q y y y q 5 1 8 t a r q 4 < 8 r r r q 2 & 5 r Q &.A > > > > > > %.%.",
"=.=.> > > e > > S =.] k C l t 4 9 d h l d w 2 q y d M g w 2 9 w s s d w 1 9 q y d y 9 3 5 0 r y y q ; 5 8 w y r q ; 3 q w w y 8 ; 3 0 q r ! &.A > > > > > > %.%.",
"=.=.> > > > > > S =. .z d w 0 5 w g l a q 9 5 w M g y q 5 4 q s g y w 5 3 q y u t 0 5 3 9 y y w 9 4 1 5 t a r 9 4 1 5 r r q 5 3 ; 5 r r r Q $.Z > > > > > > %.#.",
"=.=.> > > > > > S =. .k w 2 9 d h N g w 2 5 a g s y q 2 4 y u g y w ; 4 t y s u 0 1 2 w y y y q ; 1 r r y w 0 < < q w r r 0 1 ; q q r q q G $.Z > > > > > > %.%.",
"&.=.> > > > > > F =.] w 9 9 t l l h w 9 9 q s g y q 5 5 q g g y q 4 5 q y y y q 5 4 9 y y t 9 4 4 9 q t r 9 4 3 5 r r r 8 4 1 4 q r r 8 1 H %.A > > > > > > %.%.",
"=.=.> > > > > > S &.| 2 5 d l l g t 2 4 y g M s w 2 2 y s g u w 2 3 w y d y w 1 ; w a y y r < < q y a w r < ; 9 r t r q < * 5 r r r q ; & U %.A > > > > > > %.%.",
"=.&.> > > > > > S &.~ 0 w l l g q 9 9 w a g g q 4 9 q u s s q 4 4 q y y y 0 2 4 9 t y y 9 3 5 8 r t t 8 1 4 5 r r r 5 < 3 5 0 r w 4 ; 3 2 ^ #.A > > > > > > %.#.",
"&.&.> > > > > > F =.U y k k d t 9 2 a g g a t 4 2 w g s y w 4 2 w u u w w 4 1 q y s r 0 4 < 0 t y r 0 4 < 8 r r r q 3 * 5 q r r 8 1 * 3 w E #.n > > > > > > %.%.",
"=.=.> > > > > > S &._ g M d w 4 0 y d u u q 2 8 w y u y q 1 5 w y y y q 2 4 q w t t 0 1 5 0 w r t 8 < 4 8 w r r 5 ; 1 8 8 r r 8 ; 1 4 0 r Q &.Z > > > > > > #.%.",
"=.&.> > > > > > S &.{ g y w 5 4 w g d y w 8 2 w u y u q 5 1 q u y w q 4 1 9 a t w 0 4 1 8 t t w 8 4 < 8 t r r 8 3 < 5 r r q 5 3 ; 6 q 0 q I %.A > > > > > > #.%.",
"=.&.> > > > > > S &.{ M w 1 4 a u s u w 1 2 y y s u q 1 4 t y u y q ; 2 w t y t 0 1 3 q q t t 0 ; < 0 w r r 0 ; < 8 q r q 8 * * 6 q q q 6 K &.A > > > > > > %.%.",
"%.%.e > > > > > S &.{ w 9 4 w a s u w 5 4 w u u t q 5 2 q u s w 8 5 2 q r y w 8 4 3 5 w t r 8 3 1 5 r r r 5 3 ; 4 q r q 5 3 < 3 q 0 0 8 , L &.Z > > > > > > %.%.",
"%.&.> > > > > > F &.[ 2 4 u g M g w 1 4 t u u y w 2 1 w y u y w 1 1 w t y t w ; ; q t t t q 1 ; 0 r t r 0 < * 8 r r r q ; * 5 0 q 0 8 ; % P %.A > > > > > > %.#.",
"%.%.> > > > > > F &.U 9 w u s y q 4 9 q y y u q 4 4 q y y y 8 3 4 8 w y y 8 3 4 8 r t t 8 1 4 3 w r r 5 < 3 5 8 q r 5 ; 1 3 8 q q 6 ; ; 1 E %.A > > > > > > %.%.",
"=.=.> > > > > > S &.U y g g d w 3 3 w u s y w 4 1 q t y a w 3 1 q r y w w 3 ; q r t w 0 3 * 8 r r 0 8 3 ; 5 q r 8 8 < % 3 q r 8 8 1 % 3 0 Q &.A > > > > > > #.%.",
"&.=.> > > > > > S &.^ y g y q 2 9 w y u y w 2 5 q t y y 9 1 3 q t y y 8 ; 4 8 w t y 5 < 3 9 q r r 8 ; 3 5 0 r q 8 ; 3 6 8 r 8 8 ; ; 3 8 q Q &.A > > > > > > %.#.",
"&.&.> > > > > > F &.{ g a w 5 4 w u y w w 5 1 w t y t 5 2 1 q t t w 8 4 ; 8 y t r q 3 ; 8 r r q 8 3 ; 6 q r q 5 3 * 3 q q 8 7 , - , 0 q 7 L &.A > > > > > > #.*.",
"&.&.> > > > > > A =.{ s q ; 5 w u u y q 1 2 w y y a q 1 1 w r y t q ; 1 w r t r 8 ; 1 0 0 r r 8 * ; 8 0 r q 8 ; * 8 8 r q 3 * * 7 8 q 8 8 G &.Z > > > > > > *.#.",
"&.&.> > > > > > F =.| 8 9 3 q y y w q 4 4 8 r y t 8 4 1 9 t a r 8 4 1 5 r r w 5 3 1 4 w r w 5 3 1 4 0 r q 6 ; ; 3 8 r q 3 3 ; 3 8 0 8 1 ; G &.Z > > > > > > *.*.",
"&.&.> > > > > > S &.^ 1 2 y d d y w 1 1 w y a y q 1 1 w t a w q 1 * q y r r w ; ; 8 q w r 0 ; & 5 q r r 8 ; % 8 q w 8 8 * % 3 8 q 0 8 * $ L &.Z > > > > > > #.*.",
"&.=.> > > > > > S &.U 8 q u y y 0 4 5 0 r y r 8 1 4 8 t r t 9 3 1 8 r r y 8 3 3 3 q r r 8 1 3 3 q r q 6 ; 1 3 8 q q 6 ; 1 3 8 8 0 3 ; ; ; U *.A > > > > > > #.#.",
"&.=.> > > > > > S &.I w u y t w 2 1 w t u y w 4 1 q t t t w 1 * 8 w r w q 1 ; 4 r r r 8 3 & 3 r q 0 0 ; = 3 q 0 8 8 ; % 3 8 8 8 5 ; + , 5 U %.A > > > > > > *.*.",
"&.&.> > e > > > S &.[ w y y q 2 5 q t y w q 1 3 q r t t 0 ; 3 q w r r 8 ; 3 5 q r q 8 ; 1 5 8 r r 4 ; ; 7 8 0 q 6 ; , 3 8 q 8 3 - * , 6 5 E #.C > > > > > > *.#.",
"&.&.> > > > > > S &.^ y y q 4 1 q t t w q 2 1 q t t r 9 3 1 0 r w w 8 3 ; 5 w q q 8 1 * 3 w r 8 6 1 * 6 0 q 8 3 1 * 3 8 8 8 3 ; - ; 5 6 6 J #.d > > > > > > #.#.",
"&.%.> > > > > > S =.{ a 0 < 4 w t a t q ; 1 q r t r 0 ; 1 q r r t 8 ; 1 8 q r q 8 ; , 7 0 q q 5 ; ; 4 0 q q 3 * * 7 8 8 8 7 - = 3 6 8 7 3 G &.M > > > > > > #.*.",
"&.&.> > > > > > S =.^ 0 4 3 0 t t t 0 4 2 8 t t r 0 2 1 5 r r q 5 3 ; 6 r r q 7 1 ; 3 8 q q 7 1 ; 1 8 0 8 6 ; ; , 8 8 8 , ; = ; 7 7 7 ; - G &.A > > > > > > #.*.",
"=.=.> > > > > > F =.[ 2 1 w t y t q ; 1 q r t t q 1 1 0 r t r 8 1 * 8 r r r 0 ; * 8 q r q 8 ; % 6 8 r 8 8 * % 6 8 8 8 5 % $ , 5 8 7 6 $ O K &.Z > > > > > > *.#.",
"=.=.> > > > > > F =.U 4 0 t t t 8 4 4 0 w t t 8 1 3 5 q r r 8 1 1 4 0 r q 6 1 1 1 q q q 7 ; ; 3 8 8 q 6 ; ; , 7 q 8 3 - ; ; 3 7 7 ; - - - K &.Z > > > > > > #.*.",
"&.&.> > > > > > S &.K 0 t y t w 2 ; q r r w q 1 * 9 r r r q 1 * 8 q w 0 0 ; * 4 q r 0 8 ; = 3 0 r 8 5 ; % 3 8 8 8 4 ; + ; 7 7 6 7 = O ; 3 I &.Z > > > > > > %.#.",
"&.&.> > > > > > S =.^ t y t 8 < 4 q r t t 8 1 4 8 w r w 4 ; 3 8 q q r 7 ; 1 6 0 q 0 7 ; ; 6 0 q q 6 ; ; 1 7 8 8 3 = = , 7 7 5 , $ - ; ; 7 K &.M > > > > > > &.#.",
"%.#.> > > > > > S &.^ a w 0 5 < 0 r t r 0 3 ; 8 r r q 8 3 ; 4 q r q 5 3 ; 3 0 q q 4 , * 6 0 0 0 6 ; & 1 8 8 7 3 ; % ; 7 5 3 , - $ = 7 3 , K $.Z > > > > > > +.#.",
"%.%.> > > > > > C &.{ t 8 < 3 0 r r t 9 * 1 q r r r 8 ; 1 8 q r r 5 * ; 7 0 q q 6 * ; 6 7 0 0 5 - - 3 8 8 8 6 % = ; 6 7 7 , $ % : , 3 3 , b $.Z > > > > > > +.#.",
"=.=.> > > > > > S &.^ 8 4 < 8 r t r 8 1 1 5 r r q 5 3 ; 7 q q q 6 1 ; 3 q q 8 7 1 * 1 8 0 8 3 ; ; ; 8 7 7 3 ; % ; 6 7 7 ; - $ - 7 , 7 : $ b $.Z > > > > > > *.*.",
"=.=.> > > > > > S &.Q < < w r t t 9 ; 1 0 w r r 0 ; ; 8 q r q 8 ; * 7 q r 0 8 - - 7 0 q q 7 - % 3 7 8 8 7 % + , 6 7 7 3 % + ; , , , , = O b $.B > > > > > > #.#.",
"=.=.> > > > > > S &.L 4 8 r t r 8 1 3 7 q r q 5 1 1 7 0 q q 5 , ; 3 0 0 q 3 ; ; , 8 0 0 , ; ; , 7 8 8 3 - * - 3 6 6 ; % - - ; 6 , , $ $ = K $.m > > > > > > #.*.",
"=.=.> > > > > > S &.J 0 t t r q 1 ; 8 r r q q ; * 5 q q q 0 ; * 6 q q 0 8 1 % 6 8 q 8 5 ; % , 8 8 7 3 = + ; 6 6 6 , - o - , 6 , , -   $ , K $.m > > > > > > %.&.",
"&.&.> > > > > > S &.W r t r 5 < 3 5 q r r 5 ; 1 5 0 r q 7 ; 1 7 8 q 0 3 ; 1 1 8 0 8 6 - ; , 6 8 8 , = = : , 7 6 ; $ % : , , 6 ; $ $ - ; , I &.n > > > > > > +.#.",
"&.&.> > > > > > S &._ t r 8 3 < 7 r r q 8 2 ; 6 q r q 7 1 * 3 0 q 0 7 1 % 3 8 0 0 3 ; % ; 8 7 7 , ; @ ; 6 6 3 , - + - , , 3 : % X $ , , , b $.M > > > > > > #.#.",
"%.%.> > > > > > S &._ r 5 ; 1 9 q r w 5 * 1 7 0 q q 7 - , 5 8 q q 6 - ; 6 8 0 8 3 = = 3 7 8 8 3 % % ; 6 7 6 ; $ $ - , 6 , : O O % , , , : b #.n > > & > > > #.%.",
"%.=.> > > > > > S &.{ 5 3 ; 5 r r q 5 3 ; 3 r q q 7 1 * , 0 q 0 3 : ; , 8 8 8 6 ; = ; 8 7 8 ; - % = 6 6 6 ; - $ - , , , : $ # $ , , , - $ b #.y > > > > > > %.#.",
"%.%.> > > > > > A &.E ; 1 0 q r r 8 * ; 8 q q q 7 ; - 6 0 r 8 8 ; - 6 8 0 8 6 & % 3 6 8 8 6 % + ; 3 6 3 , $ + - , 6 , , # . - , , , : .   b &.S > > > > > > &.%.",
"%.%.> > > > > > Z &.K 1 2 q r q 6 1 1 4 q 8 q 7 3 ; 6 8 0 0 6 ; ; , 8 8 8 3 ; * ; 6 6 6 ; - - - 3 6 6 , % $ = , , , , $ $ $ - , , = # # $ S &.Z > > > > > > &.#.",
"%.%.> > > > > > A &.K 8 r r r q 1 * 4 r w q 8 ; & 7 8 0 q 8 ; - 3 0 8 8 6 * $ 3 6 8 6 6 - O - 6 3 6 , $ X = , , , , $   - , , , - #   # : K &.Z > > & > > > o.#.",
"%.%.> > > > > > Z &.E q q r 6 ; 1 6 8 r q 4 ; 1 3 8 q 0 3 ; ; 1 6 8 8 3 - ; ; 6 7 8 ; % - - 3 6 6 - $ = & , 6 , - $ $ - - , , - # # # - - K &.Z > > > > > > +.#.",
"&.&.> > > > > > S &.Q q q 4 1 * 6 q q 0 8 ; * 3 0 0 0 4 ; % 1 8 8 8 3 ; $ : 7 7 7 , = O ; 3 6 , : % O - , , , , $ O $ , , , - $   $ - , , G #.A > > > > > > #.#.",
"%.&.> > > > > > e &.+.[ Q H P U Q Q Q I H I I Q ! Q I G H Q Q Q Q I G G L Q Q U U G G H I I I H G G G K Q L K b b G K L K b b b G K K H b X.#.e > > > > > > *.*.",
"%.&.> > > > > > > | &.#.&.&.#.%.&.&.&.&.&.&.&.&.&.&.&.#.&.&.&.&.&.#.&.$.$.$.#.$.&.$.$.&.&.&.&.&.#.#.&.&.$.$.$.$.$.$.$.&.$.$.$.#.$.$.&.#.#.$.| > > > > > > > &.#.",
"&.&.> > > > > > > > e A A A M M Z Z Z A Z M Z M M Z Z Z Z n Z M Z M M Z Z N j t Z Z Z n Z n M M n Z m Z n Z n n Z n Z n M n s y N N Z M n e > > > > > > > > #.&.",
"&.%.> > > > > > > > > > > > > > > > > > > > > > > > > > > > > > > > > > > > > > > > > > > > > > > > > > > > > > > > > > > > > > > > > > > > > > > > - > > > #.#.",
"&.&.> > > > > > > > > > > > > > > > > > > > > > > > > > > > > > > > > > > > > > > > > > > > > > > > > > > > > > > > > > > > > > > > > > > > > > > > > > > > #.#.",
"%.%.> > > > > > > > > > > > > > > > > > > > > > > > > > > > > > > > > > > > > > > > > > > > > > > > > > > > > > > + > > > > > > > > > > > > > > > > > > > > &.#.",
"#.#.> > > > > > > > > > > > > > > > > > > > > > > > > > > > > > > > > > > > > > > > > > > > > > > > > > > > > > > > > > > > > > > > > > > > > > > > > > > > #.&.",
"%.%.> > > > > > > > > > > > > > > > > > > > > > > > > > > > > > > > > > > > > > > > + > > > > > > > > > > > > > > > > > > > > > > > > > > > > > > > > > > > #.#.",
"#.%.> > > > > > > > > > > > > > > > > > > > > > > > > > > > > > > > > > > > > > > > > > > > > > > > > > > > > > > > > > > > > > > > > > > > > > > > > > > > #.#.",
"&.&.#.#.#.&.#.#.#.#.#.#.#.#.%.&.#.#.+.#.#.#.#.#.#.#.#.#.#.#.+.#.#.#.$.#.#.#.#.#.#.#.+.+.#.#.#.#.+.#.#.#.+.#.#.#.+.#.#.#.+.#.#.#.+.#.#.#.+.#.#.#.| #.#.#.+.#.#.#.",
"%.#.&.%.%.#.&.%.#.%.&.%.&.%.&.#.%.%.&.&.$.$.$.$.$.$.&.&.&.&.&.#.$.#.$.#.#.#.$.$.$.$.#.#.%.#.%.%.#.#.&.#.&.#.&.&.+.#.#.#.#.#.$.#.+.#.#.#.$.#.#.#.+.#.#.#.#.#.#.#."
};
