/* XPM */
static char *_f1232931a4f4e9cf65e39b34aa988e0GsIJLQxrjSjAOIHq[] = {
/* columns rows colors chars-per-pixel */
"80 80 241 2 ",
"   c #040202",
".  c #0C0503",
"X  c #0C0907",
"o  c #0D0C09",
"O  c #070807",
"+  c #140B06",
"@  c #1B0D06",
"#  c #130D0A",
"$  c #1B0E09",
"%  c #130703",
"&  c #15110D",
"*  c #1C120C",
"=  c #1D1107",
"-  c #130E11",
";  c #161211",
":  c #1C1512",
">  c #1E1913",
",  c #1D1619",
"<  c #210B07",
"1  c #23150D",
"2  c #29160C",
"3  c #25180E",
"4  c #2B1A0D",
"5  c #291305",
"6  c #321D0D",
"7  c #36190B",
"8  c #221611",
"9  c #241A13",
"0  c #2B1D13",
"q  c #251D1A",
"w  c #2A1E19",
"e  c #311E12",
"r  c #341C1D",
"t  c #3A0B01",
"y  c #35200D",
"u  c #3B250E",
"i  c #3B240B",
"p  c #2D2015",
"a  c #2D221B",
"s  c #26211F",
"d  c #342214",
"f  c #3A2514",
"g  c #3C2916",
"h  c #33251B",
"j  c #39261A",
"k  c #36281E",
"l  c #3C2A1C",
"z  c #291A23",
"x  c #331D26",
"c  c #361F31",
"v  c #2C2523",
"b  c #342521",
"n  c #3A2324",
"m  c #362A22",
"M  c #3C2D22",
"N  c #3B2E2A",
"B  c #362A2B",
"V  c #3E3025",
"C  c #3E322A",
"Z  c #3A2334",
"A  c #3C3532",
"S  c #401203",
"D  c #432B15",
"F  c #422D1B",
"G  c #472A17",
"H  c #45321D",
"J  c #4A331C",
"K  c #4C351B",
"L  c #54391B",
"P  c #562518",
"I  c #412E22",
"U  c #4A2F20",
"Y  c #433224",
"T  c #4B3523",
"R  c #4E3925",
"E  c #44352A",
"W  c #4A362A",
"Q  c #46382D",
"!  c #4C3A2C",
"~  c #533B26",
"^  c #533D2B",
"/  c #583B23",
"(  c #492836",
")  c #453A33",
"_  c #4C3C33",
"`  c #493937",
"'  c #513E33",
"]  c #55303A",
"[  c #683C24",
"{  c #6E2B0D",
"}  c #63421C",
"|  c #56412D",
" . c #5B432D",
".. c #5E4225",
"X. c #4E4134",
"o. c #4B433C",
"O. c #544234",
"+. c #5B4534",
"@. c #5E4834",
"#. c #53443A",
"$. c #5A4539",
"%. c #5C4A3B",
"&. c #56483D",
"*. c #62442D",
"=. c #65482C",
"-. c #6C4B2D",
";. c #674424",
":. c #76542D",
">. c #644B32",
",. c #634D3B",
"<. c #684B33",
"1. c #6B533C",
"2. c #685139",
"3. c #71553D",
"4. c #7B5A3D",
"5. c #755537",
"6. c #734D2F",
"7. c #7E613A",
"8. c #4C2A46",
"9. c #542D42",
"0. c #593747",
"q. c #592E52",
"w. c #6A3758",
"e. c #733C5C",
"r. c #6C3963",
"t. c #773D6A",
"y. c #4E4441",
"u. c #554A43",
"i. c #5C4D43",
"p. c #5D4C4B",
"a. c #564746",
"s. c #5C524C",
"d. c #5C5148",
"f. c #595454",
"g. c #614D44",
"h. c #61484C",
"j. c #6C5443",
"k. c #64544B",
"l. c #675649",
"z. c #7B5C43",
"x. c #765C47",
"c. c #645953",
"v. c #695755",
"b. c #725858",
"n. c #6C485B",
"m. c #7C6B5D",
"M. c #756255",
"N. c #736250",
"B. c #785B63",
"V. c #734D68",
"C. c #7A6866",
"Z. c #7D736A",
"A. c #7B6E75",
"S. c #825C3A",
"D. c #806138",
"F. c #957137",
"G. c #A37F3F",
"H. c #866647",
"J. c #916D4A",
"K. c #866C55",
"L. c #8B7158",
"P. c #977657",
"I. c #96764D",
"U. c #AD7F4F",
"Y. c #894877",
"T. c #865476",
"R. c #836768",
"E. c #867468",
"W. c #987D64",
"Q. c #876A76",
"!. c #897876",
"~. c #93767F",
"^. c #926E73",
"/. c #A27D64",
"(. c #B79C59",
"). c #9B856C",
"_. c #8D8178",
"`. c #968677",
"'. c #A5896A",
"]. c #AA927A",
"[. c #B8967A",
"{. c #B18D71",
"}. c #BCA37C",
"|. c #C09879",
" X c #C2A077",
".X c #934B83",
"XX c #98518A",
"oX c #9D5691",
"OX c #A85A97",
"+X c #896C81",
"@X c #937482",
"#X c #997985",
"$X c #997A8B",
"%X c #9B6889",
"&X c #A1798D",
"*X c #A8619A",
"=X c #A9739B",
"-X c #B568A6",
";X c #B46AA6",
":X c #C87FB8",
">X c #978A88",
",X c #A68699",
"<X c #A69C92",
"1X c #AD8C8C",
"2X c #BAA381",
"3X c #B0A397",
"4X c #AE8CA2",
"5X c #B28DA5",
"6X c #B692AB",
"7X c #BC97A7",
"8X c #BD96B2",
"9X c #BE98B7",
"0X c #ADA9A6",
"qX c #C49F9F",
"wX c #C3AB8A",
"eX c #CBB699",
"rX c #D8BD9C",
"tX c #C59BA5",
"yX c #C39DBB",
"uX c #C69EB3",
"iX c #C9A1BE",
"pX c #C7A1B9",
"aX c #D4AEB0",
"sX c #E0B3B5",
"dX c #D5C3A9",
"fX c #D4C9B9",
"gX c #CCA3C3",
"hX c #D6ACCA",
"jX c #DDB1D4",
"kX c #DCB3CD",
"lX c #E2B6DE",
"zX c #E8BAD7",
"xX c #E3B7C6",
"cX c #E9BCE5",
"vX c #EFC0EB",
"bX c #EFC0E7",
"nX c #F2C4ED",
"mX c #F5C5F3",
"MX c #F8C8F7",
"NX c #FFCEFF",
"BX c #F7C8F6",
/* pixels */
"NXNXNXNXNXNXNXNXNXNXNXNXNXNXNXNXNXNXNXNXNXNXNXNXNXNXNXNXNXNXNXNXNXNXNXNXNXNXNXNXNXNXNXNXNXmXvXNXNXNXNXNXNXNXNXNXNXNXNXNXNXNXNXNXNXNXNXNXNXNXNXNXNXNXNXNXNXNXNXNX",
"NXNXNXNXNXNXNXNXNXNXNXNXNXNXNXNXNXNXNXNXNXNXNXNXNXNXNXNXNXNXNXNXNXNXNXNXMXNXNXNXNXMXNXmXmXmXNXNXNXNXNXNXNXNXNXNXNXNXNXNXNXNXNXNXNXNXNXNXNXNXNXNXNXNXNXNXNXNXNXNX",
"NXNXNXNXNXNXNXNXNXNXNXNXNXNXNXNXNXNXNXNXNXNXNXNXNXNXNXNXNXNXNXNXNXNXNXjXNXNXBXmXNXNXMXmXMXNXNXNXNXNXNXNXNXNXNXNXNXNXNXNXNXNXNXNXNXNXNXNXNXNXNXNXNXNXNXNXNXNXNXNX",
"NXNXNXNXNXNXNXNXNXNXNXNXNXNXNXNXNXNXNXNXNXNXNXNXNXNXNXNXNXNXNXNXNXvX4XV b.R._ E ,XNXNXNXNXNXNXNXNXNXNXNXNXNXNXNXNXNXNXNXNXNXNXNXNXNXNXNXNXNXNXNXNXNXNXNXNXNXNXNX",
"NXNXNXNXNXNXNXNXNXNXNXNXNXNXNXNXNXNXNXNXNXNXNXNXNXNXNXNXNXNX6X#Xh.N I M w h j I M ` yXcXNXNXNXNXNXNXNXNXNXNXNXNXNXNXNXNXNXNXNXNXNXNXNXNXNXNXNXNXNXNXNXNXNXNXNXNX",
"NXNXNXNXNXNXNXNXNXNXNXNXNXNXNXNXNXNXNXNXNXNXNXNXNXNXNXNX8Xb.l k m w h w w w w k M M I I ,XNXNXNXNXNXNXNXNXNXNXNXNXNXNXNXNXNXNXNXNXNXNXNXNXNXNXNXNXNXNXNXNXNXNXNX",
"NXNXNXNXNXNXNXNXNXNXNXNXNXNXNXNXNXNXNXNXNXNXNXNXNXNXNXQ.X.Y k p h q q 0 0 0 0 e e m l k h 9XNXNXNXNXNXNXNXNXNXNXNXNXNXNXNXNXNXNXNXNXNXNXNXNXNXNXNXNXNXNXNXNXNXNX",
"NXNXNXNXNXNXNXNXNXNXNXNXNXNXNXNXNXNXNXNXNXNXNXNXNXNXQ.O.X.A a a b q q 0 9 w e w h d h h 0 h 8XNXNXNXNXNXNXNXNXNXNXNXNXNXNXNXNXNXNXNXNXNXNXNXNXNXNXNXNXNXNXNXNXNX",
"NXNXNXNXNXNXNXNXNXNXNXNXNXNXNXNXNXNXNXNXNXNXNXNXNX>X%.&.X.Q A m b v 0 0 > a p p p p h p p p d R.8XmXNXNXNXNXNXNXNXNXNXNXNXNXNXNXNXNXNXNXNXNXNXNXNXNXNXNXNXNXNXNX",
"NXNXNXNXNXNXNXNXNXNXNXNXNXNXNXNXNXNXNXNXNXNXNXNX5Xd.%.y.o.A A A m p a p p p a a p p p p p p d k j ' cXNXNXNXNXNXNXNXNXNXNXNXNXNXNXNXNXNXNXNXNXNXNXNXNXNXNXNXNXNX",
"NXNXNXNXNXNXNXNXNXNXNXNXNXNXNXNXNXNXNXNXNXNXNXNXm.#.u.y.) ) Q Q m p 0 p a a a a s p p p p 9 0 h k M Q cXNXNXNXNXNXNXNXNXNXNXNXNXNXNXNXNXNXNXNXNXNXNXNXNXNXNXNXNX",
"NXNXNXNXNXNXNXNXNXNXNXNXNXNXNXNXNXNXNXNXNXNXNXNX%.d.d.y.o.o.Q V h 0 a a v k k a h k k h p 0 9 p h k Y _ gXNXNXNXNXNXNXNXNXNXNXNXNXNXNXNXNXNXNXNXNXNXNXNXNXNXNXNX",
"NXNXNXNXNXNXNXNXNXNXNXNXNXNXNXNXNXNXNXNXNXNXNXcXm.v.` ) o.o.X.Q k 0 p k V V V C k k h a p p 9 9 0 h k M h R.cXNXNXNXNXNXNXNXNXNXNXNXNXNXNXNXNXNXNXNXNXNXNXNXNXNX",
"NXNXNXNXNXNXNXNXNXNXNXNXNXNXNXNXNXNXNXMXmXNXNX~.E.A a C C o.o.X.V h V V E Q V h k a 0 p p 9 9 3 0 h h k h j 0.MXNXNXNXNXNXNXNXNXNXNXNXNXNXNXNXNXNXNXNXNXNXNXNXNX",
"NXNXNXNXNXNXNXNXNXNXNXNXNXNXNXNXNXNXNXNXmXNXiXc.f.9 * 9 a X.X.X.R Q Q C V m h a a p s h h p 3 3 9 h e k Y h e W 6XNXNXNXNXNXNXNXNXNXNXNXNXNXNXNXNXNXNXNXNXNXNXNX",
"NXNXNXNXNXNXNXNXNXNXNXNXNXNXNXNXNXNXNXNXNX,Xd.s.A # 9 > & a l X.X.m h k v V V k p p h h a a 9 * 1 w 0 h I j 2 4 6 Q.lXNXNXNXNXNXNXNXNXNXNXNXNXNXNXNXNXNXNXNXNXNX",
"NXNXNXNXNXNXNXNXNXNXNXNXNXNXNXNXNXNXNXNXlXv.i.d.) * > > o & h V V a p a E V C m 0 0 p p m k 0 9 9 e h h I h 2 5 4 d d hXNXNXNXNXNXNXNXNXNXNXNXNXNXNXNXNXNXNXNXNX",
"NXNXNXNXNXNXNXNXNXNXNXNXNXNXNXNXNXNXNXNXR.l.d.l.V & & o o * u H g h a m Q * * 3 0 0 9 0 h p 0 p 9 0 j h h d 4 2 2 5 e E mXNXNXNXNXNXNXNXNXNXNXNXNXNXNXNXNXNXNXNX",
"NXNXNXNXNXNXNXNXNXNXNXNXNXNXNXNXNXNXNX9Xd.f.f.u.Y : 9 ; & * p H g g p V p . . + * h M k k M 0 8 9 4 e k h 6 1 2 2 1 0 j p.NXNXNXNXNXNXNXNXNXNXNXNXNXNXNXNXNXNXNX",
"NXNXNXNXNXNXNXNXNXNXNXNXNXNXNXNXNXNXNX~.d.C.f.c.x.p ; V s = p H K g k p + . o # X p k > 1 k M 9 1 9 e h j e < 2 4 e 0 h w b.NXNXNXNXNXNXNXNXNXNXNXNXNXNXNXNXNXNX",
"NXNXNXNXNXNXNXNXNXNXNXNXNXNXNXNXNXNXNXR.R.c.Z._.R. .. b V * k K K g H > o X o & & * 9 * @ 1 I k $ 0 w 0 8 1 2 1 2 e h n w Y ,XNXNXNXNXNXNXNXNXNXNXNXNXNXNXNXNXNX",
"NXNXNXNXNXNXNXNXNXNXNXNXNXNXNXNXNXlX$X^ &._.C.) K.L.Y % p p g K g H X.& # O o * 3 X * H 0 1 0 M 9 : 9 q + 1 2 $ $ 5 9 9 m M n +XNXNXNXNXNXNXNXNXNXNXNXNXNXNXNXNX",
"NXNXNXNXNXNXNXNXNXNXNXNXNXNXNX~.a.n I w s >XA ..|.$.T & > p H K g K R & X X o * 1 9 @.2 h d * l h 1 * ; * 2 $ $ + $ 1 2 0 k M M Q.NXNXNXNXNXNXNXNXNXNXNXNXNXNXNX",
"NXNXNXNXNXNXNXNXNXNXNXNXNX,XC._ I I k q , C.s.P S 7 I s & p R H H g | > X & * #   W.[.t G m $ a h * # # # * * < $ + $ 2 4 j j M W lXNXNXNXNXNXNXNXNXNXNXNXNXNXNX",
"NXNXNXNXNXNXNXNXNXNXNXNX6X,.Q C ' _ m 9 ; A >XZ.$ < &.E # h X.g H g E q O p & a e H.6.{ P z k 8 9 * & o X * 1 @ $ < < 2 0 e 4 r I #XNXNXNXNXNXNXNXNXNXNXNXNXNXNX",
"NXNXNXNXNXNXNXNXNXNXMX!.l.O.m b ` n # ; , o v.E.f.v.C.a & C Y H H k k p o o > =.r % 5 7 * _ a * * > * O X + * = $ 2 4 2 4 r f 7 e ' lXNXNXNXNXNXNXNXNXNXNXNXNXNX",
"NXNXNXNXNXNXNXNXNXNX,Xv.i.i.E k B # # ; , - s s.b.m.C.q # Y E g H g p p * O a g j I q h ! h % * * 8 > & o * * 1 < < 1 0 4 0 j F e I b.NXNXNXNXNXNXNXNXNXNXNXNXNX",
"NXNXNXNXNXNXNXNXNXNXE.v.&.u.E C B # - - , z z 8.c._ B & s R V H g p p u d & o y ^ ^ ^ ^ 0 @ 1 & * > > * & 4 u 3 1 $ $ e e e h I U M Q mXNXNXNXNXNXNXNXNXNXNXNXNX",
"NXNXNXNXNXNXNXNXNXhXN.u.Q Q X._ C o - ; c 8.q.r.R.a.> q N V V g k p y d d * > K G d 0 $ # 2 9 , 9 : & O & p g f 2 $ < 4 4 7 Y ! +.W W jXNXNXNXNXNXNXNXNXNXNXNXNX",
"NXNXNXNXNXNXNXNXNX>Xl.O.W k _ X.N v - z q.t..XXX%Xn.0.y.o.m m k g d 4 y h 3 9 y f f * 8 c ( 8.( z , o o h a 4 f e 1 1 e 4 r I ^ +.O.v.nXNXNXNXNXNXNXNXNXNXNXNXNX",
"NXNXNXNXNXNXNXNXNX!.g.&.R m h ! C ) B Z r.oX*XOXOXT.b.y.o.V m k k p 4 6 p y > 1 f r r ( w.t.t.t.8.z o ; h k d e e 1 2 e j f I T ! ,.yXNXNXNXNXNXNXNXNXNXNXNXNXNX",
"NXNXNXNXNXNXNXNXNX~.i.&.R l h H C M B ` r.oX*X-X;X%XB.A C m V m h y 5 2 p u p 3 r r ] e.Y.XXOXoXr.c - ; h l 4 1 e e 0 e f j l l W g.,XNXNXNXNXNXNXNXNXNXNXNXNXNX",
"NXNXNXNXNXNXNXNXNX,Xg.&.R h E T b s a Z 0..XOX-X:X&X0.M M m n N h 6 2 6 6 p d p G ( w..XOXOX*XOXt.Z , x k g p 3 y y e 4 d d d j Y ,.4XNXNXNXNXNXNXNXNXNXNXNXNXNX",
"NXNXNXNXNXNXNXNXNX@X_ #.! d E >.R a 9 b ( q.Y.;X=XT.` W M m M b p p 2 y y d h j I ] Y.OXOXOXOX.Xr.c : w M F i y i y y f g f 6 g Y ,.,XNXNXNXNXNXNXNXNXNXNXNXNXNX",
"NXNXNXNXNXMXMXNXBXh p Q ! d q #.2.R s , v Z @X&XT.h.' +.E C N h h y 4 p y y g g U 0.Y.OXOXoXXXr.9.z - w H g y i g g d h g u 6 F ! O.lXNXNXNXNXNXNXNXNXNXNXNXNXNX",
"NXNXNXNXNXNXmXNX@X0 q l C W k p _ O.B - , v Q.C.b.g.O.+._ E m h h p e y d f e f G ] e.Y..XY.e.] n ; # w Q H i i p g d d i f d l ! ~.NXNXNXNXNXNXNXNXNXNXNXNXNXNX",
"NXNXNXNXNXNXNXcXE h h m m E E 0 q C a & & & a &.l.%.@.$.^ p a h p h h y f f p i e I ( q.w.9.( m v # o v Q H u u i y 4 i u f d Y Q iXNXNXNXNXNXNXNXNXNXNXNXNXNXNX",
"NXNXNXNXNXNXNX,XE E h m M E M 8 1 E a o & & > u.b.O.,.@.h 8 m k p h p d f k d y e e r r w r a p 0 # o q C Y H g u i u i g u j ! O.#XNXNXNXNXNXNXNXNXNXNXNXNXNXNX",
"NXNXNXNXNXNXMXb.' $.E M _ ' q 9 8 n M o & o o.m.g.@.1.j < 1 k h 4 e y y f g k y r 1 $ $ $ 0 p * * # o > m E Q V J D 4 f J d H ! Y y lXNXNXNXNXNXNXNXNXNXNXNXNXNX",
"NXNXNXNXNXNX7Xi.g.#.E E X.E b p o 8 M > O q m.l.| N.| % 1 9 j d 5 3 g g d g g g e * * $ 8 9 3 1 * O # # 9 C R R ! g u W l e d d k l pXNXNXNXNXNXNXNXNXNXNXNXNXNX",
"NXNXNXNXNXNXiXi.%._ _ _ Q V _ 0 o : M p O B E.O.,.1.4 @ 1 k l 4 = 3 H 4 4 g V H e 4 9 * * p * > & o o # & 0 j V Y l j d 0 l 1 4 D W B.NXNXNXNXNXNXNXNXNXNXNXNXNX",
"NXNXNXNXNXNXNXi._ Q #.X.Y ) N : $ * k w   o.m.+.,.0 . # 0 l h 6 3 y 3 + * d J h 4 3 * # > > & 3 * & = > & * 4 3 3 e 1 = 8 T j e 4 F ^ #XNXNXNXNXNXNXNXNXNXNXNXNX",
"NXNXNXNXNXNXNXQ.M M Y V Y M * w p # k h s _.m.| Q E a & 1 r j d 4 1 # 2 y f ! g = * 3 & 9 > > > 1 3 9 9 1 8 h 2 5 3 4 d d ^ / F e d F ,.gXNXNXNXNXNXNXNXNXNXNXNX",
"NXNXNXNXNXNXNX$XY V k g M 8 1 M N * q 0 m _.N.R p.s.u.C w e j f 1 = = * 3 d R Y * + = & > * > * * p 8 3 * 9 l 0 1 5 4 u d W j G G r I ^ Q.MXNXNXNXNXNXNXNXNXNXNX",
"NXNXNXNXNXNXvXk.Y M l h k d j 3 m h & o > E.X.A.0Xc.&.X.Q I Y Y e 3 3 = # 4 H O.0 + & & 9 * 9 p 3 9 9 9 & 0 M 9 < e 5 D D M 0 2 D I W ^ R.NXNXNXNXNXNXNXNXNXNXNX",
"NXNXNXNXNXNXA.X.C V V l V V j p V C p o A _.u.0X3XE.M.R.E.%.#._ Y q 1 1 4 2 g ,.l + = > > : > 9 > q p 9 * h h 3 * 6 2 f G l T d 4 U ^ ^ b.MXNXNXNXNXNXNXNXNXNXNX",
"NXNXNXNXNXNXn._ Y Y Y Y d j V d m E k X s.Z._.fX>X0X<XW.].K.g.#.! p + * 2 1 d ! k * * 3 > > > 9 * m m & * m d 1 $ 1 e ~ H 7 J ~ F J R ^ j.MXNXNXNXNXNXNXNXNXNXNX",
"NXNXNXNXNXNX#XX.Q Y Y V k l k h p Q V o u._.Z.Z.q E.`.l.E M m #.O.p % 1 * $ < C m = & * 3 * > a a k k * 8 M h p 4 2 2 g ^ d 1 G R F T ^ j.MXNXNXNXNXNXNXNXNXNXNX",
"NXNXNXNXNXNXgXW E E Q l Y M j d p o.) @ u._.C x.B   d.a . # . m ! + 1 0 3 + 1 Y k = & > > : : s m M h q h Y p h h 2 2 1 f j 0 g j U ' I ^ BXNXNXNXNXNXNXNXNXNXNX",
"NXNXNXNXNXNXNX!._ E ! V V V k 9 k o._ * y.>XX.p _.o.1 3 * p k h + p Y h 4 1 d V 3 = = * & : & & a k k k Q M p 8 p d 4 d e 9 0 $ + S.j.w R.NXNXNXNXNXNXNXNXNXNXNX",
"NXNXNXNXNXNXNXNX#.Y E Y M k h h M _ k + c.<Xs.  k @.< 2 9 f T d 1 M k 0 1 * k k & & = 3 o & & O : k M W C h h * 3 d 4 F k # # X 9 P.R 1 uXNXNXNXNXNXNXNXNXNXNXNX",
"NXNXNXNXNXNXNXNXiXi.Q ! Y k M M ' M * q y.>Xu.a . @ 9 p 0 0 2 d l 3 0 3 1 & 3 1 + * > # o O o O o 9 V M p l d * : * Y *.0 O o q 1.3.< % yXNXNXNXNXNXNXNXNXNXNXNX",
"NXNXNXNXNXNXNXNXNX&XY M W W Y V M 1 : : , >Xc.9 0 8 a q d J k h l k 9 d 3 9 > + * 3 > o o o o & O & k d V j 3 * d 3 q j * X # ; Q @.r < 6XNXNXNXNXNXNXNXNXNXNXNX",
"NXNXNXNXNXNXNXNXNXp.1 k I Y M h d 0 8 * o !.>X* 5 9 9 s : d G d k k 0 3 > p 3 * 3 * + o o o O o o * h h k 0 9 0 d * + 9 * # # O # h ^ ~ g.iXNXNXNXNXNXNXNXNXNXNX",
"NXNXNXNXNXNXNXNXmX9 2 e M M M l l d 3 & o s.3Xc.W j Q +.9 4 5 1 > 3 H l > 1 0 3 3 & o # o o o o & * 0 k 0 * 0 j l # 8 l * 1 ; o # # ! 1.h d 0.gXNXNXNXNXNXNXNXNX",
"NXNXNXNXNXNXNXNX=Xh j l k Y Y T T f 9 # * * s._.C.N.M.H.S./ D T Y R ~ f k = 3 p * X o o o o o o > p k M W Y p * + X l l X # : o o : k m 2 9 1 e hXNXNXNXNXNXNXNX",
"NXNXNXNXNXNXNXmX_ k l Y ! ! I l T F 1 # # . X 0.d.s.X.L -.2.2.| | | f @ * 9 o 0 & o o o o o & & 8 h M I ^  .3 * d $ e 8 # & o o X : m & & 1 0 e Y hXNXNXNXNXNXNX",
"NXNXNXNXNXNXNX^.,.l l ! ! M Y l F F 0 # X # X - v N > + 6 @.| l | M p & + @.a o ; o o o o & * s a v Y Y Y T 0 F R * * + 1 * # # o * m * 1 2 6 e l >.cXNXNXNXNXNX",
"NXNXNXNXNXNXNX4XR.%.O.! M l I Y j 4 e X + + # o + & * = D g 3 a s p > > F.H.s.O s & O o o o & a m C Y T R T T ~ j 9 0 f f & o o 9 6 q w 0 2 1 d J R uXNXNXNXNXNX",
"NXNXNXNXNXNXNXNXNXvXgX9Xv.! T H j 0 $ # $ 8 4 1 1 > * T ~ 3 a V 3 9 O   7.3.> & > ; o o o & 3 V Q ! E R ~ R T T F h 7 ;.p 9 9 8 * 2 3 : h h k ! T T 1XMXNXNXNXNX",
"NXNXNXNXNXNXNXNXNXNXNXNX$XT R R J j * 1 4 0 4 2 3 1 & Y z.2.l.1.g y ! X.x.I.  & o > > & # * 9 v C +.X.R ~ T ~ T F g D ~ d g g f H g % + 9 l R O.^ +.j.uXNXNXNXNX",
"NXNXNXNXNXNXNXNXNXNXNXNXB.^ ~ ^ @.Y 9 e D g e 0 4 3 1 d 1.N.+.@.2.L {.eXeX).= o & : ; o # * 0 m E @.O.| F ~ ~ H F F D L D g D G ~ R = 4 4 l ~ | ' *.4.uXNXNXNXNX",
"NXNXNXNXNXNXNXNXNXNXNXNXC.+.@. .,.T < g G G f h d 3 d Y 4.J 9 ~ u J '.eXeX@.& O o o O # # # q E ! ! | ! T ~ G e l k J L K f 1 4 G f 2 4 4 g | @.+.1.H.pXNXNXNXNX",
"NXNXNXNXNXNXNXNXNXNXNXNXyX . . . .^ I l G l g d l 0 p I 4.z.K.H.*.4.].eX[.H.>   o X o # o # h Q Q Q | | ~ ^ F 9 e l / K g F 4 * D f 3 1 2 4 W ,.,.z.P.tXNXNXNXNX",
"NXNXNXNXNXNXNXNXNXNXNXNXNXO.+.| | | J F f 7 f h j 4 @ T H.2.P.'.P.wX3X`.wXP.& o o o o . # : w W ) Q +.+.T I / Y d l ~ K K F l f e f 4 0 j 5 g ,.x.S.W.cXNXNXNXNX",
"NXNXNXNXNXNXNXNXNXNXNXNXNXpX+.X.R Q / -./ f e e 9 1 2 d / 5.K.J.eXfX'.W.rXl.  o O o o o # : 2 E _ _ +.@.T F R T l I ~ L L J T / K D 6 j ^ f J W 5.H.nXNXNXNXNXNX",
"NXNXNXNXNXNXNXNXNXNXNXNXNXNXhXC.1. .=.-.6.*.< * e l d 2 '.P.5 {.fXeX].2XrX+.  o o o X + # $ $ d _ W #.,.+.R / T h l ~ ~ L ..^ ^ 6.[ S.-.$ 9 / +. .1XNXNXNXNXNXNX",
"NXNXNXNXNXNXNXNXNXNXNXNXNXNXNXNXzX/.5.J.S.*.f n w U R K L.).W.dXdXrXfXdXP.> O o O O + + + + # * m E W ' ^ T ^ T H Y R  .L / .. .*.-.J.S.D 0  .1.7XmXNXNXNXNXNXNX",
"NXNXNXNXNXNXNXNXNXNXNXNXNXNXNXNXNXMXsX[.'.S.F U ^ G  .x.z.P.wXrXeXdXdXP.x.: o o & * . % + $ * 1 9 M Y k q Q +.| J T T R / L ..=.>.,.>.6.U.I.+.tXNXNXNXNXNXNXNXNX",
"NXNXNXNXNXNXNXNXNXNXNXNXNXNXNXNXNXNXNXNXtX[.J.-. .*.^ ~ j.P.L.`.).[.2.! Q o q & Y W . X $ $ * 1 1 * : : 9 0 k R ^ F T | | =...*.=.>.;.:. XxXcXNXNXNXNXNXNXNXNXNX",
"NXNXNXNXNXNXNXNXNXNXNXNXNXNXNXNXNXNXNXNXNXNXxXrXP.D.3.~ ~ x.P.H.3.~ = & X 9 a : H H 0 + $ 1 1 3 d f e d f 2 d T  .^ T R @.2.=.;.-.;.H.aXMXNXNXNXNXNXNXNXNXNXNXNX",
"NXNXNXNXNXNXNXNXNXNXNXNXNXNXNXNXNXNXNXNXNXNXNXNXmXsX'.2. .x.2.L.K.! 1 > * 3 l j p 3 d j 0 j T T / ^ J D R.uXhXhXqX4X#X>.! j.R.1XuXcXNXNXNXNXNXNXNXNXNXNXNXNXNXNX",
"NXNXNXNXNXNXNXNXNXNXNXNXNXNXNXNXNXNXNXNXNXNXNXNXNXNXNXkXqX'.H.}.}.}.'.T H R *.<. ...5.J.3.z.S.H.>. .} iXNXNXNXNXNXNXNXNXcXMXNXNXNXNXNXNXNXNXNXNXNXNXNXNXNXNXNXNX",
"NXNXNXNXNXNXNXNXNXNXNXNXNXNXNXNXNXNXNXNXNXNXNXNXNXNXNXNXNXNXxXqXwX(.G.H...6.=.:.I.I.I.S.-.D.2.~ f i.kXNXNXNXNXNXNXNXNXNXNXNXNXNXNXNXNXNXNXNXNXNXNXNXNXNXNXNXNXNX",
"NXNXNXNXNXNXNXNXNXNXNXNXNXNXNXNXNXNXNXNXNXNXNXNXNXNXNXNXNXNXNXNXNXzX5X^.b.! G e ~ :.S.[ J z.K.Q.yXNXNXNXNXNXNXNXNXNXNXNXNXNXNXNXNXNXNXNXNXNXNXNXNXNXNXNXNXNXNXNX",
"NXNXNXNXNXNXNXNXNXNXNXNXNXNXNXNXNXNXNXNXNXNXNXNXNXNXNXNXNXNXNXNXNXNXMXNXvX9X,X+XQ.>XtXhXyXjXBXNXNXNXNXNXNXNXNXNXNXNXNXNXNXNXNXNXNXNXNXNXNXNXNXNXNXNXNXNXNXNXNXNX",
"NXNXNXNXNXNXNXNXNXNXNXNXNXNXNXNXNXNXNXNXNXNXNXNXNXNXNXNXNXNXNXNXNXNXNXNXNXNXNXNXNXNXNXNXNXNXNXNXNXNXNXNXNXNXNXNXNXNXNXNXNXNXNXNXNXNXNXNXNXNXNXNXNXNXNXNXNXNXNXNX",
"NXNXNXNXNXNXNXNXNXNXNXNXNXNXNXNXNXNXNXNXNXNXNXNXNXNXNXNXNXNXNXNXNXNXNXNXNXNXNXNXNXNXNXNXNXNXNXNXNXNXNXNXNXNXNXNXNXNXNXNXNXNXNXNXNXNXNXNXNXNXNXNXNXNXNXNXNXNXNXNX",
"NXNXNXNXNXNXNXNXNXNXNXNXNXNXNXNXNXNXNXNXNXNXNXNXNXNXNXNXNXNXNXNXNXNXNXNXNXNXNXNXNXNXNXNXNXNXNXNXNXNXNXNXNXNXNXNXNXNXNXNXNXNXNXNXNXNXNXNXNXNXNXNXNXNXNXNXNXNXNXNX",
"NXNXNXNXNXNXNXNXNXNXNXNXNXNXNXNXNXNXNXNXNXNXNXNXNXNXNXNXNXNXNXNXNXNXNXNXNXNXNXNXNXNXNXNXNXNXNXNXNXNXNXNXNXNXNXNXNXNXNXNXNXNXNXNXNXNXNXNXNXNXNXNXNXNXNXNXNXNXNXNX"
};
