/* XPM */
static char *a1d21fc38fc64877a529a847c027cbfa9dcKbJPbCMtFeUM9[] = {
/* columns rows colors chars-per-pixel */
"80 80 244 2 ",
"   c #040202",
".  c #0A0504",
"X  c #0C0907",
"o  c #0D0B09",
"O  c #090807",
"+  c #130503",
"@  c #130A06",
"#  c #1A0C06",
"$  c #130D0A",
"%  c #1A0E09",
"&  c #190503",
"*  c #15110D",
"=  c #1B120C",
"-  c #1D140B",
";  c #140E11",
":  c #161312",
">  c #1C1511",
",  c #1D1913",
"<  c #1E141A",
"1  c #220F09",
"2  c #23150C",
"3  c #29160B",
"4  c #25190F",
"5  c #2C1A0D",
"6  c #2D1506",
"7  c #321E0E",
"8  c #371D08",
"9  c #221611",
"0  c #241A13",
"q  c #2B1D13",
"w  c #251D1A",
"e  c #2A1E19",
"r  c #26161A",
"t  c #311E12",
"y  c #341919",
"u  c #35210E",
"i  c #3B240D",
"p  c #2E2116",
"a  c #2D221A",
"s  c #25201D",
"d  c #342214",
"f  c #3A2514",
"g  c #3D2915",
"h  c #34251B",
"j  c #39261A",
"k  c #36291E",
"l  c #3B2A1C",
"z  c #3D301B",
"x  c #2A1B25",
"c  c #321C28",
"v  c #2A2422",
"b  c #2E2925",
"n  c #342522",
"m  c #352A22",
"M  c #3B2D22",
"N  c #342D2B",
"B  c #3A2927",
"V  c #3D3025",
"C  c #3C322B",
"Z  c #3D2635",
"A  c #3E3532",
"S  c #422B16",
"D  c #422D1C",
"F  c #472B18",
"G  c #45311E",
"H  c #4A331C",
"J  c #493319",
"K  c #54381C",
"L  c #582918",
"P  c #662C16",
"I  c #412D22",
"U  c #452927",
"Y  c #443224",
"T  c #4A3523",
"R  c #4E3925",
"E  c #43352B",
"W  c #49362C",
"Q  c #46382C",
"!  c #4C3A2C",
"~  c #533B24",
"^  c #5A3D23",
"/  c #523D2B",
"(  c #543A25",
")  c #442738",
"_  c #453A33",
"`  c #4B3C33",
"'  c #493B38",
"]  c #513D34",
"[  c #543C3B",
"{  c #51293E",
"}  c #491D0B",
"|  c #56412D",
" . c #5B432D",
".. c #5B4022",
"X. c #4B423C",
"o. c #4F4033",
"O. c #544234",
"+. c #5A4534",
"@. c #54453C",
"#. c #59463B",
"$. c #5C4A3B",
"%. c #5A4939",
"&. c #62452B",
"*. c #64482D",
"=. c #674729",
"-. c #634B34",
";. c #6B4D35",
":. c #624D3B",
">. c #654938",
",. c #6B533A",
"<. c #725334",
"1. c #78593C",
"2. c #714E2E",
"3. c #7E6237",
"4. c #552E48",
"5. c #583645",
"6. c #55314C",
"7. c #673654",
"8. c #62324E",
"9. c #6C3764",
"0. c #5C4D42",
"q. c #584B49",
"w. c #5E5754",
"e. c #574D45",
"r. c #624D4C",
"t. c #634C46",
"y. c #64554C",
"u. c #695647",
"i. c #745B43",
"p. c #775A47",
"a. c #654D54",
"s. c #6C5553",
"d. c #6B5B53",
"f. c #655655",
"g. c #735B53",
"h. c #765C59",
"j. c #7D6246",
"k. c #786457",
"l. c #6A635F",
"z. c #7A446C",
"x. c #795B65",
"c. c #7D4274",
"v. c #7A6767",
"b. c #7B716A",
"n. c #7E7167",
"m. c #7D6C73",
"M. c #855F3D",
"N. c #8B633B",
"B. c #815F45",
"V. c #826143",
"C. c #876A4B",
"Z. c #926B46",
"A. c #967549",
"S. c #876B5A",
"D. c #8B725A",
"F. c #95775B",
"G. c #8E7043",
"H. c #A67E5F",
"J. c #89477A",
"K. c #83456D",
"L. c #836A6C",
"P. c #836764",
"I. c #877569",
"U. c #997A64",
"Y. c #886A77",
"T. c #8E737A",
"R. c #897875",
"E. c #947973",
"W. c #92677F",
"Q. c #A77E6F",
"!. c #9B8268",
"~. c #968578",
"^. c #8D837C",
"/. c #A58769",
"(. c #B59B7A",
"). c #AD8D77",
"_. c #AC835A",
"`. c #C19677",
"'. c #C0A166",
"]. c #974E85",
"[. c #985188",
"{. c #924D87",
"}. c #A75A98",
"|. c #976788",
" X c #977788",
".X c #AA7297",
"XX c #B15FA1",
"oX c #AE61A2",
"OX c #B772A7",
"+X c #B765A7",
"@X c #948C85",
"#X c #968B92",
"$X c #A79785",
"%X c #A48399",
"&X c #AB899B",
"*X c #A68497",
"=X c #B58C96",
"-X c #AE938A",
";X c #BDA485",
":X c #B0A69C",
">X c #AE8CA3",
",X c #B28EA7",
"<X c #BA95AE",
"1X c #B592AB",
"2X c #BC98B4",
"3X c #B4AFA9",
"4X c #C49996",
"5X c #C3AB8C",
"6X c #C9A897",
"7X c #CAB79A",
"8X c #CAB388",
"9X c #C298A8",
"0X c #C59EBC",
"qX c #C19BB5",
"wX c #C680B6",
"eX c #D3A9AA",
"rX c #CBB8A0",
"tX c #D5BAA8",
"yX c #D3A8BD",
"uX c #D3A9BE",
"iX c #DAC7AD",
"pX c #E8CEB8",
"aX c #CCA4C5",
"sX c #D3AACC",
"dX c #D3A9C5",
"fX c #DBB1C7",
"gX c #D8AED1",
"hX c #DCB1D5",
"jX c #DDB2D9",
"kX c #E2B6DC",
"lX c #E7BAD8",
"zX c #E6B9E2",
"xX c #EBBDE6",
"cX c #ECBEEA",
"vX c #E4B7E1",
"bX c #EEC1EC",
"nX c #EEC0E7",
"mX c #F2C3EE",
"MX c #FACBEF",
"NX c #F5C5F3",
"BX c #F9CAF4",
"VX c #FFCEFF",
"CX c #F7C8F5",
"ZX c #EADCC3",
/* pixels */
"VXVXVXVXVXVXVXVXVXVXVXVXVXVXVXVXVXVXVXVXVXVXVXVXVXVXVXVXVXVXVXVXBXNXBXVXVXVXVXVXVXVXVXVXVXVXVXVXVXVXVXVXVXVXVXVXVXVXVXVXVXVXVXVXVXVXVXVXVXVXVXVXVXVXVXVXVXVXVXVX",
"VXVXVXVXVXVXVXVXVXVXVXVXVXVXVXVXVXVXVXVXVXVXVXVXVXVXVXVXNXVXxXVXVXVXVXVXVXVXVXVXVXVXVXVXVXVXVXVXVXVXVXVXVXVXVXVXVXVXVXVXVXVXVXVXVXVXVXVXVXVXVXVXVXVXVXVXVXVXVXVX",
"VXVXVXVXVXVXVXVXVXVXVXVXVXVXVXVXVXVXVXVXVXVXVXVXVXmXhXhX&Xf. X.XsXbXvXVXVXVXVXVXVXVXVXVXVXVXVXVXVXVXVXVXVXVXVXVXVXVXVXVXVXVXVXVXVXVXVXVXVXVXVXVXVXVXVXVXVXVXVXVX",
"VXVXVXVXVXVXVXVXVXVXVXVXVXVXVXVXVXVXVXVXVXVXVXVXjXY.[ s.j k V ` ` x.s.1XcXVXVXVXVXVXVXVXVXVXVXVXVXVXVXVXVXVXVXVXVXVXVXVXVXVXVXVXVXVXVXVXVXVXVXVXVXVXVXVXVXVXVXVX",
"VXVXVXVXVXVXVXVXVXVXVXVXVXVXVXVXVXVXVXVXVXVXVX2X XV n h t h l M M l k [ v.aXVXNXVXVXVXVXVXVXVXVXVXVXVXVXVXVXVXVXVXVXVXVXVXVXVXVXVXVXVXVXVXVXVXVXVXVXVXVXVXVXVXVX",
"VXVXVXVXVXVXVXVXVXVXVXVXVXVXVXVXVXVXVXVXVX0XY._ C k e q t 0 q h h h h p n 0.x..X XaXVXVXVXVXVXVXVXVXVXVXVXVXVXVXVXVXVXVXVXVXVXVXVXVXVXVXVXVXVXVXVXVXVXVXVXVXVXVX",
"VXVXVXVXVXVXVXVXVXVXVXVXVXVXVXVXVXVXVXNX,Xr.Y k e e e q e q q h d p q q q p h l W [  XvXVXCXVXVXVXVXVXVXVXVXVXVXVXVXVXVXVXVXVXVXVXVXVXVXVXVXVXVXVXVXVXVXVXVXVXVX",
"VXVXVXVXVXVXVXVXVXVXVXVXVXVXVXVXVXVXmX>Xt.m p p e 0 0 0 e q t p h q e p q q p h h l W [  X0XjXVXVXVXVXVXVXVXVXVXVXVXVXVXVXVXVXVXVXVXVXVXVXVXVXVXVXVXVXVXVXVXVXVX",
"VXVXVXVXVXVXVXVXVXVXVXVXVXVXVXVXVXVX<X$.o.h s a a s p 0 p p p h q e p p e 0 4 q p h l M h Y x.0XgXVXVXVXVXVXVXVXVXVXVXVXVXVXVXVXVXVXVXVXVXVXVXVXVXVXVXVXVXVXVXVX",
"VXVXVXVXVXVXVXVXVXVXVXVXVXVXVXVXVXbXl.+.o.N m N k a p p s a a a h p k n p q 0 5 q h h k j l d W r.T.0XzXCXVXVXVXVXVXVXVXVXVXVXVXVXVXVXVXVXVXVXVXVXVXVXVXVXVXVXVX",
"VXVXVXVXVXVXVXVXVXVXVXVXVXVXVXVXBX<X$.@.X.A A A m a p a a a a b m m m p a w 0 4 0 p p p M Y d 3 5 j l a.1XVXVXVXVXVXVXVXVXVXVXVXVXVXVXVXVXVXVXVXVXVXVXVXVXVXVXVX",
"VXVXVXVXVXVXVXVXVXVXVXVXVXVXVXVXjXv.$.X.X.A Q Q z p 0 p b z V V M m p p p p 0 4 2 0 p p h Y d 3 3 3 3 t n  XxXVXVXVXVXVXVXVXVXVXVXVXVXVXVXVXVXVXVXVXVXVXVXVXVXVX",
"VXVXVXVXVXVXVXVXVXVXVXVXVXVXVXVX2X:.$.e.X._ o.V z a 0 h V o.V m h h p d h h p 0 9 9 e d h l h 5 3 3 1 5 t m q.aXVXVXVXVXVXVXVXVXVXVXVXVXVXVXVXVXVXVXVXVXVXVXVXVX",
"VXVXVXVXVXVXVXVXVXVXVXVXVXVXVXVX2X$.y.e.e.X.X.X.C k d V V V m h p e w d j k k p q 0 q h j h d 3 1 5 5 q h k n r.%XvXVXVXVXVXVXVXVXVXVXVXVXVXVXVXVXVXVXVXVXVXVXVX",
"VXVXVXVXVXVXVXVXVXVXVXVXVXVXVXVXsXl.w.X.A _ X.@.o.z V o.C V M V V p q q p h h p 0 0 0 q h h j 5 2 3 5 t y m m I ' s.%XCXVXVXVXVXVXVXVXVXVXVXVXVXVXVXVXVXVXVXVXVX",
"VXVXVXVXVXVXVXVXVXVXVXVXVXVXVXVX0XR.$.h b b o.X.@.o.o.a h k Y V m p q 4 p a k k p 4 2 5 t h q 2 3 1 1 1 5 9 e n M M ` <XBXVXVXVXVXVXVXVXVXVXVXVXVXVXVXVXVXVXVXVX",
"VXVXVXVXVXVXVXVXVXVXVXVXVXBXVXVX*Xb.C $ 0 4 w m V o.V s p z Y , = = 0 h k h e l M q = 9 e e % - 3 % # # % 9 9 t f f I s.0XVXVXVXVXVXVXVXVXVXVXVXVXVXVXVXVXVXVXVX",
"VXVXVXVXVXVXVXVXVXVXVXVXVXCXVXcXm.w.v * , > $ > z G k a a V k X . @ $ q k > % 2 M M q 2 9 0 : 4 3 % % @ & 1 3 t q y d U h.<XBXVXVXVXVXVXVXVXVXVXVXVXVXVXVXVXVXVX",
"VXVXVXVXVXVXVXVXVXVXVXVXVXVXNX%Xy.e.b * , o o - u J z f a z , O X o X = 4 0 3 2 2 h m q = : $ * % 1 % % 1 3 1 t t t f t I r.hXVXVXVXVXVXVXVXVXVXVXVXVXVXVXVXVXVX",
"VXVXVXVXVXVXVXVXVXVXVXVXVXVXzXh.u.y.E = * * X * 4 z J J z p $ O X * > % . j h f q 1 l h = $ o o % 2 % % 2 3 q 5 3 h D l D E  XBXVXVXVXVXVXVXVXVXVXVXVXVXVXVXVXVX",
"VXVXVXVXVXVXVXVXVXVXVXVXVXVX<Xg.e.f.Q 4 * 0 s > - g K J z k @ O X * 0 $ j p.1 F n = p q > = O O @ = - # 1 1 3 t t d Y ! ] W x.NXVXVXVXVXVXVXVXVXVXVXVXVXVXVXVXVX",
"VXVXVXVXVXVXVXVXVXVXVXVXVXVX Xd.w.q.$.! - s V h , g J z H Y * O X o * X h.`.P } m b q = > > * o % 0 3 2 - # 2 q q f Y O.+.+.%XNXVXVXVXVXVXVXVXVXVXVXVXVXVXVXVXVX",
"VXVXVXVXVXVXVXVXVXVXVXVXVXbXv.s.l.w.I.S./ - , a 0 z J z J o.s O $ > $ - %.<.L 8 V l $ = > 9 > : * d f 7 2 # 2 5 7 t D W ! :.&XcXVXVXVXVXVXVXVXVXVXVXVXVXVXVXVXVX",
"VXVXVXVXVXVXVXVXVXVXVXVXVXNXY.g.b.b.l.S.D.! * = p z K g z | z $ $ 0 q T y & 6 p Y q $ = > 9 > O = p f d u 2 1 7 t t D I I O.T.vXVXVXVXVXVXVXVXVXVXVXVXVXVXVXVXVX",
"VXVXVXVXVXVXVXVXVXVXVXVXVXzXP.t.m.b.b /.D.U n > > M T S z l M , o o M G y I j ! h # 9 % > > ; O , k p 7 d 5 4 q f j f j l / g.0XVXVXVXVXVXVXVXVXVXVXVXVXVXVXVXVX",
"VXVXVXVXVXVXVXVXVXVXVXVXvX*X/ c f.^.l P L q E e * V Q G J k h q =   0 d ( ! / d % 1 c c c < o ; s k d 4 5 p u 7 t f f 7 j ! t.aXVXVXVXVXVXVXVXVXVXVXVXVXVXVXVXVX",
"VXVXVXVXVXVXVXVXVXVXbX1Xa.[ n = N b.k.t.+ y t.n * V Q G G j d d h - $ d T D 5 * 1 ) 8.7.6.Z < o - k g p 4 7 u 7 t j f 7 j W O.hXVXVXVXVXVXVXVXVXVXVXVXVXVXVXVXVX",
"VXVXVXVXVXVXVXVXVXnX2X@.E I B > : A R.R.q.w.R.C O k Y G l d 7 f d q = p f j q r ) 7.J.[.{.7.c ; p k l u 7 u i d f f i 7 f T v.xXVXVXVXVXVXVXVXVXVXVXVXVXVXVXVXVX",
"VXVXVXVXVXVXVXVXVX&Xs.Q ` ` n : r   A f.l.n.d.N $ M Y G l d 5 d d u q 2 4 j h ) 7.J.}.XX}.{.4.< s M z i u i i d d f i f j W h.gXVXVXVXVXVXVXVXVXVXVXVXVXVXVXVXVX",
"VXVXVXVXVXVXVXVXhXk._ m Q E > o < ; ; c r.t.' = 0 V M M l l 7 5 5 q d 3 2 d y 4.K.}.}.}.}.9.Z > - M G g i i d d q i i i f ] $.x.cXVXVXVXVXVXVXVXVXVXVXVXVXVXVXVX",
"VXVXVXVXVXVXVXjXR.t.` h B s @ $ : < x 4.a.x.5.n _ _ C h k j d 3 3 5 d d t d U 7.[.}.}.}.{.7.Z * * m Q z i i u u u i g f l / Y f >XVXVXVXVXVXVXVXVXVXVXVXVXVXVXVX",
"VXVXVXVXVXVXBX<Xy.0.@.V M b o O : c 6.9.J.|.x.q.q.X.C N m m d 5 3 u t h f f U 7.[.XX}.[.z.4.m o $ a Q G S i S i u u T d g j d l d.gXmXVXVXVXVXVXVXVXVXVXVXVXVXVX",
"VXVXVXVXVXVXBXT.y.$.@.Q ` C > o ; Z c.[.}.}.[.m.q.E V B M k d 5 3 u d d g j I 5.K.].J.K.{ U a * @ , C E T Y Y H i g Y d q 2 8 f W P.&XVXVXVXVXVXVXVXVXVXVXVXVXVX",
"VXVXVXVXVXVXVXT.y.` E ` O._ N v x 4.{.oXoX+XOX|.5.M M m B m h 5 3 u u u p f j T 5.7.7.{ B d e * o : s V Q Q o.T l k e d l f t 7 f T >.<XmXVXVXVXVXVXVXVXVXVXVXVX",
"VXVXVXVXVXVXkXE.0.o.l V Y Q A C Z 6.J.}.}.OXwX|._ M M B C n k e 5 u u f d 7 d t y c c r e 0 2 - o o * 0 l I I l d p - 5 ( / D t f l / g.gXVXVXVXVXVXVXVXVXVXVXVX",
"VXVXVXVXVXVXhXm.0.O.Y k j Y V n b A 7.9.{.OXOXx.[ / ! C M k j y d d d f f f t d 1 1 % = q 9 2 % X o $ * = q 5 3 5 3 3 5 T ( t S j I ( +.>XVXVXVXVXVXVXVXVXVXVXVX",
"VXVXVXVXVXVXxXY.0.$.o.z l Y M s < v Z ) z..X|.r.#.+.+.W h a h h h p d g g f u d - % % 2 s 4 4 * * * - = = e q 2 1 3 7 f I j 3 y f T /  .L.BXVXVXVXVXVXVXVXVXVXVX",
"VXVXVXVXVXVXBX&Xd.$.| d M +.+.G a < , x a.T.v.u.#.#.#.Y 0 h j q 7 q i f g j f d 0 4 - - , > 2 2 = = 0 0 - h k 4 2 6 7 S S I D d y H R / g.gXVXVXVXVXVXVXVXVXVXVX",
"VXVXVXVXVXVXVXaXd.@.o.k j C $.-.! v : ; N ` 0.d.$.:.+.d 2 h h 3 4 f g d f l G f 5 0 - * , - > 2 4 0 0 4 $ e l 4 1 7 7 f F i G ( T H I ( >.0XVXVXVXVXVXVXVXVXVXVX",
"VXVXVXVXVXVXVXsXq.m o.R h h M E o.a $ ; X , o.d.$.:.T 2 % h j 3 - f g 2 5 z G p 2 = = - 4 , , 4 4 0 0 0 = p k 4 % 2 7 G T D 5 d G l / ! Y &XVXVXVXVXVXVXVXVXVXVX",
"VXVXVXVXVXVXVXaX% 0 M C Y I q 9 B m = o $ w d.y.$.i.d @ 3 B j 3 2 u 4 - 2 g T l # @ - * > > 4 s 0 0 a 0 $ a k q - 2 2 t D D q t q q p.+.B ,XBXVXVXVXVXVXVXVXVXVX",
"VXVXVXVXBXBXVX&Xh e j m C Q e - k V 0 o o C k.@.:.1.4 @ 5 D h q 5 3 # - u f Y Q p $ # $ , , - 0 9 0 m w $ a M d t 7 3 4 3 d q q $ 9 Z./ y ,XVXVXVXVXVXVXVXVXVXVX",
"VXVXVXVXVXBXNXR.M l n M W Q > 0 > j m : O _ I.O.-.T . X 3 f j d 5 # # - - 3 j | Y 4 $ - 0 , , 0 9 e M p = p V a p p t 5 t f % $ $ B B.D . W.NXVXVXVXVXVXVXVXVXVX",
"VXVXVXVXVXVXcXv.Q ! M M ] Q a w o 9 B a   C n.:./ h w , 9 0 y l t - 2 - - 2 7 ( O.q $ - 0 0 : 0 p n M h e V Y p 0 9 d q K Y o O $ ` ,.T q t.*XhXxXmXVXVXVXVXVXVX",
"VXVXVXVXVXVXxXs.#.%.Y Q ` C W a X * h h * X.^.-.N q.X._ k k l Y Y h 0 - 2 5 3 f Q l - * - 0 > * 0 n M k V Q M j 0 % 0 t T I $ o o : k l /  .@.U a. XkXVXVXVXVXVX",
"VXVXVXVXVXVXdXs.t.@.` o.` Y ' e 4 = , k 0 w.~.-.w.m.y.X.0.$.$.O.o.Y p $ # 2 # 2 M M - # - 4 , : o : a m E Y p l q 4 2 = e q $ @ o X o * W +.e 3 9 t P.qXxXVXVXVX",
"VXVXVXVXVXVXsXL.0.o.` @.Q E n 9 k 0 > p * N !.Q ^.3Xn.d.I.).k.u.@.%.k $ - 2 $ # M M 2 * = = o * X X : a V k h l 9 4 d 4 $ p 9 = > o o : k s % 2 3 t u >.*XmXVXVX",
"VXVXVXVXVXVXVX>Xr.Y Y E I M 9 2 n M h * o v b.d.:X3X$X:X~.I.t.M C $.k # q t 2 2 l m # * 4 * o o o o O * j j M q 9 h j > = l q o = * O $ a a @ 2 5 5 d F t.dXBXVX",
"VXVXVXVXVXVXVXbXY.Q M j k k e h 0 B E e @ b b.n.3Xb.b.~.I.M + $ * l , p I q 4 - d p * - , * o o o o O * p h d 0 0 p 5 X 4 l 4 o * * o * , a 4 5 4 q M T T E.sXVX",
"VXVXVXVXVXVXVXVX%X` M j l k l D p j Y C - v l.R.I.,.$ N @.% $ 4 l p * j l q - = 4 - # 4 4 o o o o o o * 0 h k M l 2 - 2 9 0 $ = = o o * q p 0 s h j / / / ,.Q.cX",
"VXVXVXVXVXVXVXbX X! M M D M l l M t k ` p * w.R.Q $.y.N r 1 2 d T d p j 9 q q 0 s # - , - O * o o o * 0 p k V | / 4 d D 2 # 2 f = o * 4 2 4 $ 4 h T / O.| ,.E.lX",
"VXVXVXVXVXVXVXjXw.` I Y Y I h l l q p X._ - X.^.e.a V d.3 3 q q d 5 j l q t 2 0 p 4 - , $ o o o o o * 0 p M Y ! R d Y T 0 q S F 0 5 0 f G q + 3 t I +.+.+.1.F.dX",
"VXVXVXVXVXVXVXzXa.o.Q Y Y M M M l q e ` X.5 C @Xn.s - - 1 e q g l j j l a p p = > 5 p > o o $ o o * , 0 a V Y T ( G ~ T j t K Y d g S F ^ D 1 3 5 g ! :.:.p.Z.yX",
"VXVXVXVXVXVXVXVX%X$.! Q Q Y Y Y M 0 e _ Q $ b b.@XC # 0 - e , w d f q , d H D p - - 5 - o o o o o * 0 a C V E R ~ R T G D f J K J f f i H g 5 2 2 6 j +.i.V.Q.cX",
"VXVXVXVXVXVXVXVXxXY.@.Q E Y V l j k M ] h - r N @Xw.e + 2 a B = 5 6 q l G ! d 4 - , > $ : O o o o $ 0 C Q ! R R T ~ T T D D F K J f 2 - u g q 2 t f 7 T :.i.9XBX",
"VXVXVXVXVXVXVXVXVXhX*Xo.E Q E V l V E V q = % : b.:Xq.l l ] i.;.&.~ ( / +.T 2 * p $.s o , o o o o * 4 m A +.+.| G ~ ( j j l T K F D l 5 5 d u 2 T l f ( / C.yXVX",
"VXVXVXVXVXVXVXVXVXVXVX Xd.` Y Y W Y M d q 9 $ . N ^.^.I.k.d.i.<.<.,.+.T O.k p , 3.G._ : , : * * o = 9 b C O.+./ G ( G d 3 h T ( J J G G H H L K ( 2 2 ( ,.=XBXVX",
"VXVXVXVXVXVXVXVXVXVXVXbX2X_ k Y Y I l h j t 9 . * h e.v.y.y.M 5 g -.Y d h 0 o - =.G., o * , , * $ $ 4 n Q / ` / ( ( ( G l t D ( K K H | &.=.=.Z.B.F J +.k.nXVXVX",
"VXVXVXVXVXVXVXVXVXVXVXVX0Xn 4 h M M G Y Y S % @ $   o w m b > O i f - a s - - 0 / /.Y   o : : $ @ o = j Q ` W O. .T I ( T j l R ..K K | / *.=.i.<.N._.-XjXVXVXVX",
"VXVXVXVXVXVXVXVXVXVXVXVXaXq q d M Y Y Y G G q @ X X . O * = = 4 ( j M O.| g H D.;X;X+.O o o o O o $ $ h ` W ` +.+.R G ( ( l l T | ..K ..&.*.>.>.=.Z.pXMXVXVXVXVX",
"VXVXVXVXVXVXVXVXVXVXVXVX,XB f I W ! D l D D h = @ $ = % @ 2 % q +.i.i.i.+.=.K (.pX;Xi.*   o O o o @ : q M ` ` O.$.-.! R ( D I T / ( K ..&.=.-.=.M.eXMXVXVXVXVXVX",
"VXVXVXVXVXVXVXVXVXVXVXBXL.n l I ] I M I l t t % $ % 3 q 2 4 = % Y ,.u.h ~ S K /.rX;XF.k   O o o o X = % r Y Q ` +.+.Q | / / T D T | | ;.&.&.p.E.4XNXVXVXVXVXVXVX",
"VXVXVXVXVXVXVXVXVXVXVXhXg.] M ! ] l Y Y Y d q @ % q t t q q 4 q h 1. .+.>.&.1.$X$X;X(.m   o o $ o $ $ @ % 0 M E Y m a m ! T / T ( ~  .>.p.U.9XkXVXVXVXVXVXVXVXVX",
"VXVXVXVXVXVXVXVXVXVXVXzXP.L.h.T.Y.r.Q T T T D 9 3 f S d d d q q l ;.B.j./.A.(.7X!.).5XQ   o o O @ % @ @ % = 0 a a > 5 e d R -.g.h.h.]  X9XkXVXVXVXVXVXVXVXVXVXVX",
"VXVXVXVXVXVXVXVXVXVXVXVXbXhXBXnXBX*XO.! /  .! q 5 S F f f j j 9 5 | <.1.F./.iX7X!.;X;XN O O O O X X $ % - 2 2 4 2 q f ] Y.=XyXyXkXgXcXNXBXVXVXVXVXVXVXVXVXVXVXVX",
"VXVXVXVXVXVXVXVXVXVXVXVXVXVXVXVXVX2X| |  .-.+.j j S S S f f y 1 2 l <.B.J U.ZXrXrXiX(.a O * * a # . + - % 2 5 D D D +.<XvXVXCXVXVXVXVXVXVXVXVXVXVXVXVXVXVXVXVXVX",
"VXVXVXVXVXVXVXVXVXVXVXVXVXVXVXVXVXsXy.+. .*.*.| D J f y t q e 5 5 5 C.!.i.$XpXtXZX5XC.M o : s | k $ + - 5 D ~  .&.1.9XVXVXVXVXVXVXVXVXVXVXVXVXVXVXVXVXVXVXVXVXVX",
"VXVXVXVXVXVXVXVXVXVXVXVXVXVXVXVXVXBX2X+.+.| ~ / R ^ ^ H t - 4 l D D j.U./.rXrX7X7Xi.T w : , 4 l p d D l  .1.1.*.D =XNXVXVXVXVXVXVXVXVXVXVXVXVXVXVXVXVXVXVXVXVXVX",
"VXVXVXVXVXVXVXVXVXVXVXVXVXVXVXVXVXVXVXT.s.| / Q ( =.M.2.S y h j T >.>.B./.!./.D.1.5 @ X 0 d z d f ^ B.M.p.3.;.] L.cXVXVXVXVXVXVXVXVXVXVXVXVXVXVXVXVXVXVXVXVXVXVX",
"VXVXVXVXVXVXVXVXVXVXVXVXVXVXVXVXVXVXVXzX2XR.I.C.p.=.Z.B.^ f T F ( ^ / ;.C.F.j.i.T . - > d ! -.<.1.Z.Z.&.2.2.P.&XVXVXVXVXVXVXVXVXVXVXVXVXVXVXVXVXVXVXVXVXVXVXVXVX",
"VXVXVXVXVXVXVXVXVXVXVXVXVXVXVXVXVXVXVXVXVXzXnXlX4X4X`.H.F.M.;.;.1.=.( R ,.i.C.!.S.D.:./ ( <.=.<.G.Z.M.p.h.qXcXNXVXVXVXVXVXVXVXVXVXVXVXVXVXVXVXVXVXVXVXVXVXVXVXVX",
"VXVXVXVXVXVXVXVXVXVXVXVXVXVXVXVXVXVXVXVXVXVXVXVXVXcXMXfXyXeXtX6X).).1.g.C.j.!.(.8X'.A.;.&.K J T ] P.4XdXxXBXVXVXVXVXVXVXVXVXVXVXVXVXVXVXVXVXVXVXVXVXVXVXVXVXVXVX",
"VXVXVXVXVXVXVXVXVXVXVXVXVXVXVXVXVXVXVXVXVXVXVXVXVXVXVXVXBXVXBXBXBXlXlXuXfXeXeXeXtX6XQ. X XY. X X<XgXNXVXVXVXVXVXVXVXVXVXVXVXVXVXVXVXVXVXVXVXVXVXVXVXVXVXVXVXVXVX",
"VXVXVXVXVXVXVXVXVXVXVXVXVXVXVXVXVXVXVXVXVXVXVXVXVXVXVXVXVXVXVXVXVXVXVXVXBXVXBXVXBXVXNXVXcXVXcXVXCXVXVXVXVXVXVXVXVXVXVXVXVXVXVXVXVXVXVXVXVXVXVXVXVXVXVXVXVXVXVXVX",
"VXVXVXVXVXVXVXVXVXVXVXVXVXVXVXVXVXVXVXVXVXVXVXVXVXVXVXVXVXVXVXVXVXVXVXVXVXVXVXVXVXVXVXVXVXVXVXVXVXVXVXVXVXVXVXVXVXVXVXVXVXVXVXVXVXVXVXVXVXVXVXVXVXVXVXVXVXVXVXVX",
"VXVXVXVXVXVXVXVXVXVXVXVXVXVXVXVXVXVXVXVXVXVXVXVXVXVXVXVXVXVXVXVXVXVXVXVXVXVXVXVXVXVXVXVXVXVXVXVXVXVXVXVXVXVXVXVXVXVXVXVXVXVXVXVXVXVXVXVXVXVXVXVXVXVXVXVXVXVXVXVX",
"VXVXVXVXVXVXVXVXVXVXVXVXVXVXVXVXVXVXVXVXVXVXVXVXVXVXVXVXVXVXVXVXVXVXVXVXVXVXVXVXVXVXVXVXVXVXVXVXVXVXVXVXVXVXVXVXVXVXVXVXVXVXVXVXVXVXVXVXVXVXVXVXVXVXVXVXVXVXVXVX",
"VXVXVXVXVXVXVXVXVXVXVXVXVXVXVXVXVXVXVXVXVXVXVXVXVXVXVXVXVXVXVXVXVXVXVXVXVXVXVXVXVXVXVXVXVXVXVXVXVXVXVXVXVXVXVXVXVXVXVXVXVXVXVXVXVXVXVXVXVXVXVXVXVXVXVXVXVXVXVXVX",
"VXVXVXVXVXVXVXVXVXVXVXVXVXVXVXVXVXVXVXVXVXVXVXVXVXVXVXVXVXVXVXVXVXVXVXVXVXVXVXVXVXVXVXVXVXVXVXVXVXVXVXVXVXVXVXVXVXVXVXVXVXVXVXVXVXVXVXVXVXVXVXVXVXVXVXVXVXVXVXVX",
"VXVXVXVXVXVXVXVXVXVXVXVXVXVXVXVXVXVXVXVXVXVXVXVXVXVXVXVXVXVXVXVXVXVXVXVXVXVXVXVXVXVXVXVXVXVXVXVXVXVXVXVXVXVXVXVXVXVXVXVXVXVXVXVXVXVXVXVXVXVXVXVXVXVXVXVXVXVXVXVX"
};
