/* XPM */
static char *a821802df32d4f1dbd0ec8aa3d19280cm0IfHYEspmzjqnuR[] = {
/* columns rows colors chars-per-pixel */
"80 80 204 2 ",
"   c #59543D",
".  c #60583A",
"X  c #766631",
"o  c #7B692F",
"O  c #675045",
"+  c #6C5345",
"@  c #6B5449",
"#  c #715646",
"$  c #755947",
"%  c #755A4B",
"&  c #7A5D49",
"*  c #70574C",
"=  c #745D53",
"-  c #7A5E50",
";  c #644D44",
":  c #7F604C",
">  c #7E6252",
",  c #79645B",
"<  c #7E6864",
"1  c #88712A",
"2  c #84634B",
"3  c #89664C",
"4  c #8B694E",
"5  c #906D4A",
"6  c #9F7A47",
"7  c #967449",
"8  c #836553",
"9  c #876956",
"0  c #8C6A53",
"q  c #8C6C59",
"w  c #886751",
"e  c #916E55",
"r  c #916F5B",
"t  c #94725C",
"y  c #9A765E",
"u  c #9E795F",
"i  c #947057",
"p  c #8E705B",
"a  c #866E61",
"s  c #897368",
"d  c #947462",
"f  c #9A7760",
"g  c #9D7A62",
"h  c #9B7B6D",
"j  c #987768",
"k  c #9D7D71",
"l  c #8B7974",
"z  c #A37D64",
"x  c #A27D77",
"c  c #DBA30A",
"v  c #D8A110",
"b  c #F2B200",
"n  c #F5BA0D",
"m  c #E5AE17",
"M  c #F7BC13",
"N  c #F8BE19",
"B  c #DEB036",
"V  c #ECBC36",
"C  c #F9C119",
"Z  c #F9C533",
"A  c #AE865E",
"S  c #B38B5B",
"D  c #BA9157",
"F  c #9F826D",
"G  c #95837B",
"H  c #A98261",
"J  c #A5826C",
"K  c #A8846A",
"L  c #A4827B",
"P  c #A68C7D",
"I  c #A48876",
"U  c #FBD15C",
"Y  c #FFD664",
"T  c #8B6DB9",
"R  c #8F71BB",
"E  c #9274BD",
"W  c #9579BF",
"Q  c #977BC0",
"!  c #997DC1",
"~  c #9A8C8D",
"^  c #9A8782",
"/  c #9B9294",
"(  c #9C969B",
")  c #94989B",
"_  c #9A999F",
"`  c #A38A83",
"'  c #A78B8A",
"]  c #AC9385",
"[  c #AD958C",
"{  c #A6948D",
"}  c #B39988",
"|  c #B58D94",
" . c #AA9798",
".. c #B8969C",
"X. c #A78E92",
"o. c #B7A295",
"O. c #9B9CA2",
"+. c #A39FA9",
"@. c #AA9BA2",
"#. c #B69DA7",
"$. c #9DA0A3",
"%. c #BBA8A6",
"&. c #AAA3B0",
"*. c #A9ACB1",
"=. c #B1A6B6",
"-. c #BCACBD",
";. c #B8ABB7",
":. c #B0B0B8",
">. c #C2A897",
",. c #C59BAC",
"<. c #C89EB1",
"1. c #C2AAA7",
"2. c #C7B8BA",
"3. c #CFA9BB",
"4. c #D6C5BF",
"5. c #9D83C4",
"6. c #A289C7",
"7. c #A58DC8",
"8. c #A087C6",
"9. c #AA93CB",
"0. c #AF99CF",
"q. c #A790CA",
"w. c #B09BCF",
"e. c #B29DD0",
"r. c #BEADC2",
"t. c #BAACC7",
"y. c #BEB0C3",
"u. c #B6A3D3",
"i. c #B9A6D5",
"p. c #BCAAD6",
"a. c #BFAED9",
"s. c #C3AFC7",
"d. c #D6ABC5",
"f. c #DBAECC",
"g. c #C9BACC",
"h. c #C8B6C6",
"j. c #C0AFD9",
"k. c #C9AEDF",
"l. c #C4B4DB",
"z. c #C8B6DE",
"x. c #C9BADE",
"c. c #C4B5D7",
"v. c #DEB2D1",
"b. c #DBBCDA",
"n. c #DBB5CD",
"m. c #E5B7DA",
"M. c #E4B6D9",
"N. c #CCBDE0",
"B. c #CCB7E0",
"V. c #D3BEE4",
"C. c #DABCE8",
"Z. c #E0BEE2",
"A. c #EBBDE4",
"S. c #D2C5CC",
"D. c #CCC3D4",
"F. c #D3C7D6",
"G. c #DDD3DC",
"H. c #CEC1CB",
"J. c #CEC1E1",
"K. c #D3C5E5",
"L. c #D8C3E7",
"P. c #D5CAE5",
"I. c #D8CEE4",
"U. c #DCC4EA",
"Y. c #DBCCEA",
"T. c #DCD1EA",
"R. c #DBD0E2",
"E. c #E1C5ED",
"W. c #E2CBEE",
"Q. c #E8C6E8",
"!. c #F2C3ED",
"~. c #E2D4EE",
"^. c #E4DAEE",
"/. c #EBD5EF",
"(. c #E7CCF0",
"). c #EBCBF3",
"_. c #F6C7F3",
"`. c #F1CCF6",
"'. c #F9C8F6",
"]. c #F4CDF9",
"[. c #FFCEFF",
"{. c #E7D3F0",
"}. c #ECD4F3",
"|. c #E7D9F0",
" X c #EDDBF4",
".X c #F1D3F6",
"XX c #F1DCF6",
"oX c #F5D4F9",
"OX c #F9D2FB",
"+X c #F9D5FB",
"@X c #FFD0FF",
"#X c #FFD1FF",
"$X c #FED0FE",
"%X c #FFD2FF",
"&X c #FDD1FE",
"*X c #FAD5FC",
"=X c #FED5FE",
"-X c #FED2FE",
";X c #F5DBF9",
":X c #FFD9FF",
">X c #FCDBFD",
",X c #FCE2FD",
"<X c #F4E2F9",
"1X c #EDE0F4",
/* pixels */
"[.[.[.[.[.$X[.[.[.[.[.[.[.[.[.[.[.[.[.[.[.[.[.[.[.[.[.[.[.[.[.[.[.[.[.[.[.[.[.[.[.[.[.[.[.[.[.[.[.[.[.[.OX(.{.OX$X[.[.[.$XOX(.).$X[.[.[.[.[.[.[.[.[.[.[.[.[.[.[.",
"[.[.[.[.[.-X[.$X[.[.[.[.[.[.[.[.[.[.[.[.[.[.[.[.[.[.[.[.[.[.[.[.[.[.[.[.[.[.[.[.[.[.[.[.[.[.[.[.[.[.[.[.}.i.u.}.$X[.[.[.$XOXU.).=X[.[.[.[.[.$X$X$X$X[.[.[.[.[.[.",
"[.[.[.[.$X`.oX$X[.[.[.[.[.[.[.[.[.[.[.[.[.[.[.[.[.[.[.[.[.[.[.[.[.[.[.[.[.[.[.[.[.[.[.[.[.[.[.[.[.[.[.[.}.z.l.;X$X[.[.[.$X XN.W.=X[.[.[.[.[.$X'.).$X[.[.[.[.[.[.",
"[.[.[.[.=XU.(.-X[.[.[.[.[.[.[.[.[.[.[.[.[.[.[.[.$X$X[.[.[.[.[.[.[.[.[.[.[.[.[.[.[.[.[.[.[.[.[.[.[.[.[.[.OXW.U.=X$X[.[.[.$X{.a.U.:X[.[.[.[.[.$X XU.+X$X[.[.[.[.[.",
"[.[.[.$X,Xl.J.;X$X[.[.[.[.[.[.[.[.[.[.[.[.[.[.[.-X).$X[.[.[.[.[.[.[.[.[.[.[.[.[.[.[.[.[.[.[.[.[.[.[.[.[.[.-XoX$X[.[.[.[.:XW.e.K.:X[.[.[.[.$X:XY.a.XX=X$X[.[.[.[.",
"[.[.$X+X Xq.0.^.>X$X[.[.[.[.[.[.[.[.[.[.[.[.[.=X}.U.;X$X[.[.[.[.[.[.[.[.[.[.[.[.[.[.[.[.[.[.[.[.[.[.[.[.[.$XOX[.$X[.[.[.:XP.6.l.>X$X[.[.$X=X Xp.8.P.;X-X[.[.[.[.",
"[.$X+X~.u.W W u.~.+X$X[.[.[.[.[.[.[.[.[.[.$X$X;XP.e.~.>X$X[.[.[.[.[.[.[.[.[.[.[.[.[.[.[.[.[.[.[.[.[.[.[.$X>XW.oX$X$X[.[.>Xx.W p.;X[.[.[.=X Xl.5.E 7.T.oX$X[.[.[.",
"[.$X(.u.E T T Q i.).[.[.[.[.[.[.[.[.[.[.[.[.+XU.q.Q u.(.-X$X[.[.[.[.[.[.[.[.[.[.[.[.[.[.[.[.[.[.[.[.[.[.+X~.u.P.+X$X$X$XXXp.R 0.|.=X[.[.OXl.5.R T R q.U.-X$X[.[.",
"[.$X=XXXJ.! 5.N.<X=X$X[.[.[.[.[.[.[.[.[.[.[.+XP.q.! u.W.[.[.[.[.[.[.[.[.[.[.[.[.[.[.[.[.[.[.[.[.[.[.[.$XoXl.7.w.}.$X[.=X|.0.T 5.Y.:X[.$X$X,XT.q.W u.1X>X$X[.[.[.",
"[.$X$X=X<Xw.p. X=X[.[.[.[.[.[.[.$X[.[.[.[.$X$X;XP.u.T.>X$X[.[.[.[.[.[.[.[.[.[.[.[.[.[.[.[.[.[.[.[.[.[.$X+XY.9.x.;X$X$X:XU.5.T W N.>X$X[.$X$X;XN.9.~.:X$X[.[.[.[.",
"[.[.[.$X>XB.P.+X$X$X$X[.[.[.[.-X].[.[.[.[.[.[.=X XV.oX-X[.[.[.[.[.[.[.[.[.[.[.[.[.[.[.[.[.[.[.[.[.[.[.[.$X;XK.}.+X[.$X<Xa.E T R u. X$X$X[.$X:XW.z.XX$X[.[.[.[.[.",
"[.[.[.[.:XU.).+X$XOXOX$X[.[.$XOX(.OX$X[.[.[.[.$X[.).-X[.[.[.[.[.[.[.[.[.A.A.M.m.M.A._.[.[.[.[.[.[.[.[.[.[.-X).-X$X[.=X{.9.T T T 5.T.>X$X[.[.$X.XE.+X$X[.[.[.[.[.",
"[.[.[.[.$X].OX=X>XW.W.+X$X[.$XoXV..X$X$X[.[.[.[.[.-X[.[.[.[.[.A.3.| h w 3 3 3 3 3 3 3 4 x ..d._.[.[.[.[.[.[.$X$X$X$X,Xx.W T T T R i.XX=X[.[.[.-X`.$X[.[.[.[.[.[.",
"[.[.[.[.[.$X$X=X{.i.e.{.$X$X$X Xl.}.$X$X[.[.[.[.[.[.[.[._.<.h 3 3 3 3 3 3 3 3 3 3 3 3 3 3 3 3 3 L d._.[.[.[.[.[.$X>XT.6.R T T T T 5.J.>X$X[.[.$X$X$X[.[.[.[.[.[.",
"[.[.[.[.[.[.[.-XV.q.7.K.+X[.=X{.e.Y.>X[.[.[.[.[.[.[.A.| 3 3 3 3 3 3 3 2 3 3 3 3 3 3 3 3 3 3 3 3 3 3 r <.'.[.$X$X,X~.9.R T T T T T T 7.K.<X=X$X[.[.[.[.[.[.[.[.[.",
"[.[.[.[.[.[.[.$X Xx.z.XX$X$X>XY.5.l.;X[.[.[.[.[._...3 3 3 3 3 3 3 3 3 2 $ $ # # # # & 2 3 3 3 3 3 3 3 3 t d.:X;XP.9.R T T T T T T T R 5.z. X>X=X$X[.[.[.[.[.[.[.",
"[.[.[.[.[.[.[.[.+X).}.+X$X$X;Xz.W 9.<X=X$X[.[.v.d 3 3 3 3 3 3 2 # O @ > 9 t t t t q 8 - + O $ 3 3 0 t J } 2.I.u.5.R T T T T T T T T T T W 0.K. X,X=X$X$X[.[.[.[.",
"[.[.[.[.[.[.[.[.[.-X-X[.[.=X{.0.R W T.+X$X[.,.3 3 3 3 3 3 & O % q z z z z z z z z z J z z f 9 + + q [ s.z.0.5.E T T T T T T T T T T T T T T 5.9.l.P.).$X[.[.[.[.",
"[.[.[.[.[.[.[.[.[.[.[.$X$X<XN.! T R p. X+X| 3 3 3 3 3 2 O - f z z z z z z z z z z z z z z z z z t ,  .a.9.Q R T T T T T T T T T T T T T T T T E q.l.W.OX[.[.[.[.",
"[.[.[.[.[.[.[.[.[.$X=X:X,XP.5.T T T E l.G.] f 0 4 3 # @ y z z z z z z z z z z z z z z z z z z z z K ^ @.D.F.u.W R T T T T T T T T T T T T ! e.J.T.}.OX-X[.[.[.[.",
"[.[.[.[.[.[.[.[.[.-X XY.u.5.R T T T T W 0.P.2.I t O > z z z z z z z z z z z z z z z z z z z z z z K J J s { H.P.0.W T T T T T T T T T E 0.P. X>X:X=X$X$X[.[.[.[.",
"[.[.[.[.[.[.[.[.-X).z.q.Q T T T T T T T E 6.a.#.< p z z z z z z z u 0 3 : z z z z 0 3 3 w y z z z z z z z = a [ S.l.W T T T T T T T Q p.~.>X$X$X[.[.[.[.[.[.[.[.",
"[.[.[.[.[.[.[.[.$XoXW.x.9.W R T T T T W 7.a.h.~ h z z z z z z i 3 3 3 3 $ z z z z 4 3 3 3 3 2 i z z z z z z * > J 2.l.W T T T T T W i. X:X$X[.[.[.[.[.[.[.[.[.[.",
"[.[.[.[.[.[.[.[.$X$X:X>X|.p.! R T T R u.G.%.l d K z z z z u 3 3 3 3 3 3 $ z z z z 0 3 3 3 3 3 3 2 f z z z z g @ 8 F g.0.T T T T T 9.~.:X$X[.[.[.[.[.[.[.[.[.[.[.",
"[.[.[.[.[.[.[.[.[.[.[.$X:X<Xp.E T R 0.F.P > - z z z z z e 3 3 3 3 3 3 3 $ z z z z e 3 3 3 3 3 3 3 2 e J z z z y O 0 } P.5.T T T Q x.;X$X[.[.[.[.[.[.[.[.[.[.[.[.",
"[.[.[.[.[.[.[.[.[.[.[.[.[.:X~.q.T R T.} 0 @ z z z z z e 3 3 3 3 3 3 3 3 $ z z z z e 3 3 3 3 3 3 3 3 3 9 z z z z 9 + g h.0.R T T q.~.:X[.[.[.[.[.[.[.[.[.[.[.[.[.",
"[.[.[.[.[.$X$X$X[.[.[.[.[.$XXXp.E 5.S.F + q z z z z e 3 3 3 3 3 3 3 3 3 $ z z z z e 3 3 3 3 3 3 3 3 3 2 e z z z z @ w o.c.W T R p.;X$X[.[.[.[.[.[.[.[.[.[.[.[.[.",
"[.[.[.[.$X+X}.+X$X[.[.[.[.$X>XK.5.p.%.9 @ z z z z y 3 3 3 3 3 3 3 3 3 3 $ g z z z 0 3 3 3 3 3 3 3 3 3 3 2 y z z z q + I I.5.T W J.>X$X[.[.[.[.[.[.[.[.[.[.[.[.[.",
"[.[.[.[.$XU.7.K.+X$X[.[.[.[.'.F.7.K.[ * q z z z z 3 3 3 3 3 3 3 3 3 3 3 & g z z z i 3 3 3 3 3 3 3 3 3 3 3 & z z g A @ d H.0.R 5.T.=X[.[.[.[.[.[.[.[.[.[.[.[.[.[.",
"[.[.[.[.+XY.9.P.+X[.[.[.[.[.f.2.u.H.I @ z z z z e 3 3 3 3 3 3 3 3 3 3 3 & g z z z i 3 3 3 3 3 3 3 3 3 3 3 3 9 z g F 9 > %.p.R e. X=X[.[.[.[.[.[.[.[.[.[.[.[.[.[.",
"[.[.[.[.$X+XW.oX$X$X[.[.[.[.#.%.t.%.s 8 z z z z 3 3 3 3 3 3 3 3 3 3 3 3 $ g z z z i 3 3 3 3 3 3 3 3 3 3 3 3 $ J z z u @ } l.Q p.XX$X[.[.[.[.[.[.[.[.[.[.[.[.[.[.",
"[.[.[.[.$X$X=X$X$X[.[.[.[.[.x ] &.] > y z z z i 3 3 3 3 3 3 3 3 3 3 3 4 & u z z z i 3 3 3 3 3 3 3 3 3 3 3 3 3 q z z J * ` P.5.x.Q.[.[.[.[.[.[.[.[.[.[.[.[.[.[.[.",
"[.[.[.[.[.[.[.[.[.[.[.[.[.'.0 h ` h @ z z z z 3 3 3 3 3 3 3 3 3 3 3 3 3 & u z z z i 3 3 3 3 3 3 3 3 3 3 3 3 3 & z z z 8 h D.0.J.S.[.[.[.[.[.[.[.[.[.[.[.[.[.[.[.",
"[.[.[.[.[.[.[.[.[.[.[.[.[.!.4 0 d q * z z z g 3 3 3 3 3 3 3 3 3 3 3 3 3 & u z z z y 3 3 3 3 3 3 3 3 3 3 3 3 3 $ z z z t a s.a.g.3.[.[.[.[.[.[.[.[.[.[.[.[.[.[.[.",
"[.[.[.[.[.[.[.[.[.[.[.[.[.M.3 3 3 & 8 z z z y 3 3 3 3 3 3 3 3 3 3 3 3 3 & y z z z i 3 3 3 3 3 3 3 3 3 3 3 3 3 2 r z z z , %.a.-.,.$X[.[.[.[.[.[.[.[.[.[.[.[.[.[.",
"[.[.[.[.[.[.[.[.[.[.[.[.[.f.3 3 4 $ q z z z 0 3 3 3 3 3 3 3 3 3 3 3 3 3 & t z z z y 3 3 3 3 3 3 3 3 3 3 3 3 3 3 8 z z z = [ ;.....[.[.[.[.[.[.[.[.[.[.[.[.[.[.[.",
"[.[.[.[.[.[.[.[.[.[.[.[.[.f.3 3 3 # t z z z 4 3 3 3 3 3 3 3 3 3 3 3 3 3 2 t z z z y 3 3 3 3 3 3 3 3 3 3 3 7 6 6 7 S D z = G  .] ' [.[.[.[.[.[.[.[.[.[.[.[.[.[.[.",
"[.[.[.[.[.[.[.[.[.[.[.[.[.d.3 3 3 + y z z z 3 3 3 3 3 3 3 3 3 3 3 3 3 3 2 r z z z t 3 3 3 3 3 3 3 3 3 3 6 N M Z Z M C H % d k j x [.[.[.[.[.[.[.[.[.[.[.[.[.[.[.",
"[.[.[.[.[.[.[.[.[.[.[.[.[.d.3 3 3 # f z z z 8 & & % & & - & & & & - & - & u z z z z 8 & 8 8 w 8 3 9 9 w 6 N Y Y Y U N H % 4 q 4 x [.[.[.[.[.$X=X$X=X[.[.[.[.[.[.",
"[.[.[.[.[.[.[.[.[.[.[.[.[.d.3 3 3 O f z z z z z z z z z z z z z z z z z z z z z z z z z z z z z z z z z S V Y Y Y Y V H - 2 3 4 h [.[.[.[.[.+X{.K.oX$X$X$X$X[.[.",
"[.[.[.[.[.[.[.[.[.[.[.[.[.f.3 3 3 + f z z z z z z z z z z z z z z z z z z z z z z z z z z z z z z z z z H V Y Y Y Y V A % 2 3 3 j [.[.[.[.[..Xi.5.Y.+XOX`.OX[.[.",
"[.[.[.[.[.[.[.[.[.[.[.[.[.v.3 3 3 + f z z z z z z z z z z z z z z z z z z z z z z z z z z z z z z z z z H m U Y Y U m A - 2 3 3 j [.[.[.[.[.OXY.l..X+X).k.OX[.[.",
"[.[.[.[.[.[.[.[.[.[.[.[.[.v.3 3 3 + g z z z z z z z z z z z z z z z z z z z z z z z z z z z z z u z z z A M c V B c M A & 2 3 3 j [.[.[.[.[.[.OXOX-X$X+XW.$X[.[.",
"[.[.[.[.[.[.[.[.[.[.[.[.[.v.3 3 3 + y z z z 0 3 3 w 3 3 w 2 3 2 w 3 3 3 2 t z z z g 3 4 3 3 3 3 3 3 3 3 5 M b c c b n A - & 3 3 d [.[.[.[.[.[.[.$X[.[.$X-X$X[.[.",
"[.[.[.[.[.[.[.[.[.[.[.[.[.M.3 3 3 + f z z z 3 3 3 3 3 3 3 3 3 3 2 3 3 3 2 q z z z u 3 3 3 3 3 3 3 3 3 3 5 M b .   b n S > & 3 3 r [.[.[.[.[.[.[.[.[.[.[.[.[.[.[.",
"[.[.[.[.[.[.[.[.[.[.[.[.[.m.3 3 3 # t z z z w 3 3 3 3 3 3 3 3 3 3 3 3 3 2 q z z z u 3 3 3 3 3 3 3 3 3 3 5 M b 1 X b n S > 2 3 3 r [.[.[.[.[.[.[.[.[.[.[.[.[.[.[.",
"[.[.[.[.[.[.[.[.[.[.[.[.[.M.3 3 3 # t z z z 3 3 3 3 3 3 3 3 3 3 3 3 3 3 2 q z z z y 3 3 3 3 3 3 3 3 3 3 5 M b X   b n S > 2 3 3 r [.[.[.[.[.[.[.[.[.[.[.[.[.[.[.",
"[.[.[.[.[.[.[.[.[.[.[.[.[.M.3 3 3 # t z z z 3 3 3 3 3 3 3 3 3 3 3 3 3 3 3 9 z z z u 3 3 3 3 3 3 3 3 3 3 4 M b 1 o b n S > & 3 3 0 [.[.[.[.[.[.[.[.[.[.[.[.[.[.[.",
"[.[.[.[.[.[.[.[.[.[.[.[.[.m.3 3 3 # r z z z 3 3 3 3 3 3 3 3 3 3 3 3 3 3 3 9 z z z u 3 3 3 3 3 3 3 3 3 3 3 C n n n n N S 8 & 3 3 3 [.[.[.[.[.[.[.[.[.[.[.[.[.[.[.",
"[.[.[.[.[.[.[.[.[.[.[.[.[.A.3 3 3 $ r z z z w 3 3 3 3 3 3 3 3 3 3 3 3 3 3 8 z z z u 3 3 3 3 3 3 3 3 3 3 3 6 6 6 1 A A z 8 2 3 3 3 [.[.[.[.[.[.[.[.[.[.[.[.[.[.[.",
"[.[.[.[.[.[.[.[.[.[.[.[.[.A.3 3 3 # r z z z 4 3 3 3 3 3 3 3 3 3 3 3 3 3 3 8 z z z u 3 3 3 3 3 3 3 3 3 3 3 3 3 3 - z z z 8 & 3 3 3 [.[.[.[.[.[.[.[.[.[.[.[.[.[.[.",
"[.[.[.[.[.[.[.[.[.[.[.[.[.A.3 3 4 # r z z z 3 3 3 3 3 3 3 3 3 3 3 3 3 3 4 8 z z z z 3 3 3 3 3 3 3 3 3 3 3 3 3 3 & z z z 8 & 3 3 3 [.[.[.[.[.[.[.[.[.[.[.[.[.[.[.",
"[.[.[.[.[.[.$X$X[.[.[.[.[.A.3 3 4 # r z z z 3 3 3 3 3 3 3 3 3 3 3 3 3 3 3 8 z z z z 3 3 3 3 3 3 3 3 3 3 3 3 3 3 # g z z 9 & 3 3 3 '.[.[.[.[.[.[.[.[.[.[.[.[.[.[.",
"[.[.[.[.[.[.-X].$X$X[.[.[.!.3 3 4 $ q z z z w 3 3 3 3 3 3 3 3 3 3 3 3 3 2 8 z z z u 3 3 3 3 3 3 3 3 3 3 3 3 3 3 & z z z 9 & 3 3 3 '.[.[.[.[.[.[.[.[.[.[.[.[.[.[.",
"[.[.[.[.[.$XoXE.>X[.[.[.[.!.3 3 3 $ q z z z 4 3 3 3 3 3 3 3 3 3 3 3 3 3 3 8 z z z z 3 3 3 3 3 3 3 3 3 3 3 3 3 3 & u z z 9 & 3 3 3 '.[.[.[.[.[.[.[.[.[.[.[.[.[.[.",
"[.[.[.[.[.$XW.z.;X$X[.[.[.!.3 3 3 $ q z z z 4 3 3 3 3 3 3 3 3 3 3 3 3 3 3 8 z z z u 3 3 3 3 3 3 3 3 3 3 3 3 3 3 $ u z z 9 & 3 3 3 '.[.[.[.[.[.[.[.[.[.[.[.[.[.[.",
"[.[.[.[.=X>XN.9.^.>X$X[.[.!.4 3 3 & 9 z z z w 3 3 4 4 4 3 3 3 3 3 3 3 3 3 - z z z z 3 3 3 3 3 3 3 3 3 3 3 3 3 3 & u z z q $ 4 3 3 !.[.[.[.$X$X$X[.[.[.[.[.[.[.[.",
"[.[.[.=X;XP.7.W 0. X+X$X[.'.3 3 3 & 9 z z z 4 3 3 9 t q 3 3 3 3 3 3 3 3 3 8 z z z z 3 3 3 3 3 3 3 3 3 3 3 3 3 3 & y z z q # 3 3 3 !.[.[.$XOX`.+X[.[.[.[.[.[.[.[.",
"[.[.[.OXV.7.E T W u.W.OX[.'.3 3 3 $ 8 z z z 0 3 4 j ` k 0 3 3 3 3 3 3 3 3 2 z z z z 3 3 3 3 3 3 3 3 3 3 3 3 3 3 & y z z q $ 3 3 3 !.[.[.-X(.k.OX$X[.[.[.[.[.[.[.",
"[.[.[.$X|.z.5.E q.T.oX[.$X'.3 3 3 $ q z z z 0 3 0 P #.[ t 3 3 3 3 3 3 3 3 8 z z z z 3 3 3 3 3 3 3 3 3 3 3 3 3 3 2 y z z q $ 3 3 3 !.[.[.[.OXW.-X[.[.[.[.[.[.[.[.",
"[.[.[.$X:XXXp.7.I.>X$X[.[.'.3 3 3 & 8 z z z 0 3 q o.t.-.f 2 2 2 2 & 2 & $ - z z z z w $ & $ % & & & % & & & & & $ u z z r $ 3 3 3 A.[.[.[.$X-X[.[.[.[.[.[.[.[.[.",
"[.[.[.[.$X:XY.a.XX=X$X[.[.[.3 3 3 2 w z z z g t J h.e.F.P y y g g g g z z z z z z z z z z z z z z z z z z z z z z z z z r # 3 3 3 A.[.[.[.[.[.[.[.[.[.[.[.[.[.[.",
"[.[.[.[.[.$X}.L.+X$X[.[.[.[.3 3 3 & 8 z z z z H } R.5.c.>.z z z z z z z z z z z z z z z z z z z z z z z z z z z z z z z r $ 3 3 3 A.[.[.[.[.[.[.[.[.[.[.[.[.[.[.",
"[.[.[.[.[.$X].).$X$X[.[.[.[.3 3 3 & 8 z z z z K 1.N.R 0.S.K z z z z z z z z z z z z z z z z z z z z z z z z z z z z z z r # 3 3 3 A.[.[.[.[.[.[.[.[.[.[.[.[.[.[.",
"[.[.[.[.[.[.$X[.[.[.[.[.[.[.3 3 3 : > z z z J } G.q.T W I.>.K J H g H F z z g H g z z z z z z z z z z z z z z z J z z z i % 0 w 0 v._.`.[.[.[.[.[.[.[.[.[.[.[.[.",
"[.[.[.[.[.[.$X[.[.[.[.!.m.C.X.X.X.^ l G ^ { %.G.u.R T R 5.T.4.@./ / ~ ~ ~ / / / ( ( ( / ( ( O.( ( O.O.O.( O.O.( _ ) ) ) ) ) ) ) ) ) ) +.[.[.[.[.[.[.[.[.[.[.[.[.",
"[.[.[.[.[.[.[.[.[.[.[.s.) ) ) ) ) ) ) O.*.H.x.7.R T T T T Q p.D.:.O.) ) ) ) ) ) ) ) ) ) ) ) ) ) ) ) ) ) ) ) ) ) ) ) ) ) ) ) ) ) ) ) ) +.[.[.[.[.[.[.[.[.[.[.[.[.",
"[.[.[.[.[.[.[.[.[.[.[.s.) ) ) ) ) ) ) O.:.p.8.T T T T T T Q O.u.t.$.) ) ) ) ) ) ) O.O.O.O.+.+.+.+.&.&.&.&.=.=.&.=.-.y.r.-.t.r.r.r.s.s.g.[.[.[.[.[.[.[.[.[.[.[.[.",
"[.[.[.[.[.[.[.[.[.[.[.Q.b.b.b.b.L.m.Z.E.Q./.^.l.Q T T T Q e.|.XXOX].'.'.'.[.[.[.[.[.[.[.[.[.[.[.[.[.[.[.[.[.[.[.[.=X).+X$X[.[.[.[.[.[.[.[.[.[.[.[.[.[.[.[.[.[.[.",
"[.[.[.[.[.[.[.[.[.[.[.[.[.[.[.[.$X$X[.[.[.$X:X;XJ.Q T R 0.XX+X[.[.[.$X[.[.[.[.[.[.[.[.[.[.[.[.[.[.[.[.[.[.[.[.[.[.;XB..X$X[.[.[.[.[.[.[.[.[.[.[.[.[.[.[.[.[.[.[.",
"[.[.[.[.[.[.[.[.[.[.[.[.[.[.[.[.[.[.[.[.[.[.[.=X Xu.R 5.|.=X[.[.[.[.[.[.[.[.[.[.[.[.[.[.[.[.[.[.[.[.[.[.[.[.[.[.=XXX0.~.+X$X[.[.[.[.[.[.[.[.[.[.[.$X=X$X$X[.[.[.",
"[.[.[.[.[.[.[.[.[.[.[.[.[.[.[.[.[.[.[.[.[.[.[.$X>XP.W u.,X$X[.[.[.[.[.[.[.[.[.[.[.[.[.[.[.[.[.[.[.[.[.[.[.[.[.[.;XP.Q z. X+X[.[.[.[.[.[.[.[.[.[.$XOXC.).$X[.[.[.",
"[.[.[.[.[.[.[.[.[.[.[.[.[.[.[.[.[.[.[.[.[.[.[.[.+X|.8.B.>X[.[.[.[.[.[.[.[.[.[.[.[.$X=X=X[.[.[.[.[.[.[.[.[.[.$X;XP.9.T 5.x. X=X[.[.[.[.[.[.[.[.[.[.].E.`.$X[.[.[.",
"[.[.[.[.[.[.=X>X+X+X$X[.[.[.[.[.[.[.[.[.[.[.[.[.$X Xu.Y.:X$X[.[.[.[.[.[.[.[.[.[.=X.XK.}.=X[.[.[.[.[.[.[.[.[.+XC.q.T T T 5.x.oX[.[.[.[.[.[.[.[.[.[.[.].-X[.[.[.[.",
"[.[.[.[.[.[.oXN.p..X$X$X[.[.[.[.[.[.[.[.[.[.[.[.$X+XB.}.=X[.[.[.[.[.[.[.[.[.[.[.+XV.! x.+X[.[.[.[.[.[.[.[.[.$X>X|.p.T 9.T.;X=X[.[.[.[.[.[.[.[.[.[.$X$X[.[.[.[.[.",
"[.[.[.[.[.$X+Xa.5.Y.=X[.[.[.[.[.[.[.[.[.[.[.[.[.$X+XU.oX$X[.[.[.[.[.[.[.[.[.[.[.-X}.a.W.+X[.[.[.[.[.[.[.[.[.[.[.>XT.5.K.;X$X[.[.[.[.[.[.[.[.[.[.[.[.[.[.[.[.[.[.",
"[.[.[.[.[.[.+X{.U.oX$X[.[.[.[.[.[.[.[.[.[.[.[.[.[.-X`.-X$X[.[.[.[.[.[.[.[.[.[.[.$X+XOX+X[.[.[.[.[.[.[.[.[.[.[.[.=XXXu.|.-X$X[.[.[.[.[.[.[.[.[.[.[.[.[.[.[.[.[.[.",
"[.[.[.[.[.[.[.[.=X$X$X[.[.[.[.[.[.[.[.[.[.[.[.[.[.[.[.$X[.[.[.[.[.[.[.[.[.[.[.[.[.[.$X$X[.[.[.[.[.[.[.[.[.[.[.[.$X>XV.+X$X[.[.[.[.[.[.[.[.[.[.[.[.[.[.[.[.[.[.[.",
"[.[.[.[.[.[.[.[.$X[.[.[.[.[.[.[.[.[.[.[.[.[.[.[.[.[.[.[.[.[.[.[.[.[.[.[.[.[.[.[.[.[.[.[.[.[.[.[.[.[.[.[.[.[.[.[.$X$X).$X$X[.[.[.[.[.[.[.[.[.[.[.[.[.[.[.[.[.[.[.",
"[.[.[.[.[.[.[.[.[.[.[.[.[.[.[.[.[.[.[.[.[.[.[.[.[.[.[.[.[.[.[.[.[.[.[.[.[.[.[.[.[.[.[.[.[.[.[.[.[.[.[.[.[.[.[.[.[.$X$X$X[.[.[.[.[.[.[.[.[.[.[.[.[.[.[.[.[.[.[.[."
};
