/* XPM */
static char *exit01675337814[] = {
/* columns rows colors chars-per-pixel */
"80 80 121 2 ",
"   c #52503F",
".  c #5F573A",
"X  c #60583A",
"o  c #7B692F",
"O  c #746532",
"+  c #786730",
"@  c #654E44",
"#  c #675045",
"$  c #6C5345",
"%  c #6C5449",
"&  c #715646",
"*  c #755947",
"=  c #70574B",
"-  c #755A4A",
";  c #7A5D49",
":  c #7A5E50",
">  c #7F604C",
",  c #7F6252",
"<  c #87702A",
"1  c #897129",
"2  c #84634B",
"3  c #89664C",
"4  c #8E6A4B",
"5  c #906D4A",
"6  c #917043",
"7  c #9F7A47",
"8  c #947249",
"9  c #987349",
"0  c #9E7B4E",
"q  c #836553",
"w  c #886751",
"e  c #876956",
"r  c #8B6A53",
"t  c #8D6C59",
"y  c #916E55",
"u  c #916E5B",
"i  c #947057",
"p  c #95725C",
"a  c #9A765E",
"s  c #9E795F",
"d  c #957161",
"f  c #9A7760",
"g  c #9E7A62",
"h  c #9B766B",
"j  c #9D786F",
"k  c #8B7974",
"l  c #9F7A71",
"z  c #A37D64",
"x  c #A27C77",
"c  c #A47E7A",
"v  c #DBA30A",
"b  c #D8A110",
"n  c #F2B200",
"m  c #F5BA0D",
"M  c #E5AE15",
"N  c #E4AE18",
"B  c #F7BC13",
"V  c #F8BE19",
"C  c #DEAF35",
"Z  c #DEB036",
"A  c #ECBC34",
"S  c #EDBD39",
"D  c #F9C119",
"F  c #F9C533",
"G  c #AE865E",
"H  c #B38B5B",
"J  c #BA9157",
"K  c #95827C",
"L  c #A68062",
"P  c #A98261",
"I  c #A6807E",
"U  c #FBD15C",
"Y  c #FFD664",
"T  c #958681",
"R  c #978986",
"E  c #978A88",
"W  c #9A8D8D",
"Q  c #9A9294",
"!  c #9C969B",
"~  c #94989B",
"^  c #9A999F",
"/  c #AD8789",
"(  c #A78D8F",
")  c #B18A8F",
"_  c #A78E92",
"`  c #B58E95",
"'  c #BA929D",
"]  c #9B9BA2",
"[  c #A39FA9",
"{  c #BF96A4",
"}  c #AAA3B0",
"|  c #B1A6B6",
" . c #B6A9BB",
".. c #B9AABD",
"X. c #C59BAC",
"o. c #C79DB0",
"O. c #C89EB1",
"+. c #CEA3BA",
"@. c #D2A7BF",
"#. c #BEADC3",
"$. c #C3AFC7",
"%. c #D2A7C0",
"&. c #D6AAC5",
"*. c #DAAECB",
"=. c #C6B1CA",
"-. c #CAB2CD",
";. c #DEB2D1",
":. c #DABBDC",
">. c #E2B4D6",
",. c #E5B7DA",
"<. c #E7BADE",
"1. c #E0BEE2",
"2. c #EBBDE4",
"3. c #E6C1E7",
"4. c #E7C1E8",
"5. c #ECC4ED",
"6. c #F2C3ED",
"7. c #F5C6F2",
"8. c #F4C8F5",
"9. c #F9C8F6",
"0. c #FFCEFF",
/* pixels */
"0.0.0.0.0.0.0.0.0.0.0.0.0.0.0.0.0.0.0.0.0.0.0.0.0.0.0.0.0.0.0.0.0.0.0.0.0.0.0.0.0.0.0.0.0.0.0.0.0.0.0.0.0.0.0.0.0.0.0.0.0.0.0.0.0.0.0.0.0.0.0.0.0.0.0.0.0.0.0.0.",
"0.0.0.0.0.0.0.0.0.0.0.0.0.0.0.0.0.0.0.0.0.0.0.0.0.0.0.0.0.0.0.0.0.0.0.0.0.0.0.0.0.0.0.0.0.0.0.0.0.0.0.0.0.0.0.0.0.0.0.0.0.0.0.0.0.0.0.0.0.0.0.0.0.0.0.0.0.0.0.0.",
"0.0.0.0.0.0.0.0.0.0.0.0.0.0.0.0.0.0.0.0.0.0.0.0.0.0.0.0.0.0.0.0.0.0.0.0.0.0.0.0.0.0.0.0.0.0.0.0.0.0.0.0.0.0.0.0.0.0.0.0.0.0.0.0.0.0.0.0.0.0.0.0.0.0.0.0.0.0.0.0.",
"0.0.0.0.0.0.0.0.0.0.0.0.0.0.0.0.0.0.0.0.0.0.0.0.0.0.0.0.0.0.0.0.0.0.0.0.0.0.0.0.0.0.0.0.0.0.0.0.0.0.0.0.0.0.0.0.0.0.0.0.0.0.0.0.0.0.0.0.0.0.0.0.0.0.0.0.0.0.0.0.",
"0.0.0.0.0.0.0.0.0.0.0.0.0.0.0.0.0.0.0.0.0.0.0.0.0.0.0.0.0.0.0.0.0.0.0.0.0.0.0.0.0.0.0.0.0.0.0.0.0.0.0.0.0.0.0.0.0.0.0.0.0.0.0.0.0.0.0.0.0.0.0.0.0.0.0.0.0.0.0.0.",
"0.0.0.0.0.0.0.0.0.0.0.0.0.0.0.0.0.0.0.0.0.0.0.0.0.0.0.0.0.0.0.0.0.0.0.0.0.0.0.0.0.0.0.0.0.0.0.0.0.0.0.0.0.0.0.0.0.0.0.0.0.0.0.0.0.0.0.0.0.0.0.0.0.0.0.0.0.0.0.0.",
"0.0.0.0.0.0.0.0.0.0.0.0.0.0.0.0.0.0.0.0.0.0.0.0.0.0.0.0.0.0.0.0.0.0.0.0.0.0.0.0.0.0.0.0.0.0.0.0.0.0.0.0.0.0.0.0.0.0.0.0.0.0.0.0.0.0.0.0.0.0.0.0.0.0.0.0.0.0.0.0.",
"0.0.0.0.0.0.0.0.0.0.0.0.0.0.0.0.0.0.0.0.0.0.0.0.0.0.0.0.0.0.0.0.0.0.0.0.0.0.0.0.0.0.0.0.0.0.0.0.0.0.0.0.0.0.0.0.0.0.0.0.0.0.0.0.0.0.0.0.0.0.0.0.0.0.0.0.0.0.0.0.",
"0.0.0.0.0.0.0.0.0.0.0.0.0.0.0.0.0.0.0.0.0.0.0.0.0.0.0.0.0.0.0.0.0.0.0.0.0.0.0.0.0.0.0.0.0.0.0.0.0.0.0.0.0.0.0.0.0.0.0.0.0.0.0.0.0.0.0.0.0.0.0.0.0.0.0.0.0.0.0.0.",
"0.0.0.0.0.0.0.0.0.0.0.0.0.0.0.0.0.0.0.0.0.0.0.0.0.0.0.0.0.0.0.0.0.0.0.0.0.0.0.0.0.0.0.0.0.0.0.0.0.0.0.0.0.0.0.0.0.0.0.0.0.0.0.0.0.0.0.0.0.0.0.0.0.0.0.0.0.0.0.0.",
"0.0.0.0.0.0.0.0.0.0.0.0.0.0.0.0.0.0.0.0.0.0.0.0.0.0.0.0.0.0.0.0.0.0.0.0.0.0.0.0.0.0.0.0.0.0.0.0.0.0.0.0.0.0.0.0.0.0.0.0.0.0.0.0.0.0.0.0.0.0.0.0.0.0.0.0.0.0.0.0.",
"0.0.0.0.0.0.0.0.0.0.0.0.0.0.0.0.0.0.0.0.0.0.0.0.0.0.0.0.0.0.0.0.0.0.0.0.6.2.,.,.,.2.6.0.0.0.0.0.0.0.0.0.0.0.0.0.0.0.0.0.0.0.0.0.0.0.0.0.0.0.0.0.0.0.0.0.0.0.0.0.",
"0.0.0.0.0.0.0.0.0.0.0.0.0.0.0.0.0.0.0.0.0.0.0.0.0.0.0.0.0.0.0.2.@.` j 3 3 3 3 3 3 3 3 3 c ' &.7.0.0.0.0.0.0.0.0.0.0.0.0.0.0.0.0.0.0.0.0.0.0.0.0.0.0.0.0.0.0.0.0.",
"0.0.0.0.0.0.0.0.0.0.0.0.0.0.0.0.0.0.0.0.0.0.0.0.0.0.0.0.6.O.l 3 3 3 3 3 3 3 3 3 3 3 3 3 3 3 3 3 I %.9.0.0.0.0.0.0.0.0.0.0.0.0.0.0.0.0.0.0.0.0.0.0.0.0.0.0.0.0.0.",
"0.0.0.0.0.0.0.0.0.0.0.0.0.0.0.0.0.0.0.0.0.0.0.0.0.0.4.` w 3 3 3 3 3 3 3 3 3 3 3 3 2 3 3 3 3 3 3 3 3 p X.9.0.0.0.0.0.0.0.0.0.0.0.0.0.0.0.0.0.0.0.0.0.0.0.0.0.0.0.",
"0.0.0.0.0.0.0.0.0.0.0.0.0.0.0.0.0.0.0.0.0.0.0.0.7.' 3 3 3 3 3 3 3 3 2 2 ; * % & * * ; 2 3 3 3 3 3 3 3 3 y @.0.0.0.0.0.0.0.0.0.0.0.0.0.0.0.0.0.0.0.0.0.0.0.0.0.0.",
"0.0.0.0.0.0.0.0.0.0.0.0.0.0.0.0.0.0.0.0.0.0.0.;.d 3 3 3 3 3 3 2 * # % , e p p p d t e ; # $ ; 3 3 3 3 3 3 3 I 6.0.0.0.0.0.0.0.0.0.0.0.0.0.0.0.0.0.0.0.0.0.0.0.0.",
"0.0.0.0.0.0.0.0.0.0.0.0.0.0.0.0.0.0.0.0.0.0.X.3 3 3 3 3 3 ; @ - t z z z z z z z L z z z z g q % % 2 3 3 3 3 3 u >.0.0.0.0.0.0.0.0.0.0.0.0.0.0.0.0.0.0.0.0.0.0.0.",
"0.0.0.0.0.0.0.0.0.0.0.0.0.0.0.0.0.0.0.0.0.) 3 3 3 3 3 2 # : f z z z z z z z z z z z z z z z z z i % & 2 3 3 3 3 r *.0.0.0.0.0.0.0.0.0.0.0.0.0.0.0.0.0.0.0.0.0.0.",
"0.0.0.0.0.0.0.0.0.0.0.0.0.0.0.0.0.0.0.9./ 3 3 3 3 3 = % a z z z z z z z z z z z z z z z z z z z z z e @ 2 3 3 3 3 3 *.0.0.0.0.0.0.0.0.0.0.0.0.0.0.0.0.0.0.0.0.0.",
"0.0.0.0.0.0.0.0.0.0.0.0.0.0.0.0.0.0.0.` 3 3 3 3 3 # , z z z z z z z z z z z z z z g z L z z z z z z z f % - 3 3 3 3 r <.0.0.0.0.0.0.0.0.0.0.0.0.0.0.0.0.0.0.0.0.",
"0.0.0.0.0.0.0.0.0.0.0.0.0.0.0.0.0.0.+.3 3 3 3 2 # t z z z z z z z a w 3 > z z z z r w 2 w a z z z z z z z = * 3 3 3 3 d 7.0.0.0.0.0.0.0.0.0.0.0.0.0.0.0.0.0.0.0.",
"0.0.0.0.0.0.0.0.0.0.0.0.0.0.0.0.0.2.3 3 3 3 3 # y z z z z z z i 3 3 3 3 * z z z L r 3 3 3 3 2 i z z z z z z % - 3 3 3 3 ` 0.0.0.0.0.0.0.0.0.0.0.0.0.0.0.0.0.0.0.",
"0.0.0.0.0.0.0.0.0.0.0.0.0.0.0.0.0.c 3 3 3 3 $ e z z z z z f 3 3 3 3 3 3 - z z z z r 3 3 3 3 2 3 2 g z z z z z # 2 3 3 3 3 ;.0.0.0.0.0.0.0.0.0.0.0.0.0.0.0.0.0.0.",
"0.0.0.0.0.0.0.0.0.0.0.0.0.0.0.0.%.3 3 3 3 * ; z z z z z y 3 3 3 3 3 3 3 - z z z z y 3 3 3 3 3 3 3 2 i z z z z s @ 2 3 3 3 l 0.0.0.0.0.0.0.0.0.0.0.0.0.0.0.0.0.0.",
"0.0.0.0.0.0.0.0.0.0.0.0.0.0.0.0.j 3 3 3 2 # z z z z z y 3 3 3 3 3 3 3 3 * z z z z y 3 3 3 3 3 3 3 3 3 e z z z z w % 3 3 3 3 &.0.0.0.0.0.0.0.0.0.0.0.0.0.0.0.0.0.",
"0.0.0.0.0.0.0.0.0.0.0.0.0.0.0.*.3 3 3 3 $ t z z z z y 3 3 3 3 3 3 3 3 3 - z z L z y 3 3 3 3 3 3 3 3 3 2 y z z z z % 2 3 3 3 / 0.0.0.0.0.0.0.0.0.0.0.0.0.0.0.0.0.",
"0.0.0.0.0.0.0.0.0.0.0.0.0.0.0./ 3 3 2 2 % z z z z a 3 3 3 3 3 3 3 3 3 3 - g z z z t 3 3 3 3 3 3 3 3 3 3 2 f z z z y # 3 3 3 2 2.0.0.0.0.0.0.0.0.0.0.0.0.0.0.0.0.",
"0.0.0.0.0.0.0.0.0.0.0.0.0.0.7.3 3 3 3 $ i z z z z 3 3 3 3 3 3 3 3 3 3 3 ; g z z z i 3 3 3 3 3 3 3 3 3 3 3 ; z z z z # 2 3 3 3 X.0.0.0.0.0.0.0.0.0.0.0.0.0.0.0.0.",
"0.0.0.0.0.0.0.0.0.0.0.0.0.0.&.3 3 3 2 # z z z z y 3 3 3 3 3 3 3 3 3 3 3 ; g z z z i 3 3 3 3 3 3 3 3 3 3 3 3 e z z z e & 3 3 3 I 0.0.0.0.0.0.0.0.0.0.0.0.0.0.0.0.",
"0.0.0.0.0.0.0.0.0.0.0.0.0.0.' 3 3 3 ; q z z z z 3 3 3 3 3 3 3 3 3 3 3 3 ; g z z z i 3 3 3 3 3 3 3 3 3 3 3 3 ; z z z z @ 3 3 3 3 9.0.0.0.0.0.0.0.0.0.0.0.0.0.0.0.",
"0.0.0.0.0.0.0.0.0.0.0.0.0.0.j 3 3 3 $ p z z z i 3 3 3 3 3 3 3 3 3 3 3 3 ; a z z z i 3 3 3 3 3 3 3 3 3 3 3 3 3 t z z z = 2 3 3 3 ,.0.0.0.0.0.0.0.0.0.0.0.0.0.0.0.",
"0.0.0.0.0.0.0.0.0.0.0.0.0.0.3 3 3 3 # z z z z 3 3 3 3 3 3 3 3 3 3 3 3 3 ; a z z z i 4 3 3 3 3 3 3 3 3 3 3 3 3 ; z z z q - 3 3 3 @.0.0.0.0.0.0.0.0.0.0.0.0.0.0.0.",
"0.0.0.0.0.0.0.0.0.0.0.0.0.6.3 3 3 2 = z z z s 3 3 3 3 3 3 3 3 3 3 3 3 3 ; a z z z i 3 3 3 3 3 3 3 3 3 3 3 3 3 - z z z p % 3 3 3 { 0.0.0.0.0.0.0.0.0.0.0.0.0.0.0.",
"0.0.0.0.0.0.0.0.0.0.0.0.0.>.3 3 3 ; q z z z a 3 3 3 3 3 3 3 3 3 3 3 3 3 ; a z z z a 3 3 3 3 3 3 3 3 3 3 3 3 3 3 p z z g # 3 3 3 ` 0.0.0.0.0.0.0.0.0.0.0.0.0.0.0.",
"0.0.0.0.0.0.0.0.0.0.0.0.0.;.3 3 3 * e z z z t 3 3 3 3 3 3 3 3 3 3 3 3 3 ; a z z z a 3 3 3 3 3 3 3 3 3 3 3 3 3 3 q z z z # 3 3 3 / 0.0.0.0.0.0.0.0.0.0.0.0.0.0.0.",
"0.0.0.0.0.0.0.0.0.0.0.0.0.*.3 3 3 & i z z z w 3 3 3 3 3 3 3 3 3 3 3 3 3 2 p z z z a 3 3 3 3 3 3 3 3 3 3 4 9 7 7 9 H J z % 3 3 3 c 0.0.0.0.0.0.0.0.0.0.0.0.0.0.0.",
"0.0.0.0.0.0.0.0.0.0.0.0.0.&.3 3 3 & p z z z 3 3 3 3 3 3 3 3 3 3 3 3 3 3 2 i z z z i 3 3 3 3 3 3 3 3 3 3 7 V B F F B D P = 3 3 3 x 0.0.0.0.0.0.0.0.0.0.0.0.0.0.0.",
"0.0.0.0.0.0.0.0.0.0.0.0.0.&.3 3 3 & f z z z w - ; ; ; - ; ; ; - ; ; > : ; f z z z z q , 2 q q q w q e e 0 B U Y Y U V P - 2 3 3 x 0.0.0.0.0.0.0.0.0.0.0.0.0.0.0.",
"0.0.0.0.0.0.0.0.0.0.0.0.0.&.3 3 3 # f z z z z z z z z z z z z z z z z z z z z z z z z z z z z z z z z z H S Y Y Y Y S P - 2 3 3 j 0.0.0.0.0.0.0.0.0.0.0.0.0.0.0.",
"0.0.0.0.0.0.0.0.0.0.0.0.0.;.3 3 3 $ f z z z z z z z z z z z z z z z z z z z z z z z z z z z z z z z z z G S Y Y Y Y A G : > 3 3 h 0.0.0.0.0.0.0.0.0.0.0.0.0.0.0.",
"0.0.0.0.0.0.0.0.0.0.0.0.0.;.3 3 3 % f z z z z z z z z z z z z z z z z z z z z z z z z z z z z z z z z z G N Y Y Y U M G : 2 3 3 h 0.0.0.0.0.0.0.0.0.0.0.0.0.0.0.",
"0.0.0.0.0.0.0.0.0.0.0.0.0.*.3 3 3 $ a z z z z z z z z z z z z z z z z z z z z z z z z z z z z z z g g z G m b Z Z v m G ; 2 3 3 h 0.0.0.0.0.0.0.0.0.0.0.0.0.0.0.",
"0.0.0.0.0.0.0.0.0.0.0.0.0.;.3 3 3 & a z z z y w w w 3 3 3 3 3 q 3 w 3 w 3 p z z z f 3 3 3 3 3 3 3 3 3 3 8 m n v v n B G , ; 3 3 d 0.0.0.0.0.0.0.0.0.0.0.0.0.0.0.",
"0.0.0.0.0.0.0.0.0.0.0.0.0.>.3 3 3 % f z z z 3 3 3 3 3 3 3 3 3 3 3 3 3 3 > t z z z s 3 3 3 3 3 3 3 3 3 3 5 B n X   n m H , > 3 3 u 0.0.0.0.0.0.0.0.0.0.0.0.0.0.0.",
"0.0.0.0.0.0.0.0.0.0.0.0.0.,.3 3 3 % p z z z 3 3 3 3 3 3 3 3 3 3 3 3 3 3 2 t z z z a 3 3 3 3 3 3 3 3 3 3 5 B n 1 O n m H , > 3 3 y 0.0.0.0.0.0.0.0.0.0.0.0.0.0.0.",
"0.0.0.0.0.0.0.0.0.0.0.0.0.,.3 3 3 & p z z z 3 3 3 3 3 3 3 3 3 3 3 3 3 3 2 t z z z s 3 3 3 3 3 3 3 3 3 3 5 B n + . n m H , 2 3 3 i 0.0.0.0.0.0.0.0.0.0.0.0.0.0.0.",
"0.0.0.0.0.0.0.0.0.0.0.0.0.,.3 3 3 & p z z z 3 3 3 3 3 3 3 3 3 3 3 3 3 3 2 t z z z g 3 3 3 3 3 3 3 3 3 3 4 B n 1 + n m H , ; 3 3 r 0.0.0.0.0.0.0.0.0.0.0.0.0.0.0.",
"0.0.0.0.0.0.0.0.0.0.0.0.0.,.3 3 3 & u z z z 3 3 3 3 3 3 3 3 3 3 3 3 3 3 3 e z z z s 3 3 3 3 3 3 3 3 3 3 3 D m m m m B H q > 3 3 3 0.0.0.0.0.0.0.0.0.0.0.0.0.0.0.",
"0.0.0.0.0.0.0.0.0.0.0.0.0.2.3 3 3 * u z z z 3 3 3 3 3 3 3 3 3 3 3 3 3 3 3 e z z z s 3 3 3 3 3 3 3 3 3 3 3 7 7 7 6 G G G q ; 3 3 3 0.0.0.0.0.0.0.0.0.0.0.0.0.0.0.",
"0.0.0.0.0.0.0.0.0.0.0.0.0.2.3 3 3 * u z z z 3 3 3 3 3 3 3 3 3 3 3 3 3 3 3 q z z z s 3 3 3 3 3 3 3 3 3 3 3 3 3 3 * z z z w ; 3 3 3 0.0.0.0.0.0.0.0.0.0.0.0.0.0.0.",
"0.0.0.0.0.0.0.0.0.0.0.0.0.2.3 3 3 - u z z z w 3 3 3 3 3 3 3 3 3 3 3 3 3 3 e z z z z 3 3 3 3 3 3 3 3 3 3 3 3 3 3 * z z z q ; 3 3 3 0.0.0.0.0.0.0.0.0.0.0.0.0.0.0.",
"0.0.0.0.0.0.0.0.0.0.0.0.0.4.3 3 3 * y z z z 3 3 3 3 3 3 3 3 3 3 3 3 3 3 3 q z z z s 3 3 3 3 3 3 3 3 3 3 3 3 3 3 - g z z e ; 3 3 3 9.0.0.0.0.0.0.0.0.0.0.0.0.0.0.",
"0.0.0.0.0.0.0.0.0.0.0.0.0.6.3 3 3 * t z z z w 3 3 3 3 3 3 3 3 3 3 3 3 3 3 q z z z g 3 3 3 3 3 3 3 3 3 3 3 3 3 3 ; g z z e ; 3 3 3 9.0.0.0.0.0.0.0.0.0.0.0.0.0.0.",
"0.0.0.0.0.0.0.0.0.0.0.0.0.6.3 3 3 * t z z z w 3 3 3 3 3 3 3 3 3 3 3 3 3 3 q z z z s 3 3 3 3 3 3 3 3 3 3 3 3 3 3 ; s z z e ; 3 3 3 9.0.0.0.0.0.0.0.0.0.0.0.0.0.0.",
"0.0.0.0.0.0.0.0.0.0.0.0.0.6.3 3 3 - t z z z 4 3 3 3 3 3 3 3 3 3 3 3 3 3 3 w z z z z 3 3 3 3 3 3 3 3 3 3 3 3 3 3 ; s z z e - 3 3 3 7.0.0.0.0.0.0.0.0.0.0.0.0.0.0.",
"0.0.0.0.0.0.0.0.0.0.0.0.0.6.3 3 3 * t z z z w 3 3 3 3 3 3 3 3 3 3 3 3 3 3 , z z z g 3 3 3 3 3 3 3 3 3 3 3 3 3 3 ; a z z t * 3 3 3 6.0.0.0.0.0.0.0.0.0.0.0.0.0.0.",
"0.0.0.0.0.0.0.0.0.0.0.0.0.9.3 3 3 * e z z z r 3 3 3 3 3 3 3 3 3 3 3 3 3 3 , z z z z 3 3 3 3 3 3 3 3 3 3 3 3 3 3 ; a z z t * 3 3 3 6.0.0.0.0.0.0.0.0.0.0.0.0.0.0.",
"0.0.0.0.0.0.0.0.0.0.0.0.0.9.3 3 3 ; e z z z r 3 3 3 3 3 3 3 3 3 3 3 3 3 3 , z z z z 3 3 3 3 3 3 3 3 3 3 3 3 3 3 > a z z t ; 3 3 3 6.0.0.0.0.0.0.0.0.0.0.0.0.0.0.",
"0.0.0.0.0.0.0.0.0.0.0.0.0.9.3 3 3 - e z z z 4 3 3 3 3 3 3 3 3 3 3 3 3 3 3 , z z z z 3 3 3 3 3 3 3 3 3 3 3 3 3 w ; a z z t * 3 3 3 6.0.0.0.0.0.0.0.0.0.0.0.0.0.0.",
"0.0.0.0.0.0.0.0.0.0.0.0.0.9.3 3 3 ; e z z z w 3 2 2 2 2 2 > 2 ; ; > > ; ; ; z z z z 2 ; ; - ; ; ; ; - ; ; ; - - - f z z u * 2 3 3 2.0.0.0.0.0.0.0.0.0.0.0.0.0.0.",
"0.0.0.0.0.0.0.0.0.0.0.0.0.0.3 3 3 ; w z z z z p p p p a f f a g g g g z z z z z z z z z z z z z z z z z z z L z z z z z i * 3 3 3 2.0.0.0.0.0.0.0.0.0.0.0.0.0.0.",
"0.0.0.0.0.0.0.0.0.0.0.0.0.0.3 3 3 > q z z z z z z z z z z z z z z z z z z z z z z z z z z z z z z z z z z z z z z z z z t * 3 3 3 3.0.0.0.0.0.0.0.0.0.0.0.0.0.0.",
"0.0.0.0.0.0.0.0.0.0.0.0.0.0.3 3 3 ; q z z z z z z z z z z z z z z z z z z z z z z z z z z z z z z z z z z z z z z z z z i * 3 3 4 3.0.0.0.0.0.0.0.0.0.0.0.0.0.0.",
"0.0.0.0.0.0.0.0.0.0.0.0.0.0.3 3 3 ; q z z z z z z z z z z z z z s L z z z z z z z L z z z z z z z z z z z z z z z z z z p - w w r :.8.8.0.0.0.0.0.0.0.0.0.0.0.0.",
"0.0.0.0.0.0.0.0.0.0.0.5.1.1.( ( _ E k K K K K K T T T R R R E E Q Q Q E Q Q Q Q Q Q ! ! ! ^ ^ ! ! ] ^ ] ^ ^ ^ ^ ~ ~ ~ ~ ~ ~ ~ ~ ~ ~ ~ [ 0.0.0.0.0.0.0.0.0.0.0.0.",
"0.0.0.0.0.0.0.0.0.0.0.$.~ ~ ~ ~ ~ ~ ~ ~ ~ ~ ~ ~ ~ ~ ~ ~ ~ ~ ~ ~ ~ ~ ~ ~ ~ ~ ~ ~ ~ ~ ~ ~ ~ ~ ~ ~ ~ ~ ~ ~ ~ ~ ~ ~ ~ ~ ~ ~ ~ ~ ~ ~ ~ ~ ~ [ 0.0.0.0.0.0.0.0.0.0.0.0.",
"0.0.0.0.0.0.0.0.0.0.0.=.~ ~ ~ ~ ~ ~ ~ ~ ~ ~ ~ ~ ~ ~ ~ ~ ~ ~ ~ ~ ~ ~ ~ ~ ~ ~ ~ ~ ~ ] ] ] ] [ [ [ [ } } } } | | } |  .....#.#.#.#.+.#.=.-.0.0.0.0.0.0.0.0.0.0.0.0.",
"0.0.0.0.0.0.0.0.0.0.0.4.:.:.:.:.1.1.1.1.2.4.4.4.5.5.5.5.8.8.8.8.8.9.0.9.9.0.0.0.0.0.0.0.0.0.0.0.0.0.0.0.0.0.0.0.0.0.0.0.0.0.0.0.0.0.0.0.0.0.0.0.0.0.0.0.0.0.0.0.",
"0.0.0.0.0.0.0.0.0.0.0.0.0.0.0.0.0.0.0.0.0.0.0.0.0.0.0.0.0.0.0.0.0.0.0.0.0.0.0.0.0.0.0.0.0.0.0.0.0.0.0.0.0.0.0.0.0.0.0.0.0.0.0.0.0.0.0.0.0.0.0.0.0.0.0.0.0.0.0.0.",
"0.0.0.0.0.0.0.0.0.0.0.0.0.0.0.0.0.0.0.0.0.0.0.0.0.0.0.0.0.0.0.0.0.0.0.0.0.0.0.0.0.0.0.0.0.0.0.0.0.0.0.0.0.0.0.0.0.0.0.0.0.0.0.0.0.0.0.0.0.0.0.0.0.0.0.0.0.0.0.0.",
"0.0.0.0.0.0.0.0.0.0.0.0.0.0.0.0.0.0.0.0.0.0.0.0.0.0.0.0.0.0.0.0.0.0.0.0.0.0.0.0.0.0.0.0.0.0.0.0.0.0.0.0.0.0.0.0.0.0.0.0.0.0.0.0.0.0.0.0.0.0.0.0.0.0.0.0.0.0.0.0.",
"0.0.0.0.0.0.0.0.0.0.0.0.0.0.0.0.0.0.0.0.0.0.0.0.0.0.0.0.0.0.0.0.0.0.0.0.0.0.0.0.0.0.0.0.0.0.0.0.0.0.0.0.0.0.0.0.0.0.0.0.0.0.0.0.0.0.0.0.0.0.0.0.0.0.0.0.0.0.0.0.",
"0.0.0.0.0.0.0.0.0.0.0.0.0.0.0.0.0.0.0.0.0.0.0.0.0.0.0.0.0.0.0.0.0.0.0.0.0.0.0.0.0.0.0.0.0.0.0.0.0.0.0.0.0.0.0.0.0.0.0.0.0.0.0.0.0.0.0.0.0.0.0.0.0.0.0.0.0.0.0.0.",
"0.0.0.0.0.0.0.0.0.0.0.0.0.0.0.0.0.0.0.0.0.0.0.0.0.0.0.0.0.0.0.0.0.0.0.0.0.0.0.0.0.0.0.0.0.0.0.0.0.0.0.0.0.0.0.0.0.0.0.0.0.0.0.0.0.0.0.0.0.0.0.0.0.0.0.0.0.0.0.0.",
"0.0.0.0.0.0.0.0.0.0.0.0.0.0.0.0.0.0.0.0.0.0.0.0.0.0.0.0.0.0.0.0.0.0.0.0.0.0.0.0.0.0.0.0.0.0.0.0.0.0.0.0.0.0.0.0.0.0.0.0.0.0.0.0.0.0.0.0.0.0.0.0.0.0.0.0.0.0.0.0.",
"0.0.0.0.0.0.0.0.0.0.0.0.0.0.0.0.0.0.0.0.0.0.0.0.0.0.0.0.0.0.0.0.0.0.0.0.0.0.0.0.0.0.0.0.0.0.0.0.0.0.0.0.0.0.0.0.0.0.0.0.0.0.0.0.0.0.0.0.0.0.0.0.0.0.0.0.0.0.0.0.",
"0.0.0.0.0.0.0.0.0.0.0.0.0.0.0.0.0.0.0.0.0.0.0.0.0.0.0.0.0.0.0.0.0.0.0.0.0.0.0.0.0.0.0.0.0.0.0.0.0.0.0.0.0.0.0.0.0.0.0.0.0.0.0.0.0.0.0.0.0.0.0.0.0.0.0.0.0.0.0.0.",
"0.0.0.0.0.0.0.0.0.0.0.0.0.0.0.0.0.0.0.0.0.0.0.0.0.0.0.0.0.0.0.0.0.0.0.0.0.0.0.0.0.0.0.0.0.0.0.0.0.0.0.0.0.0.0.0.0.0.0.0.0.0.0.0.0.0.0.0.0.0.0.0.0.0.0.0.0.0.0.0.",
"0.0.0.0.0.0.0.0.0.0.0.0.0.0.0.0.0.0.0.0.0.0.0.0.0.0.0.0.0.0.0.0.0.0.0.0.0.0.0.0.0.0.0.0.0.0.0.0.0.0.0.0.0.0.0.0.0.0.0.0.0.0.0.0.0.0.0.0.0.0.0.0.0.0.0.0.0.0.0.0."
};
