/* XPM */
static char *exit701675337814[] = {
/* columns rows colors chars-per-pixel */
"80 80 199 2 ",
"   c #59543D",
".  c #60583A",
"X  c #766631",
"o  c #7B692F",
"O  c #675146",
"+  c #6C5345",
"@  c #6B5449",
"#  c #715646",
"$  c #755947",
"%  c #745A4B",
"&  c #7A5D49",
"*  c #70574B",
"=  c #6F5950",
"-  c #7A5E50",
";  c #735C52",
":  c #644D44",
">  c #7D604E",
",  c #7E6252",
"<  c #7A645A",
"1  c #88712A",
"2  c #84634B",
"3  c #89664C",
"4  c #8C6A4D",
"5  c #906D4A",
"6  c #9F7A47",
"7  c #967449",
"8  c #836553",
"9  c #876956",
"0  c #8C6A53",
"q  c #8C6D59",
"w  c #856957",
"e  c #916E55",
"r  c #916E5B",
"t  c #8F725C",
"y  c #937057",
"u  c #94725C",
"i  c #9A765E",
"p  c #9E795F",
"a  c #806C60",
"s  c #947361",
"d  c #9A7760",
"f  c #967865",
"g  c #9D7A62",
"h  c #9C7B6B",
"j  c #997669",
"k  c #9C7D72",
"l  c #8B766F",
"z  c #A37D64",
"x  c #A27D77",
"c  c #DBA30A",
"v  c #D8A110",
"b  c #F2B200",
"n  c #F5BA0D",
"m  c #E5AE17",
"M  c #F7BC13",
"N  c #F8BE19",
"B  c #DEAF35",
"V  c #DEB036",
"C  c #ECBC36",
"Z  c #F9C119",
"A  c #F9C533",
"S  c #AE865E",
"D  c #B38B5B",
"F  c #BA9157",
"G  c #9D816D",
"H  c #9D8273",
"J  c #95837B",
"K  c #A98261",
"L  c #A6826A",
"P  c #A68065",
"I  c #A3847B",
"U  c #A48A79",
"Y  c #A48875",
"T  c #B08F7A",
"R  c #A9907F",
"E  c #B0917B",
"W  c #FBD15C",
"Q  c #FFD664",
"!  c #8C6C9A",
"~  c #8F719B",
"^  c #92749D",
"/  c #8F75A9",
"(  c #9272A3",
")  c #997DA2",
"_  c #9476AC",
"`  c #8E7AB0",
"'  c #9F7CB9",
"]  c #A27FBD",
"[  c #9B8D8D",
"{  c #968383",
"}  c #9B9294",
"|  c #9C969B",
" . c #94989B",
".. c #9A9A9F",
"X. c #A58D8C",
"o. c #A68983",
"O. c #AD948B",
"+. c #B49A8B",
"@. c #B48D94",
"#. c #AB9797",
"$. c #B79999",
"%. c #A78E92",
"&. c #AFA09C",
"*. c #B7A19B",
"=. c #9D82A5",
"-. c #9B9CA2",
";. c #9B85B5",
":. c #9F90BB",
">. c #A289A7",
",. c #A58CA9",
"<. c #A98FAC",
"1. c #AC94AD",
"2. c #A39FA9",
"3. c #AC96A5",
"4. c #B09AAD",
"5. c #B89BA2",
"6. c #A380BF",
"7. c #AD97B9",
"8. c #B39DB1",
"9. c #A6A8AD",
"0. c #BAA5A4",
"q. c #B9A7A9",
"w. c #AAA4B0",
"e. c #ABA8B6",
"r. c #B2A5B5",
"t. c #BDAAB6",
"y. c #BAA9BA",
"u. c #C59BAC",
"i. c #C89EB1",
"p. c #C0AEAC",
"a. c #C2ABB5",
"s. c #C8B6BA",
"d. c #CCABB2",
"f. c #A986C9",
"g. c #AE89CE",
"h. c #A683C3",
"j. c #B08CCF",
"k. c #AF91C7",
"l. c #B190CC",
"z. c #B18ED0",
"x. c #B592D2",
"c. c #B897D4",
"v. c #BB9AD6",
"b. c #BE9ED8",
"n. c #AEA4C3",
"m. c #BEADC2",
"M. c #B2A7C6",
"N. c #BAB6C6",
"B. c #BFA0D8",
"V. c #C3AFC7",
"C. c #D6ABC5",
"Z. c #DBAECC",
"A. c #C9B7C4",
"S. c #C6B1C9",
"D. c #C9B7C7",
"F. c #D7B7C8",
"G. c #C3A4DA",
"H. c #C6A8DD",
"J. c #C9ACDE",
"K. c #C5ABD2",
"L. c #DEB2D1",
"P. c #DABBDC",
"I. c #CDB6DE",
"U. c #E5B7DA",
"Y. c #E4B6D9",
"T. c #CBAFE0",
"R. c #CEB2E1",
"E. c #D1B5E3",
"W. c #D5BBE5",
"Q. c #D8BFE7",
"!. c #D9BDE9",
"~. c #E0BEE2",
"^. c #EBBDE4",
"/. c #CCC2CF",
"(. c #DCC3EA",
"). c #DFC8EC",
"_. c #E3C5EE",
"`. c #E9C4EB",
"'. c #E2CAEE",
"]. c #EACBE8",
"[. c #F2C3ED",
"{. c #E6C6F0",
"}. c #E9C7F2",
"|. c #E6CDF0",
" X c #EBCCF3",
".X c #F6C7F3",
"XX c #F2CCF6",
"oX c #F9C8F6",
"OX c #F5CDF9",
"+X c #FFCEFF",
"@X c #ECD3F3",
"#X c #EBD5F3",
"$X c #F1D3F7",
"%X c #F1DAF7",
"&X c #F6D4F9",
"*X c #FDD2FE",
"=X c #F5D9F9",
"-X c #FCDAFD",
";X c #E6D3ED",
/* pixels */
"+X+X+X+X+X+X+X+X+X+X+X+X+X+X+X+X+X+X+X+X+X+X+X+X+X+X+X+X+X+X+X+X+X+X+X+X+X+X+X+X+X+X+X+X+X+X+X+X+X+X+X+X*X X X*X*X+X+X+X+XOXXXOX*X+X+X+X+X+X+X+X+X+X+X+X+X+X+X+X",
"+X+X+X+X+X*X*X+X+X+X+X+X+X+X+X+X+X+X+X+X+X+X+X+X+X+X+X+X+X+X+X+X+X+X+X+X+X+X+X+X+X+X+X+X+X+X+X+X+X+X+X+X$XR.R.XX*X+X+X+X+X&X{.XX*X+X+X+X+X+X+X+X+X*X+X+X+X+X+X+X",
"+X+X+X+X*XOXOX*X+X+X+X+X+X+X+X+X+X+X+X+X+X+X+X+X+X+X+X+X+X+X+X+X+X+X+X+X+X+X+X+X+X+X+X+X+X+X+X+X+X+X+X+X$XQ.W.&X*X+X+X+X*X&X(.}.*X*X+X+X+X+X+XOXXX*X+X+X+X+X+X+X",
"+X+X+X+X*X}. X*X+X+X+X+X+X+X+X+X+X+X+X+X+X+X+X+X+X+X+X+X+X+X+X+X+X+X+X+X+X+X+X+X+X+X+X+X+X+X+X+X+X+X+X+X*X X}.*X+X+X+X+X*X@XE.|.*X+X+X+X+X+X*X&X_.*X+X+X+X+X+X+X",
"+X+X+X+X-XW.(.&X*X+X+X+X+X+X+X+X+X+X+X+X+X+X+X*X*XXX*X*X+X+X+X+X+X+X+X+X+X+X+X+X+X+X+X+X+X+X+X+X+X+X+X+X+X*X&X+X+X+X+X+X*X@XJ.(.*X+X+X+X+X+X-X|.E.&X*X*X+X+X+X+X",
"+X+X*X*X%XG.H.@X*X+X+X+X+X+X+X+X+X+X+X+X+X+X+X*X$X_.*X*X+X+X+X+X+X+X+X+X+X+X+X+X+X+X+X+X+X+X+X+X+X+X+X+X+X+X*X*X+X+X+X+X*X'.b.Q.-X+X+X+X+X*X=XR.B.'.&X+X+X+X+X+X",
"+X*X*X@XT.z.x.R.@X*X+X+X+X+X+X+X+X+X+X+X+X+X*X&X'.T.@X*X+X+X+X+X+X+X+X+X+X+X+X+X+X+X+X+X+X+X+X+X+X+X+X+X*X*X}.&X*X*X+X+X*X(.x.E.&X+X+X+X*X%XQ.v.z.G.'.&X*X+X+X+X",
"+X+X XT.z.j.z.x.R.XX+X+X+X+X+X+X+X+X+X+X+X+X*X'.G.x.T. X*X+X+X+X+X+X+X+X+X+X+X+X+X+X+X+X+X+X+X+X+X+X+X+X*X@XR.).&X+X+X*X=XR.j.H.%X*X+X+XOXW.v.g.g.z.G.|.+X+X+X+X",
"+X*X*X=X(.x.v.(.=X*X+X+X+X+X+X+X+X+X+X+X+X+X*X_.B.c.R. X+X+X+X+X+X+X+X+X+X+X+X+X+X+X+X+X+X+X+X+X+X+X+X+X&XW.B.H.$X+X+X*X%XH.g.v.|.-X+X+X*X-X'.G.x.R.%X*X+X+X+X+X",
"+X+X+X*X=XJ.R.%X*X*X+X+X+X+X+X*X+X+X+X+X+X+X*X&X).J.@X*X+X+X+X+X+X+X+X+X+X+X+X+X+X+X+X+X+X+X+X+X+X+X+X+X*X|.H.!.&X+X*X*X'.v.g.x.(.-X+X+X+X*X-X(.G.#X*X+X+X+X+X+X",
"+X+X+X+X-X(.'.*X*X+X*X+X+X+X+X+X+X+X+X+X+X+X+X*X&X(.&X+X+X+X+X+X+X+X+X+X+X+X+X+X+X+X+X+X+X+X+X+X+X+X+X+X*X&X(.$X*X+X*X-XW.z.g.g.J.&X*X+X+X+X*X XQ.=X*X+X+X+X+X+X",
"+X+X+X*X*X}. X*X*X+XOX+X+X+X+X*X X&X+X+X+X+X+X*X*XXX*X+X+X+X+X+X+X+X+X+X^.^.Y.U.Y.^..X+X+X+X+X+X+X+X+X+X+X*XOX*X*X+X*X#XG.g.g.g.b.|.*X*X+X+X*X&X}.*X+X+X+X+X+X+X",
"+X+X+X+X*XOX+X*X*X X@X*X*X+X+X&X{.&X+X+X+X+X+X+X+X*X+X+X+X+X+X^.i.@.k 3 3 3 3 3 2 2 3 4 x $.C.^.+X+X+X+X+X+X+X*X+X*X-XQ.x.g.g.g.z.R.=X*X+X+X+X*XOX+X+X+X+X+X+X+X",
"+X+X+X+X+X+X+X*X@XR.J.@X*X+X*X$XW.#X*X+X+X+X+X+X+X+X+X+X.Xi.h 3 3 0 3 3 3 3 3 3 3 3 3 3 3 3 3 3 I C.oX+X+X+X+X+X+X-X|.b.g.g.g.g.g.v.(.-X*X+X+X+X+X*X+X+X+X+X+X+X",
"+X+X+X+X+X+X*X*X(.G.b._.*X+X*X@XJ.'.*X+X+X+X+X+X+X+X^.@.3 3 3 3 3 3 3 3 3 3 3 3 3 3 3 2 3 3 3 3 3 3 r u..X+X+X*X-X#XH.j.g.g.g.g.g.g.B.(.-X*X+X+X+X+X+X+X+X+X+X+X",
"+X+X+X+X+X+X+X*X&XQ.Q.&X*X*X*X|.v.W.*X+X+X+X+X+X.X5.3 3 3 3 3 3 3 3 3 2 $ $ # # $ $ & 2 3 3 3 3 3 3 3 3 u C.*X-X'.G.j.g.g.g.g.g.g.g.j.v.Q.=X-X*X+X+X+X+X+X+X+X+X",
"+X+X+X+X+X+X+X+X*X X$X*X+X+X&XQ.x.G.=X*X*X+X+XL.s 3 3 3 3 3 3 2 $ : # , 9 r i u u q 9 ; + + $ 3 3 0 e f U *.A.J.v.g.g.g.g.g.g.g.g.g.g.g.x.H.(.=X-X*X*X*X+X+X+X+X",
"+X+X+X+X+X+X+X+X+X+X+X*X*X*X@XH.g.c.#X*X+X+Xu.3 3 3 3 3 3 & O % q z z z z z z z z z z z z p 9 @ # 9 H 5.r.,.^ ) h.g.g.g.g.g.g.g.g.g.g.g.g.j.c.H.Q._.XX*X+X+X+X+X",
"+X+X+X+X+X+X+X+X+X+X*X*X*X-X(.c.g.g.R.#X&X@.3 3 3 3 3 2 O - d z z z z z z z z z z z z z z z z z q < { 4.=.^ ! ! ! 6.g.g.g.g.g.g.g.g.g.g.g.j.g.z.G.W.}.*X+X+X+X+X",
"+X+X+X+X+X+X+X+X+X+X*X*X-X'.v.g.g.g.x.W.F.Y y 0 3 3 # @ i z z z z z z z z z z z z z z z z z z z z L H { 0.y.,.^ ! ! 6.g.g.g.g.g.g.g.g.g.g.x.J.(.@X$X*X*X+X+X+X+X",
"+X+X+X+X+X+X+X+X+X*X&X|.R.v.z.g.g.g.j.;.>.t.#.G q + , z z z z z z z z z z z z z z z z z z z z z z z L z < J 0.y.>.^ ! h.g.g.g.g.g.g.g.x.H.'.#X*X*X*X*X+X+X+X+X+X",
"+X+X+X+X+X+X+X+X+XXXQ.G.x.g.g.g.g.g.' ! ~ =.4.X.< q z z z z z z z i 0 3 & z z z z e 2 2 3 i z z z z z z z - w U q.4.^ ( h.g.g.g.g.g.x.R.#X-X*X+X+X+X+X+X+X+X+X+X",
"+X+X+X+X+X+X+X+X+X&X X(.G.x.g.g.g.h.! ~ =.8.0.l f z z z z z z e 3 3 3 3 $ z z z z e 3 3 3 3 2 e z z z z z z * , g *.8.^ _ g.g.g.g.x.E.%X*X*X+X+X+X+X+X+X+X+X+X+X",
"+X+X+X+X+X+X+X+X*X*X*X-X#XE.x.g.g./ ~ 1.a.O.< s L z z z z p 3 3 3 3 3 3 $ z z z z 0 3 3 3 3 3 3 8 g z z z z z O 2 f 0.<.! ] g.g.j.G.@X*X+X+X+X+X+X+X+X+X+X+X+X+X",
"+X+X+X+X+X+X+X+X+X+X+X+X*X-XE.x.] ! ,.p.G > - z z z z z e 3 3 3 3 3 3 3 $ z z z z e 3 3 3 3 3 3 3 2 r z z z z p : 0 Y t.^ ( g.g.x.Q.-X*X+X+X+X+X+X+X+X+X+X+X+X+X",
"+X+X+X+X+X+X+X+X+X+X+X+X*X*X#XG.( ! a.Y 9 O z z z z z e 3 3 3 3 3 3 3 3 $ z z z z e 3 3 3 3 3 3 3 3 2 9 z z z z 9 # u 0.,.! 6.g.G.;X*X+X+X+X+X+X+X+X+X+X+X+X+X+X",
"+X+X+X+X+X+X+X*X+X+X+X+X+X*X&XK.! =.q.d + y z z z z e 3 3 3 3 3 3 3 3 3 & z z z z e 3 3 3 3 3 3 3 3 3 2 r z z z z @ 2 R r.^ ( z.E.-X*X+X+X+X+X+X+X+X+X+X+X+X+X+X",
"+X+X+X+X*X*X$X&X*X+X+X+X+X*X&XA.^ 1.+.9 @ z z z z i 3 3 3 3 3 3 3 3 3 3 $ g z z z e 3 3 3 3 3 3 3 3 3 3 2 i z z z r + h a.^ ! z.(.*X+X+X+X+X+X+X+X+X+X+X+X+X+X+X",
"+X+X+X+X+X_.G._.*X+X+X+X+X+X.Xt.=.t.U * y P z z z 3 3 3 3 3 3 3 3 3 3 3 & g z z z y 4 3 3 3 3 3 3 3 3 3 3 & z z z z @ t 0.>.! k.;X*X+X+X+X+X+X+X+X+X+X+X+X+X+X+X",
"+X+X+X+X*X|.G.'.&X+X+X+X+X+XF.$.1.0.f @ g P z z e 3 3 3 3 3 3 3 3 3 3 3 & g z z z y 3 3 3 3 3 3 3 3 3 3 3 3 9 z z z w - +.1.! 1.$X+X+X+X+X+X+X+X+X+X+X+X+X+X+X+X",
"+X+X+X+X+X*X}.&X*X+X+X+X+X+X5.O.3.#.q < P z z g 3 3 3 3 3 3 3 3 3 3 3 3 & g z z z y 3 3 3 3 3 3 3 3 3 3 3 3 & z z z z @ U r.~ 1.$X+X+X+X+X+X+X+X+X+X+X+X+X+X+X+X",
"+X+X+X+X+X*X*X*X+X+X+X+X+X+Xx x X.H % d z z z y 3 3 3 3 3 3 3 3 3 3 3 3 & i z z z y 3 3 3 3 3 3 3 3 3 3 3 3 2 q z z z * h t.) r.`.+X+X+X+X+X+X+X+X+X+X+X+X+X+X+X",
"+X+X+X+X+X+X+X+X+X+X+X+X+XoX0 s k f @ z z z z 3 3 3 3 3 3 3 3 3 3 3 3 3 $ i z z z y 4 3 3 3 3 3 3 3 3 3 3 3 3 & z z z 8 s q.=.y.F.+X+X+X+X+X+X+X+X+X+X+X+X+X+X+X",
"+X+X+X+X+X+X+X+X+X+X+X+X+X[.3 e r 9 * z z z d 3 3 3 3 3 3 3 3 3 3 3 3 3 2 i z z z i 3 3 3 3 3 3 3 3 3 3 3 3 3 & z z z r < 5.1.q.d.+X+X+X+X+X+X+X+X+X+X+X+X+X+X+X",
"+X+X+X+X+X+X+X+X+X+X+X+X+XY.3 3 3 & 8 z z z i 3 3 3 3 3 3 3 3 3 3 3 3 3 & i z z z y 3 3 3 3 3 3 3 3 3 3 3 3 3 2 r z z z ; O.4.#.5.+X+X+X+X+X+X+X+X+X+X+X+X+X+X+X",
"+X+X+X+X+X+X+X+X+X+X+X+X+XL.3 3 3 & q z z z 0 3 3 3 3 3 3 3 3 3 3 3 3 3 & u z z z i 3 3 3 3 3 3 3 3 3 3 3 3 3 3 8 z z z = U #.X.@.+X+X+X+X+X+X+X+X+X+X+X+X+X+X+X",
"+X+X+X+X+X+X+X+X+X+X+X+X+XZ.2 3 3 # r z z z 3 3 3 3 3 3 3 3 3 3 3 3 3 3 2 u z z z i 2 3 3 3 3 3 3 3 3 3 3 7 6 6 7 D F z * h o.H o.+X+X+X+X+X+X+X+X+X+X+X+X+X+X+X",
"+X+X+X+X+X+X+X+X+X+X+X+X+XC.3 3 3 + i z z z 3 3 3 3 3 3 3 3 3 3 3 3 3 3 2 r z z z i 3 3 3 3 3 3 3 3 3 3 6 N M A A M Z P ; r f u x +X+X+X+X+X+X+X+X+X+X+X+X+X+X+X",
"+X+X+X+X+X+X+X+X+X+X+X+X+XC.3 3 3 + d z z z 9 % & & $ & & - & - & , & - & d z z z d 8 8 2 8 8 8 3 3 9 9 6 N Q Q Q W N P % 3 0 0 x +X+X+X+X+X+X*X+X*X+X+X+X+X+X+X",
"+X+X+X+X+X+X+X+X+X+X+X+X+XC.3 3 3 + d z z z z z z z z z z z z z z z z z z z z z z z z z z z z z z z z z D C Q Q Q Q A K ; 2 3 3 h +X+X+X+X+X*X$X_.&X*X+X+X+X+X+X",
"+X+X+X+X+X+X+X+X+X+X+X+X+XZ.3 3 3 + d z z z z z z z z z z z z z z z z z z z z z z z z z z z z z z z z z K C Q Q Q Q C S % 2 2 3 j +X+X+X+X+X$XR.v.}.*X*XOX+X+X+X",
"+X+X+X+X+X+X+X+X+X+X+X+X+XL.3 3 3 + d z z z z z z z z z z z z z z z z z z z z z z z z z z z z z z z z z S m Q Q Q W m S , > 3 3 j +X+X+X+X+X*X_.W.&X*XXX!.OX+X+X",
"+X+X+X+X+X+X+X+X+X+X+X+X+XL.2 3 3 + i z z z z z z z z z z z z z z z z z z z z z z z z z z z z z z z z p S M c V B v n S & 2 3 3 j +X+X+X+X+X+X*X&X*X*X&X}.*X+X+X",
"+X+X+X+X+X+X+X+X+X+X+X+X+XL.3 3 3 # d z z z 0 3 8 3 3 3 3 3 3 3 8 3 3 3 2 i z z z d 3 3 3 3 3 3 3 3 3 2 7 M b c c b n S - 2 3 3 s +X+X+X+X+X+X+X+X+X+X*X+X+X+X+X",
"+X+X+X+X+X+X+X+X+X+X+X+X+XY.3 3 3 + s z z z 3 3 3 3 3 3 3 3 3 3 3 3 3 3 2 q z z z d 3 3 3 3 3 3 3 3 3 3 5 M b .   b n D , 2 2 3 r +X+X+X+X+X+X+X+X+X+X+X+X+X+X+X",
"+X+X+X+X+X+X+X+X+X+X+X+X+XU.3 3 3 # i z z z 3 3 3 3 3 3 3 3 3 3 3 3 3 3 2 q z z z p 3 3 3 3 3 3 3 3 3 3 5 M b 1 X b n D , > 3 3 r +X+X+X+X+X+X+X+X+X+X+X+X+X+X+X",
"+X+X+X+X+X+X+X+X+X+X+X+X+XU.3 3 3 # u z z z 3 3 3 3 3 3 3 3 3 3 3 3 3 3 2 q z z z p 3 3 3 3 3 3 3 3 3 3 5 M b X   b n D > 2 3 3 r +X+X+X+X+X+X+X+X+X+X+X+X+X+X+X",
"+X+X+X+X+X+X+X+X+X+X+X+X+XU.3 3 3 # s z z z 3 3 3 3 3 3 3 3 3 3 3 3 3 3 2 0 z z z p 3 3 3 3 3 3 3 3 3 3 5 M b 1 X b n D 8 & 3 3 0 +X+X+X+X+X+X+X+X+X+X+X+X+X+X+X",
"+X+X+X+X+X+X+X+X+X+X+X+X+XU.3 3 3 # r z z z 3 3 3 3 3 3 3 3 3 3 3 3 3 3 3 9 z z z p 3 3 3 3 3 3 3 3 3 3 3 Z n n n n N F 8 & 3 3 3 +X+X+X+X+X+X+X+X+X+X+X+X+X+X+X",
"+X+X+X+X+X+X+X+X+X+X+X+X+X^.3 3 3 $ r z z z 8 3 3 3 3 3 3 3 3 3 3 3 3 3 3 9 z z z p 3 3 3 3 3 3 3 3 3 3 3 6 6 6 1 S S z 8 2 3 3 3 +X+X+X+X+X+X+X+X+X+X+X+X+X+X+X",
"+X+X+X+X+X+X+X+X+X+X+X+X+X^.3 3 3 $ r z z z 3 3 3 3 3 3 3 3 3 3 3 3 3 3 3 9 z z z p 3 3 3 3 2 3 3 3 3 3 3 3 3 3 - z z z 8 & 3 3 3 +X+X+X+X+X+X+X+X+X+X+X+X+X+X+X",
"+X+X+X+X+X+X+X+X+X+X+X+X+X^.3 3 3 $ r z z z 3 3 3 3 3 3 3 3 3 3 3 3 3 3 3 8 z z z p 3 3 3 3 3 3 3 3 3 3 3 3 3 3 $ z z z 8 & 3 3 3 +X+X+X+X+X+X+X+X+X+X+X+X+X+X+X",
"+X+X+X+X+X+X+X+X+X+X+X+X+X^.3 3 3 $ r z z z 3 3 3 3 3 3 3 3 3 3 3 3 3 3 3 8 z z z z 3 3 3 3 3 3 3 3 3 3 3 3 3 3 $ d z z 9 & 3 3 3 oX+X+X+X+X+X+X+X+X+X+X+X+X+X+X",
"+X+X+X+X+X+X+XOX*X+X+X+X+X[.3 3 3 $ q z z z 3 3 3 3 3 3 3 3 3 3 3 3 3 3 3 8 z z z p 3 3 3 3 3 3 3 3 3 3 3 3 3 3 & z z z 9 & 3 3 3 oX+X+X+X+X+X+X+X+X+X+X+X+X+X+X",
"+X+X+X+X+X+XOX}.*X+X+X+X+X[.3 3 3 $ r z z z 3 3 3 3 3 3 3 3 3 3 3 3 3 3 3 8 z z z z 3 3 3 3 3 3 3 3 3 3 3 3 3 3 & z z z 9 & 3 3 3 oX+X+X+X+X+X+X+X+X+X+X+X+X+X+X",
"+X+X+X+X+X+X X!.&X*X+X+X+X[.3 3 3 $ q z z z 0 3 3 3 3 3 3 3 3 3 3 3 3 3 3 3 z z z p 3 3 3 3 3 3 3 3 3 3 3 3 3 3 & i z z 9 $ 3 3 3 .X+X+X+X+X+X+X+X+X+X+X+X+X+X+X",
"+X+X+X+X*X-X(.G.#X*X*X+X+X[.3 3 3 & 0 z z z 3 3 3 3 4 4 3 3 3 3 3 3 3 3 3 - z z z z 3 3 3 3 3 3 3 3 3 3 3 3 3 3 & i z z q $ 3 3 3 [.+X+X+X+X+X+X+X+X+X+X+X+X+X+X",
"+X+X+X*X=X'.b.x.J.%X*X+X+XoX3 3 2 & 9 z z z 4 3 3 0 e 0 3 3 3 3 3 3 3 3 3 8 z z z z 3 3 3 3 3 3 3 3 3 3 3 3 3 3 & i z z q $ 3 3 3 [.+X+X+X&XOX*X+X+X+X+X+X+X+X+X",
"+X+X+X+X(.G.z.j.x.R.}.*X+XoX3 3 3 & 9 z z z 0 3 3 u k f e 2 3 3 3 3 3 3 3 & z z z z 3 2 3 3 3 3 3 3 3 3 3 3 3 3 & i z z r $ 3 3 3 [.+X+X+XXX!.+X+X+X+X+X+X+X+X+X",
"+X+X+X*X$XQ.c.x.G.|.&X*X+XoX3 3 3 & 9 z z z 0 2 0 H X.I e 3 3 2 3 3 3 3 3 8 z z z z 3 2 3 3 3 3 3 3 3 3 3 3 3 3 2 u z z q $ 3 3 3 [.+X+X+X&X}.*X+X+X+X+X+X+X+X+X",
"+X+X+X+X*X=XE.B.'.-X*X+X+XoX3 3 3 & 9 z z z 0 3 0 o.3.#.e 2 & 2 & & & 2 & - z z z z 8 & & & $ & & & % & & & % & & i z z r $ 2 3 3 ^.+X+X+X+X+X+X+X+X+X+X+X+X+X+X",
"+X+X+X+X*X*X XE.=X*X+X+X+X+X3 3 3 & 8 z z z z d h 0.1.p.T p p d z z d z z z z z z z z z z z z z z z z z z z z z z z z z r $ 3 3 3 ^.+X+X+X+X+X+X+X+X+X+X+X+X+X+X",
"+X+X+X+X+X*XXX_.*X*X+X+X+X+X3 3 3 & 8 z z z z z T A.>.y.+.z z z z z z z z z z z z z z z z z z z z z z z z z z z z z z z r $ 3 3 3 ^.+X+X+X+X+X+X+X+X+X+X+X+X+X+X",
"+X+X+X+X+X+X*XXX*X+X+X+X+X+X3 3 3 & 8 z z z z L +.a.( <.p.L z z z z z z z z z z z z z z z z z z z z z z z z z z z z z z r $ 3 3 2 ^.+X+X+X+X+X+X+X+X+X+X+X+X+X+X",
"+X+X+X+X+X+X+X+X+X+X+X+X+X+X2 2 3 & 8 z z z L E s.,.( ) A.+.L z P z z P g P g z z z z z z z z z z z z z z z z z P g P z s % w 0 0 L..X.X+X+X+X+X+X+X+X+X+X+X+X+X",
"+X+X+X+X+X+X*X+X+X+X+X`.~.~.%.X.%.X.l k J [ &.s.r._ / / ;./.q.#.} [ [ [ } } } } | | } | | | | | -.-.| ..-. .-.-. . . . . . . . . . . .2.+X+X+X+X+X+X+X+X+X+X+X+X",
"+X+X+X+X+X+X+X+X+X+X+XV. . . . . . .-.-.9.N.N.:.` ` ` ` ` ;.M.N.w... . . . . . . . . . . . . . . . . . . . . . . ... . . . . . . . . .9.+X+X+X+X+X+X+X+X+X+X+X+X",
"+X+X+X+X+X+X+X+X+X+X+XS. . . . . . . . .w.n.:.` ` ` ` ` ` ` ;.n.e.-. . . . . . . .-.-.-.-.2.2.2.2.8.w.w.w.r.r.w.r.y.m.m.y.m.m.m.m.S.S.S.+X+X+X+X+X+X+X+X+X+X+X+X",
"+X+X+X+X+X+X+X+X+X+X+X^.P.P.P.P.Q.Q.U.(.].].;XI.g.f.f.f.k.T.#X%XOXOXOXoXOX+X+X+X+X+X+X+X+X+X+X+X+X+X+X+X+X+X+X+X*X*XXX*X+X+X+X+X+X+X+X+X+X+X+X+X+X+X+X+X+X+X+X+X",
"+X+X+X+X+X+X+X+X+X+X+X+X+X+X+X+X+X+X+X+X+X*X*X-X).x.g.x.T.=X*X*X+X+X+X+X+X+X+X+X+X+X+X+X+X+X+X+X+X+X+X+X+X+X+X+X*X*X!.&X*X+X+X+X+X+X+X+X+X+X+X+X+X+X+X+X+X+X+X+X",
"+X+X+X+X+X+X+X+X+X+X+X+X+X+X+X+X+X+X+X+X+X+X+X*X%XT.g.v.%X*X*X*X+X+X+X+X+X+X+X+X+X+X+X+X+X+X+X+X+X+X+X+X+X+X+X+X*X=XH.@X*X+X+X+X+X+X+X+X+X+X+X+X+X*X*X*X+X+X+X+X",
"+X+X+X+X+X+X+X+X+X+X+X+X+X+X+X+X+X+X+X+X+X+X+X+X-X).x.T.-X+X+X+X+X+X+X+X+X+X+X+X+X+X+X+X+X+X+X+X+X+X+X+X+X+X+X*X&X'.x.W.%X*X*X+X+X+X+X+X+X+X+X+X*XOX^.XX+X+X+X+X",
"+X+X+X+X+X+X+X+X*X+X+X+X+X+X+X+X+X+X+X+X+X+X+X+X*X#Xb.(.-X+X+X+X+X+X+X+X+X+X+X+X+X*X*X*X+X+X+X+X+X+X+X+X+X+X*X&X'.G.g.c.(.$X*X+X+X+X+X+X+X+X+X+X+X+X{.XX*X+X+X+X",
"+X+X+X+X+X+X*X*X*X*X+X+X+X+X+X+X+X+X+X+X+X+X+X+X*X&XJ. X*X*X+X+X+X+X+X+X+X+X+X+X*X&X_.$X*X+X+X+X+X+X+X+X+X+X*X_.G.j.g.g.v.W.OX+X+X+X+X+X+X+X+X+X+X+XOX+X+X+X+X+X",
"+X+X+X+X+X+X&X(.E.%X*X+X+X+X+X+X+X+X+X+X+X+X+X+X*X&X!.XX*X+X+X+X+X+X+X+X+X+X+X+X*X(.x.(.*X+X+X+X+X+X+X+X+X+X+X*X%XR.z.G.@X-X*X+X+X+X+X+X+X+X+X+X+X+X+X+X+X+X+X+X",
"+X+X+X+X+X+X&XW.c. X*X+X+X+X+X+X+X+X+X+X+X+X+X+X*X*X}.&X*X+X+X+X+X+X+X+X+X+X+X+X*X@XE. X*X+X+X+X+X+X+X+X+X+X+X+X*X#Xv.(.&X*X*X+X+X+X+X+X+X+X+X+X+X+X+X+X+X+X+X+X",
"+X+X+X+X+X+X+X X_.&X*X+X+X+X+X+X+X+X+X+X+X+X+X+X+X+XOX+X+X+X+X+X+X+X+X+X+X+X+X+X+X*X&X*X+X+X+X+X+X+X+X+X+X+X+X+X*X=XT.@X*X+X+X+X+X+X+X+X+X+X+X+X+X+X+X+X+X+X+X+X",
"+X+X+X+X+X+X+X+X*X*X+X+X+X+X+X+X+X+X+X+X+X+X+X+X+X+X+X+X+X+X+X+X+X+X+X+X+X+X+X+X+X+X+X+X+X+X+X+X+X+X+X+X+X+X+X+X*X*X_.&X+X+X+X+X+X+X+X+X+X+X+X+X+X+X+X+X+X+X+X+X",
"+X+X+X+X+X+X+X+X+X+X+X+X+X+X+X+X+X+X+X+X+X+X+X+X+X+X+X+X+X+X+X+X+X+X+X+X+X+X+X+X+X+X+X+X+X+X+X+X+X+X+X+X+X+X+X+X+X*XXX*X+X+X+X+X+X+X+X+X+X+X+X+X+X+X+X+X+X+X+X+X",
"+X+X+X+X+X+X+X+X+X+X+X+X+X+X+X+X+X+X+X+X+X+X+X+X+X+X+X+X+X+X+X+X+X+X+X+X+X+X+X+X+X+X+X+X+X+X+X+X+X+X+X+X+X+X+X+X+X+X+X+X+X+X+X+X+X+X+X+X+X+X+X+X+X+X+X+X+X+X+X+X"
};
