/* XPM */
static char *result[] = {
/* columns rows colors chars-per-pixel */
"80 80 192 2 ",
"   c #B83E7E",
".  c #B23C7F",
"X  c #BD407D",
"o  c #DD4A6F",
"O  c #C4427B",
"+  c #CC457A",
"@  c #C5487F",
"#  c #CF487C",
"$  c #C54277",
"%  c #D14676",
"&  c #D74872",
"*  c #DD4B72",
"=  c #D34878",
"-  c #DB4C7A",
";  c #DE5076",
":  c #DE547B",
">  c #DD597E",
",  c #E04E76",
"<  c #E24F78",
"1  c #E4517C",
"2  c #E9567F",
"3  c #E0587F",
"4  c #792A91",
"5  c #812C8F",
"6  c #882F8D",
"7  c #88308D",
"8  c #9E3687",
"9  c #963489",
"0  c #99348A",
"q  c #973E8F",
"w  c #813393",
"e  c #883A94",
"r  c #923D92",
"t  c #983D90",
"y  c #A53885",
"u  c #AB3A83",
"i  c #A53F8A",
"p  c #B23D80",
"a  c #934496",
"s  c #974897",
"d  c #904498",
"f  c #974B99",
"g  c #984D9B",
"h  c #9B4694",
"j  c #9E529C",
"k  c #BD4985",
"l  c #B54285",
"z  c #B2508F",
"x  c #A54B93",
"c  c #A5599D",
"v  c #AB5E9E",
"b  c #AB5093",
"n  c #B25996",
"m  c #BF5E94",
"M  c #B25D9A",
"N  c #B2629E",
"B  c #B8619B",
"V  c #AD63A2",
"C  c #B266A1",
"Z  c #B469A5",
"A  c #B96CA3",
"S  c #BF72A5",
"D  c #BA70A8",
"F  c #CB598A",
"G  c #DD5D82",
"H  c #C55F92",
"J  c #E75481",
"K  c #E95683",
"L  c #E25C84",
"P  c #EB5986",
"I  c #EE5B8A",
"U  c #F15E8E",
"Y  c #F25F91",
"T  c #DE6186",
"R  c #DD658A",
"E  c #DD6B8F",
"W  c #C7699A",
"Q  c #D76E96",
"!  c #DE6E92",
"~  c #D16F98",
"^  c #DD7295",
"/  c #DC7598",
"(  c #DD7A9D",
")  c #D7759A",
"_  c #E46085",
"`  c #E3648C",
"'  c #EA648E",
"]  c #F3638F",
"[  c #E36790",
"{  c #EC6392",
"}  c #E46B93",
"|  c #EA6B96",
" . c #EE6C9B",
".. c #F46295",
"X. c #F76499",
"o. c #F9669C",
"O. c #F36A9C",
"+. c #FC699E",
"@. c #E87097",
"#. c #E3749B",
"$. c #EA729F",
"%. c #C576A6",
"&. c #C176AA",
"*. c #C679A9",
"=. c #CB7DA8",
"-. c #DD7DA1",
";. c #D17DA6",
":. c #FF6CA5",
">. c #FF6EA9",
",. c #F36FA1",
"<. c #EB76A1",
"1. c #E47DA4",
"2. c #E87CA5",
"3. c #FF72A6",
"4. c #F279A7",
"5. c #FE74AB",
"6. c #FF79AF",
"7. c #F476A6",
"8. c #FF7CB4",
"9. c #FF7FB8",
"0. c #CE81AD",
"q. c #D782A7",
"w. c #DD82A5",
"e. c #D182AA",
"r. c #DE87A9",
"t. c #D788AC",
"y. c #DD8CAE",
"u. c #CF83B0",
"i. c #DE8EB1",
"p. c #DF91B3",
"a. c #E285AA",
"s. c #EB81AC",
"d. c #E289AE",
"f. c #E988AF",
"g. c #E180A5",
"h. c #ED86B1",
"j. c #E48CB3",
"k. c #EA8BB5",
"l. c #EE8CB8",
"z. c #F485B5",
"x. c #FE81B5",
"c. c #F488B7",
"v. c #FE85BC",
"b. c #F48CBB",
"n. c #FE8ABD",
"m. c #F486B8",
"M. c #E193B6",
"N. c #E296B9",
"B. c #EB93BC",
"V. c #E399BD",
"C. c #F490BF",
"Z. c #FF86C0",
"A. c #FF8DC2",
"S. c #FF8FC8",
"D. c #EE94C0",
"F. c #E59DC2",
"G. c #EB9CC5",
"H. c #EE9EC9",
"J. c #F594C3",
"K. c #FD92C5",
"L. c #F09AC7",
"P. c #FE95CA",
"I. c #F69DCB",
"U. c #FE9ACD",
"Y. c #FF9DD2",
"T. c #E7A1C7",
"R. c #EAA4CB",
"E. c #F1A0CC",
"W. c #EFA7D1",
"Q. c #EDABD3",
"!. c #EEAED8",
"~. c #F4A4D2",
"^. c #FEA3D5",
"/. c #F2AAD6",
"(. c #FFA6DA",
"). c #F2AED9",
"_. c #FEAADD",
"`. c #EFB0DA",
"'. c #F1B3DD",
"]. c #FFADE1",
"[. c #F3B6E2",
"{. c #FEB2E4",
"}. c #F4B9E5",
"|. c #F9B9E7",
" X c #FFB6E9",
".X c #F6BEEB",
"XX c #FEBBED",
"oX c #FFBEF1",
"OX c #F8C1EF",
"+X c #FDC4F4",
"@X c #FFC7F8",
"#X c #FFCDFE",
/* pixels */
"#X#X#X#X#X#X#X#X#X#X#X#X#X#X#X#X#X#X#X#X#X#X#X#X#X#X#X#X#X#X#X#X#X#X#X#X#X#X#X#X#X#X#X#X#X#X#X#X#X#X#X#X#X#X#X#X#X#X#X#X#X#X#X#X#X#X#X#X#X#X#X#X#X#X#X#X#X#X#X#X",
"#X#X#X#X#X#X#X#X#X#X#X#X#X#X@X#X#X#X#X#X#X#X#X#X#X#X#X#X#X#X#X#X#X#X#X#X#X#X#X#X#X#X#X#X#X#X#X#X#X#X#X#X#X#X#X#X#X#X#X#X#X#X#X#X#X#X#X#X#X#X#X#X#X#X#X#X#X#X#X#X",
"#X#X#X#X#X#X#X#X#X#X#X#X#X#X#X#X#X#X#X#X#X#X+X X#X@X#X#X#X#X#X#X#X#X#X#X#X#X#X#X@X@X#X#X#X#X#X#X#X#X#X#X#X#X#X#X#X#X#X#X#X#X#X#X#X#X#X#X#X#X#X#X#X#X#X#X#X#X#X#X",
"#X#X#X#X#X#X#X#X#X@X#X#X#X#X#X@X+X#X_.@X#X#X_.^.P.9.XX#X#X#X#X#X@X@X#X#XOX X#X#X#X#X#X#X#X#X+X#X#X#X#X#X#X#X#X#X#X#X#X#X#X#X#X#X#X#X#X#X#X#X#X#X#X#X#X#X#X#X#X#X",
"#X#X#X#X#X#X#X#X#X#X#XY.#X#X#X@X+X#XXX#X#X#X#X#X9.5.K.@X@X#X#X#X#X#X#X@X(.^.#X#X#XXXK.#X+X_.#X#X#X#X#X+X#X#X#X_._.#X#X#X#X#X#X#X#X#XXXXX#X#X#X#X#X#X#X#X#X#X#X#X",
"#X#X#X#X#X#X@X#X#X#XoX3._.@X#X#X#X#X#X#XP.U.#X#X Xv.(.#X#X#X#X#X#X#X+X+X#X#X#X#X#X+X_.@XY.x.#X#X@X@XOX^.#X#X#X].|.#X#X#X#X#X#X#X#X@X#X#X#XXXXX#X#X#X#X#X#X#X#X#X",
"#X#X#X#X#X#X@X#X#X#X^.:.3.n._.#X#X#X#X#XP.XX#X#X#X#X#X#X#X#X#X#X#X#X#X#X#X#X#X#X#X#X#X Xn.#X#X#X#X#X#X#X#X#X#X#X#X#X#X#X+X#X#X#X#X#X#X#X#XXX+X#X#X#X#X#X#X#X#X#X",
"#X#X#X#X#X#X@X#X#X#X@X(.{.+Xx.+X#X+XXX#X#XP.Y.#X#X#X@Xv.x.oX#X{.n.#X#X#XXX_.@X X#X#X#X#X@X#X#X#X#X#X#X#X#XXX#X#X#X#X#X#X#X#X#X#X#X#X#X#X#X#X#X#X#X#X#X#X#X#X#X#X",
"#X#X#X#X#X@X#X#X#X#X#X#X#X#X#X#X@XP.A.#X#X{.XX#X#X#XXX:.:.XX#X+X_.#X#X#XXXXX+XXX#X#X#X#X#X#XoXP.+X#X#X#X5.:.].@X#X#X#X#X+X].@X#X@XOX#X#X#X#X#X#X#X#X#X#X#X#X#X#X",
"#X@X#X#X#X#X#X#X#X#X#X#X#XXX@X#X@X+X#X#X#X#X#X#X#X#X#XXXXX#X#X#X#X#X#X#X#X#X#X#X#X#X#X#X#X#XXXK.@X#X(._.8.9.v. X#X#X#X_.:.:.+X#X^.n.#X#X#X#X#X+X+X#X#X#X#X#X#X#X",
"#X#XXX+X#X#X#X#X+X#X#X#X#XK.+X#X#X#X#X#X#X_.v.#X#X@X#X#X#X#X#X#X#X#X#X#X@X#X#X#X#X#X#X{.(.#X#X#X#X#XU.(.#X#X#X@X#X#X#XOX6.n.#X#X#X#X#X#X#X#X#X@X@X#X#X#X#X#X#X#X",
"#X#X@X#X#X#X#X#X+X#X#XXX#X_.U.#X#X#X#X+X#Xn.3.#X+X@X#X#X#X#X#X#X#X#X@XXX+X#X#X#X#X#X#X@X#X#X#X#X#X#X#X#X#XXXP.6.3.6.^.#X#X#X#X#X#X#X#X#X#X#X^.#X#X#X#X#X#X#X#X#X",
"#X#X#X#X#XP.K.#X#XOX#X#X#Xn.:.#X#X#XXX9.@X#X#X#X#X#X#X#X#X#X#X#X#X#X+X>.XX#X#X#X#X#X#X#X{.#X#X#X#X#X#X#X(.:.:.:.:.:.:.6.XX#X#X#X#X#X#X#X#XOXOX#X#X#X#X#X@X#X#X#X",
"#X#X#X#X#X_._.#X#X#X#X@X+X+X^.A.#X#X#X+X#X#XU.x.+X#X#X#X#XXXZ. X#X#X+X>.8.#X#X#X#X#X#X+X^.#Xn.x.#X#X#X_.:.:.:.:.:.:.:.:.:.XX#X#X#X#X#X#X@X+X#X#X#X#X#X#X#X#X#X#X",
"#X#X#X_.n.@X#X#X@X+X|._.I.@X+XU.#X#X#X#X#X(.+.:.5.^.#X#X#X_.+.oX#X#XOX:.n.#X#X#X#XXX(.#X#X#Xx.5.#X#X+X:.:.:.>.:.:.:.:.:.:.3.#X@X#X#X#X#X#X#X#X#X#X#X#X#X#X#X#X#X",
"#X#X#X#X^.J.@X+X+X5.X.+XOXOX+X+X+X X{.#X#XP.:.>.:._.#X#X#X#X#XoX#X#X#X+X#X#X+X#X#X{.^.#X#X#X#X#X#X#Xx.+.>.:.:.:.>.:.:.:.:.:.8.5.@X#X#X#X#X#X#X#X#X#X#X#X#X#X#X#X",
"#X#X#X#X@X@XOXOX.Xm.b.~.J.D.J.^.OXn.o.K.+Xn.5.5.+X#XY.(.#X#X#X(.XX#X#X#X#XS.5.@XoX(.P.S.Y. XoXoX#XXX:.:.>.:.:.:.>.:.:.:.>.>.:.Y.#X#X#X#X#X#X#X#X#X#X^._.#X@XXX#X",
"#X#X@X_.OXOXOX}.).X.{ I P P U Y ,.z.v.(.(.9.A.:.#X#X].^. X#X#X#X#X#X#X#X#X]. XY.>.>.>.:.:.>.8.Y.#X(.:.:.:.:.>.:.:.:.:.>.:.:.>.@X#X#X#X(.+X#X{.Y.#X#XU._.#X#X@X#X",
"#X#X{.v.C.}.'.T.Y K J J K K K K I Y 4.).+XXX{.P.#X#X].5.>.@X#X#X#X#X_.v.#X#XZ.:.:.>.>.:.>.:.:.:.9.9.:.:.>.:.:.:.:.>.:.:.:.:.>.{.#X#X#XXX#X#X(.P.#X#X#X#X#X#X X+X",
"#X#X|.J.E.'.Q.2 1 1 < < < < 1 K J I Y X.I.+X#X#X#X#X_.U.@X#X#X#X#X#XoX{.#XS.:.:.:.:.:.:.>.:.:.:.:.:.:.:.:.:.>.>.:.:.:.:.:.:.>.].#X#X#X{.XX#X#X#X#X#X#X#X#X{.K.(.",
"#X@XOX'.z.E.g.1 , O 9 9 9 9 F < < P I Y X.8.XX#X#X#X#X#X#X#X#X#X#X#X#X#X].:.>.>.:.:.:.>.:.>.:.>.:.:.:.:.:.:.:.:.:.:.:.:.:.>.:.{.#X#X#X5.I.#X#X#X#X@X#X#X#X+X_.@X",
"#X@X{.~.W.k.2 , % 4 4 4 4 4 4 + < < P U ..o.o.(.#X#X#X#X#X@XoX#X+X#X#X#X8.:.:.:.:.:.:.:.:.:.:.:.:.:.:.>.:.:.>.:.:.>.:.>.:.:.>.oX#X#X#X#X#X#X#X#X+X+X#X#X#X#X#X#X",
"#XOXOX'.Q.` , , y 4 4 4 4 4 4 O * < K K ..X.o.:.K.#X#X#X#X^.v.#XK.8.#X+X:.:.:.>.>.:.>.:.:.:.>.:.>.>.:.:.>.>.:.:.:.:.:.:.:.>.8.@X#X#X#X#X#X#X#X#X#X#X#X#X#X#X#X#X",
"#XOX}.`.k.2 < o 4 4 4 4 4 4 4 . , < 1 P ' X.o.:.:.x.@X#X#X@X+X#X#XXX#X(.:.:.:.:.:.:.>.:.:.:.:.:.:.:.:.:.:.:.:.>.:.:.>.:.:.:.Y.#X+X+X#X#X#X#X#X#X#X#X#X@X@X#X#X#X",
"+X'.W.Q.} 1 , O 4 4 4 4 4 4 4 . * , < P Y Y :.:.:.:.6. X+X#X#X#X X].@XZ.:.:.:.>.:.:.:.:.:.:.:.>.:.:.:.:.:.>.:.:.:.>.:.:.>.>.oX#X#X@X#X#X_.#X#X#X#X#X#XOX+X#X#X#X",
"+XOX'.B.L 3 , p 4 4 4 4 4 4 4 . * , < K Y Y :.:.:.:.:.:. X#X#X#X9.n.#Xn.:.:.:.:.>.:.:.:.:.>.:.>.>.>.:.:.:.:.:.>.:.:.>.:.>.].#X#X#X#X#X@X(.#X#X#X#X#X#X#X#X#X#X#X",
"OXOX`.$._ : ; 8 4 4 4 4 4 4 4 . * , < P I Y Y :.:.:.:.:.+X#X#X#X#X#X#XZ.:.:.>.:.:.:.>.>.:.:.:.:.:.:.:.5.5.:.:.:.>.:.:.:.>.+X#X#X+XA.K.#X#X#X#X#X#X#X#X#X#X#X#X#X",
"OX'.L.@.L : * 7 4 4 4 4 4 4 4 O * < < K U Y o.:.o.:.:.:.L.@X@X@X@X#X#XA.:.:.>.:.>.:.:.>.:.:.:.o.:.:.,.v.^.v.3.:.:.>.Z. X].oX#X#XOXK.).@X@X@X+X#X#X#X@X#X#X#X#X#X",
"OX/.h.@.2 < * 4 4 4 4 4 4 4 4 O * , < K U Y :.o.X.o.:.X.,.oXoXP.J.oX@XP.:.:.:.:.:.:.:.:.o.o.o.o.Y :.X.5.J.OX+X{.}.+X#X#X#X#X@X_.(.+X+XOXOXOXOXOX}.OX+X+X@X#X#X#X",
"OX).h.} 3 : O 4 4 4 4 4 4 4 4 O * , < J I Y Y Y X.X.X.Y Y /.|.D.J..XOXP.:.:.:.:.:.:.X.X.o.X.X...Y Y { Z..XOX.X+X+X+X#X@X@X@X+X[.}.OXOX}.}.}.}.}.!.'.OXOX+X+X+X#X",
"OX).f.} 3 ; $ 4 4 4 4 4 4 4 4 O * , < K P I Y Y Y U I I U l.!.!.`.'.m.J.X.:.o.o.o.o.X.X.X.Y Y I I I I H.`.`.[..XOXOXOX+X+XOXOX.X}.'.'.`.!.Q.Q.Q.).'.R.O.}.OX+X+X",
"'./.s.} L : X 4 4 4 4 4 4 4 4 % * , < < K P P P P K K K K <.F.R.R.Q.G.!.O.X.X.X.X.X.Y I I K K J J J $.F.R.R.Q.`.`.}..X.X.X}.[.`.!.R.R.k.T.T.T.T.R.R.T.l.`.'.OXOX",
"}./.2.[ G ; p 4 4 4 4 4 4 4 4 o * * , < 1 1 J J 1 3 1 , ; E V.V.F.F.T.Q.D...Y ..Y I I K J J 2 < < ' V.V.F.V.j.R.W.Q.!.Q.`.!.Q.R.R.T.V.` M.V.V.V.V.F.T.T.R.Q.'..X",
"}.R.2.` J * y 4 4 4 4 4 4 4 4 o * * , , 1 1 1 ; , # X 8 8 a A A p.V.F.F.T.2.I I P P J J < = l y t g g c D -.L F.F.<.<.Q.R.R.F.F.p.p.0.Z j f f j V S p.V.F.R.Q.'.",
"}.Q.2.` : * 9 4 4 4 4 4 4 4 4 o * * * , * , * # 0 4 4 4 4 4 4 4 4 V i.F.F.F.a.P J 1 1 ; O 5 4 4 4 4 4 4 4 w D N.V.k.1.<.L L [ 1.%.d 4 4 4 4 4 4 4 4 e u.N.V.T.Q.",
"}.Q.2.` > - 9 4 4 4 4 4 4 4 4 * * * * * * * X 5 4 4 4 4 4 4 4 4 4 4 d u.p.M.F.M.#.` G k 4 4 4 4 4 4 4 4 4 4 4 A ! / L < < < = 0 4 4 4 4 4 4 4 4 4 4 4 4 0.M.F.R.",
"}.Q.j.` : * 9 4 4 4 4 4 4 4 0 * * * o * * u 4 4 4 4 4 4 4 4 4 4 4 4 4 g i.i.i.M.p.p.*.4 4 4 4 4 4 4 4 4 4 4 4 4 ;.* , * , = 9 4 4 4 4 4 4 4 4 4 4 4 4 4 j p.N.F.",
"}.Q.F.[ J * 9 4 4 4 4 4 4 4 9 o * * * * . 4 4 4 4 4 4 4 4 4 4 4 4 4 4 4 %.i.i.i.y.y.f 4 4 4 4 4 4 4 4 4 4 4 4 4 %.* * * * 9 4 4 4 4 4 4 4 4 4 4 4 4 4 4 4 t.r.1.",
"[.Q.F.a.G * 4 4 4 4 4 4 4 4 9 * * * o $ 4 4 4 4 4 4 4 4 4 4 4 4 4 4 4 4 t -.i.! > ;.4 4 4 4 4 4 4 d 4 4 4 4 4 4 H , * * u 4 4 4 4 4 4 4 4 e 4 4 4 4 4 4 4 %.E } ",
"'.R.T.V.^ * 4 4 4 4 4 4 4 4 9 o o * * 0 4 4 4 4 4 4 4 4 4 4 4 4 4 4 4 4 4 ~ y.* o %.4 4 4 4 4 4 4 &.5 4 4 4 4 4 H * * & 5 4 4 4 4 4 4 4 4 0.g 4 4 4 4 4 4 &.w.d.",
"[.Q.T.p.p.^ 4 4 4 4 4 4 4 4 9 * o o $ 4 4 4 4 4 4 4 4 4 4 4 4 4 4 4 4 4 4 A y.R ! %.4 4 4 4 4 4 4 e b 4 4 4 4 4 Q * * p 4 4 4 4 4 4 4 4 *.A 4 4 4 4 4 4 4 =.y.V.",
"'.R.V.N.p.y.4 4 4 4 4 4 4 4 9 o o o y 4 4 4 4 4 4 4 4 4 e.j 4 4 4 4 4 4 4 v r.y.y.%.4 4 4 4 4 4 4 4 4 4 4 4 e 0.-.o * 9 4 4 4 4 4 4 4 j v 4 4 4 4 4 4 4 w y.p.M.",
"[.Q.T.N.y.R 4 4 4 4 4 4 4 4 9 o o , 4 4 4 4 4 4 4 4 4 H y.S 4 4 4 4 4 4 4 f y.y.y.q.4 4 4 4 4 4 4 4 4 e C %.y.r.: * % 4 4 4 4 4 4 4 4 4 4 4 4 4 4 4 4 4 c y.y.M.",
"'.R.V.N.i.w.4 4 4 4 4 4 4 4 9 * o   4 4 4 4 4 4 4 4 %.E y.y.4 4 4 4 4 4 4 f i.y.r.y.j 4 4 4 4 4 4 4 4 4 4 0.y.y.! T l 4 4 4 4 4 4 4 4 4 4 4 4 4 4 4 4 w e.y.p.V.",
"'.R.F.N.i.y.4 4 4 4 4 4 4 4 9 * o p 4 4 4 4 4 4 4 f y.y.y.y.4 4 4 4 4 4 4 g y.( ! y.%.4 4 4 4 4 4 4 4 4 4 w 0.y.y.y.n 4 4 4 4 4 4 4 4 4 4 4 4 4 4 4 4 =.y.y.M.V.",
"'.R.F.p.i.y.4 4 4 4 4 4 4 4 q G * 0 4 4 4 4 4 4 4 A y.t.; ; f 4 4 4 4 4 4 g y.r.r.! ; C 4 4 4 4 4 4 4 4 4 4 r ) y.y.j 4 4 4 4 4 4 4 4 4 4 4 4 4 4 e 0.y.y.p.M.V.",
"'.Q.F.N.i.i.4 4 4 4 4 4 4 4 g i.r.s 4 4 4 4 4 4 4 e.y.y.R > e 4 4 4 4 4 4 g -.y.y./ : : x 4 4 4 4 4 4 4 4 4 4 z y.y.f 4 4 4 4 4 4 4 4 4 4 4 4 4 v t.y.y.^ w.N.T.",
"'.Q.F.N.i.y.4 4 4 4 4 4 4 4 s i.i.s 4 4 4 4 4 4 4 y.y.y.y.y.4 4 4 4 4 4 4 s y.w.w.y.y.^ / d 4 4 4 4 4 4 4 4 4 4 y.y.s 4 4 4 4 4 4 4 4 4 4 d N 0.y.y.y.y.> ^ V.T.",
"'.Q.F.p.p.y.4 4 4 4 4 4 4 4 f y.w.f 4 4 4 4 4 4 4 y.r./ i.0.4 4 4 4 4 4 4 C i.r.r.d.t.%.%.=.d 4 4 4 4 4 4 4 4 4 S y.f 4 4 4 4 4 4 4 v 0.e.t.y.y.y.y.y.y.y.p.V.T.",
"'.R.F.N.y.y.4 4 4 4 4 4 4 4 g y.y.f 4 4 4 4 4 4 4 y.r.o > X 4 4 4 4 4 4 4 m q.i.y.c 4 4 4 f t.d 4 4 4 4 4 4 4 4 C y.g 4 4 4 4 4 4 4 A y.y.y.y.y.y.E w.y.p.p.F.R.",
"'.R.F.p.p.y.4 4 4 4 4 4 4 4 f y.y.C 4 4 4 4 4 4 4 S w.o % 4 4 4 4 4 4 4 4 & * E B 4 4 4 4 a y.t.w 4 4 4 4 4 4 4 M q.c 4 4 4 4 4 4 4 c R / y.y.y.y.R w.r.r.y.V.R.",
"'.Q.F.N.p.y.4 4 4 4 4 4 4 4 g y.y.S 4 4 4 4 4 4 4 x o o X 4 4 4 4 4 4 4 9 * o o q 4 4 4 4 e i.r.S 4 4 4 4 4 4 4 . : N 4 4 4 4 4 4 4 4 ~ w.y.y.y.0.C V X & > V.R.",
"'.Q.F.p.p.p.d 4 4 4 4 4 4 4 f t.y.t.4 4 4 4 4 4 4 4 X X 4 4 4 4 4 4 4 4   * * o 9 4 4 4 4 4 n * h 4 4 4 4 4 4 4 n w.e.4 4 4 4 4 4 4 4 4 A e.A f 4 4 4 4 X T p.R.",
"'.Q.F.V.p.y.f 4 4 4 4 4 4 4 f y.y.y.C 4 4 4 4 4 4 4 4 4 4 4 4 4 4 4 4 6 o * o o 8 4 4 4 4 4 4 6 4 4 4 4 4 4 4 4 S y.y.g 4 4 4 4 4 4 4 4 4 4 4 4 4 4 4 4 V t.N.F.",
"'.R.F.V.p.y.g 4 4 4 4 4 4 4 C r.i.i.t.4 4 4 4 4 4 4 4 4 4 4 4 4 4 4 4 O o * o *   4 4 4 4 4 4 4 4 4 4 4 4 4 4 d y.y.^ @ 4 4 4 4 4 4 4 4 4 4 4 4 4 4 4 4 0.i.p.F.",
"OXQ.T.p.p.y.C 4 4 4 4 4 4 4 A w.i.i.> m 4 4 4 4 4 4 4 4 4 4 4 4 4 4 u * * * * * & 5 4 4 4 4 4 4 4 4 4 4 4 4 4 # > r.R ; N 4 4 4 4 4 4 4 4 4 4 4 4 4 4 j y.y.p.F.",
"}.Q.T.V.p.y.A 4 4 4 4 4 4 4 q.y.y.y.; Q N 4 4 4 4 4 4 4 4 4 4 4 4 y * * * o o & *   4 4 4 4 4 4 4 4 4 4 4 w A o o w.y.y.y.C 4 4 4 4 4 4 4 4 4 4 4 4 d t.p.p.p.F.",
"OX!.T.V.p.y.y.d 4 4 4 4 4 s y.y.y.y.y.y.y.e.h 4 4 4 4 4 4 4 4 5   o o * o o * * * * $ 6 4 4 4 4 4 4 4 4 c e.y.r./ y.y.y.y.( W g 4 4 4 4 4 4 4 4 4 M y.p.p.p.V.F.",
"}.!.R.V.p.p.y.t.v f s a C y.y.y.y.( y.y.y.y.E $ . 9 9 9 9 u   o o o * * , , , o * * * * F C c q 9 u B e.y.y.y.y.y.y.y.y.q.o : y.e.C f f f f v A t.i.y.y.p.p.V.R.",
"OX`.Q.F.V.p.y.y.y.y.w.R w.y.y.> R / y.y.i.y.T o o o o , o o o o * * * * , , & , * * * * & w.y.y.T o ^ w.y.w.^ r.y.y.p.r.E > o y.y.i.y.y.y./ ^ w.y.i.y.Q p.p.F.Q.",
"OX[.Q.T.V.p.p.y.y.y.y.w.Q y.y.w.r.p.y.w.p.j.< o o o o o o o o o , , , < , < < < * * * * * ( y.y.y.w.y.y.y.w.; * _ d.a.M.p.y.w.y.y.! #.y.w.o o ^ y.i.i.y.p.F.Q.`.",
"OXOX`.Q.F.V.p.p.y.y.y.p.y.y.p.p.#.j.g._ M.g., , o , o o o , , , , , < 1 < 1 J 1 < < < * * / i.w.y.y.i.y.d.M.N.1 1 j.} M.V.p.M.p.d.o > y.w.R / i.i.p.M.N.F.R.Q.'.",
"+XOX[.!.R.F.V.N.p.p.p.p.p.p.V.V.#.F.T.T.V.j.< , , , , o , , , < , < 1 K P P K K 2 1 1 , , 1.d.p.M.M.M.M.j.d.T.k.K G.R.T.T.F.V.V.a.! i.i.p.p.p.M.N.N.V.T.R.!.'.OX",
"#XOXOX'.!.R.T.F.V.V.V.V.F.F.T.R.Q.k.R.Q.R.G.J < , < < , < < 1 1 J J P U U Y Y U I P J 2 1 g.M.N.V.V.N.F.V.| T.Q.H.!.`.!.Q.R.T.T.V.M.V.V.V.V.V.` #.T.R.Q.`.'.OXOX",
"#XOXOXOX'.`.Q.R.T.T.T.T.y.r.Q.`.W.s.'.'.`.Q.' 2 2 2 2 2 2 2 K K I U U ..X.X.X...] U I K K N.T.R.T.T._ ' E.R.'.}.[.|..X/.[.L. .R.R.R.G.d.T.T.k.2 { h.H.).}..XOX#X",
"#X#X#XOXOX[.[.`.`.`.`.T.2 2 '.}..X.X.X.X.X}.,.] ] 2 P P P U U U ] ..X.o.X.+.o.o.X...Y Y ] !.).Q.R.4.I U z.c.|.OXz.~.+XOXXXb.] '.'.).B.I s.,.I I ] ] X.I.+X+X@X+X",
"#X#X#XOXOXOXOXOX.X}.}.[.b.B.OXOXOX+X+X+X[.OXC.] ] ] ] ] Y ] Y X.X.o.+.+.+.+.+.+.+.o.o.X.c.}.[.'.'.C.I.C.|.OXOXXX+X+X@XXX~.OXOX~.~.}.}.~.O.] X.....X.+.~.+X#X#X#X",
"#X#X#X#X#X#XOXOXOXOXOXOX+X+X+X#X#X+X#X#X@X@XOX+.X.X.o.o.o.o.o.o.+.+.+.:.:.:.:.:.:.+.+.+.n.P.+.~. X|.OX+X+X@X@XOX#X#X@XXX(.#X^.o.x..X.XOXX.o.o.o.+.+.3.OX#X#X#X#X",
"#X#X#X#X#X#X#X#X#X#XOXOX#X#X#X#X#X#X#X#X#X@X#X~.o.:.+.+.+.o.+.+.:.+.3.:.:.:.:.:.:.:.+.{.XX_.v.I.+X+X@X+XOX^.#X#X#X#Xv.XX#X#X_.K.+X+X+X+X:.o.:.:.x._.OX#X#X#X#X#X",
"#X#X#X#X#X#X#X#XOX#X#X#X#X#X#X#X#XJ.~.@X+X@X#X#XY.3.+.:.:.:.:.:.+.:.:.+.:.:.:.:.:.6.XX#X#X#X#X#X#X#X+XY.#X_.Y.@X+X#XXX@X#X#X#X#X#X#X+X@X{.5.5.K.#X#X#X#X#X#X#X#X",
"#X#X#X#X#X#X#X#X#X#X#X#X#X#X#X#X@XC.[.#X~.}.#X#X#X+XP.3.3.+.+.:.3.:.3.+.:.+.3.A.K.:.+X{.P.@XXX#X#X#X#X+X+X#X{.+X+X#X#X#X#X#X#X#X#X#X+X#X#X#X#X#X#X#X#X#X#X#X#X#X",
"#X#X#X#X#X#X#X#X#X#X#X#X#X#X#X#X#X#X#X#X#X#X#X#X#X#X#X3.^. X X_.U.P.K.U.(.{.XX#X#XA.{.@X+X8.+.#X_.K.#X#X@X#X#X#X#X#X@XoX#X#X#X#X#X#X#X#X#X#X#X#X#X#X#X#X#X#X#X#X",
"#X#X#X#X#X#X#X#X#X#X#X#X#X#X#X#X#X#X#X#X#X#X#X#X#X#X#X{.OX#XXX+X#X#XK.+X#X#XXX+X#X#X#XOXn.x.'.#XoX~.#X+X+X#X#X#X#X#X(.x.#X#X#X#X#X#X#X#X#X#X#X#X#X#X#X#X#X#X#X#X",
"#X#X#X#X#X#X#X#X#X#X#X#X#X#X#X#X#X#X#X#X#X#X_.@X#X#X#X#X#X@XP.(.#X#XOX#X#X#X#X#X#X#X#X X3.U.#XOX X#X#X@X@X+X#X#X#X#X#X@X#X#X+X#X#X@X+X#X#XY.{.#X#X#XXXXX#X#X#X#X",
"#X#X#X#X#X#X#X#X#X#X#X#X#X#X#X#X#X#X#X#X#X#X_.@X#X#X#X#X#X#X#XP.n.#X#X#X+XoX#X#X#X#X#X#X X(.@X^.P.+X(.#X#X@X#X{.^.oX#X#X#X#X@X#X+XA.n.#X#X(.+X#X#X#X#X@X#X#X#X#X",
"#X#X#X#X#X#X#X#X#X#X#X#X#X#X#X#X#X#X#X#X@X@X#X#X#X#X#X#X#X#XOXn.U.#XXXK.n.n.@X#X#X#X_._.#X@X#X#X#X#X^.#X#X#X{.n.A.K.#X#X#X#X#X#X+X^.].#X#X#X#X#X#X#X#X#X#X#X#X#X",
"#X#X#X#X#X#X#X#X#X#X#X#X#X#X#X#X#X#X#X#X#X#X#X#X#X#X#X#X#X#X#XXX#X#XU.U.U.^.{.#X#X@X@X@X#X#X#X#X#XXX#X#X#X#X^.^.^.].#X#X#X#X#X#X+XXX#X#X#X#X#X#X#X#X#X#X#X#X#X#X",
"#X#X#X#X#X#X#X#X#X#X#X#X#X#X#X#X#X#X#X#X#X#X#X#X#X#X#X#X#X#X+X@X+X@X{.{.{._.@X#X#X@X#X#X#X#X#X#X#X{.+X#X#X#X+XXXXX#X#X#X#X#X#X#X#X#X#X#X#X#X#X#X#X#X#X#X#X#X#X#X",
"#X#X#X#X#X#X#X#X#X#X#X#X#X#X#X#X#X#X#X#X#X#X#X#X#X#X#X#X#X#X#X#X#X#X#X@X@X#X@X@X#X#X#X#X#X#X#X#X#X#X@X#X#X#X#X#X#X#X#X#X+X@X#X#X#X#X#X#X#X#X#X#X#X#X#X#X#X#X#X#X",
"#X#X#X#X#X#X#X#X#X#X#X#X#X#X#X#X#X#X#X#X#X#X#X#X#X#X#X#X#X#X#X#X#X#X#X#X#X#X#X@X#X#X@X#X#X#X#X#X#X#X#X#X#X#X#X#X#X#X#X#X#X#X#X#X#X#X#X#X#X#X#X#X#X#X#X#X#X#X#X#X"
};
