/* XPM */
static char *moves1675337815[] = {
/* columns rows colors chars-per-pixel */
"80 80 11 1 ",
"  c #9C72FB",
". c #A667EE",
"X c #AC88FB",
"o c #AD8AFC",
"O c #C3A7FC",
"+ c #C4A9FC",
"@ c #D8BDF8",
"# c #D9BEF8",
"$ c #E4D7FD",
"% c #EDE1FB",
"& c #FCF9FE",
/* pixels */
"&&&&&&&&&&&&&&&&&&&&&&&&&&&&&&&&&&&&&&&&&&&&&&&&&&&&&&&&&&&&&&&&&&&&&&&&&&&&&&&&",
"&&&&&&&&&&&&&&&&&&&&&&&&&&&&&&&&&&&&&&&&&&&&&&&&&&&&&&&&&&&&&&&&&&&&&&&&&&&&&&&&",
"&&                                                                            &&",
"&&                                                                            &&",
"&&                                                                            &&",
"&&                                                                            &&",
"&&                                                                            &&",
"&&                                                                            &&",
"&&        X+OOOO+OOOOOOOOOO+OO++OOOOOOOOOOOOOOOOOOOOOOOOOOOOOOOOOOOOOX        &&",
"&&       $&&&&&&&&&&&&&&&&&&&&&&&&&&&&&&&&&&&&&&&&&&&&&&&&&&&&&&&&&&&&$       &&",
"&&      o&%@@@@@####@###@#@#@@#######################################%&o      &&",
"&&      +&@..........................................................@&+      &&",
"&&      +&@..........................................................@&+      &&",
"&&      +&@..........................................................@&+      &&",
"&&      +&@..........................................................@&+      &&",
"&&      +&@..........................................................@&+      &&",
"&&      +&@..........................................................@&+      &&",
"&&      +&@..........................................................@&+      &&",
"&&      +&@..........................................................@&+      &&",
"&&      +&@..........................................................@&+      &&",
"&&      +&@..........................................................@&+      &&",
"&&      +&@..........................................................@&+      &&",
"&&      +&@..........................................................@&+      &&",
"&&      +&@..........................................................@&+      &&",
"&&      +&@..........................................................@&+      &&",
"&&      +&@..........................................................@&+      &&",
"&&      +&@..........................................................@&+      &&",
"&&      +&@..........................................................@&+      &&",
"&&      +&@..........................................................@&+      &&",
"&&      +&@..........................................................@&+      &&",
"&&      +&@..........................................................@&+      &&",
"&&      +&@..........................................................@&+      &&",
"&&      +&@..........................................................@&+      &&",
"&&      +&@..........................................................@&+      &&",
"&&      +&@..........................................................@&+      &&",
"&&      +&@..........................................................@&+      &&",
"&&      +&@..........................................................@&+      &&",
"&&      +&@..........................................................@&+      &&",
"&&      +&@..........................................................@&+      &&",
"&&      +&@..........................................................@&+      &&",
"&&      +&@..........................................................@&+      &&",
"&&      +&@..........................................................@&+      &&",
"&&      +&@..........................................................@&+      &&",
"&&      +&@..........................................................@&+      &&",
"&&      +&@..........................................................@&+      &&",
"&&      +&@..........................................................@&+      &&",
"&&      +&@..........................................................@&+      &&",
"&&      +&@..........................................................@&+      &&",
"&&      +&@..........................................................@&+      &&",
"&&      +&@..........................................................@&+      &&",
"&&      +&@..........................................................@&+      &&",
"&&      +&@..........................................................@&+      &&",
"&&      +&@..........................................................@&+      &&",
"&&      +&@..........................................................@&+      &&",
"&&      +&@..........................................................@&+      &&",
"&&      +&@..........................................................@&+      &&",
"&&      +&@..........................................................@&+      &&",
"&&      +&@..........................................................@&+      &&",
"&&      +&@..........................................................@&+      &&",
"&&      +&@..........................................................@&+      &&",
"&&      +&@..........................................................@&+      &&",
"&&      +&@..........................................................@&+      &&",
"&&      +&@..........................................................@&+      &&",
"&&      +&@..........................................................@&+      &&",
"&&      +&@..........................................................@&+      &&",
"&&      +&@..........................................................@&+      &&",
"&&      +&@..........................................................@&+      &&",
"&&      +&@..........................................................@&+      &&",
"&&      +&@..........................................................@&+      &&",
"&&      o&%##########################################################%&o      &&",
"&&       $&&&&&&&&&&&&&&&&&&&&&&&&&&&&&&&&&&&&&&&&&&&&&&&&&&&&&&&&&&&&$       &&",
"&&        XOOOOOOOOOOOOOOOOOOOOOOOOOOOOOOOOOOOOOOOOOOOOOOOOOOOOOOOOOOX        &&",
"&&                                                                            &&",
"&&                                                                            &&",
"&&                                                                            &&",
"&&                                                                            &&",
"&&                                                                            &&",
"&&                                                                            &&",
"&&&&&&&&&&&&&&&&&&&&&&&&&&&&&&&&&&&&&&&&&&&&&&&&&&&&&&&&&&&&&&&&&&&&&&&&&&&&&&&&",
"&&&&&&&&&&&&&&&&&&&&&&&&&&&&&&&&&&&&&&&&&&&&&&&&&&&&&&&&&&&&&&&&&&&&&&&&&&&&&&&&"
};
