/* XPM */
static char *object01675337815[] = {
/* columns rows colors chars-per-pixel */
"80 80 185 2 ",
"   c #683C3F",
".  c #6F413E",
"X  c #74453C",
"o  c #794A36",
"O  c #4E264D",
"+  c #5F3249",
"@  c #4C205C",
"#  c #552955",
"$  c #562A53",
"%  c #582D4A",
"&  c #68384B",
"*  c #4C1E69",
"=  c #4E236B",
"-  c #532B6C",
";  c #5A2960",
":  c #57326D",
">  c #58336E",
",  c #592677",
"<  c #5E3774",
"1  c #672E76",
"2  c #6C307D",
"3  c #6F4042",
"4  c #724242",
"5  c #654475",
"6  c #6A4C76",
"7  c #6B4C7B",
"8  c #654779",
"9  c #6D5176",
"0  c #6E5379",
"q  c #73567C",
"w  c #775C7B",
"e  c #785D7C",
"r  c #7E667F",
"t  c #804E3B",
"y  c #835231",
"u  c #8A5634",
"i  c #8E5935",
"p  c #925B37",
"a  c #955D38",
"s  c #985F39",
"d  c #9B613A",
"f  c #A4663D",
"g  c #A7683F",
"h  c #A8693F",
"j  c #975B46",
"k  c #AA6C42",
"l  c #AD7047",
"z  c #AE724B",
"x  c #B1754D",
"c  c #A86857",
"v  c #B37A54",
"b  c #B57E59",
"n  c #B27750",
"m  c #8E4D69",
"M  c #995176",
"N  c #AC6E6A",
"B  c #B37B60",
"V  c #B47B79",
"C  c #B6815E",
"Z  c #BB835D",
"A  c #B88564",
"S  c #BA8869",
"D  c #B78873",
"F  c #C08B66",
"G  c #C28D69",
"H  c #C39272",
"J  c #5E2584",
"K  c #6D2D8D",
"L  c #6F3099",
"P  c #743B98",
"I  c #75568A",
"U  c #7D4C9E",
"Y  c #754D89",
"T  c #843A96",
"R  c #8735BE",
"E  c #9F5097",
"W  c #825698",
"Q  c #806780",
"!  c #856C86",
"~  c #896F89",
"^  c #8A708B",
"/  c #8B6D96",
"(  c #906C9A",
")  c #927593",
"_  c #977A97",
"`  c #9B7D9B",
"'  c #94719C",
"]  c #B17584",
"[  c #AE6D92",
"{  c #B27599",
"}  c #8457A1",
"|  c #A45AA0",
" . c #9266A5",
".. c #9976A5",
"X. c #9665B2",
"o. c #8D65A7",
"O. c #AF70A2",
"+. c #AF6DB0",
"@. c #B374B9",
"#. c #903BC7",
"$. c #8E39C7",
"%. c #9340CB",
"&. c #9959C0",
"*. c #A455D8",
"=. c #AF6AC6",
"-. c #AA76C0",
";. c #AF69D3",
":. c #B16CDE",
">. c #B97CDA",
",. c #B77AE1",
"<. c #9D948E",
"1. c #9E809E",
"2. c #BA8487",
"3. c #BB849D",
"4. c #BD8995",
"5. c #BAA89C",
"6. c #998DA2",
"7. c #A384A3",
"8. c #AB8BAB",
"9. c #BF8BA6",
"0. c #BC86AF",
"q. c #AF8AB2",
"w. c #BD86BC",
"e. c #B18FB1",
"r. c #B693B6",
"t. c #B995B9",
"y. c #BE99BE",
"u. c #BBB2AC",
"i. c #BFBFBF",
"p. c #B4B2B5",
"a. c gray66",
"s. c #C08DB7",
"d. c #BE91C9",
"f. c #BC86D9",
"g. c #BC80E2",
"h. c #BF88E4",
"j. c #C39EC3",
"k. c #C69EC9",
"l. c #CDA5CD",
"z. c #C7A1C7",
"x. c #C5BFC9",
"c. c #D3ABD3",
"v. c #D9AFD9",
"b. c #DCB2DC",
"n. c #C8ACD7",
"m. c #C48DE6",
"M. c #C083E3",
"N. c #C592E5",
"B. c #CA9AE7",
"V. c #D29AEA",
"C. c #CBA9E3",
"Z. c #D4A4EC",
"A. c #D6ABED",
"S. c #DAAAEE",
"D. c #DAA9E3",
"F. c #D6BEE5",
"G. c #D1B2E5",
"H. c #DDA7F0",
"J. c #DEB5F0",
"K. c #E2B7E2",
"L. c #E5B9E5",
"P. c #EBBEEB",
"I. c #E4BCF3",
"U. c #E8B9F3",
"Y. c #CBCBCB",
"T. c #C0C0C0",
"R. c #D2C3DC",
"E. c #D3D2D3",
"W. c #DDDDDD",
"Q. c #D6C0E4",
"!. c #DFD8E5",
"~. c #EFC1EF",
"^. c #E5C0F4",
"/. c #E9C1F5",
"(. c #EFCDF8",
"). c #F3C4F3",
"_. c #F7C8F7",
"`. c #F3C5FA",
"'. c #F4CCFA",
"]. c #FFCEFF",
"[. c #F5D3FA",
"{. c #FFD2FF",
"}. c #FEDCFF",
"|. c #E2E2E2",
" X c #FFE0FF",
/* pixels */
"].].].].].].].].].].].].].].].].].].].].].].].].].].].].].].].].].].].].].].].].].].].].].].].].].].].].].].].].].].].].].].].].].].].].].].].].].].].].].].].].",
"].].].].].].].].].].].].].].].].].].].].].].].].].].].].].].].].].].].].].].].].].].].].].].].].].].].].].].].].].{.].].].].].].].].].].].].].].].].].].].].].].",
"].].].].].].].].].].].].].].].].].].].].].].].].].].].].].].].].].].].].].].].].].].].].].].].].].].].].].].].].].].].].].].].].].].].].].].].].].].].].].].].].",
"].].].].].].].].].].].].].].].].].].].].].].].].].].].].].].].].].].].].].].].].].].].].].].].].].].].].].].].].].].].].].].].].].].].].].].].].].].].].].].].].",
"].].].].].].].].].].].].].].].].].].].].].].].].].].].].].].].].].].].].].].].].].].].].].].].].].].].].].].].].].].].].].].].].].].].].].].].].].].].].].].].].",
"].].].].].].].].].].].].].].].].].].].].].].].].].].].].].].].].].].].].].].].].].].].].].].].].].].].].].].].].].].].].].].].].].].].].].].].].].].].].].].].].",
"].].].].].].].].].].].].].].].].].].].].].].].].].].].].].].].].].].].].].].].].].].].].].].].].].].].].].].].].].].].].].].].].].].].].].].].].].].].].].].].{.",
"].].].].].].].].].].].].].].].].].].].].].].].].].].].].].].].].].].].].].].].].].].].].].].].].].].].].].].].].].].].].].].].].].].].].].].].].].].].].].].].].",
"].].].].].].].].].].].].].].].].].].].].].].].{.].].].].].].].].].].].].].].].].].].].].].].].].].].].].].].].].].].].].].].].].].].].].].].].].].].].].].].].].",
"].].].].].].].].].].].].].].].].].].].].].].].].].].].].].].].].].].].].].].].].].].].].].].].].].].].].].].].].].].].].].].].].].].].].].].].].].].].].].].].].",
"].].].].].].].].].].].].].].].].].].].].].{.{.].].].].].].].].].].].].].].].].].].].].].].].].].].].].].].].].].].].].].].].].].].].].].].].].].].].].].].].].].",
"].].].].].].].].].].].].].].].].].].].].].].].].].].].].].].].].].].].].].].].].].].].].].].].].].].].].].].].].].].].].].].].].].].].].].].].].].].].].].].].].",
"].].].].].].].].].].].].].].].].].].].].].].].].].].].].].].].].].].].].].].].].].].].].].].].].].].].].].].].].].].].].].].].].].].].].].].].].].].].].].].].].",
"].].].].].].].].].].].].].].].].].].].].].].].].].].].].].].].].].].].].].].].].].].].].].].].].].].].].].].].].].].].].].].].].].].].].].].].].].].].].].].].].",
"].].].].].].].].].].].].].].].].].].].].].].].].].].].].].].].].].].].].].].].].].].].].].].].].].].].].].].].].].].].].].].].].].].].].].].].].].].].].].].].].",
"].].].].].].].].].].].].].].].].].].].].].].].].].].].].{.{.].].].].].].].].].].].].].].].].].].].].].].].].].].].].].].].].].].].].].].].].].].].].].].].].].].",
"{.].].].].].].].].].].].].].].].].].{.].].].]._._.].{.{.{.}.{.].].].].].].].].].].].].].].].].].].].].].].].].].].].].].].].].].].].].].].].].].].].].].].].].].",
"].].].].].].].].].].].].].].].].].].].].].]._.P.P.U.V.Z.U.}.}.}.{.].].].].].].].].].].].].].].].].].].].].].].].].].].].].].].].].].].].].].].].].].].].].].].].",
"].].].].].].].].].].].].].].].].[.{.].].].].L.l.-.$.f.C.B.h.[.}.{.].].].].].].].].].].].].].].].].].].].].].].].].].].].].].].].].].].].].].].].].].].].].].].].",
"].].].].].].].].].].].].].].].[.{.].].].].).j.( } Y.W.W.|.F.N.}.}.{.].].].].].].].].].].].].].].].].].].].].].].].].].].].].].].].].].].].].].].].].].].].].].].",
"].].].].].].].].].].].].].].'.{.{.].].].].K.` 1 6.E.W.W.W.|.G.I.}.{.].].].].].].].].].].].].].].].].].].].].].].].].].].].].].].].].].].].].].].].].].].].].].].",
"].].].].].].].].].].].].].].[.{.].].].].].L.` , p.W.W.W.W.|.Q.Z.}.{.].].].].].].].].].].].].].].{.].].].].].].].].].].].].].].].].].].].].].].].].].].].].].].].",
"].].].].].].].].].].].].].{.].].]._.).).'.`.k.L T.!.W.W.W.|.F.C.}.{.].].].].].].].].].].].].].].].].].{.].].].].].].].].].].].].].].].].].].].].].].].].].].].].",
"].].].].].].].].].].].].].].].]._.K.v.f.*.*.#.$.E.W.W.W.W.W.C.J.}.{.].].].].].].].].].].].].].].].].].].].].].].].].].].].].].].].].].].].].].].].].].].].].].].",
"].].].].].].].].].].].].].].].].P.s. .X.R.|.|.|.|.W.W.W.W.|.h.^.}.{.].].].].].].].].].].].].].].].].].].].].].].].].].].].].].].].].].].].].].].].].].].].].].].",
"].].].].].].].].].].].].].].]._.l.' J i.W.W.W.W.|.|.W.W.W.|.C.(.}.{.].].].].].].].].].].].].].].].].].].].].].].].].].].].].].].].].{.].].].].].].].].].].].].].",
"].].].].].].].].].].].].].].].).e.9 Y i.W.W.W.W.W.W.W.W.W.|.G.^.}.}.].].].].].].].].].].].].].].].].].].].].].].].].].].].].].].].].].].].].].].].].].].].].].].",
"].].].].].].].].].].].].].].].P.7.8 8 i.W.W.W.W.W.W.W.W.W.W.W.h.}.}.{.{.{.].].].].].].].].].].].].].].].].].].].].].].].].].].].].].].].].].].].].].].].].].].].",
"].].].].].].].].].].].].].].].~.8.w > a.E.W.W.W.W.W.W.W.W.E.|.G.B.[.}.{.{.{.].].].].].].].].].].].{.].].].].].].].].].].].].].].].].].].].].].].].].].].].].].].",
"].].].].].].].].].].].].].].]._.z.r - 0 p.Y.E.E.E.Y.Y.Y.W.u.5.|.n.g.I.}.}.{.{.{.{.{.{.].].].].].].].].].].].].].].].].].].].].].].].].].].].].].].].].].].].].].",
"].].].].].].].].].].].].].].].].F.1.e - 8 / ..o.U P I 6.i.5.f D 5.2.s.B./.[.}.}.{.}.{.{.{.].].].].].].].].].].].].].].].].].].].].].].].].].].].].].].].].].].].",
"].].].].].].].].].].].].].].].]._.v.7.! q Y U  ...) 9 = I <.d h k n A 2.@.;.:.,.m.V.A.I.`.{.].].].].].].].].].].].].].].].].].].].].].].].].].].].].].].].].].].",
"].].].].].].].].].].].].].].].].]._.K.z.r.t.j.l.c.y._ r - 9 d h h k l z n v b V V { O.+.@.;.m.U.].].].].{.{.].].].].].].].].].].].].].].].].].].].].].].].].].].",
"].].].].].].].].].].].].].].].].].].]._.~.~.)._.'.~.c._ w = . d h h h h k k k k l x x x n v D { j.,.S.'.}.}.{.].].].].].].].].].].].].].].].].].].].].].].].].].",
"].].].].].].].].].].].].].].{.{.].].].].].].].].].'.`.l.M 0 O o f h h h k f k k h h h x k k k v b A 3.,.A.}.}.{.].].].].].].].].].].].].].].].].].].].].].].].].",
"].].].].].].].].].].].].].].'.].].].].].].].].].].].{./.a.r : . d h h h h f f k h h x Z k k f B v l v A 0.m.[.}.{.].].].].].].].].].].].].].].].].].].].].].].].",
"].].].].].].].].].].].].].].].].[.].].].].].].].].].].].b.) 9 $ p h h h h h h h h h h h h h h h k f k l b s.h.(.}.{.].].].].].].].].].].].].].].].].].].].].].].",
"].].].].].].].].].].].].].].].].].].].].].].].].].].].].~.e.r @ u f h h h h h h h h h h h h h h f k h n b x 4.m.[. X{.{.].].].].].].].].].].].].].].].].].].].].",
"].].].].].].].].].].].].].].].].].].].{.].].].].].].].].'.d.I = y f h h h h h h h h h h h x Z h f g g l l k v 4.N.[.}.{.{.].{.].].].].].].].].].].].].].].].].].",
"].].].].].].].].].].].].].].].].].].].].].].].].].].].].{.x.r - o f h h h h h h h x Z h h n F l k g g g h h l v 9.B.}.}.{.].].].].].].].].].].].].].].].].].].].",
"].].].].].].].].].].].].].].].].].].].].].].].].].].].].].v.M > 4 k k f h h h h h h x h h h h h h h h h h h h Z A t.J. X}.{.].].].].].].].].].].].].].].].].].].",
"].].].].].].].].].].].].].].].].].].].].].].].].].].].].].b.~ > & d k f h h h h h h h h h h h h h h v l h h k v x S m.[.}.{.].].].].].].].].].].].].].].].].].].",
"].].].].].].].].].].].].].].].].].].].].].].].].].].].].].K.) 5 & s g g h h h h h h h h h x h h h h v l h h h h k b s.A. X{.{.].].].].].].].].].].].].].].].].].",
"].].].].].].].].].].].].].].].].].].].].].].].].].].].].].L.` 6 $ p g g h h h h h h h h h Z x h h h h h h h h h k k A M.[.}.{.].].].].].].].].].].].].].].].].].",
"].].].].].].].].].].].].].].].].].].].].].].].].].].].].].P.7.9 # p h h h h h h h h h h h h h h h h h h h h h h h x H s.^.}.{.{.].].].].].].].].].].].].].].].].",
"].].].].].].].].].].].].].].].].].].].].].].].].].].].].].).r.w @ u f h h h h h h h h h h h h h k l h h h h Z h h k v 4.A. X{.].].].].].].].].].].].].].].].].].",
"].].].].].].].].].].].].].].[.].].].].].].].].].].].].].]._.j.r * o f f h h h h h h h h h h h h n Z h h h n G n h h k D m. X{.{.].].].].].].].].].].].].].].].].",
"].].].].].].].].].].].].].{.].].].].].].].].].].].{.].].].].c.r : & f f h h h h h h h h h h h h h h h h h h l h h h k A f.}.{.{.].].].].].].].].].].].].].].].].",
"].].].].].].].].].].].].].{.].].].].].].].].].].].{.].].].].K.) 5 % p g h h h h h h h h h h h h h h h h l h h h h h h Z f.}.{.{.].].].].].].].].].].].].].].].].",
"].].].].].].].].].].].].].].].].].].].].].].].].].].].].].].P.8.w @ y f h h h h h h h h h h h h h h h h G l h h h v l Z >.[.{.].].].].].].].].].].].].].].].].].",
"].].].].].].].].].].].].].].].].].].].].].].].].].].].].].]._.z.M :   a g h h h h h h h h h h h h h h h h h h h h n l A ,.}.{.{.].].].].].].].].].].].].].].].].",
"].].].].].].].].].].].].].].].].].].].].].].].].].].].].].].].K.1.0 O y f h h h h h h h h h h h h h h h h h h h h h l V N.}.{.].].].].].].].].].].].].].].].].].",
"].].].].].].].].].].].].].].].].].].].].].].].].].].].].].].].).t.r : + p h h h h h h h h h h h h h h h h h h h k k v { S.}.{.{.].].].].].].].].].].].].].].].].",
"].].].].].].].].].].].].].].].].].].].].].].].].].].].].].].].].F.1.w =   a g h h h h h h h h h h h h h h h h h f k v =.'.{.].].].].].].].].].].].].].].].].].].",
"].].].].].].].].].].].].].].].].].].].].].].].{.].].].].].].].].[.l.! 9 O o s f h h h h h h h h h h h h h h h h k k [ N.{.{.].].].].].].].].].].].].].].].].].].",
"].].].].].].].].].].].].].].].].].].].].].].].].].].].].].].].].{.~.j.I 5 O o s g h h h h h h h h h h h h h h h k N *.'.{.{.].].].].].].].].].].].].].].].].].].",
"].].].].].].].].].].].].].].].].].].].].].].].].].].].].].].].].].].~.r.M 9 O 4 i k f f f k g h h h h h g g g c c | H.{.{.].].].].].].].].].].].].].].].].].].].",
"].].].].].].].].].].].].].].].].].].].].].].].].].].].].].].].].].{._.~.p.I 0 = & u a k g g g g h h h h h k k c E V.{.{.].].].].].].].].].].].].].].].].].].].].",
"].].].].].].].].].].].].].].].].].].].].].].].].].].].].].].].].].].]._.~.j.) r : # 4 u s f g g h h h h g g M $.V.].].].].].].].].].].].].].].].].].].].].].].'.",
"].].].].].].].].].].].].].].].].].].].].].].].].].].].].].].].].].].].].].).c.6.! 6 - ; & t p p s s s j m T X.D._.].].{.].].].].].].].].].].].].].].].].].].].{.",
"].].].].].].].].].].].].].].].].].].].].].].].].].].].].].].].].].].].].].]._.K.j.` ~ q 5 , , 1 1 2 K P X.d.K._.].].{.].].].].].].].].].].].].].].].].].].].].].",
"].].].].].].].].].].].].].].].].].].].].].].].].].].].].].].].].].].].].].].{.'.).K.l.e.7.` ) ( ' O.q.j.v.~._.].].].'.].].].].].].].].].].].].].].].].].].].].].",
"].].].].].].].].].].].].].].].].].].].].].].].].].].].].].].].].].].].].].].].].].]._.P.K.v.c.l.c.b.L.U._.].].].].].].].].].].].].].].].].].].].].].].].].].].].",
"].].].].].].].].].].].].].].].].].].].].].].].].].].].].].].].].].].].].].].].].].].].].].]._._._.].].{.].].].].].].].].].].].].].].].].].].].].].].].].].].].].",
"].].].].].].].].].].].].].].].].].].].].].].].].].].].].].].].].].].].].].].].].].].].].].].].].].].].].].].].].].{.].].].].].].].].].].].].].].].].].].].].].].",
"].].].].].].].].].].].].].].].].].].].].].].].].].].].].].].].].].].].].].].].].].].].].].].].].].].].].].].].].].].].].].].].].].].].].].].].].].].].].].].].].",
"].].].].].].].].].].].].].].].].].].].].].].].].].].].].].].].].].].].].].].].].].].].].].].].].].].].].].].].].].].].].].].].].].].].].].].].].].].].].].].].].",
"].].].].].].].].].].].].].].].].].].].].].].].].].].].].].].].].].].].].].].].].].].].].].].].].].].].].].].].].].].].].].].].].].].].].].].].].].].].].].].].].",
"].].].].].].].].].].].].].].].].].].].].].].].].].].].].].].].].].].].].].].].].].].].].].].].].].].].].].].].].].].].].].].].].].].].].].].].].].].].].].].].].",
"].].].].].].].].].].].].].].].].].].].].].].].].].].].].].].].].].].].].].].].].].].].].].].].].].].].].].].].].].].].'.].].].].].].].].].].].].].].].].].].].].",
"].].].].].].].].].].].].].].].].].].].].].].].].].].].].].].].].].].].].].].].].].].].].].].].].].].].].].].].].].].{.'.].].].].].].].].].].].].].].].].].].].].",
"].].].].].].].].].].].].].].].].].].].].].].].].].].].].].].].].].].].].].].].].].].].].].].].].].].].].].].].].].].{.'.].].].].].].].].].].].].].].].].].].].].",
"].].].].].].].].].].].].].].].].].].].].].].].].].].].].].].].].].].].].].].].].{.].].].].].].].].].].].].].].].].].].].].].].].].].].].].].].].].].].].].].].].",
"].].].].].].].].].].].].].].].].].].].].].].].].].].].].].].].].].].].].].].].].].].].].].].].].].].].].].].].].].].].].].].].].].].].].].].].].].].].].].].].].",
"].].].].].].].].].].].].].].].].].].].].].].].].].].].].].].].].].].].].].].].].].].].].].].].].].].].].].].].].].].].].].].].].].].].].].].].].].].].].].].].].",
"].].].].].].].].].].].].].].].].].].].].].].].].].].].].].].].].].].].].].].].].].].].].].].].].].].].].].].].].].].].].].].].].].].].].].].].].].].].].].].].].",
"].].].].].].].].].].].].].].].].].].].].].].].].].].].].].].].].].].].].].].].].].].].].].].].].].].].].].].].].].].].].].].].].].].].].].{.].].].].].].].].].].",
"].].].].].].].].].].].].].].].].].].].].].].].].].].].].].].].].].].].].].].].].].].].].].].].].].].].].].].].].].].].].].].].].].].{.'.'.].].].].].].].].].].].",
"].].].].].].].].].].].].].].].].].].].].].].].].].].].].].].].].].].].].].].].].].].].].].].].].].].].].].].].].].].].].].].].].].].].].{.].].].].].].].].].].].",
"].].].].].].].].].].].].].].].].].].].].].].].].].].].].].].].].].].].].].].].].].].].].].].].].].].].].{.].].].].].].].].].].].].].].].].].].].].].].].].].].]."
};
