/* XPM */
static char *object701675337815[] = {
/* columns rows colors chars-per-pixel */
"80 80 195 2 ",
"   c #683C3F",
".  c #6F413E",
"X  c #774838",
"o  c #4E264D",
"O  c #4C205C",
"+  c #552954",
"@  c #5C304A",
"#  c #68384B",
"$  c #4C1E69",
"%  c #4E236B",
"&  c #532B6C",
"*  c #5A2960",
"=  c #57326D",
"-  c #58336E",
";  c #592677",
":  c #5E3774",
">  c #672E76",
",  c #6C307D",
"<  c #6F4042",
"1  c #724242",
"2  c #654475",
"3  c #6A4C76",
"4  c #684A7A",
"5  c #6E5379",
"6  c #6D5176",
"7  c #73567C",
"8  c #775C7B",
"9  c #785D7C",
"0  c #7E667F",
"q  c #804E3B",
"w  c #835231",
"e  c #8A5634",
"r  c #8E5935",
"t  c #925B37",
"y  c #955D38",
"u  c #985F39",
"i  c #9B613A",
"p  c #A4663D",
"a  c #A7683F",
"s  c #A8693F",
"d  c #975B46",
"f  c #AA6C42",
"g  c #AD7047",
"h  c #AE724B",
"j  c #B1754D",
"k  c #A86857",
"l  c #B37A54",
"z  c #B57E59",
"x  c #B27750",
"c  c #944F70",
"v  c #B47B79",
"b  c #B07565",
"n  c #B6815E",
"m  c #BB835D",
"M  c #B88564",
"N  c #BA8869",
"B  c #B78873",
"V  c #C18B67",
"C  c #C39272",
"Z  c #5E2584",
"A  c #6F3099",
"S  c #743B98",
"D  c #6D2D8D",
"F  c #75568A",
"G  c #794D94",
"H  c #843A96",
"J  c #8735BE",
"K  c #9F5097",
"L  c #825698",
"P  c #806780",
"I  c #856C86",
"U  c #896F89",
"Y  c #8B6D96",
"T  c #906C9A",
"R  c #927593",
"E  c #977A97",
"W  c #9B7D9B",
"Q  c #94719C",
"!  c #8A708B",
"~  c #AE6D92",
"^  c #B27599",
"/  c #B17584",
"(  c #8457A1",
")  c #A45AA0",
"_  c #9266A5",
"`  c #9976A5",
"'  c #9665B2",
"]  c #8D65A7",
"[  c #AF70A2",
"{  c #AF6DB0",
"}  c #B374B9",
"|  c #8F3AC7",
" . c #9340CB",
".. c #9959C0",
"X. c #A455D8",
"o. c #AF6AC6",
"O. c #AE69D3",
"+. c #B16CDE",
"@. c #B279CD",
"#. c #B87BE1",
"$. c #9E809E",
"%. c #9D948E",
"&. c #BA8487",
"*. c #BC8799",
"=. c #BAA89C",
"-. c #998DA2",
";. c #A384A3",
":. c #AB8BAB",
">. c #BE89A9",
",. c #AF8AB2",
"<. c #B887B7",
"1. c #B693B6",
"2. c #B996B9",
"3. c #BF9ABF",
"4. c #BFBFBF",
"5. c #B4B2B5",
"6. c #B2ADAA",
"7. c #C08DB7",
"8. c #AE8ACF",
"9. c #B08CCF",
"0. c #B18ED0",
"q. c #BC86D9",
"w. c #B592D2",
"e. c #B897D4",
"r. c #BB9BD6",
"t. c #BE9ED8",
"y. c #BE91C9",
"u. c #BFA0D8",
"i. c #BD81E2",
"p. c #BF88E4",
"a. c #C39DC3",
"s. c #C69EC9",
"d. c #CDA5CD",
"f. c #C7A1C7",
"g. c #C5BFC9",
"h. c #C3A4DA",
"j. c #C6A9DD",
"k. c #C9ACDE",
"l. c #C8ACD7",
"z. c #D3ABD3",
"x. c #D9AFD9",
"c. c #DCB2DC",
"v. c #C48DE5",
"b. c #C592E5",
"n. c #CA9AE7",
"m. c #D29AEA",
"M. c #CDADE2",
"N. c #C8A3E2",
"B. c #D3A4EC",
"V. c #D6ABED",
"C. c #DAA9EA",
"Z. c #CEB2E1",
"A. c #D1B5E3",
"S. c #D5BAE5",
"D. c #D8BEE7",
"F. c #D9BEE8",
"G. c #DBB0EF",
"H. c #DEB5F0",
"J. c #DDA7F0",
"K. c #E2B7E2",
"L. c #E5B9E5",
"P. c #EBBEEB",
"I. c #E5BAF3",
"U. c #CBCBCB",
"Y. c #C0C0C0",
"T. c #D3D2D3",
"R. c #DDDDDD",
"E. c #D2C3DC",
"W. c #DCC2EA",
"Q. c #DBC5E8",
"!. c #DFD8E5",
"~. c #E2C4ED",
"^. c #EEC1EE",
"/. c #E3CBEE",
"(. c #E5C3F2",
"). c #E9C4F3",
"_. c #E6CDF0",
"`. c #EBCCF3",
"'. c #EFCAF8",
"]. c #F3C4F3",
"[. c #F3CCF7",
"{. c #F5CEF9",
"}. c #FFCEFF",
"|. c #F5C6FB",
" X c #E6D1F0",
".X c #ECD4F4",
"XX c #EED9F5",
"oX c #F1D4F7",
"OX c #F1DAF7",
"+X c #F5D3FA",
"@X c #FED3FE",
"#X c #F5DAF9",
"$X c #FCDBFE",
"%X c #E2E2E2",
"&X c #FFE0FF",
/* pixels */
"}.}.}.}.}.}.}.}.}.}.}.}.}.}.}.}.{.@X}.}.}.}.}.}.}.}.}.}.}.}.}.}.}.}.}.}.}.}.}.}.}.}.}.}.}.}.}.}.}.}.}.}.}.}.}.}.}.}.}.}.}.}.}.}.}.}.}.}.}.}.}.}.}.}.}.}.}.}.}.}.",
"}.}.}.}.}.}.}.}.}.}.}.}.}.}.}.@X'.{.@X}.}.}.}.}.}.}.}.}.}.}.}.}.}.}.}.}.}.}.}.}.}.}.}.}.}.}.}.}.}.}.}.}.}.}.}.}.}.}.}.}.}.}.}.}.}.}.}.}.}.}.}.}.}.}.}.}.}.}.}.}.",
"}.}.}.}.}.}.}.}.}.}.}.}.}.}.}.@X~.`.@X}.}.}.}.}.}.}.}.}.}.}.}.}.}.}.}.}.}.}.}.}.}.}.}.}.}.}.}.}.}.}.}.}.}.}.}.}.}.}.}.}.}.}.}.}.}.}.}.}.}.}.}.}.}.}.}.}.}.}.}.}.",
"}.}.}.}.}.}.}.}.}.}.}.}.}.}.@X$XS.~.@X}.}.}.}.}.}.}.}.}.}.}.}.}.}.}.}.}.}.}.}.}.}.}.}.}.}.}.}.}.}.}.}.}.}.}.}.}.}.}.}.}.}.}.}.}.}.}.}.}.}.}.}.}.}.}.}.}.}.}.}.}.",
"}.}.}.}.}.}.}.}.}.}.}.}.}.}.@X$Xh.A.$X@X}.}.}.}.}.}.}.}.}.}.}.}.}.}.}.}.}.}.}.}.}.}.}.}.}.}.}.}.}.}.}.}.}.}.}.}.}.}.}.}.}.}.}.}.}.}.}.}.}.}.}.}.}.}.}.}.}.}.}.}.",
"}.}.}.}.}.}.}.}.}.}.}.}.}.}.@X Xe.t.#X@X}.}.}.}.}.}.}.}.}.}.}.}.}.}.}.}.}.}.}.}.}.}.}.}.}.}.}.}.}.}.}.}.}.}.}.}.}.}.}.}.}.}.}.}.}.}.}.}.}.}.}.}.}.}.}.}.}.}.}.}.",
"}.}.}.}.}.}.}.}.}.}.}.}.@X@X#XA.0.0.S.#X@X@X}.}.}.}.}.}.}.}.}.}.}.}.}.}.}.}.}.}.}.}.}.}.}.}.}.}.}.}.}.}.}.}.}.}.}.}.}.}.}.}.}.}.}.}.}.}.}.}.}.}.}.}.}.}.}.}.}.}.",
"}.}.}.}.}.}.}.}.}.}.}.@X+XXXS.e.9.9.w.W.oX+X@X}.}.}.}.}.}.}.}.}.}.}.}.}.}.}.}.}.}.}.}.}.}.}.}.}.}.}.}.}.}.}.}.}.}.}.}.}.}.}.}.}.}.}.}.}.}.}.}.}.}.}.}.}.}.}.}.}.",
"}.}.}.}.}.}.}.}.}.}.}.{.~.k.w.8.8.8.8.w.k./.}.@X}.}.}.}.}.}.}.}.}.}.}.}.}.}.}.}.}.}.}.}.}.}.}.}.}.}.}.}.}.}.}.}.}.}.}.}.}.}.}.}.}.}.}.}.}.}.}.}.}.}.}.}.}.}.}.}.",
"}.}.}.}.}.}.}.}.}.}.}.+X_.A.r.9.8.8.8.u.A._.{.@X}.}.}.}.}.}.}.}.}.}.}.}.}.}.}.}.}.}.}.}.}.}.}.}.}.}.}.}.}.}.}.}.}.}.}.}.}.}.}.}.}.}.}.}.}.}.}.}.}.}.}.}.}.}.}.}.",
"}.}.}.}.}.}.}.}.}.}.}.@X$X#X~.u.8.9.t. X$X@X@X}.}.}.}.}.}.}.}.}.}.}.}.}.}.}.}.}.}.}.}.}.}.}.}.}.}.}.}.}.}.}.}.}.}.}.}.}.}.}.}.}.}.}.}.}.}.}.}.}.}.}.}.}.}.}.}.}.",
"}.}.}.}.}.}.}.}.}.}.}.}.}.@X#XS.w.w.~.$X@X}.}.}.}.}.}.}.}.}.}.}.}.}.}.}.}.}.}.}.}.}.}.}.}.}.}.}.}.}.}.}.}.}.}.}.}.}.}.}.}.}.}.}.}.}.}.}.}.}.}.}.}.}.}.}.}.}.}.}.",
"}.}.}.}.}.}.}.}.}.}.}.}.}.@X@X.Xr.h.#X@X}.}.}.}.}.}.}.}.}.}.}.}.}.}.}.}.}.}.}.}.}.}.}.}.}.}.}.}.}.}.}.}.}.}.}.}.}.}.}.}.}.}.}.}.}.}.}.}.}.}.}.}.}.}.}.}.}.}.}.}.",
"}.}.}.}.}.}.}.}.}.}.}.}.}.}.@X#Xj.S.$X@X}.}.}.}.}.}.}.}.}.}.}.}.}.}.}.}.}.}.}.}.}.}.}.}.}.}.}.}.}.}.}.}.}.}.}.}.}.}.}.}.}.}.}.}.}.}.}.}.}.}.}.}.}.}.}.}.}.}.}.}.",
"}.}.}.}.}.}.}.}.}.}.}.}.@X[.+X$XS.~.@X}.}.}.}.}.}.}.}.}.}.}.}.}.}.}.}.}.}.}.}.}.}.}.}.}.}.}.}.}.}.}.}.}.}.}.}.}.}.}.}.}.}.}.}.}.}.}.}.}.}.}.}.}.}.}.}.}.}.}.}.}.",
"}.}.}.}.}.}.}.}.}.}.}.}.$X~./.$X~.`.@X}.}.}.}.}.}.}.}.}.@X}.@X}.}.}.}.}.}.}.}.}.}.}.}.}.}.}.}.}.}.}.}.}.}.}.}.}.}.}.}.}.}.}.}.}.}.}.}.}.}.}.}.}.}.}.}.}.}.}.}.}.",
"}.}.}.}.}.}.}.}.}.}.}.@X.Xk.Z..X`.+X@X}.}.}.}.|.{.}.@X@X$X@X@X@X}.}.}.}.}.}.}.}.}.}.}.}.}.}.}.}.}.}.}.}.}.}.}.@X{.{.@X}.}.}.}.}.}.}.}.}.}.}.}.}.}.}.}.}.}.}.}.}.",
"}.}.}.}.}.}.}.}.}.}.}.[.Z.e.e.Z.`.@X}.}.}.}.{.^.I.I.m.B.I.$X$X@X}.}.}.}.}.}.}.}.}.}.}.}.}.}.}.}.}.}.}.}.}.}.}.@X(.{.@X}.}.}.}.}.}.}.}.}.}.}.}.}.}.}.}.}.}.}.}.}.",
"}.}.}.}.}.}.}.}.}.}.@X+XQ.u.u._.@X@X}.}.}.|.L.d.@.| q.N.n.p.+X$X@X@X}.}.}.}.}.}.}.}.}.}.}.}.}.}.}.}.}.}.}.}.@X$XS./.@X}.}.}.}.}.}.}.}.}.}.}.}.}.}.}.}.}.}.}.}.}.",
"}.}.}.}.}.}.}.}.}.}.}.@X$XQ.Q.#X@X@X}.}.}.].a.T G U.R.R.%XQ.b.$X$X}.}.}.}.}.}.}.}.}.}.}.}.}.}.}.}.}.}.}.}.}.}.$Xk.Q.$X}.}.}.}.}.}.}.}.}.}.}.}.}.}.}.}.}.}.}.}.}.",
"}.}.}.}.}.}.}.}.}.}.}.}.@X).`.@X}.}.}.}.}.K.W : -.T.R.R.R.%XM.I.$X@X@X}.}.}.}.}.}.}.}.}.}.}.}.}.}.}.}.}.}.}.@XOXe.j.$X@X}.}.}.}.}.}.}.}.}.}.}.}.}.}.}.}.}.}.}.}.",
"}.}.}.}.}.}.}.}.}.}.}.}.@X{.+X@X}.}.}.}.}.P.W ; 5.R.R.R.R.%XQ.V.$X@X}.}.}.}.}.}.}.}.}.}.}.}.}.}.}.}.}.}.}.@X$XS.w.w. X@X}.}.}.}.}.}.}.}.}.}.}.}.}.}.}.}.}.}.}.}.",
"}.}.}.}.}.}.}.}.}.}.}.}.@X}.@X}.}.].].].}.|.s.A g.R.R.R.R.%XS.B.$X@X}.}.}.}.}.}.}.}.}.}.}.}.@X@X[.@X}.}.@X$X/.t.8.9.h..X$X}.}.}.}.}.}.}.}.}.}.}.}.}.}.}.}.}.}.}.",
"}.}.}.}.}.}.}.}.}.}.}.}.}.}.}.}.|.L.z.q.X.X.| J T.R.R.R.R.R.M.G.$X@X}.}.}.}.}.}.}.}.}.}.}.}.}.@X~.@X@X+X.XS.r.0.8.8.0.t.W..X@X@X}.}.}.}.}.}.}.}.}.}.}.}.}.}.}.}.",
"}.}.}.}.}.}.}.}.}.}.}.}.}.}.}.}.P.a._ ' E.%X%X%X%XR.%XR.R.%Xb.).$X@X}.}.}.}.}.}.}.}.}.}.}.}.@X.XZ.#X@X[.A.e.8.8.8.8.8.8.r.D.{.@X}.}.}.}.}.}.}.}.}.}.}.}.}.}.}.}.",
"}.}.}.}.}.}.}.}.}.}.}.}.}.}.}.|.z.R Z 5.R.R.R.R.%X%XR.R.R.%Xt.'.$X@X}.}.}.}.}.}.}.}.}.}.}.@X$XQ.t./.#X@X$X.Xj.w.8.8.w.S.OX$X@X}.}.}.}.}.}.}.}.}.}.}.}.}.}.}.}.}.",
"}.}.}.}.}.}.}.}.}.}.}.}.}.}.}.].1.3 F 4.R.R.R.R.R.R.R.R.R.%XM.I.&X@X@X@X}.}.}.}.}.}.}.}.@X@X Xh.8.t. X+X@X@X#Xj.8.w.S.$X@X}.}.}.}.}.}.}.}.}.}.}.}.}.}.}.}.}.}.}.",
"}.}.}.}.}.}.}.}.}.}.}.}.}.}.}.P.;.2 2 4.R.R.R.R.R.R.R.R.R.%X!.r.$X$X@X@X}.}.}.}.}.}.}.}.@XW.u.8.8.8.h.~.+X@X$X/.w.r.XX@X@X}.}.}.}.}.}.}.}.}.}.}.}.}.}.}.}.}.}.}.",
"}.}.}.}.}.}.}.}.}.}.}.}.}.}.}.P.:.7 = 6.T.R.%XR.R.R.R.R.R.T.%XA.m.+X$X$X@X@X@X}.}.}.}.}.@X+X Xh.9.h. X+X@X}.@X#Xt.Z.$X}.}.}.}.@X}.}.}.}.}.}.}.}.}.}.}.}.}.}.}.}.",
"}.}.}.}.}.}.}.}.}.}.}.}.}.}.}.].f.F = 5 5.U.T.T.U.U.U.T.R.6.=.%Xl.#.).$X$X@X@X@X@X@X@X}.@X@X$XW.r./.$X@X}.}.}.$Xk.W.$X}.}.}.}.}.}.}.}.}.}.}.}.}.}.}.}.{.}.}.}.}.",
"}.}.}.}.}.}.}.}.}.}.}.}.}.}.}.}.L.;.0 = 4 F -.] G G G -.4.=.p B =.&.7.m.).+X$X@X@X$X@X@X@X@X@XoXZ.OX@X}.}.}.}.$XF._.@X@X}.@X+X[.@X}.}.}.}.}.}.}.}.}.}.}.}.}.}.}.",
"}.}.}.}.}.}.}.}.}.}.}.}.}.}.}.}.{.z.;.c F F G ] ` Y 4 % F %.i s f x M / } O.+.i.v.m.J.I.'.@X$X+X~.$X@X}.@X}.}.@X).{.@X}.}.@X`.W.+X@X@X}.}.}.}.}.}.}.}.}.}.}.}.}.",
"}.}.}.}.}.}.}.}.}.}.}.}.}.}.}.}.}.|.K.f.1.2.f.d.z.3.E 0 = 6 t p f f g h x l z v v ^ ^ { o.O.i.G.(.@X$X@X@X@X@X@X{.}.}.}.@XoXS.j./.+X@X}.}.}.}.}.}.}.}.}.}.}.}.}.",
"}.}.}.}.}.}.}.}.}.}.}.}.}.}.}.}.}.}.}.].^.^.].].].).z.E 8 $ . i a a s s s f f g g h h j x z v *.<.#.B.+X$X$X@X}.}.}.}.}.+XF.r.w.M._.@X}.}.}.}.}.}.}.}.}.}.}.}.}.",
"}.}.}.}.}.}.}.}.}.}.}.}.}.@X}.@X@X}.}.}.}.}.}.}.}.}.[.d.I 3 o w p a a s a p f f s s s j f f f x n M >.+.C.$X&X@X@X}.}.@X@X Xk.r.W.+X}.}.}.}.}.}.}.}.}.}.}.}.}.}.",
"}.}.}.}.}.}.}.}.}.}.}.}.}.@X).+X}.}.}.}.}.}.}.}.}.}.@X_.2.c =   i a a s a f p p s s j m f f f z x g x N <.b.+X&X@X@X}.}.@X@X/.A..X@X@X}.}.}.}.}.}.}.}.}.}.}.}.}.",
"}.}.}.}.}.}.}.}.}.}.}.}.}.$XS.oX@X@X}.}.}.}.}.}.}.}.}.}.c.R 5 + t s s s s s s s s s s s s s s s a s s h n *.p.`.$X$X@X@X}.@X[._.@X}.}.}.}.}.}.}.}.}.}.}.}.}.}.}.",
"}.}.}.}.}.}.}.}.}.}.}.@X+X Xt.S.OX@X}.}.}.}.}.}.}.}.}.}.^.1.0 O e a s s s s s s s s s s s s s s s s s x m l *.p.+X$X@X@X}.@X}.{.}.}.}.}.}.}.}.}.}.}.}.}.}.}.}.}.",
"}.}.}.}.}.}.}.}.}.}.}.@X_.j.w.e.W.+X}.@X}.}.}.}.}.}.}.}.{.7.0 % w p s s s s s s s s s s s j m s s s s g h f l *.v.#X$X@X}.}.@X}.}.}.}.}.}.}.}.}.}.}.}.}.}.}.}.}.",
"}.}.}.}.}.}.}.}.}.}.}.@X+XQ.w.j..X@X}.{.}.}.}.}.}.}.}.}.}.d.0 & X p s s s s s s s j m s s l V g s s s s a s g z >.n.$X$X@X}.}.}.}.}.}.}.}.}.}.}.}.}.}.}.}.}.}.}.",
"}.}.}.}.}.}.}.}.}.}.}.}.@X#Xk./.@X@X+X[.}.}.}.}.}.}.}.}.}.z.0 = 1 p f s s s s s s s h s s s s s s s s s s s s m M 7.H.$X$X}.}.}.}.}.}.}.}.}.}.}.}.}.}.}.}.}.}.}.",
"}.}.}.}.}.}.}.}.}.}.}.}.@X@X~.+X@X@X+X(.+X@X}.}.}.}.}.}.}.c.U : # i s s s s s s s s s s s s s s s s z g s s f z j B v.+X$X@X}.}.}.}.}.}.}.}.}.}.}.}.}.}.}.}.}.}.",
"}.}.}.}.}.}.}.}.}.}.}.}.}.@X[.@X}.@X.XS.oX@X}.}.}.}.}.}.}.c.E 2 # y s s s s s s s s s s s j s s s s l f s s s s s z 7.A.&X@X}.}.}.}.}.}.}.}.}.}.}.}.}.}.}.}.}.}.",
"}.}.}.}.}.}.}.}.}.}.}.}.}.}.}.}.}.@X/.j.`.@X}.}.}.}.}.}.}.L.W 3 + y s s s s s s s s s s s m j s s s s s s s s s s g M v.$X$X@X}.}.}.}.}.}.}.}.}.}.}.}.}.}.}.}.}.",
"}.}.}.}.}.}.}.}.}.}.}.}.}.}.}.}.@X#XS.w.Q.$X@X}.}.}.}.}.@X^.-.6 + r s s s s s s s s s s s s s s s s s s s s s s s j C 7.(.$X@X@X}.}.}.}.}.}.}.}.}.}.}.}.}.}.}.}.",
"}.}.}.}.}.}.}.}.}.}.}.}.}.}.}.@X@XXXh.8.h..X@X@X}.}.}.}.@X].1.0 O e s s s s s s s s s s s s s s f g s s s f z f s f z *.B.&X@X}.}.}.}.}.}.}.}.}.}.}.}.}.}.}.}.}.",
"}.}.}.}.}.}.}.}.}.}.}.}.}.@X@X@X.Xj.8.8.0.Z..X+X@X@X}.}.}.{.y.0 $ X p s s s s s s s s s s s s s x m s s s j V j s s f B v.&X@X@X}.}.}.}.}.}.}.}.}.}.}.}.}.}.}.}.",
"}.}.}.}.}.}.}.}.}.}.}.}.}.@X_.Q.u.9.8.8.8.w.h.W.[.}.}.}.}.}.Z.c = # i s s s s s s s s s s s s s s s s s s s g s s s f M q.$X$X}.}.}.}.}.}.}.}.}.}.}.}.}.}.}.}.}.",
"}.}.}.}.}.}.}.}.}.}.}.}.}.}._.A.u.w.8.8.8.w.j.D.'.@X}.}.}.}.c.R 2 @ t a s s s s s s s s s s s s s s s s g s s s s s s m #.$X@X@X}.}.}.}.}.}.}.}.}.}.}.}.}.}.}.}.",
"}.}.}.}.}.}.}.}.}.}.}.}.}.}.@X$X Xk.0.8.w.A..X$X@X}.}.}.}.}.^.:.8 + X p s s s s s s s s s s s s s s s s V g s s s z j m @.$X@X}.}.}.}.}.}.}.}.}.}.}.}.}.}.}.}.}.",
"}.}.}.}.}.}.}.}.}.}.}.}.}.}.}.@X@X.Xh.9.k.XX@X@X}.}.}.}.}.}.|.f.0 =   y a s s s s s s s s s s s s s s s s s s s s x g m #.$X@X@X}.}.}.}.}.}.}.}.}.}.}.}.}.}.}.}.",
"}.}.}.}.}.}.}.}.}.}.}.}.}.}.}.}.}.$XA.e.Q.#X@X}.}.}.}.}.}.}.}.K.E 6 o w p s s s s s s s s s s s s s s s s s s s s s g v b.$X@X}.}.}.}.}.}.}.}.}.}.}.}.}.}.}.}.}.",
"}.}.}.}.}.}.}.}.}.}.}.}.}.}.}.}.}.@X/.j. X@X}.}.}.}.}.}.}.}.}.].3.0 = @ t p a s s s s s s s s s s s s s s s s s s s x ^ G.$X@X}.}.}.}.}.}.}.}.}.}.}.}.}.}.}.}.}.",
"}.}.}.}.}.}.}.}.}.}.}.}.}.}.}.}.}.@X.XS.oX+X}.}.}.}.}.}.}.}.}.}.K.$.8 % X i a a s s s s s s s s s s s s s s s s s f z O.[.@X}.}.}.}.}.}.}.}.}.}.}.}.}.}.}.}.}.}.",
"}.}.}.}.}.}.}.}.}.}.}.}.}.}.}.}.}.@X{.~.+X}.}.}.}.}.}.}.}.}.}.}.+Xd.U 3 o X u p s s s s s s s s s s s s s s s s s g ~ b.@X@X}.}.}.}.}.}.}.}.}.}.}.}.}.}.}.}.}.}.",
"}.}.}.}.}.}.}.}.}.}.}.}.}.}.}.}.}.}.{.[.+X}.}.}.}.}.}.}.}.}.}.}.@X/.r.c > o X u p s s s s s s s s s s s s s s s f b X.[.@X}.}.}.}.}.}.}.}.}.}.}.}.}.}.}.}.}.}.}.",
"}.}.}.}.}.}.}.}.}.}.}.}.}.}.}.}.}.}.}.}.}.@X}.}.}.}.}.}.}.}.}.}.}.{.P.1.c 8 o . t f p f f p a a s s a a a a f g k ) J.@X}.}.}.}.}.}.}.}.}.}.}.}.}.}.}.}.}.}.}.}.",
"}.}.}.}.}.}.}.}.}.}.}.}.}.}.}.}.}.}.}.}.}.}.}.}.}.}.}.}.}.}.}.}.}.}.{.P.y.F 6 & # w u p a a a a s a a f a f f k K m.@X@X}.}.}.}.}.}.}.}.}.}.}.}.}.}.}.}.}.}.}.[.",
"}.}.}.}.}.}.}.}.}.}.}.}.}.}.}.}.}.}.}.}.}.}.}.}.}.}.}.}.}.}.}.}.@X{.{.}.^.a.$.8 = + 1 r u p a f s s f p a a c | m.}.}.}.}.}.}.}.}.}.}.}.}.}.}.}.}.}.}.}.}.}.}.}.",
"}.}.}.}.}.}.}.}.}.}.}.}.}.}.}.}.}.}.}.}.}.}.}.}.}.}.}.}.}.}.}.}.@X[._.@X}.).g.$.I 5 & + # q r y u u y d c H ' C.|.}.}.@X@X}.}.}.}.}.}.@X}.}.}.}.}.}.}.}.}.}.}.}.",
"}.}.}.}.}.}.}.}.}.}.}.}.}.}.}.}.}.}.}.}.}.}.}.}.}.}.}.}.}.}.}.}.@X/.S.$X}.}.].L.a.$.! 7 > ; ; > > , D S ' y.K.].}.}.@X{.}.@X}.}.}.}.}.}.}.}.}.}.}.}.}.}.}.}.}.}.",
"}.}.}.}.}.}.}.}.}.}.}.}.}.}.}.}.}.}.}.}.}.}.}.}.}.}.}.}.}.}.}.@X&XS.h.OX+X@X}.}.].c.f.1.;.W Q R Q [ ,.a.z.^.}.}.}.}.@X_.[.@X}.}.}.}.@X{.{.@X}.}.}.}.}.}.}.}.}.}.",
"}.}.}.}.}.}.}.}.}.}.}.}.}.}.}.}.}.}.}.}.}.}.}.}.}.}.}.}.}.@X@X+X.Xu.e.S.oX@X}.}.}.}.].^.L.x.z.d.z.x.L.P.|.}.}.}.}.}.$XW.~.@X}.}.}.}.@X_.[.@X}.}.}.}.}.}.}.}.}.}.",
"}.}.}.}.}.}.}.}.}.}.}.}.}.}.}.}.}.}.}.}.}.}.}.}.}.}.}.}.}.@X+XQ.h.w.9.w.A..X@X@X}.@X@X}.@X@X|.|.|.}.}.}.}.}.}.}.}.@X&Xk.S.OX@X}.}.@X@XF./.@X}.}.}.}.}.}.}.}.}.}.",
"}.}.}.}.}.}.}.}.}.}.}.}.}.}.}.}.}.}.}.}.}.}.}.}.}.}.}.}.}.}.~.j.w.8.8.9.t.S.{.}.@X|.@X}.}.}.}.}.}.}.}.}.}.}.}.}.@X+XW.e.r.Q.+X@X@X@X$Xk.S.$X@X}.}.}.}.}.}.}.}.}.",
"}.}.}.}.}.}.}.}.}.}.}.}.}.}.}.}.}.}.}.}.}.}.}.}.}.}.}.}.}.}.@XoXQ.w.0.h. X$X@X@X@X_.+X@X}.}.}.}.}.}.}.}.}.}.}.@X+XS.r.8.8.r.D.+X}.@XXXu.h.&X}.}.}.}.}.}.}.}.}.}.",
"}.}.}.}.}.}.}.}.}.}.}.}.}.}.}.}.}.}.}.}.}.}.}.}.}.}.}.}.}.}.@X@X$Xk.h. X+X@X}.@X#XZ.oX@X}.}.}.}.}.}.}.}.}.}.}.}.+X`.j.w.w.k. X@X@X$XW.w.w. X@X@X}.}.}.}.}.}.}.}.",
"}.}.}.}.}.}.}.}.}.}.}.}.}.}.}.}.}.}.}.}.}.}.}.}.}.}.}.}.}.}.}.}.$XW.k.#X@X@X@X+XS.r.S.+X@X}.}.}.}.}.}.}.}.}.}.}.@X@XXXh.j..X$X@X$X_.u.8.8.r. X$X@X}.}.}.}.}.}.}.",
"}.}.}.}.}.}.}.}.}.}.}.}.}.}.}.}.}.}.}.}.}.}.}.}.}.}.}.}.}.}.}.}.@X`.W.+X}.}.@XW.r.0.r.W.+X}.}.}.}.}.}.}.}.}.}.}.}.}.$XS.Q.#X@X.XS.r.0.8.8.8.r.S.oX@X}.}.}.}.}.}.",
"}.}.}.}.}.}.}.}.}.}.}.}.}.}.}.}.}.}.}.}.}.}.}.}.}.}.}.}.}.}.}.}.@X[.'.@X}.}.@X+XW.e.S.$X@X}.}.}.}.}.}.}.}.}.}.}.}.}.@X~.`.@X[.A.r.8.8.8.8.8.9.r.A.{.@X}.}.}.}.}.",
"}.}.}.}.}.}.}.}.}.}.}.}.}.}.}.}.}.}.}.}.}.}.}.}.}.}.}.}.}.}.}.}.@X}.{.}.}.}.}.@X#XA.OX@X}.}.}.}.}.}.}.}.}.}.}.}.}.}.@X_.+X@X@X$XXXZ.w.8.8.w.S.OX$X@X}.}.}.}.}.}.",
"}.}.}.}.}.}.}.}.}.}.}.}.}.}.}.}.}.}.}.}.}.}.}.}.}.}.}.}.}.}.}.}.}.}.}.@X}.}.}.}.@X(.+X}.}.}.}.}.}.}.}.}.}.}.}.}.}.}.}.}.}.}.}.}.@XOXZ.9.9.A.&X@X}.}.}.}.}.}.}.}.",
"}.}.}.}.}.}.}.}.}.}.}.}.}.}.}.}.}.}.}.}.}.}.}.}.}.}.}.}.}.}.}.}.}.}.}.}.}.}.}.}.@X{.}.}.}.}.}.}.}.}.}.}.}.}.}.}.}.}.}.}.}.}.}.}.@X@X Xr.r.OX@X}.}.}.}.}.}.}.}.}.",
"}.}.}.}.}.}.}.}.}.}.}.}.}.}.}.}.}.}.}.}.}.}.}.}.}.}.}.}.}.}.}.}.}.}.}.}.}.}.}.}.}.@X}.}.}.}.}.}.}.}.}.}.}.}.}.}.}.}.}.}.}.}.}.}.@X@X#Xh.k.$X@X}.}.}.}.}.}.}.}.}.",
"}.}.}.}.}.}.}.}.}.}.}.}.}.}.}.}.}.}.}.}.}.}.}.}.}.}.}.}.}.}.}.}.}.}.}.}.}.}.}.}.}.}.}.}.}.}.}.}.}.}.}.}.}.}.}.}.}.}.}.}.}.}.}.}.}.}.$XZ.W.$X}.}.}.}.}.}.}.}.}.}.",
"}.}.}.}.}.}.}.}.}.}.}.}.}.}.}.}.}.}.}.}.}.}.}.}.}.}.}.}.}.}.}.}.}.}.}.}.}.}.}.}.}.}.}.}.}.}.}.}.}.}.}.}.}.}.}.}.}.}.}.}.}.}.}.}.}.@X@XF.`.@X}.}.}.}.}.}.}.}.}.}.",
"}.}.}.}.}.}.}.}.}.}.}.}.}.}.}.}.}.}.}.}.}.}.}.}.}.}.}.}.}.}.}.}.}.}.}.}.}.}.}.}.}.}.}.}.}.}.}.}.}.}.}.}.}.}.}.}.}.}.}.}.}.}.}.}.}.}.@X).[.@X}.}.}.}.}.}.}.}.}.}.",
"}.}.}.}.}.}.}.}.}.}.}.}.}.}.}.}.}.}.}.}.}.}.}.}.}.}.}.}.}.}.}.}.}.}.}.}.}.}.}.}.}.}.}.}.}.}.}.}.}.}.}.}.}.}.}.}.}.}.}.}.}.}.}.}.}.}.@X{.}.@X}.}.}.}.}.}.}.}.}.}.",
"}.}.}.}.}.}.}.}.}.}.}.}.}.}.}.}.}.}.}.}.}.}.}.}.}.}.}.}.}.}.}.}.}.}.}.}.}.}.}.}.}.}.}.}.}.}.}.}.}.}.}.}.}.}.}.}.}.}.}.}.}.}.}.}.}.}.@X}.@X}.}.}.}.}.}.}.}.}.}.}.",
"}.}.}.|.}.}.}.}.}.}.}.}.}.}.}.}.}.}.}.}.}.}.}.}.}.}.}.}.}.}.}.}.}.}.}.}.}.}.}.}.}.}.}.}.}.}.}.}.}.}.}.}.}.}.}.}.}.}.}.}.}.}.}.}.}.}.}.}.}.}.}.}.}.}.}.}.}.}.}.}."
};
