/* XPM */
static char *ecf29da0593a463c9c258f4808e2fcb9hZXPJw6PLQQYDnRY[] = {
/* columns rows colors chars-per-pixel */
"80 80 196 2 ",
"   c #683C3F",
".  c #774838",
"X  c #6F413E",
"o  c #4E264D",
"O  c #4C205C",
"+  c #552954",
"@  c #5C304A",
"#  c #68384B",
"$  c #4C1E69",
"%  c #4E236B",
"&  c #532B6C",
"*  c #5A2960",
"=  c #57326D",
"-  c #58336E",
";  c #592677",
":  c #5E3774",
">  c #672E76",
",  c #6C307D",
"<  c #724242",
"1  c #6F4042",
"2  c #654475",
"3  c #6A4C76",
"4  c #684A7A",
"5  c #6E5379",
"6  c #6D5176",
"7  c #765A7C",
"8  c #7E667F",
"9  c #835231",
"0  c #8B5734",
"q  c #925B37",
"w  c #955D38",
"e  c #985F39",
"r  c #804E3B",
"t  c #9B613A",
"y  c #A4663D",
"u  c #A7683F",
"i  c #A8693F",
"p  c #975B46",
"a  c #AA6C42",
"s  c #AD7047",
"d  c #AE724B",
"f  c #B1754D",
"g  c #B37A54",
"h  c #B57E59",
"j  c #B27750",
"k  c #A86857",
"l  c #944F70",
"z  c #B47B79",
"x  c #B07565",
"c  c #B6815E",
"v  c #BB835D",
"b  c #B98767",
"n  c #B78873",
"m  c #C18B67",
"M  c #C39272",
"N  c #5E2584",
"B  c #743B98",
"V  c #6E2F93",
"C  c #75568A",
"Z  c #794D94",
"A  c #843A96",
"S  c #8735BE",
"D  c #915398",
"F  c #806780",
"G  c #876D87",
"H  c #8B6D96",
"J  c #906C9A",
"K  c #927593",
"L  c #9B7D9B",
"P  c #967798",
"I  c #8A708B",
"U  c #B27599",
"Y  c #B0718B",
"T  c #8457A1",
"R  c #A45AA0",
"E  c #9266A5",
"W  c #9976A5",
"Q  c #8C6EBA",
"!  c #9665B2",
"~  c #8F71BB",
"^  c #9174BD",
"/  c #9579BF",
"(  c #8D65A7",
")  c #B070AE",
"_  c #8F3AC7",
"`  c #964DC6",
"'  c #A455D8",
"]  c #967AC0",
"[  c #997EC2",
"{  c #AF6AC6",
"}  c #AE68D3",
"|  c #B175D3",
" . c #B77AE0",
".. c #9E8A96",
"X. c #BA8487",
"o. c #BC8699",
"O. c #BAA89C",
"+. c #998DA2",
"@. c #A384A3",
"#. c #AB8BAB",
"$. c #BE89A9",
"%. c #B787B6",
"&. c #B693B6",
"*. c #BC97BC",
"=. c #AF8AB2",
"-. c #B8B7B9",
";. c #B2ADAA",
":. c #C08DB7",
">. c #9D83C4",
",. c #A087C6",
"<. c #A289C7",
"1. c #A58DC8",
"2. c #A790CA",
"3. c #AB94CC",
"4. c #AE99CE",
"5. c #B598CD",
"6. c #BC86D9",
"7. c #B29ED1",
"8. c #B5A2D3",
"9. c #B9A6D4",
"0. c #BCAAD6",
"q. c #BEADD8",
"w. c #BF88E4",
"e. c #BC80E2",
"r. c #C39DC3",
"t. c #C69EC9",
"y. c #CDA5CD",
"u. c #C7A1C7",
"i. c #C5BFC9",
"p. c #C0AFD9",
"a. c #C8ACD7",
"s. c #D3ABD3",
"d. c #D9AFD9",
"f. c #C4B3DB",
"g. c #C9B6DE",
"h. c #C9BADE",
"j. c #C7B8DD",
"k. c #DCB2DC",
"l. c #C48DE5",
"z. c #C592E5",
"x. c #CA9AE7",
"c. c #D29AEA",
"v. c #CBA9E3",
"b. c #D6ABED",
"n. c #D6A6EB",
"m. c #CCBDE1",
"M. c #D4BEE5",
"N. c #D5B5E7",
"B. c #DEB5F0",
"V. c #DDA7F0",
"C. c #E2B7E2",
"Z. c #E5B9E5",
"A. c #EBBEEB",
"S. c #E5BAF3",
"D. c #C9C9C9",
"F. c #D3D2D3",
"G. c #DDDDDD",
"H. c #D2C3DC",
"J. c #CEC1E2",
"K. c #D4C3E5",
"L. c #D6CBE7",
"P. c #DCC4EA",
"I. c #DBCDE9",
"U. c #D8C1E7",
"Y. c #DCD2EA",
"T. c #DFD8E5",
"R. c #E3C7EE",
"E. c #EFC1EF",
"W. c #E3CBEE",
"Q. c #E3D4EE",
"!. c #E3D9EE",
"~. c #EBCCF3",
"^. c #E9C6F5",
"/. c #F3C4F3",
"(. c #F3CBF7",
"). c #F5CDF9",
"_. c #FFCEFF",
"`. c #F5C6FB",
"'. c #EBD3F3",
"]. c #E7DBF0",
"[. c #EBDAF3",
"{. c #E6D1F0",
"}. c #F1D3F7",
"|. c #F1DCF6",
" X c #F5D3F9",
".X c #FED2FE",
"XX c #F5DBF9",
"oX c #FED9FE",
"OX c #FEDDFE",
"+X c #FDDBFE",
"@X c #E1E1E1",
"#X c #E2E2E2",
"$X c #EDE1F4",
"%X c #F1E1F7",
"&X c #F6E2FA",
"*X c #FBE1FD",
/* pixels */
"_._._._._._._._._._._._._._._..X).)..X_._._._._._._._._._._._._._._._._._._._._._._._._._._._._._._._._._._._._._._._._._._._._._._._._._._._._._._._._._._._._.",
"_._._._._._._._._._._._._._._..X~.)..X_._._._._._._._._._._._._._._._._._._._._._._._._._._._._._._._._._._._._._._._._._._._._._._._._._._._._._._._._._._._._.",
"_._._._._._._._._._._._._._._.oXM.W..X_._._._._._._._._._._._._._._._._._._._._._._._._._._._._._._._._._._._._._._._._._._._._._._._._._._._._._._._._._._._._.",
"_._._._._._._._._._._._._._._.OXq.K.OX_._._._._._._._._._._._._._._._._._._._._._._._._._._._._._._._._._._._._._._._._._._._._._._._._._._._._._._._._._._._._.",
"_._._._._._._._._._._._._._..XXX3.0.*X.X_._._._._._._._._._._._._._._._._._._._._._._._._._._._._._._._._._._._._._._._._._._._._._._._._._._._._._._._._._._._.",
"_._._._._._._._._._._._._..XoX!.>.<.$X.X_._._._._._._._._._._._._._._._._._._._._._._._._._._._._._._._._._._._._._._._._._._._._._._._._._._._._._._._._._._._.",
"_._._._._._._._._._._._..X.X%X0.^ ~ f.&X.X.X.X_._._._._._._._._._._._._._._._._._._._._._._._._._._._._._._._._._._._._._._._._._._._._._._._._._._._._._._._._.",
"_._._._._._._._._._..X.X X].f.[ ~ Q / h.[. X.X_._._._._._._._._._._._._._._._._._._._._._._._._._._._._._._._._._._._._._._._._._._._._._._._._._._._._._._._._.",
"_._._._._._._._._._._. XK.7./ Q Q Q Q / 7.P.)._._._._._._._._._._._._._._._._._._._._._._._._._._._._._._._._._._._._._._._._._._._._._._._._._._._._._._._._._.",
"_._._._._._._._._._..X XU.0.>.^ Q Q Q <.p.P. X.X_._._._._._._._._._._._._._._._._._._._._._._._._._._._._._._._._._._._._._._._._._._._._._._._._._._._._._._._.",
"_._._._._._._._._._._..XoX|.K.<.Q Q 1.Y.&XoX.X_._._._._._._._._._._._._._._._._._._._._._._._._._._._._._._._._._._._._._._._._._._._._._._._._._._._._._._._._.",
"_._._._._._._._._._._._._..X&Xj./ / L.XX.X_._._._._._._._._._._._._._._._._._._._._._._._._._._._._._._._._._._._._._._._._._._._._._._._._._._._._._._._._._._.",
"_._._._._._._._._._._._._..X.X!.>.2.&X.X_._._._._._._._._._._._._._._._._._._._._._._._._._._._._._._._._._._._._._._._._._._._._._._._._._._._._._._._._._._._.",
"_._._._._._._._._._._._..X_..X&X4.f.*X_._._._._._._._._._._._._._._._._._._._._._._._._._._._._._._._._._._._._._._._._._._._._._._._._._._._._._._._._._._._._.",
"_._._._._._._._._._._._..X~.}.*Xf.K.oX_._._._._._._._._._._._._._._._._._._._._._._._._._._._._._._._._._._._._._._._._._._._._._._._._._._._._._._._._._._._._.",
"_._._._._._._._._._._._.+XK.I.&XU.W..X_._._._._._._._._..X.X_._._._._._._._._._._._._._._._._._._._._._._._._..X_._._._._._._._._._._._._._._._._._._._._._._._.",
"_._._._._._._._._._..X.X!.7.8.!.{.)..X_._._._.`.`._..X.X.XoX.X.X_._._._._._._._._._._._._._._._._._._._._._._..X~. X.X_._._._._._._._._._._._._._._._._._._._._.",
"_._._._._._._._._._..X~.0.[ [ q.{..X_._._._.(.E.Z.S.c.n.S.oXOX.X_._._._._._._._._._._._._._._._._._._._._._._..XP.~..X_._._._._._._._._._._._._._._._._._._._._.",
"_._._._._._._._._._..X}.K.1.1.L. X.X_._._._.Z.y.| ` 6.v.x.l. XOX.X.X_._._._._._._._._._._._._._._._._._._._..XOXf.P.oX.X_._._._._._._._._._._._._._._._._._._._.",
"_._._._._._._._._._._..X&Xf.J.|..X.X_._._./.r.J Z i.T.G.@XK.l.+XoX_._._._._._._._._._._._._._._._._._._._._..X&X7.g.OX_._._._._._._._._._._._._._._._._._._._._.",
"_._._._._._._._._._._._..XR.Q..X_._._._._.C.L : +.F.G.G.G.@XN.B.OX.X_._._._._._._._._._._._._._._._._._._._..X[.>.4.&X.X_._._._._._._._._._._._._._._._._._._._.",
"_._._._._._._._._._._._..X).)._._._._._._.Z.L ; -.F.G.G.G.@XK.n.OX.X_._._._._._._._._._._._._._..X_._._._..X*Xj.^ [ Y.+X.X_._._._._._._._._._._._._._._._._._._.",
"_._._._._._._._._._._._..X.X_._._.(.E./._.S.t.V D.G.G.G.G.@XK.n.OX.X_._._._._._._._._._._._._.).~..X.X.XoXXXY.,.~ ~ 2.!.*X.X_._._._._._._._._._._._._._._._._._.",
"_._._._._._._._._._._._._._._._.(.Z.s.l.' ' _ _ F.G.G.G.G.@Xv.B.oX.X_._._._._._._._._._._._..XXXM..X.X.XQ.f.>.^ Q Q ^ <.h.'..X.X_._._._._._._._._._._._._._._._.",
"_._._._._._._._._._._._._._._._.A.r.E ! H.#X#X#X#XG.G.@XG.@Xx.^.oX.X_._._._._._._._._._._._..X[.0.[..XR.0.[ Q Q Q Q Q ~ >.j.~..X_._._._._._._._._._._._._._._._.",
"_._._._._._._._._._._._._._._.(.s.K N -.F.G.@XG.#X@XG.G.G.@X6.}.OX.X_._._._._._._._._._._..XXXJ.,.L.XX+X*X!.7.^ Q Q / f.$X+X.X_._._._._._._._._._._._._._._._._.",
"_._._._._._._._._._._._._._._./.&.3 4 i.G.G.G.G.G.G.G.G.G.@Xv.R.OX.X.X.X_._._._._._._._..X|.L.3.^ >.Y.XX.XoX%X7.~ ~ f.&X.X.X_._._._._._._._._._._._._._._._._._.",
"_._._._._._._._._._._._._._._.A.#.3 2 -.G.@XG.G.G.G.G.G.G.G.T.z.+XOX.X.X_._._._._._._._..XM.1.^ Q ~ 3.M. X.XOXL./ >.$X.X.X_._._._._._._._._._._._._._..X_._._._.",
"_._._._._._._._._._._._._._._.E.#.5 = ;.F.G.G.G.G.G.G.G.G.F.@Xh.x. XOX.X.X_._._._._._._..XXXL.3.^ 3.Y.XX.X_..X$X>.9.*X_._._._..X_._._._._._._._._._._._.)._._._.",
"_._._._._._._._._._._._._._._.`.9.l & 5 ;.D.F.F.F.D.D.F.G.;.O.@Xa. .^.OXoXoX.X.X.X.X_..X.X.XXXJ.>.L.XX.X.X_..X+X8.J.+X_._._..X_..X_._._._._._._._._._.(._._._._.",
"_._._._._._._._._._._._._._._._.Z.@.8 % C H ( ( Z Z Z +.-.O.i n O.X.%.c.S.).oXoXoXoX.X.X.X.XoX[.9.|..X_._._._.OXj.W..X.X_..X).~..X_._._._._._._._._._..X_._._._.",
"_._._._._._._._._._._._._._._._.).s.+.G 5 C Z E W H 3 % C ..y i a j c o.) }  .e.z.c.V.S.^..XoXXXK.XX.X.X_._._.oXP.~..X_..X.XQ.M.|..X_._._._._._._._._._._._._._.",
"_._._._._._._._._._._._._._._._._./.C.u.&.&.r.y.s.:.P 8 = 3 q u a a a d g g h z z U U ) { }  .b.S.+XoXoX.X.X.X.X).)..X_..X[.f.3.Y. X.X_._._._._._._._._._._._._.",
"_._._._._._._._._._._._._._._._._._._.`.E.E./.`. XE.s.P 7 $ . t i i i i i a a a s f d f j h n U %. .n. XOXoX.X.X.X_._._. Xh.>.] 7.R..X.X_._._._._._._._._._._._.",
"_._._._._._._._._._._._._..X.X.X.X_._._..X_._._..X_./.y.G 3 o 9 y i i i y a a a i i i f a a a j h b U  .b.oXOX.X.X_._..X.XI.7.>.j.[..X_._._._._._._._._._._._._.",
"_._._._._._._._._._._._..X.XR. X_._._._._._._._._._..XE.&.8 - # t i i i i y y a i i f v a a a h g d g b %.z. X*X.X.X_._..X+XL.p.]..X_._._._._._._._._._._._._._.",
"_._._._._._._._._._._._.oXXXf.'.oX_._._._._._._._._._._.k.K 5 + q i i i i i i i i i i i i i i s a y a s c o.w.~.*X.X_._..X.X'.R..X.X_._._._._._._._._._._._._._.",
"_._._._._._._._._._._..X.XY.<.p.[..X_._._._._._._._._._./.#.7 O 0 i i i i i i i i i i i i i i i i y i g c g o.w. X*X.X.X_._. X)..X_._._._._._._._._._._._._._._.",
"_._._._._._._._._._._..XW.4./ [ h.)..X.X_._._._._._._._.).r.C % 9 y i i i i i i i i i i i s v i i i i s f a g o.l. XOX.X.X_._._._._._._._._._._._._._._._._._._.",
"_._._._._._._._._._._..X'.h.[ 4.Q.oX.X)..X_._._._._._._..Xi.8 = . y i i i i i i i f v i i j m s i i i i u i a h $.x.OXoX.X_._._._._._._._._._._._._._._._._._._.",
"_._._._._._._._._._._._..X%X7.L.oX.X X~.)..X_._._._._._._.s.l - < y a y i i i i i i s i i i i i i i i i i i a v b :.B.OXoX.X_._._._._._._._._._._._._._._._._._.",
"_._._._._._._._._._._._..XoXM.}..X.X}.U. X.X_._._._._._._.k.G : # t u a i i i i i i i i i i i i i i h s i i i h f n l. XoX.X_._._._._._._._._._._._._._._._._._.",
"_._._._._._._._._._._._._..X~..X.X.XQ.g.'..X_._._._._._._.C.K 2 # e u u i i i i i i i i i f i i i i h a i i i i i c $.N.*X.X_._._._._._._._._._._._._._._._._._.",
"_._._._._._._._._._._._._._._..X_.oXL.3.Y..X_._._._._._._.Z.L 3 + w i i i i i i i i i i i v f i i i i i i i i i i s b l.+XoX.X_._._._._._._._._._._._._._._._._.",
"_._._._._._._._._._._._._._._._..XXXf.[ J.XX.X.X_._._._._.E.@.6 + 0 i i i i i i i i i i i i i i i i i i i i i i i f M :.S.OX.X.X_._._._._._._._._._._._._._._._.",
"_._._._._._._._._._._._._._._..X+X!.<.~ 4.Q..X.X_._._._._./.&.7 O 0 i i i i i i i i i i i i i i s s i i i a h i i a h o.n.*X.X_._._._._._._._._._._._._._._._._.",
"_._._._._._._._._._._._._..X.XXX!.4.~ Q ^ 8.!.XXoX_._._._.(.r.8 $ . y y i i i i i i i i i i i i j h i i i f m f i i a n l.*X.X.X_._._._._._._._._._._._._._._._.",
"_._._._._._._._._._._._._..X{.j.<.~ Q Q Q ^ 3.m.~..X_._._._.s.8 - # y y i i i i i i i i i i i i i i i i i i s i i i a b 6.oXoX_._._._._._._._._._._._._._._._._.",
"_._._._._._._._._._._._._..XR.f.1.^ Q Q Q / 3.g.~..X_._._._.C.K : @ q u i i i i i i i i i i i i i i i i s i i i i i u h 6. XoX_._._._._._._._._._._._._._._._._.",
"_._._._._._._._._._._._._._..XXXY.8.^ Q ] 0.!.+X.X.X_._._._.A.#.7 O 9 y i i i i i i i i i i i i i i i i m f i i i g f v  .oXoX_._._._._._._._._._._._._._._._._.",
"_._._._._._._._._._._._._._..X.XoX!.1.^ 7.[.+X.X_._._._._._.`.u.l =   w i i i i i i i i i i i i i i i i i i i i i j s v  .OX.X_._._._._._._._._._._._._._._._._.",
"_._._._._._._._._._._._._._._._..XXXf.[ m.XX.X_._._._._._._._.C...5 o 9 y i i i i i i i i i i i i i i i i i i i i i s z z.oX.X_._._._._._._._._._._._._._._._._.",
"_._._._._._._._._._._._._._._._..XoXL.3.Y..X_._._._._._._._._./.5.C - # e i i i i i i i i i i i i i i i i i i i a a f U V.oX.X_._._._._._._._._._._._._._._._._.",
"_._._._._._._._._._._._._._._._._..XW.f.'..X_._._._._._._._._._.k...7 %   e u i i i i i i i i i i i i i i i i i a a g { )..X.X_._._._._._._._._._._._._._._._._.",
"_._._._._._._._._._._._._._._._._..X~.M.}..X.X_._._._._._._._._.).y.G 6 o . e y i i i i i i i i i i i i i i i i y s U l..X.X_._._._._._._._._._._._._._._._._._.",
"_._._._._._._._._._._._._._._._._..X X~. X.X_._._._._._._._._._..XE.*.8 2 o . w y i i i i i i i i i i i i i i i a x ' )..X.X_._._._._._._._._._._._._._._._._._.",
"_._._._._._._._._._._._._._._._._._..X X_._._._._._._._._._._._._._.A.&.l 6 o X q a y a y a i i i i i i i i a s k R V..X.X_._._._._._._._._._._._._._._._._._._.",
"_._._._._._._._._._._._._._._._._._._._._._._._._._._._._._._._._._.).A.7.G 6 % # 9 w a a y i i i i i i i a a k R l..X_._._._._._._._._._._._._._._._._._._._.).",
"_._._._._._._._._._._._._._._._._._._._._._._._._._._._._._._._..X).). XA.r.K 8 = + < 0 w y y a i i u i i y l _ c._._._._._._._._._._._._._._._._._._._._._._._.",
"_._._._._._._._._._._._._._._._._._._._._._._._._._._._._._._._..X{.P..X_.E.s.+.G 5 & + # r 0 w e e e p l A ` d.`._._._._._._._._._._._._._._._._._._._._._._._.",
"_._._._._._._._._._._._._._._._._._._._._._._._._._._._._._._._.+XL.m.|._.).(.Z.r.L I 7 2 ; > > > , V B ! 5.C./._._..X).)._._._._._._..X.X_._._._._._._._._._._.",
"_._._._._._._._._._._._._._._._._._._._._._._._._._._._._._._..X*Xp.2.]..X.X_._./.C.y.=.@.P J K P W %.t.s.E._._._..X.XR.'..X_._._._..X~.)..X_._._._._._._._._._.",
"_._._._._._._._._._._._._._._._._._._._._._._._._._._._._._..XXXQ.<.] 9.[..X_._._._./.A.C.d.s.y.s.d.C.A.`._._._._..XOXm.K.+X.X_._._.oXP.~..X_._._._._._._._._._.",
"_._._._._._._._._._._._._._._._._._._._._._._._._._._._..X.X}.K.1.] ] =.q.Q..X_._._._._._._.(.`.`._._._._._._._._..X&X8.q.|..X_._._.OXj.P.oX_._._._._._._._._._.",
"_._._._._._._._._._._._._._._._._._._._._._._._._._._._._..XM.7.^ Q Q ~ <.f.~..X.X)..X.X_._._._._._._._._._._._..X|.m.[ >.h.|..X.X.X*X8.f.*X_._._._._._._._._._.",
"_._._._._._._._._._._._._._._._._._._._._._._._._._._._._._..X[.h.[ / 3.Q.XX.X.X.XP. X_._._._._._._._._._._._..X~.h.>.^ ~ ,.j.}..X.X[.<.3.&X.X.X_._._._._._._._.",
"_._._._._._._._._._._._._._._._._._._._._._._._._._._._._._..X.X%X7.,.Y.XX.X.X.X[.0.[..X.X_._._._._._._._._._._. XI.4./ ] 8.I..X.X*Xm.] / L.XX_._._._._._._._._.",
"_._._._._._._._._._._._._._._._._._._._._._._._._._._._._._._..XOXJ.9.|..X_..X|.j.>.f.[..X_._._._._._._._._._._..X+X[.1.4.Q.OXoX*XL.1.~ ~ >.Q.*X.X.X_._._._._._.",
"_._._._._._._._._._._._._._._._._._._._._._._._._._._._._._._._.oXW.M.XX.X.X.Xh.[ / >.m. X_._._._._._._._._._._._..X*Xp.m.XX.XQ.f.>.~ Q ~ ~ >.f.{..X.X_._._._._.",
"_._._._._._._._._._._._._._._._._._._._._._._._._._._._._._._._..X).R..X_..X.XXXh.[ j.XX.X_._._._._._._._._._._._._.oXM.W.XX~.p.>.~ Q Q ~ Q ~ >.f.~..X_._._._._.",
"_._._._._._._._._._._._._._._._._._._._._._._._._._._._._._._._._.).)..X_._._..X|.0.[..X.X_._._._._._._._._._._._._..X~.}..X.X*X].9.] Q ~ / q.$XOX.X.X_._._._._.",
"_._._._._._._._._._._._._._._._._._._._._._._._._._._._._._._._._..X_._._._._._.oXP. X.X_._._._._._._._._._._._._._._._..X_._..XoX$X9.^ ~ q.&XoX_._._._._._._._.",
"_._._._._._._._._._._._._._._._._._._._._._._._._._._._._._._._._._._._._._._._..X)..X_._._._._._._._._._._._._._._._._._._._._..XoXY.[ >.$X.X_._._._._._._._._.",
"_._._._._._._._._._._._._._._._._._._._._._._._._._._._._._._._._._._._._._._._._._._._._._._._._._._._._._._._._._._._._._._._._..X|.2.8.*X X_._._._._._._._._.",
"_._._._._._._._._._._._._._._._._._._._._._._._._._._._._._._._._._._._._._._._._._._._._._._._._._._._._._._._._._._._._._._._._._.*X9.J.+X_._._._._._._._._._.",
"_._._._._._._._._._._._._._._._._._._._._._._._._._._._._._._._._._._._._._._._._._._._._._._._._._._._._._._._._._._._._._._._._..XoXm.W..X.X_._._._._._._._._.",
"_._._._._._._._._._._._._._._._._._._._._._._._._._._._._._._._._._._._._._._._._._._._._._._._._._._._._._._._._._._._._._._._._._..XW.~..X_._._._._._._._._._.",
"_._._._._._._._._._._._._._._._._._._._._._._._._._._._._._._._._._._._._._._._._._._._._._._._._._._._._._._._._._._._._._._._._._..X).)..X_._._._._._._._._._.",
"_._._._._._._._._._._._._._._._._._._._._._._._._._._._._._._._._._._._._._._._._._._._._._._._._._._._._._._._._._._._._._._._._._._._._._._._._._._._._._._._.",
"_._._._._._._._._._._._._._._._._._._._._._._._._._._._._._._._._._._._._._._._._._._._._._._._._._._._._._._._._._._._._._._._._._._._._._._._._._._._._._._._."
};
