/* XPM */
static char *paulinor11675337816[] = {
/* columns rows colors chars-per-pixel */
"80 80 256 2 ",
"   c #010004",
".  c #0D1018",
"X  c #35310E",
"o  c #121722",
"O  c #302E34",
"+  c #482B03",
"@  c #563504",
"#  c #4C3613",
"$  c #6B3506",
"%  c #473B2C",
"&  c #3B4727",
"*  c #544417",
"=  c #654A1B",
"-  c #764C12",
";  c #564728",
":  c #524F32",
">  c #694825",
",  c #795737",
"<  c #715030",
"1  c #70643A",
"2  c #5B633B",
"3  c #4E3E40",
"4  c #55524D",
"5  c #645946",
"6  c #72594A",
"7  c #59624B",
"8  c #686648",
"9  c #786749",
"0  c #6B6656",
"q  c #766A57",
"w  c #78765A",
"e  c #707352",
"r  c #5D6D74",
"t  c #7B7864",
"y  c #706C6D",
"u  c #5B5D64",
"i  c #394659",
"p  c #930B00",
"a  c #913516",
"s  c #AC3829",
"d  c #AD331B",
"f  c #E02E1B",
"g  c #8B5312",
"h  c #946912",
"j  c #A77218",
"k  c #884A2B",
"l  c #875635",
"z  c #93512C",
"x  c #A84B28",
"c  c #B64929",
"v  c #B64835",
"b  c #AD5636",
"n  c #B65936",
"m  c #AD502D",
"M  c #8E652D",
"N  c #B67A29",
"B  c #B9653B",
"V  c #B16F30",
"C  c #B74112",
"Z  c #CB5032",
"A  c #FF4D3E",
"S  c #C7683B",
"D  c #CB6A36",
"F  c #B05747",
"G  c #8A6849",
"H  c #8C7B5C",
"J  c #857759",
"K  c #997657",
"L  c #8F6E4F",
"P  c #BD6747",
"I  c #B5734A",
"U  c #AA7755",
"Y  c #B87B57",
"T  c #AB6C4F",
"R  c #827C63",
"E  c #887768",
"W  c #957968",
"Q  c #8D716F",
"!  c #AD726B",
"~  c #975D44",
"^  c #D0564B",
"/  c #FF4C48",
"(  c #FE564A",
")  c #FF5D5B",
"_  c #FF5556",
"`  c #EE5F57",
"'  c #C36C44",
"]  c #C76948",
"[  c #C3744B",
"{  c #C97748",
"}  c #D47847",
"|  c #C87A54",
" . c #D06E52",
".. c #FF625B",
"X. c #FF6859",
"o. c #EF6E58",
"O. c #FF5C66",
"+. c #FF5C79",
"@. c #FF696E",
"#. c #FF6566",
"$. c #FF756B",
"%. c #FF6C74",
"&. c #FF6D7A",
"*. c #FF6579",
"=. c #FF7275",
"-. c #FF727A",
";. c #FF7B7B",
":. c #E66E78",
">. c #7B8469",
",. c #728371",
"<. c #7A8258",
"1. c #B7971A",
"2. c #B08E15",
"3. c #B49826",
"4. c #BC9832",
"5. c #B68A2F",
"6. c #BBA428",
"7. c #BAA836",
"8. c #B9B23A",
"9. c #959136",
"0. c #C59938",
"q. c #C88D35",
"w. c #C4A72B",
"e. c #C6AA38",
"r. c #C9B539",
"t. c #CAB133",
"y. c #FFA93D",
"u. c #E0A428",
"i. c #D2C438",
"p. c #FFF233",
"a. c #FFE61F",
"s. c #8D815C",
"d. c #BB8358",
"f. c #AF904F",
"g. c #B8A748",
"h. c #ABA459",
"j. c #B5AA56",
"k. c #B2AD50",
"l. c #8B846B",
"z. c #8D8A6D",
"x. c #878568",
"c. c #938C6D",
"v. c #978767",
"b. c #8A8975",
"n. c #938D72",
"m. c #958B77",
"M. c #8C9477",
"N. c #949174",
"B. c #9B9474",
"V. c #9D997C",
"C. c #97957A",
"Z. c #94906F",
"A. c #A78666",
"S. c #B48A68",
"D. c #A59A7A",
"F. c #B0966D",
"G. c #B8AC66",
"H. c #BAB66B",
"J. c #B9A776",
"K. c #BAB777",
"L. c #AAA971",
"P. c #C78846",
"I. c #CA8458",
"U. c #CE8F4E",
"Y. c #F68E55",
"T. c #C8AB43",
"R. c #C9B547",
"E. c #C4B658",
"W. c #C38C64",
"Q. c #FF8D74",
"!. c #C4B868",
"~. c #C3BB7B",
"^. c #C3A671",
"/. c #FFAE64",
"(. c #FFA857",
"). c #BCC17B",
"_. c #C8C475",
"`. c #EFD254",
"'. c #677683",
"]. c #947D86",
"[. c #FF5A85",
"{. c #FF7886",
"}. c #FF738B",
"|. c #E87A9B",
" X c #FF7BC8",
".X c #76858C",
"XX c #968789",
"oX c #989A82",
"OX c #938E91",
"+X c #A49E82",
"@X c #A98C94",
"#X c #99A285",
"$X c #95A493",
"%X c #A7A586",
"&X c #B9B689",
"*X c #BAB995",
"=X c #B0A98C",
"-X c #B898A8",
";X c #B396AE",
":X c #B5ACB0",
">X c #FF8489",
",X c #FF8898",
"<X c #FF969A",
"1X c #C3BA87",
"2X c #C3BD93",
"3X c #C69CAE",
"4X c #FF8BA5",
"5X c #FF99B7",
"6X c #FF91AA",
"7X c #C7A4BA",
"8X c #CDB0BA",
"9X c #FFA3B3",
"0X c #B9C296",
"qX c #B9C98D",
"wX c #C8C586",
"eX c #C5C29B",
"rX c #C9C39A",
"tX c #D2C894",
"yX c #CCC9A3",
"uX c #D2CEA7",
"iX c #FF9CC4",
"pX c #CAA9C7",
"aX c #C7B8C5",
"sX c #DCB5DB",
"dX c #D3AECE",
"fX c #FFA6C8",
"gX c #FFAAD4",
"hX c #FFB5DA",
"jX c #E9B7D3",
"kX c #E9BDE8",
"lX c #FFB8E7",
"zX c #FFB9F9",
"xX c #F8A8EA",
"cX c #DBB7E3",
"vX c #D6D9D6",
"bX c #CCC7CC",
"nX c #E0E6DE",
"mX c #DEC3E4",
"MX c #E7C4E8",
"NX c #F8C5EB",
"BX c #FEC5FD",
"VX c #FFCEFF",
"CX c #F8C8F6",
"ZX c #FFD3FF",
"AX c #FFDCFF",
"SX c #F3D9F9",
"DX c #ECD0F2",
"FX c #E7E8E5",
"GX c #FFE2FF",
"HX c #FFECFF",
"JX c #F5E0FF",
"KX c #FDFEFE",
"LX c #F9F7FA",
"PX c #EDF3EC",
"IX c #EDD2DD",
"UX c #B8AFC2",
/* pixels */
"VXVXVXVXVXVXVXVXVXVXVXVXVXVXVXVXVXVXVXVXVXVXVXVXVXVXVXVXVXVXVXVXVXVXVXVXVXVXVXVXVXVXVXVXVXVXVXVXVXVXVXVXVXVXVXVXVXVXVXVXVXVXVXVXVXVXVXVXVXVXVXVXVXVXVXVXVXVXVXVX",
"VXVXVXVXVXVXVXVXVXVXVXVXVXVXVXVXVXVXVXVXVXVXVXVXVXVXVXVXVXVXVXVXVXVXVXVXVXVXVXVXVXVXVXVXVXVXVXVXVXVXZXAXZXVXVXVXVXVXVXVXVXVXVXVXVXVXVXVXVXVXVXVXVXVXVXVXVXVXVXVX",
"VXVXVXVXVXVXVXVXVXZXVXVXVXVXVXVXVXVXVXVXVXVXVXVXVXVXVXVXVXVXVXVXVXVXVXVXVXVXVXVXVXVXVXVXVXVXVXVXVXZXCXhXZXZXVXVXVXVXVXVXVXVXVXVXVXVXVXVXVXVXVXVXVXZXVXVXVXVXVXVX",
"VXVXVXVXVXVXVXVXVXVXVXVXVXVXVXVXVXVXVXVXVXVXVXVXVXZXVXVXVXVXVXVXVXVXVXVXVXVXVXVXVXVXVXVXVXVXVXVXVXAXlX/ 4XGXVXVXVXVXVXVXVXVXVXVXVXVXVXVXVXVXVXVXVXVXVXVXVXVXVXVX",
"VXVXVXVXVXVXVXVXVXVXVXVXVXVXVXVXVXVXVXVXVXVXVXVXVXVXVXVXVXVXVXVXVXVXVXVXVXVXVXVXVXVXVXVXVXVXVXVXVXZXBX%...NXZXVXVXVXVXVXVXVXZXVXVXVXVXVXVXVXVXVXVXVXVXVXVXVXVXVX",
"VXVXVXVXVXVXVXVXVXVXVXVXVXVXVXVXVXVXVXVXVXVXVXVXVXVXVXVXVXVXVXVXVXVXVXVXVXVXVXVXVXVXVXVXVXVXVXVXVXZXAX,X( xXGXVXVXVXVXVXVXZXBXVXVXVXVXVXVXVXVXVXVXVXVXVXVXVXVXVX",
"VXVXVXVXVXVXVXVXVXVXVXVXVXVXVXVXVXVXVXVXVXVXVXVXVXVXVXVXVXVXVXVXVXVXVXVXVXVXVXVXVXVXVXVXVXVXVXVXVXVXGX5X/ lXAXVXVXVXVXVXAXNXgXVXVXVXVXVXVXVXVXVXVXVXVXVXVXVXVXVX",
"VXVXVXVXVXVXVXVXVXVXVXVXVXVXVXVXVXVXVXVXVXVXVXVXVXVXVXVXVXVXVXVXVXVXVXVXVXVXVXVXVXVXVXVXVXVXVXVXVXVXAX5X#.VXZXVXVXVXVXZXZXhX6XAXVXVXVXVXVXVXVXVXVXVXVXVXVXVXVXVX",
"VXVXVXVXVXVXVXVXVXVXVXVXVXVXVXVXVXZXVXVXVXVXVXVXVXVXVXVXVXVXVXVXVXVXVXVXVXVXVXVXVXVXVXVXVXVXVXVXVXVXGX4X;.AXVXVXVXVXVXVXZXhX<XAXZXVXVXVXVXVXVXVXVXVXVXVXVXVXVXVX",
"VXVXVXVXVXVXVXVXVXVXVXVXVXVXVXZXAXBXVXVXVXVXVXVXVXVXVXVXVXVXVXVXVXVXVXZXVXVXVXVXVXVXVXVXVXVXVXVXVXZXZX[.,XAXVXVXVXVXVXVXZXNX>XBXZXVXVXVXVXVXVXVXVXVXVXVXVXVXVXVX",
"VXVXVXVXVXVXVXVXVXVXVXVXVXVXZXZX5XlXZXVXVXVXVXVXVXVXVXVXVXVXVXVXVXVXVXVXVXVXVXVXVXVXVXVXVXVXVXVXVXGXlX_ fXGXVXZXVXVXVXVXCXAX>X9XAXVXVXVXVXVXVXVXVXVXVXVXVXVXVXVX",
"VXVXVXVXVXVXVXVXVXVXVXVXVXZXGX,X{.AXZXVXVXVXVXVXVXVXVXVXVXVXVXVXVXVXVXVXVXVXVXVXVXVXVXVXVXVXVXVXZXZX{...lXAXVXVXVXVXVXVXAXAXQ.X.NXZXVXVXVXVXVXVXVXVXVXVXVXVXVXVX",
"VXVXVXZXVXVXVXVXVXVXVXVXVXAXgX) NXAXZXVXVXVXVXVXVXVXVXVXVXVXVXVXVXVXVXVXZXZXVXVXVXVXVXVXVXVXVXVXGXfX( {.CXZXZXVXVXVXCXGXAX<X( ;.BXZXZXVXVXVXVXVXVXVXVXVXVXVXVXVX",
"VXVXVXVXVXVXVXVXVXVXVXVXVXAX=.%.ZXVXVXVXVXZXZXVXVXVXVXVXVXVXVXVXVXVXVXVXCXBXZXVXVXVXVXVXVXVXVXZXZX;.A >XVXZXVXVXVXVXAXhXX.( <XCXGXSXZXVXVXVXVXVXVXVXVXVXVXVXVXVX",
"VXVXVXVXVXVXVXVXVXVXVXVXAXBX( ,XAXVXVXVXVXZXVXVXVXVXVXVXVXVXVXVXVXVXVXAXfXfXAXVXVXVXVXVXVXVXVXAXlX@.X.>XVXZXVXVXVXZXZX,X;.zXHXGXBXzXAXAXVXVXVXVXVXVXVXVXVXVXVXVX",
"VXVXVXVXVXVXVXVXVXVXVXVXAXgX/ fXGXVXVXVXAXfX9XAXVXVXVXVXVXVXVXVXVXVXVXGX5X,XGXVXVXVXVXVXVXVXVXAXlX%.@.{.ZXZXVXVXVXVXVXAXHXSX7Xm.t q ;XCXGXAXVXVXVXVXVXVXVXVXVXVX",
"VXVXVXVXVXVXVXVXVXVXVXVXGXfX/ iXGXVXVXZXVX#.9XGXVXVXVXVXVXVXVXVXVXVXVXGX4X#.VXZXVXVXVXZXZXVXVXAXgX#.#.{.ZXZXVXVXVXZXAXdX|.E 8 2 1 1 : 9 -XSXAXZXVXVXVXVXVXVXVXVX",
"VXVXVXVXVXVXVXVXVXVXVXVXAXfX( 6XGXVXZXAXhX/ 6XAXVXVXVXVXVXVXVXVXVXVXAXBX$.X.zXZXVXVXZXBXBXZXVXAX9X..%.;.VXAXVXVXVXAXsXe C M x.c.s.J 9 1 * Q CXAXVXVXVXVXVXVXVXVX",
"VXVXVXVXVXVXVXVXVXVXVXVXAXgX( ,XZXVXVXZXNX#.{.AXZXZXVXVXVXVXVXVXVXAXzXQ.a.$.zXZXVXVXAXgXlXZXVXGX5X) -...hXGXVXVXAXCXOXM S B.Z.s.s.v.5 , G = W BXAXVXVXVXVXVXVXVX",
"VXVXVXVXVXVXVXVXVXVXVXVXGXfX_ {.ZXZXVXZXZX{./ hXAXVXVXVXVXVXVXVXVXVX,Xa.p.>XVXZXVXVXAX4XlXZXVXGXgX#.-.O.,XGXGXGXMXOXs.B S h.x.L L H 9 % L 1 = m.VXZXVXVXVXVXZXVX",
"VXVXVXVXVXVXVXVXVXVXVXVXAX4X) #.lXAXVXVXGX9XA iXGXVXVXVXVXVXVXVXAXxXy.p.Y.4XGXVXVXGXgX%.BXZXZXAXhX@.&.&...5XhX-XH K S D S A.x.L G l M # % L < l CXZXVXVXVXVXVXVX",
"VXVXVXVXVXVXVXVXVXVXVXZXZXQ...O.iXAXVXVXAXhX/ 6XAXVXVXVXVXVXVXVXAX5Xa.p.O.lXAXVXVXAX;.=.AXZXVXAXlX@.%.=.-.) c z B S { { [ s.s.s.1 z f Z % < M l kXAXVXVXVXVXVXVX",
"VXVXVXVXVXVXVXVXVXVXVXAXlX%.&.@.;.ZXZXZXHXiXA 6XGXVXVXVXVXVXZXVXAXfXa.y. XHXAXZXHXgX/ gXHXAXAXHXVX-.=.{.}.^ x ' { { I.} ' H l M J z f d < k k $ 7XGXVXVXVXVXVXVX",
"VXVXVXVXVXVXVXVXVXVXZXAX,X) -.-.) fXHXGXgX@.X.gXAXVXZXZXAXGXAXAXAXzXy.@.xXMXMXmXaXo.` 3XaX:X8X8XdX:.` o.^ x V [ { P.| } U s., , ~ l a > k k k $ 3XGXVXVXVXVXVXVX",
"VXVXVXVXVXVXVXVXVXVXGXlXO.&.-.&.#.;.hX,X..X.;.SXHXAXZXZXkX7X:X-XoXOXZ F ,.w >.>.V V d.>.<.<.<.e e M x x x b I ] P.T.{ } A.J , > k l 6 k z k k $ 3XGXVXVXVXVXVXVX",
"VXVXVXVXVXVXVXVXVXZXAX{.O.;.-.&.=.=.%.O.$...4XSX:X@X].t 7 : 2 2 e e w <.w x.>.K S D A.oXV.V.V.V.M.v.S P n [ | ] T.T.] I c.x.H , > < < k z l k $ ! AXZXVXVXVXVXVX",
"VXVXVXVXVXVXVXVXZXGXiX_ Q.Q.*.-.-.&.%.=.#.}.CXu X : : 7 w R R x.x.z.z.M.z.M.v.V S Y M.Z.V.V.D.D.#XV.[ { | [ [ P.i.T. .A.Z.v.W J < $ + + $ k g k l kXAXVXVXVXVXVX",
"VXVXVXVXVXVXVXVXAXNXX.O./.Q.*.-.-.=.-.=.*.BXdX% : w t x.M.N.n.N.B.D.B.Z.z.M.I D S B.V.B.Z.N.V.V.V.V.d.{ I | I.8.g.{ | m.c.Z.H s.6 # 6 y Q ! U M g dXGXVXVXVXVXVX",
"VXVXVXVXVXVXVXVXGX5X_ ;.`.Q.*.@.&.-.>X_ s r 0 w ,.x.n.N.v.B.V.N.n.B.B.n.M.v.S D U M.c.Z.B.B.Z.Z.C.V.S.P.T.U.R.i.P.] A.oXv.J v.J = ].AXGXGXAXZX3XL jXAXZXVXVXVXVX",
"VXVXVXVXVXVXVXZXVX}.O.$.p.(.+.;.-.{.[.f & 7 w l.b.m.n.B.| ] | S.V.V.c.c.M.A.' } A.M.x.x.Z.Z.v.Z.B.M.S.{ r.R.r.R.|  .D.oXH 9 s.G E AXAXZXZXZXZXAXCXCXZXVXVXVXVXVX",
"VXVXVXVXVXVXVXGXlX#.@.=.p.p.*.[.;.}.f , ,.R x.l.b.m.n.b.B.I.} I.D.V.n.N.%XW.} ] A.C.Z.v.Z.v.v.v.c.z.L S 7.w.6.P.] I.oXv.9 G H 9 kXGXBXVXVXVXVXVXZXZXVXVXVXVXVXVX",
"VXVXVXVXVXVXZXAXiX) &.&.`.p./.}.*.Z z t <.>.l.n.C.c.z.z.oXD.U.} S.#X%X%X+XW.} U.J.V.B.B.D.D.x.v.Z.n.~ c j 2.6.P.] Y oXJ 1 v.J J CXZXZXVXVXVXVXVXVXVXVXVXVXVXVXVX",
"VXVXVXVXVXVXVXAX6X..&.+./.p.p.(.^ z k y R l.z.z.m.n.z.n.b.oXY D S.%XD.oX%XI.I.} W.$XD.D.B.B.B.c.v.Z.T c j 1.e.P. .d.b.9 9 W 9 9 CXZXVXVXVXVXVXVXVXVXVXVXVXVXVXVX",
"VXVXVXVXVXVXVXAX,XO.%.%.&.p.p.u.f.d.l e R R E n.z.n.c.c.l.b.A.} F.#XV.%XD.I.} | Y +X+XV.D.N.B.D.z.v.S S N 6.w.P.] [ G 9 H H 1 E VXZXVXVXVXVXVXVXVXVXVXVXVXVXVXVX",
"VXVXVXVXVXVXZXVX;.#.%.=.[./.e.2.g.!.~ 0 w J R c.c.n.n.m.c.b.A.} F.oXV.%X%XI.I.{ } F.C.D.D.D.D.Z.M.T S P q.8.6.N n c G q v.v.: @XAXVXVXVXVXVXVXVXVXVXVXVXVXVXVXVX",
"VXVXVXVXVXVXZXBX;.@.=.;.) P 3.2.g.H.m G w R R l.z.m.B.m.N.M.A.} S.$XV.B.oXI.q.| { P.D.%XD.D.B.C.A.n S P q.E.R.5.c c G w v.s.# -XHXVXVXVXVXVXVXVXVXVXVXVXVXVXVXVX",
"VXVXVXVXVXVXZXCX=.@.;.#.d h 1.1.H.J.c x H t R R R n.n.z.oX#XY D d.oXoX#XD.| 0.{ U.Y.| F.J.D.+XF.D Z ] ] w.!._.0.] S K t J 9 ; -XGXVXVXVXVXVXVXVXVXVXVXVXVXVXVXVX",
"VXVXVXVXVXVXAXNX=.@.;.^ a 2.1.g.).V v c m G >.>.x.R l.b.M.v.' ' ' S.#XV.Y { e.} U u 4 4 u u 0 G Y I.S q.i._.`.0. .' Y b.q 1 # pXGXVXVXVXVXVXVXVXVXVXVXVXVXVXVXVX",
"VXVXVXVXVXVXZXVX;.:.( d z 2.6.).E.n B n c c ~ H >.t R x.H P } I ' { d.I ^ q.t.^.i . . . o O O 4 .XOX0 G 9.D.h.5.S D I l.8 ; : zXAXVXVXVXVXVXVXVXVXVXZXVXVXVXVXVX",
"VXVXVXVXVXVXZXAX4XO.f a V 6.H.&X7.N P n b b Z S T T Y T n S P P P ' S { ] } j..Xu 3 % O .     o O i r r y y u u E ] n 2 ; ; @XAXVXVXVXVXVXVXVXVXVXVXVXVXVXVXVXVX",
"VXVXVXVXVXVXVXAX5X/ d z N 7.K.H.7.5.b b b m b n S ' d.m ] P B ' B ' | I. .v.'.E g.I.Y ! Q 5 O .       O i u t :X:XOX-XoX: 5 BXZXVXVXVXVXVXVXVXVXVXVXVXVXVXVXVXVX",
"VXVXVXVXVXVXZXAXhX) Z x 2.7.wX_.7.1.b s b b n P S I H.V v N 5.P | I.| { | Q m.T.t.w.e.U.U.U.S.J u % .       3 $X*XM.vXKXPXaXFXDXCXVXVXVXVXVXVXVXVXVXVXVXVXVXVXVX",
"VXVXVXVXVXVXVXVXAX,XZ x 3.7._.K.j.1.3.V v P P P P P ^.).d.3.w.' { I.{ | [ Y  .r.r.w.t.t.w.w.e.e.T.A.x.7 4 O 4 >.y $XFXFXLXKXLXLXPXDXVXBXVXVXVXVXVXVXZXVXVXVXVXVX",
"VXZXVXVXVXVXVXVXAXlXZ d f.j.K.H.K.k.2.2.V P ] P ] ] ] J.wX).e.] ]  .I.|  . .U.r.R.E.e.w.w.w.w.w.w.k.wX&XD.h.f.K J XXvXLXnXvXnXKXKXKXLXSXCXBXBXVXVXVXVXVXVXVXVXVX",
"VXVXVXVXVXVXVXVXZXGX .p V ).).).L.G.9.3.3.3.5.f.f.q.D T._.wXe.q.{ [ { { U.U.R.r.R.wX_.!.E.g.g.G.H.H.~.wX!.t.5.b F z Q :XnXPXFXvXbXFXKXKXLXLXFXSXZXZXVXVXVXVXVXVX",
"VXVXVXVXVXVXVXVXVXJX7Xp a h.k.L.L.L.H.L.k.3.6.8.e.w.r.E.wX_._.w.3.0.q.0.r.R.t.w.t.~.&XG.h.h.G.G.H.1XK.!.w.1.n c c s # 4 pXaXFXFXFXvXvXFXPXPXFXbXbXkXVXVXVXVXVXVX",
"VXVXVXVXVXVXVXVXVXZXSXT p b 8.h.L.=XL.L.H.L.K.H.!.G.H.~.wXqX~.j.1.2.1.1.2.1.1.q.0.H.G.h.h.G.H.1X1X&XH.3.2.V n B Z a X dXZXsXpX:XbXFXFXFXFXvXvXbX$X;XCXZXVXVXVXVX",
"VXVXVXVXVXVXVXVXVXVXZXDX~ p N k.h.L.%XK.&XK.K.).qXwXqX_.1XyXwXwXE.4.w.0.4.3.T.g.j.G.G.H.G.K.1X*XqXh.3.1.b v b c a ; :XGXZXVXVXkXdXpXaXbXbXbXaXaXpXCXZXVXVXVXVXVX",
"VXVXVXVXVXVXVXVXVXVXVXGXNX! pXlXj 9.&X$X&X&X&X&XK.qX&XwXeXyXrXtX_.^.!.!.!.!.K.~.K.!.1X1X&X2X1XH.g.2.j b v n c a X pXHXZXVXVXVXZXZXVXkXsXpXpXdXkXVXZXVXVXVXVXVXVX",
"VXVXVXVXVXVXVXVXVXVXVXVXZXGXJXCX~ h 8.0X*X*X&X0X&X0XeX*XeXeXuXyXrXtX1XJ.J.&X1X1X1X*X2X*X*X).H.3.2.V c c C x @ X ;XHXVXVXVXVXVXVXVXZXZXZXZXVXZXZXVXVXVXVXVXVXVXVX",
"VXVXVXVXVXVXVXVXVXVXVXVXVXZXZXZXkXT g U 0X0X&X=X0X*X*XeXyX*XyXuXrXrXtX1XJ.F.K.&X*XeXqXH.j.0.N V v s x z = % OXdXGXZXVXVXVXVXVXVXVXVXVXVXVXVXVXVXVXVXVXVXVXVXVXVX",
"VXVXVXVXVXVXVXZXVXVXVXVXVXVXVXVXAXVX! a K %X0X0X0X*X*XeX*XyXeX*XrX2X&X1XJ.K.^.=XJ.^.f.N b m F F ~ G 8 : 4 UXHXGXZXVXVXVXVXVXVXVXVXVXVXVXVXVXVXVXVXVXVXVXVXVXVXVX",
"VXVXVXVXVXVXVXVXVXVXVXVXVXVXVXVXVXAXSXE a v P S.J.1X2XyXyXyXuXyXrXyX2X&XJ.F.A.U T K L L q J 0 : & & : Q CXJXVXVXVXVXVXVXVXVXVXVXVXVXVXVXVXVXVXVXVXVXVXVXVXVXVXVX",
"VXVXVXVXVXVXVXVXVXVXVXVXVXVXVXVXVXVXAXmXQ 9 l L K ! +X+X%X=X*X=X=X=X+Xn.w q q x.b.>.t y 8 2 0 ].@X;XsXZXAXVXVXVXVXVXVXVXVXVXVXVXVXVXVXVXVXVXVXVXVXVXVXVXVXVXVXVX",
"VXVXVXVXVXVXVXVXVXVXVXVXVXVXVXVXVXVXVXAXAXUX,.y ,.>.b.b.m.XXb.oXXXm.b.b.b.l.t t E R 8 8 8 XXMXGXHXGXAXZXVXVXVXVXVXVXVXVXVXVXVXVXVXVXVXVXVXVXVXVXVXVXVXVXVXVXVXVX",
"VXVXVXVXVXVXVXVXVXVXVXVXVXVXVXVXVXVXVXZXZXAXZXOX0 >.b.b.b.b.oXoXC.oXoXm.m.x.R R 0 8 m.pXCXAXAXVXVXVXZXVXVXVXVXVXVXVXVXVXVXVXVXVXVXVXVXVXVXVXVXVXVXVXVXVXVXVXVXVX",
"VXVXVXVXVXVXVXVXVXVXVXVXVXVXVXVXVXVXVXVXVXZXZXCX@X0 e t b.E b.M.m.b.b.b.E w t 5 8 3XZXGXZXZXVXVXVXVXVXVXVXVXVXVXVXVXVXVXVXVXVXVXVXVXZXVXVXVXVXVXVXVXVXVXVXVXVXVX",
"VXVXVXVXVXVXVXVXVXVXVXVXVXVXVXVXVXVXVXVXVXVXVXAXAX:XOXb.t b.b.R b.b.t t t q 2 5 pXGXAXVXVXVXVXVXVXVXVXZXVXVXVXVXVXVXVXVXVXVXVXVXVXVXVXVXVXVXVXVXVXVXVXVXVXVXVXVX",
"VXVXVXVXVXVXVXVXVXVXVXVXVXVXVXVXVXVXVXVXVXVXVXVXZXAXAXsXt t w q t q 8 2 5 8 E sXAXZXVXVXVXVXVXVXVXVXVXVXVXVXVXVXVXVXVXVXVXVXVXVXVXVXVXVXVXVXVXVXVXVXVXVXVXVXVXVX",
"VXVXZXVXVXVXVXVXVXVXVXVXVXVXVXVXVXVXVXVXVXVXVXVXVXVXAXAXQ 4 w q q ; 4 @XaXkXVXAXVXVXVXVXVXVXVXVXVXVXVXVXVXVXVXVXVXVXVXVXVXVXVXVXVXVXVXVXVXVXVXVXVXVXVXVXVXVXVXVX",
"VXVXVXVXVXVXVXVXVXVXVXVXVXVXVXVXVXVXVXVXVXVXVXVXVXVXVXAX-X= 1 q 1 5 sXGXGXAXZXVXVXVXVXVXVXVXVXVXVXVXVXVXVXVXVXVXVXVXVXVXVXVXVXVXVXVXVXVXVXVXVXVXVXVXVXVXVXVXVXVX",
"VXVXVXVXVXVXVXVXVXVXVXVXVXVXVXVXVXVXVXVXVXVXVXVXVXVXZXAXsXh M M # @XLXVXVXVXVXVXVXVXVXVXVXVXVXVXVXVXVXVXVXVXVXVXVXVXVXVXVXVXVXVXVXVXVXVXVXVXVXVXVXVXVXVXVXVXVXVX",
"VXVXVXVXVXVXVXVXVXVXVXVXVXVXVXVXVXVXVXVXVXVXVXVXVXVXVXZXCX1 h N h y GXZXVXVXVXVXZXVXVXVXVXVXVXVXVXVXVXVXVXVXVXVXVXVXVXVXVXVXVXVXVXVXVXVXVXVXVXVXVXVXVXVXVXVXVXVX",
"VXVXVXVXVXVXVXVXVXVXVXVXVXVXVXVXVXVXVXVXVXVXVXVXVXVXVXZXAXXX- 5.D - ;XAXVXVXVXVXZXGXGXZXVXVXVXVXVXVXVXVXVXVXVXVXVXVXVXVXVXVXVXVXVXVXVXVXVXVXVXVXVXVXVXVXVXVXVXVX",
"VXVXVXVXVXVXVXVXVXVXVXVXVXVXVXVXVXVXVXVXVXVXVXVXVXVXVXVXAXVXt j q.j < CXZXVXVXAXkXXX7XCXZXVXVXVXVXVXVXVXVXVXVXVXVXVXVXVXVXVXZXVXVXVXVXVXVXVXVXVXVXVXVXVXVXVXVXVX",
"VXVXVXVXVXVXVXVXVXVXZXVXVXVXVXVXVXVXVXVXVXVXVXVXVXVXVXVXVXAXCXL j P.- ;XHXVXVXGXXX@ X ;XGXVXVXVXZXVXVXVXVXVXVXVXVXVXVXVXVXVXVXVXVXVXVXVXVXVXVXVXVXVXVXVXVXZXVXVX",
"VXVXVXVXVXVXVXVXVXVXVXVXVXVXVXVXVXVXVXVXVXVXVXVXVXVXVXVXVXVXJXpXg q.2.= kXJXGXCXl - Q MXZXZXVXVXVXVXVXZXVXVXVXVXVXVXVXVXVXVXVXVXVXVXVXVXVXVXVXVXVXVXVXVXVXVXVXVX",
"VXVXVXVXVXVXVXVXVXVXVXVXVXVXVXVXVXVXVXVXVXVXVXVXVXVXVXVXVXVXZXAXW h U.- 0 AXSXQ - > BXLXAXGXGXHXGXAXBXVXVXVXVXVXVXVXVXVXVXVXVXVXVXVXVXVXVXVXVXVXVXVXVXVXVXVXVXVX",
"VXVXVXVXVXVXVXVXVXVXVXVXVXVXVXVXVXVXVXVXVXVXVXVXVXVXVXVXVXVXVXGXkX- N P.$ 4 5 = g 6 sXaX8X3X-X3XpXDXGXVXVXVXVXVXVXVXVXVXVXVXVXVXVXVXVXVXVXVXVXVXVXVXVXVXVXVXVXVX",
"VXVXVXVXVXVXVXVXVXVXVXVXVXVXVXVXVXVXVXVXVXVXVXVXVXVXVXVXVXVXVXVXGX@Xg q.V @ + = - < = + @ + + + X * -XZXVXVXVXVXVXVXVXVXVXVXVXVXVXVXVXVXVXVXVXVXVXVXVXVXVXVXVXVX",
"VXVXVXVXVXVXVXVXVXVXVXVXVXVXVXVXVXVXVXVXVXVXVXVXVXVXVXVXVXVXVXZXDXW g V N M - l M M K -X-X-X-XXXQ ; 0 ZXZXVXVXVXVXVXVXVXVXVXVXVXVXVXVXVXVXVXVXVXVXVXVXVXVXVXVXVX",
"VXVXVXVXVXVXVXVXVXVXVXVXVXVXVXVXVXVXVXVXVXVXVXVXVXVXVXVXVXVXAXmX; @ @ h V M < - , MXAXGXGXGXGXSXAXVXCXVXVXVXVXVXVXVXVXVXVXVXVXVXVXVXVXVXVXVXVXVXVXVXVXVXVXVXVXVX",
"VXVXVXVXVXVXVXVXVXVXVXVXVXVXVXVXVXVXVXVXVXVXVXVXVXVXVXVXVXVXAXkX< : Q < @ $ - @ > sXGXVXVXVXVXZXVXZXZXVXVXVXVXVXVXVXZXVXVXVXVXVXVXVXVXVXVXVXVXVXVXVXVXVXVXVXVXVX",
"VXVXVXVXVXVXVXVXVXVXVXVXVXVXVXVXVXVXVXVXVXVXVXVXVXVXVXVXVXVXVXZXVXMXGXkX].J , > # X pXAXVXVXVXVXVXVXVXVXVXVXVXVXVXVXVXVXVXVXVXVXVXVXVXVXVXZXVXVXVXVXVXVXVXVXVXVX",
"VXVXVXVXVXVXVXVXVXVXVXVXVXVXVXVXVXVXVXVXVXVXVXVXVXVXVXVXVXVXVXVXZXAXVXAXGXAXCXsX-XXXsXSXVXVXVXVXVXVXVXVXVXVXVXVXVXVXVXVXVXVXVXVXVXVXVXVXVXVXVXVXVXVXVXVXVXVXVXVX",
"VXVXVXVXVXVXVXVXVXVXVXVXVXVXVXVXVXVXVXVXVXVXVXVXVXVXVXVXVXVXVXVXVXVXVXVXVXZXZXGXGXGXZXVXVXVXVXVXVXVXVXVXVXVXVXVXVXVXVXVXVXVXVXVXVXVXVXVXVXVXVXVXVXVXVXVXVXVXVXVX",
"VXVXVXVXVXVXVXVXVXVXVXVXVXVXVXVXZXVXVXVXVXVXVXVXVXVXVXVXVXVXVXVXVXZXVXVXVXVXVXVXZXVXVXVXVXVXVXVXVXVXVXVXVXVXVXVXVXVXVXVXVXVXVXVXVXVXVXVXVXVXVXVXVXVXVXVXVXVXVXVX",
"VXVXVXVXVXVXVXVXVXVXVXVXVXVXVXVXVXVXVXVXVXVXVXVXVXVXVXVXVXVXVXVXVXVXVXVXVXVXVXVXZXVXVXVXVXVXVXVXVXVXVXVXVXVXVXVXVXVXVXVXVXVXVXVXVXVXVXVXVXVXVXVXVXVXVXVXVXVXVXVX",
"ZXZXVXVXVXZXVXVXVXVXVXVXVXVXVXVXVXVXVXVXVXVXVXVXVXVXVXVXVXVXVXVXVXVXVXVXVXVXVXVXVXVXVXVXVXVXVXVXVXVXVXVXVXVXVXVXVXVXVXVXVXVXVXVXVXVXVXVXVXVXVXVXVXVXVXVXVXVXVXVX",
"VXVXVXZXVXVXVXVXVXVXVXVXVXVXVXVXVXVXVXVXVXVXVXVXVXVXVXVXVXVXVXVXVXVXVXVXVXVXVXVXVXVXVXVXVXVXVXVXVXVXVXVXVXVXVXVXVXVXVXVXVXVXVXVXVXVXVXVXVXVXVXVXVXVXVXVXVXVXVXVX"
};
