/* XPM */
static char *paulinol31675337815[] = {
/* columns rows colors chars-per-pixel */
"80 80 256 2 ",
"   c #020205",
".  c #0B1118",
"X  c #39310A",
"o  c #121722",
"O  c #30302F",
"+  c #452C02",
"@  c #553403",
"#  c #4D360C",
"$  c #70380D",
"%  c #4A3925",
"&  c #364021",
"*  c #654817",
"=  c #714A17",
"-  c #724C0E",
";  c #4A4626",
":  c #564A29",
">  c #594A35",
",  c #575537",
"<  c #514F36",
"1  c #784929",
"2  c #78552A",
"3  c #645938",
"4  c #755635",
"5  c #6C4F28",
"6  c #5E633D",
"7  c #6D663D",
"8  c #4F4218",
"9  c #263745",
"0  c #5A554A",
"q  c #55514F",
"w  c #695A46",
"e  c #685B57",
"r  c #745C4F",
"t  c #5B644B",
"y  c #696B46",
"u  c #77674A",
"i  c #75744B",
"p  c #6C6757",
"a  c #756D53",
"s  c #7A6E53",
"d  c #76665B",
"f  c #7C745B",
"g  c #797558",
"h  c #6E7656",
"j  c #67666A",
"k  c #796D66",
"l  c #787964",
"z  c #707173",
"x  c #5B5B64",
"c  c #953116",
"v  c #AE3018",
"b  c #9D2715",
"n  c #FF3407",
"m  c #FF3514",
"M  c #E53423",
"N  c #8B5814",
"B  c #AC4B19",
"V  c #956616",
"C  c #A8731B",
"Z  c #894A29",
"A  c #8A562A",
"S  c #855838",
"D  c #975033",
"F  c #A84624",
"G  c #B6562D",
"H  c #AB4939",
"J  c #A95534",
"K  c #BB5B3B",
"L  c #B65739",
"P  c #B44C2F",
"I  c #92662D",
"U  c #B9663C",
"Y  c #B57737",
"T  c #AF722F",
"R  c #C45937",
"E  c #C65129",
"W  c #FF4728",
"Q  c #FE4837",
"!  c #FC5837",
"~  c #ED5333",
"^  c #C4673A",
"/  c #C27A38",
"(  c #EE6526",
")  c #995946",
"_  c #BB5B45",
"`  c #B0574A",
"'  c #866748",
"]  c #96684B",
"[  c #89714D",
"{  c #886954",
"}  c #837354",
"|  c #847A5D",
" . c #877759",
".. c #977758",
"X. c #976F53",
"o. c #AB6545",
"O. c #BD6B43",
"+. c #B96746",
"@. c #B97349",
"#. c #A87756",
"$. c #B77855",
"%. c #A97052",
"&. c #877B65",
"*. c #9A7A65",
"=. c #8A7677",
"-. c #8C6F6D",
";. c #AC796A",
":. c #FE5746",
">. c #F45253",
",. c #C56C42",
"<. c #C46848",
"1. c #C4734A",
"2. c #C87749",
"3. c #C56C52",
"4. c #CA7956",
"5. c #D2794F",
"6. c #FF694F",
"7. c #FF7878",
"8. c #FE6870",
"9. c #D5625B",
"0. c #7C8668",
"q. c #788872",
"w. c #AE8D16",
"e. c #B89B29",
"r. c #BB8337",
"t. c #BB9936",
"y. c #AE8E2D",
"u. c #AAA423",
"i. c #B8A52B",
"p. c #BCA535",
"a. c #BEB92E",
"s. c #98842E",
"d. c #C4883B",
"f. c #CF8E39",
"g. c #C5A72A",
"h. c #C4AC3C",
"j. c #C6A936",
"k. c #C9B539",
"l. c #C8B32B",
"z. c #C39A1F",
"x. c #CBC53A",
"c. c #8C845C",
"v. c #94825B",
"b. c #968B46",
"n. c #B48E50",
"m. c #B8AA49",
"M. c #B8AA58",
"N. c #BAB251",
"B. c #8D8364",
"V. c #88866A",
"C. c #928465",
"Z. c #948B6B",
"A. c #978A6A",
"S. c #9A906E",
"D. c #858874",
"F. c #948C71",
"G. c #958975",
"H. c #8C9274",
"J. c #9C9475",
"K. c #9D9579",
"L. c #9D997B",
"P. c #959376",
"I. c #A39B7C",
"U. c #A29779",
"Y. c #AC8C68",
"T. c #B6A767",
"R. c #ADA57A",
"E. c #B8AB77",
"W. c #BBB878",
"Q. c #B9B167",
"!. c #C68447",
"~. c #C59545",
"^. c #CA8456",
"/. c #D68655",
"(. c #CF9249",
"). c #C6A845",
"_. c #C9B545",
"`. c #C8B757",
"'. c #C28762",
"]. c #C4BA77",
"[. c #C2B06A",
"{. c #EC924B",
"}. c #BBC67B",
"|. c #C8C479",
" X c #CDC36C",
".X c #CEC45C",
"XX c #6C7785",
"oX c #917A82",
"OX c #FF7D87",
"+X c #868785",
"@X c #9A8786",
"#X c #969C84",
"$X c #998B94",
"%X c #AA8D93",
"&X c #BBB485",
"*X c #BBB78A",
"=X c #BBBC95",
"-X c #ADA88C",
";X c #B797A6",
":X c #B695AF",
">X c #B6AFAA",
",X c #9EA88A",
"<X c #FA8C90",
"1X c #C2B985",
"2X c #C2BE97",
"3X c #C699AB",
"4X c #FF9BB9",
"5X c #F594AD",
"6X c #C7A3BA",
"7X c #FFA2B7",
"8X c #CE858E",
"9X c #B8C395",
"0X c #BDC8BA",
"qX c #C8C687",
"wX c #C6C397",
"eX c #D0C98A",
"rX c #CAC6A3",
"tX c #D1CBA3",
"yX c #C9A8C7",
"uX c #D5ACCA",
"iX c #C6B8C5",
"pX c #D4AED7",
"aX c #DAB5D8",
"sX c #D1B4CF",
"dX c #FFA8C8",
"fX c #FDADD7",
"gX c #E2B7DD",
"hX c #FDB5D9",
"jX c #F2ADCA",
"kX c #DEBDEF",
"lX c #E5BAE4",
"zX c #EABDE9",
"xX c #FFB9E6",
"cX c #FFBBF6",
"vX c #FF9BD2",
"bX c #CAC4C8",
"nX c #D9D9D7",
"mX c #D1C7D1",
"MX c #DDE1DA",
"NX c #E1E4DE",
"BX c #E5C2E5",
"VX c #F7C5EA",
"CX c #FFCEFF",
"ZX c #F7C8F8",
"AX c #FFD3FF",
"SX c #FFDBFF",
"DX c #F6D4F4",
"FX c #ECCBF0",
"GX c #E8EAE7",
"HX c #FFE3FF",
"JX c #FFEAFF",
"KX c #FEF3FE",
"LX c #FDFDFE",
"PX c #F4FAF4",
"IX c #EDF2EF",
"UX c #A4A2C0",
/* pixels */
"CXCXCXCXCXCXCXCXCXCXCXCXCXCXCXCXCXCXCXCXCXCXCXCXCXCXCXCXCXCXCXCXCXCXCXCXCXCXCXCXCXCXCXCXCXCXCXCXCXCXCXCXCXCXCXCXCXCXCXCXCXCXCXCXCXCXCXCXCXCXCXCXCXCXCXCXCXCXCXCX",
"CXCXCXCXCXCXCXCXCXCXCXCXCXCXCXCXCXCXCXCXCXCXCXCXCXCXCXCXCXCXCXCXCXCXCXCXCXCXCXCXCXCXCXCXCXCXCXCXCXCXCXCXCXCXCXCXCXCXCXCXCXCXCXCXCXCXCXCXCXCXCXCXCXCXCXCXCXCXCXCX",
"CXCXCXCXCXCXCXCXCXCXCXCXCXCXCXCXCXCXCXCXCXCXCXCXCXCXCXCXCXCXCXCXCXCXCXCXCXCXCXCXCXCXCXCXCXCXCXCXCXCXCXCXCXCXCXCXCXCXCXCXCXCXCXCXCXCXCXCXCXCXCXCXCXCXCXCXCXCXCXCX",
"CXCXCXCXCXCXCXCXCXCXAXCXCXCXCXCXCXCXCXCXCXCXCXCXCXCXCXCXCXCXCXCXCXCXCXCXCXCXCXCXCXCXCXCXCXCXCXCXCXCXCXCXCXCXCXCXAXCXCXCXCXCXCXCXCXCXCXCXCXCXCXCXCXCXCXCXCXCXCXCX",
"CXCXCXCXCXCXCXCXCXCXCXCXCXCXCXCXCXCXCXCXCXCXCXCXCXCXCXCXCXCXCXCXCXCXCXCXCXCXCXCXCXCXCXCXCXCXCXCXCXCXCXCXCXCXCXCXCXCXCXCXCXCXCXCXCXCXCXCXCXCXCXCXCXCXCXCXCXCXCXCX",
"CXCXCXCXCXCXCXCXCXCXCXCXCXCXCXCXCXCXCXCXCXCXCXCXCXCXCXCXCXAXCXCXCXCXCXCXCXCXCXCXCXCXCXCXCXCXCXCXCXCXCXCXCXCXCXCXCXCXCXCXCXCXCXCXCXCXCXCXCXCXCXCXCXCXCXCXCXCXCXCX",
"CXCXCXCXCXCXCXCXCXCXCXCXCXCXCXCXCXCXCXCXCXCXCXCXCXCXCXCXCXCXCXCXCXCXCXCXCXCXCXCXCXCXCXCXCXCXCXCXCXCXCXCXCXCXCXCXCXCXCXCXCXCXCXCXCXCXCXAXCXCXCXCXCXCXCXCXCXCXCXCX",
"CXCXCXCXCXCXCXCXCXCXCXCXCXCXCXCXCXCXCXCXCXCXCXCXCXCXCXCXCXCXCXCXCXCXCXCXCXCXCXCXCXCXCXCXCXCXCXCXCXCXCXCXCXCXCXCXCXCXCXCXCXCXCXCXCXCXCXCXCXCXCXCXCXCXCXCXCXCXCXCX",
"CXCXCXCXCXCXCXCXCXCXCXCXCXCXCXCXCXCXCXCXCXCXCXCXCXCXCXCXCXCXCXCXCXCXCXCXCXCXCXCXCXCXCXCXCXCXCXCXCXCXCXCXCXCXCXCXCXCXCXCXCXCXCXCXCXCXCXCXCXCXCXCXCXCXCXCXCXCXCXAX",
"CXCXCXCXCXCXCXCXCXCXCXCXCXCXCXCXCXCXCXCXCXCXCXCXCXCXCXCXCXCXCXCXCXCXCXCXCXCXCXCXCXCXCXCXCXCXCXCXCXCXCXCXCXCXCXCXCXCXCXCXCXCXCXCXCXCXCXCXCXCXCXCXCXCXCXCXCXCXCXCX",
"CXCXCXCXCXCXCXCXCXCXCXCXCXCXCXCXCXCXCXCXCXCXCXCXCXCXCXCXCXCXCXCXCXCXCXCXCXCXCXCXCXCXCXCXCXCXCXCXSXCXCXCXCXCXCXCXCXCXCXCXCXCXCXCXCXCXCXCXCXCXCXCXCXCXCXCXCXCXCXCX",
"CXCXCXCXCXCXCXCXCXCXCXCXCXCXCXCXCXCXCXCXCXCXCXCXCXCXCXCXCXCXCXCXCXCXCXCXCXCXCXCXCXCXCXCXCXCXCXCXZXAXCXCXCXCXCXCXCXCXCXCXCXCXCXCXCXCXCXCXCXCXCXCXCXCXCXCXCXCXCXCX",
"CXCXCXCXCXCXCXCXCXCXCXCXCXCXCXCXCXCXCXCXCXCXCXCXCXCXCXCXCXCXCXCXCXCXAXCXCXCXCXCXCXCXCXCXCXCXHX<X8.HXAXCXCXCXCXCXCXCXCXCXCXCXCXCXCXCXCXCXCXCXCXCXCXCXCXCXCXCXCXCX",
"CXCXCXCXCXCXCXCXCXCXCXCXCXCXSXSXCXCXCXCXCXCXCXCXCXCXCXCXCXCXCXCXCXCXCXCXCXCXCXCXCXCXCXCXCXCXSX{.m CXHXCXCXCXCXCXCXCXCXCXCXCXCXCXCXCXCXCXCXCXCXCXCXCXCXCXCXCXCXCX",
"CXCXCXCXCXCXCXCXCXCXCXCXAXSXZXcXSXSXSXCXCXCXCXCXCXCXCXAXCXCXCXCXCXCXCXCXCXCXCXCXCXCXCXCXCXCXHXvXm {.HXSXCXCXAXCXCXCXCXCXCXCXCXCXCXCXCXCXCXCXCXCXCXCXCXCXCXCXCXCX",
"CXCXCXCXCXCXCXCXCXCXAXHXAXyXk f =.:XFXSXSXAXCXCXCXCXCXCXCXCXCXCXCXCXCXCXCXCXCXCXCXCXCXCXCXCXSXCX>.m 7.SXHXCXCXCXCXCXCXCXCXCXCXCXCXCXCXCXCXCXCXCXCXCXCXCXCXCXCXCX",
"CXCXCXCXCXCXCXCXCXSXAX6X-.: 3 i 7 7 | %X6XSXSXCXCXCXCXCXCXCXCXCXCXCXSXAXCXCXCXCXCXCXCXCXCXCXCXHXvXQ W :.dXHXAXCXCXCXCXCXCXCXCXCXCXCXCXCXCXCXCXCXCXCXCXCXCXCXCXCX",
"CXCXCXCXCXCXCXCXSXCX@X* 5 y } v.c.c.c.7 6 :XSXCXCXCXCXCXCXCXCXCXCXCXhXZXCXCXCXCXCXCXCXCXCXCXCXAXCX6.Q W W hXHXCXCXCXCXCXCXCXCXCXCXCXCXCXCXCXCXCXCXCXCXCXCXCXCXCX",
"CXCXCXCXCXCXCXAXDX%X5 S u 3 C.c.C.C.S.U.c.&.lXSXAXCXCXCXCXCXCXCXSXhX8.ZXSXCXCXCXCXCXSXAXCXCXCXCXHX7XW :.W 7.SXAXCXCXCXCXCXCXCXCXCXCXCXCXCXCXCXCXCXCXCXCXCXCXCXCX",
"CXCXCXCXCXCXAXSX;X* 3 ..; , .. .[ c.S.S.S.c.G.aXSXSXCXCXCXCXCXCXSXxXW 4XHXCXCXCXSXSXxXZXCXCXCXCXHXxX:.! :.:.xXSXCXCXCXCXCXCXCXCXCXCXCXCXCXCXCXCXCXCXCXCXCXCXCXCX",
"CXCXCXCXCXCXCXSXX.$ [ > % D S ' [ v.A.S.S.S.c.0.%XFXSXCXCXCXCXCXSXcXQ ! CXSXCXCXSXOX:.CXSXCXCXCXSXZX>.! >.Q dXHXCXCXCXCXCXCXCXCXCXCXCXCXCXCXCXCXCXCXCXCXCXCXCXCX",
"CXCXCXCXCXCXAXAX-.Z S % A m v w v...c.A.S.S.S.Z.7 p BXHXCXCXCXAXAXSXOXn <XHXCXHXdXn Q cXSXCXCXCXSXVX:.! :.Q fXSXCXCXCXCXCXCXCXCXAXCXCXCXCXCXCXCXCXCXCXCXCXCXCXCX",
"CXCXCXCXCXCXSXaX1 D 1 5 Z n F u [ S [ A.U.I.J.J.J.y &.HXHXSXSXSXSXLXvXm :.CXHXKX5XW W 4XKXSXCXSXJX7XW ! ! 8.AXAXCXCXCXCXCXCXCXCXCXCXCXCXCXCXCXCXCXCXCXCXCXCXCXCX",
"CXCXCXCXCXCXHXuX$ 1 Z Z 1 c S ' S 1 [ Z.J.R.L.U.L.V.6 %X6XsXsXsXyXbX8X~ ~ 3X0XiX<XQ ~ >.fXSXSXHXdXQ 6.{.Q 4XHXCXCXCXCXCXSXCXCXCXCXCXCXCXCXCXCXCXCXCXCXCXCXCXCXCX",
"CXCXCXCXCXCXHXuX$ c Z A Z r Z 1 = 2 } *.U.U.I.U.K.P.B., 6 y y y i h ] @./ ..0.0.A.T U F F %.;.;.E ~ f.( 8.SXJXJXSXAXCXCXfXCXCXCXCXCXCXCXCXCXCXCXCXCXCXCXCXCXCXCX",
"CXCXCXCXCXCXHX;X$ Z D A D Z 1 1 4 } | Z.U.U.U.U.J.J.P.V.V.V.F.J.P.L.!.5.4.U.H.H.V.o.U U J B B B D D C c ) +X$X:XlXCXSXxX! xXSXCXCXCXCXCXCXCXCXCXCXCXCXCXCXCXCXCX",
"CXCXCXCXCXAXZX..N N Z $ + + # 5 } C.A.A.A.I.I.#XR.J.J.L.L.P.P.L.,X'.2.2.n.H.S.H.H.%.^ U O.O.O.+._ Y y.P D < ; & & kXLX<Xn fXSXCXCXCXCXCXCXCXCXCXCXCXCXCXCXCXCXCX",
"CXCXCXCXCXSXzXI N X.;.-.-.e % 3 ..| A.A.A.I.U.U.P.L.L.L.S.L.L.R.Y.5.1.^ Y.L.P.S.H.$.^ O.O.2.4.1.n.p.,.<.%.l 0.0 O >XfX:.W dXHXCXCXCXCXCXCXCXCXCXCXCXCXCXCXCXCXCX",
"CXCXCXCXCXSXVX#.8XZXSXSXHXHX:X: } C.&.&.U.U.K.G.P.#X#X-XJ.K.L.Y.^ @.2.2.A.H.Z.V.H.$.,.,.1.2.3.d.l.d.+.n.^ $.D.D.l ' b c M jXHXDXCXCXCXCXCXCXCXCXCXCXCXCXCXCXCXCX",
"CXCXCXCXCXCXZXZXSXSXAXCXCXSXHX%X7 A.' } U.U.I.#XI.I.I.L.L.S.S.5.^ ,.^ ,.*.D.S.H.L.1.,.@.O.<.2.k.x.^ '.[.<.<.$.#.#.J F c b jXJXCXCXCXCXCXCXCXCXCXCXCXCXCXCXCXCXCX",
"CXCXCXCXCXCXCXAXAXCXCXCXCXCXSXZX}  .} 4 C.U.I.U.U.Z.Z.G.F.l #.^ / ^ ^ ^ $.J.L.#XY.3.^.4.1.+.~.x.j.[.qX^.<.O.,.^ K U U P Z k ZXHXCXCXCXCXCXCXCXCXCXCXCXCXCXCXCXCX",
"CXCXCXCXCXCXCXCXAXCXCXCXCXCXAXZX .[ A.u u U.K.K.K.B.a u } 0.v.^ ^ U 2.4.2.4.n.Y.'././.4./.^.).k. XtX4.<.<.+._ 3.!.Y L X.0.t k ZXSXCXCXCXCXCXCXCXCXCXCXCXCXCXCXCX",
"CXCXCXCXCXCXCXCXCXCXCXCXCXCXSXZXu i C.} 3 *.U.U.U.J.| u s 0.#.^ ,.<.d.(.4.2.5./.^.4.^.^.4.4.).`.qX).Y 1.+.@.!.~.r.,.*.0.g y < =.ZXSXAXCXCXCXCXCXCXCXCXCXCXCXCXCX",
"CXCXCXCXCXCXCXCXCXCXCXCXCXCXCXAX-.4  . .u u G.U.K.G.B.&.C.F.n.^ 4.2.!.h.1.4.4.2.4.^._.(.4.4.j.|.].l.g.t.t.a.p.Y R *.q.V.a p | g @XFXSXAXCXCXCXCXCXCXCXCXCXCXCXCX",
"CXCXCXCXCXCXCXCXCXCXCXCXCXCXCXHXyX: &.A. .u } | | &.C.A.S.F.A.^ ^ 3.(.x.(.4.5.4.@.).x.(.4.3.4.qX Xg.g.g.l.t.R R Y.l l } p a | C.g V.lXHXAXCXCXCXCXCXCXCXCXCXCXCX",
"CXCXCXCXCXCXCXCXCXCXCXCXCXCXCXHXuX:  .C. .{ u s  .S.U.J.S.V.C.U 2.,.f.k.(.5.5.2.2._.x.(.3.3.(.eX|.j.i.k.d._ 3.T.B.V.&.g g a V.@.J i l sXSXCXCXCXCXCXCXCXCXCXCXCX",
"CXCXCXCXCXCXCXCXCXCXCXCXCXCXCXSXgX5 u  .&.B.B.S.I.I.I.U.S.A.Z.@.( /. X.X2.5./.{.2.j.h.k.).).l. X9XN.l.k.U @.|.U.l &.&.&.s i V.J E [ 6 3 lXSXCXCXCXCXCXCXCXCXCXCX",
"CXCXCXCXCXCXCXCXCXCXCXCXCXCXCXSXgX% 3 s B.Z.S.U.U.U.U.R.I.A.P.U.{ { z j 0 0 e X.5.j.k.j.k.k.k.[.W.].W.}.W.}.n.J D.l a a s 0.V.+.E o.g ; -.SXSXCXCXCXCXCXCXCXCXCX",
"CXCXCXCXCXCXCXCXCXCXCXCXCXCXCXSXZXr % 3 V.B.A.U.F.V.*.g j z XX$Xx 9 o o . . . 9 ;.{.l.j.g.g.k.W.1XqX|.M.n.+.P L X.V.h h l V.#.U R o.l i ; :XSXCXCXCXCXCXCXCXCXCX",
"CXCXCXCXCXCXCXCXCXCXCXCXCXCXCXCXSXuX: : 5 i F.z e x k j z j q O o .     O O q x XXS..X_.z.g.Q.=X*X}.p.G L K O.K K U ] [ } @.^ U ^ o.B.V.7 0 lXSXCXCXCXCXCXCXCXCX",
"CXCXCXCXCXCXCXCXCXCXCXCXCXCXCXCXAXAX-.: D.>X$X-X>X+Xj q O .     . O q =.;.4.4.$.-.z +X|.`. XwX&XW.g.e.O.U U +.O.U P F G P P U ,.R o.H.c.p , yXSXCXCXCXCXCXCXCXCX",
"CXCXCXCXCXCXCXCXCXCXCXCXCXCXZXCXDXDXbXMXLXIX#X>X-Xq       . O q d ;.`._.(.5.U 2.).n.D.*XeXqXwXqX`.e.e.+.Y U <.O.O.K L P P J Y K ^ $.V.f i y lXSXCXCXCXCXCXCXCXCX",
"CXCXCXCXCXCXCXCXCXCXAXCXcXZXDXGXPXPXLXPXGXIX>Xd =.q O q q k *.$.4.<./ l.l.j.j.k.k.k.Q.9X|.qXwXqXm.g.p._ r.j.<.O.O.+.<.` J y.T L ^ %.V.V.y G.SXAXCXCXCXCXCXCXCXCX",
"CXCXCXCXCXCXCXCXCXCXCXZXSXKXLXLXLXGXnXMXLXGX$Xk D.-.%.#.$.4.<.R ^ <.^ i.g.j._.h._.l..XwXwXtXeX]._.g.j.,.@.x.~.@.3.+.O.T u.y.H U ^ #.D.B.y @XSXCXCXCXCXCXCXCXCXCX",
"CXCXCXCXCXCXAXAXAXFXJXPXLXPXIXnXnXNXGXGX>XD.e k &.V.%.R d.d.K K _ P w.g.`.h.k.k.l.`.eXtXrX2X1X].p.z.k.(.4.).x.j.p.t.p.u.y.H H L R A.D.l y =.SXAXCXCXCXCXCXCXCXCX",
"CXCXCXCXCXAXBXsXmXnXIXIXGXnXnXNXGXGXmXsXj X w s } f B.o.^ z.t.Y Y y.w.C M.Q.j.k.`.].eX2X1X1X].[.p.g.k.).3.3.n.p.h.t.t.Y H P T J U &.l f 6 %XSXCXCXCXCXCXCXCXCXCX",
"CXCXCXCXAXAXyX#X0XnXMXNXGXGXNXmX6XyXpXAXBX% ; s | C.&.g ) G z.l.l.g.e.w.y.E.M.M.[.[.[.R.].1Xn.M.h.z.j.k.~._ _ $.@.+.` ` H y.T H D 0.l , a FXSXCXCXCXCXCXCXCXCXCX",
"CXCXCXCXCXAXZXsXiX0XiXbXmXbXyXpXlXZXAXSXHXaX3 , } g g g 0.{ ] / f.i.i.e.y.m.W.R.[.1XE.E.1X[.M.[.`.k.h.h.h.n.4.3.+.+.o.Y y.u.D F o.+Xt p gXSXCXCXCXCXCXCXCXCXCXCX",
"CXCXCXCXCXCXSXAXzXpXyXpXpXlXCXAXSXCXCXCXCXJXBX: ; u g } } h k { L ^ t.i.z.N.1X*X-X&X1X1X].1X`.].qXk.k.).h.a.m.m.y.n.y.i.u.y.D c uXFX@XaXHXAXCXCXCXCXCXCXCXCXCXCX",
"CXCXCXCXCXCXCXCXAXAXAXAXCXAXCXCXCXCXCXCXCXCXJXpX% X 3 a a a f l l _ R t.i.`.1X*X1X1X1X].[.1X1XeXwX Xj.k.).h.h.i.k.e.e.t.i.%.c D ZXHXAXAXCXZXCXCXCXCXCXCXCXCXCXCX",
"CXCXCXCXCXCXCXCXCXCXCXCXCXCXCXCXCXCXCXCXCXCXCXSXlX@X0 : u a g l 0.*.L L e.m.W.=X1X1XE.Y.1X2X2X|.eXqX`.j.i.g.u.i.e.u.m.e.y.D v 5XSXCXAXCXCXCXCXCXCXCXCXCXCXCXCXCX",
"CXCXCXCXCXCXCXCXCXCXCXCXCXCXCXCXCXCXCXCXCXCXCXCXHXKXgXe ; 3 s f l f L P T m.W.&X-XE.T.Y.1X2X2X2XqXqXwX].[.M.M.m.M.W.m.u.] v 8.HXSXCXCXCXCXCXCXCXCXCXCXCXCXCXCXCX",
"CXCXCXCXCXCXCXCXCXCXCXCXCXCXCXCXCXCXCXCXCXCXCXCXCXCXSXSXoX> % X : y ] P P n.|.&X1X&XE.&X&X&XwX2X9XwXwXqXqX9XW.9X*Xm.u.s.b >.SXHXCXCXCXCXCXCXCXCXCXCXCXCXCXCXCXCX",
"CXCXCXCXCXCXCXCXCXCXCXCXCXCXCXCXCXCXCXCXCXCXCXCXCXCXCXSXSXzXyX%X@Xk , Z F P M.}.-X1XR.R.&X2XrXrXtXtXrXwX=XqX=X=Xm.u.s.b >.DXSXCXCXCXCXCXCXCXCXCXCXCXCXAXCXCXCXCX",
"CXCXCXCXCXCXCXCXCXCXCXCXCXCXCXCXCXCXCXCXCXCXCXCXCXCXCXCXCXSXHXHXHXDX;Xp S c G M.*X-X*X1X2X2X=XrXrX=XrX=X2X=X=XM.u.C M 8.AXJXCXCXCXCXCXCXCXCXCXCXCXCXCXCXCXCXCXCX",
"CXCXCXCXCXCXCXCXCXCXCXCXCXCXCXCXCXCXCXCXCXCXCXCXCXCXCXCXCXCXCXCXCXSXSXCXsX%XS V m.E.2X2X2X2XwXwX2XrX>X9X9X9XN.w.B >.4XJXSXZXCXCXCXCXCXCXCXCXCXCXCXCXCXCXCXCXCXCX",
"CXCXCXCXCXCXCXCXCXCXCXCXCXCXCXCXCXCXCXCXCXCXCXCXCXCXCXCXCXCXCXCXCXCXCXSXSXSXsXp 5 b.M.E.2XwXwXwXwXwX=X].)./ V ;.5XcXJXAXZXCXCXCXCXCXCXCXCXCXCXCXCXCXCXCXCXCXCXCX",
"CXCXCXCXCXCXCXCXCXCXCXCXCXCXCXCXCXCXCXCXCXCXCXCXCXCXCXCXCXCXCXCXCXCXCXCXCXAXHXgXx < y g F.F.L.,XR.R.Y.b.%.oXoXZXJXAXCXCXCXCXCXCXCXCXCXCXCXCXCXCXCXCXCXCXCXCXCXCX",
"CXCXCXCXCXCXCXCXCXCXCXCXCXCXCXCXCXCXCXCXCXCXCXCXCXCXCXCXCXCXCXCXCXCXCXCXCXCXCXSXVXoXy 0 < , p d p d d p yXHXSXSXCXCXCXCXCXCXCXCXCXCXCXCXCXCXCXCXCXCXCXCXCXCXCXCX",
"CXCXCXCXCXCXCXCXCXCXCXCXCXCXCXCXCXCXCXCXCXAXCXCXCXCXCXCXCXCXCXCXCXCXCXCXCXCXCXCXSXSXzXsX>Xe % u p p 0 k CXSXCXCXCXCXCXCXCXCXCXCXCXCXCXCXCXCXCXCXCXCXCXCXCXCXCXCX",
"CXCXCXCXCXCXCXCXCXCXCXCXCXCXCXCXCXCXCXCXCXCXCXCXCXCXCXCXCXCXCXCXAXCXCXCXCXCXCXCXCXAXSXSXHXFXd 5 s u 5 A.SXAXCXCXCXCXCXCXCXCXCXCXCXCXCXCXCXCXCXCXCXCXCXAXCXCXCXCX",
"CXCXCXCXCXCXCXCXCXCXAXCXCXCXCXCXCXCXCXCXCXCXCXCXCXCXCXCXCXCXCXCXCXCXCXCXCXCXCXCXCXCXCXCXCXKXyX8 I I N ;XSXCXCXCXCXCXCXCXCXCXCXCXCXCXCXCXCXCXCXCXCXCXCXCXCXCXCXCX",
"CXCXCXCXCXCXCXCXCXCXCXCXCXCXCXCXCXCXCXCXCXCXCXCXCXCXCXCXCXCXCXCXCXCXCXCXCXCXAXCXCXCXCXCXCXJX@XN y.C 2 aXSXCXAXCXCXCXCXCXCXCXCXCXCXCXCXCXCXCXCXCXCXCXCXCXCXCXCXCX",
"CXCXCXCXCXCXCXCXCXCXCXCXCXCXCXCXCXCXCXCXCXCXCXCXCXCXCXCXCXCXCXCXCXCXCXZXCXHXHXSXCXCXCXCXHXpX2 C T N k SXAXCXCXCXCXCXCXCXCXCXCXCXCXCXCXCXCXCXCXCXCXCXCXCXCXCXCXCX",
"CXCXCXCXCXCXCXCXCXCXCXCXCXCXCXCXCXCXCXCXCXCXCXCXCXCXCXCXCXCXCXCXCXCXCXAXZXuXoXaXSXCXCXCXHXd N f.C u kXSXAXCXCXCXCXCXCXCXCXCXCXCXCXCXCXCXCXCXCXCXCXCXCXCXCXCXCXCX",
"CXCXCXCXCXCXCXCXCXCXCXCXCXCXCXCXCXCXCXCXCXCXCXCXCXCXCXCXCXCXCXCXCXCXCXHXuXX @ { SXSXCXHXaX- d.C S lXSXCXCXCXCXCXCXCXCXCXCXCXCXCXCXCXCXCXCXCXCXCXCXCXCXCXCXCXCXCX",
"CXCXCXCXCXCXCXCXCXCXCXCXCXCXCXCXCXCXCXCXCXCXCXCXCXCXCXCXCXCXCXCXCXCXCXSXDX%X= = pXKXSXSX3 V f.V ;XHXCXCXCXCXCXCXCXCXCXCXCXCXCXCXCXCXCXCXCXCXCXCXCXCXCXCXCXCXCXCX",
"CXCXCXCXCXCXCXCXCXCXCXCXCXCXCXCXCXCXCXCXCXCXCXCXCXCXCXCXCXCXSXHXHXHXHXHXKXJX' - u lXHXoX$ (.C } SXSXCXCXCXCXCXCXCXCXCXCXCXCXCXCXCXCXCXCXCXCXCXCXCXCXCXCXCXCXCXCX",
"CXCXCXCXCXCXCXCXCXCXCXCXCXCXCXCXCXCXCXCXCXCXCXCXCXCXCXCXCXSXCXuX3X;X;X6XyXBX-.- = > e * Y r.- 6XHXCXCXCXCXCXCXCXCXCXCXCXCXCXCXCXCXCXCXCXCXCXCXCXCXCXCXCXCXCXCXCX",
"CXCXCXCXCXCXCXCXCXCXCXCXCXCXCXCXCXCXCXCXCXCXCXCXCXCXCXCXSXyX: X + X + @ @ # 2 5 1 # + V f.V X.SXSXCXCXCXCXCXCXCXCXCXCXCXCXCXCXCXCXCXCXCXCXCXCXCXCXCXCXCXCXCXCXCX",
"CXCXCXAXCXCXCXCXCXCXCXCXCXCXCXCXCXCXCXCXCXCXCXAXCXCXCXCXSX=.; -.G.;X;X;X>X;.A I A = A r.Y N u lXSXCXCXCXCXCXCXCXCXCXCXCXCXCXCXCXCXAXCXCXCXCXCXCXCXCXCXCXCXCXCXCX",
"CXCXCXCXCXCXCXCXCXCXCXCXCXCXCXCXCXCXCXCXCXCXCXCXCXCXCXCXCXFXCXSXSXHXHXHXHXSXZXX.* 2 A T V - @ # yXSXCXCXCXCXCXCXCXCXCXCXCXCXCXCXCXCXCXCXCXCXCXCXCXCXCXCXCXCXCXCX",
"CXCXCXCXCXCXCXCXCXCXCXCXCXCXCXCXCXCXCXCXCXCXCXCXCXCXCXCXCXAXAXAXAXCXCXCXCXSXCXr @ $ - @ * -.w : aXSXCXCXCXCXCXCXCXCXCXCXCXCXCXCXCXCXCXCXCXCXCXCXCXCXCXCXCXCXCXCX",
"CXCXCXCXCXCXCXCXCXCXCXCXCXCXCXCXCXCXCXCXCXCXCXCXCXCXCXCXCXAXCXCXCXCXCXCXSXBX; X 5 1 { =.pXSXZXZXSXCXCXCXCXCXCXCXCXCXCXCXCXCXCXCXCXCXCXCXCXCXCXCXCXCXCXCXAXCXCXCX",
"CXCXCXCXCXCXCXCXCXCXCXCXCXCXCXCXCXCXCXCXCXCXCXCXCXCXCXCXCXCXCXCXCXCXCXCXAXlX@X;XpXFXSXJXSXCXSXSXCXCXCXCXCXCXCXCXCXCXCXCXCXCXCXCXCXCXCXCXCXCXCXCXCXCXCXCXCXCXCXCX",
"CXCXCXCXCXCXCXCXCXCXCXCXCXCXCXCXCXCXCXCXCXCXCXCXCXCXCXCXCXCXCXCXCXCXCXCXZXSXHXHXSXSXAXCXCXCXCXCXCXCXCXCXCXCXCXCXCXCXCXCXCXCXCXCXCXCXCXCXCXCXCXCXCXCXCXCXCXCXCXCX",
"CXCXCXCXCXCXCXCXCXCXCXCXCXCXCXAXCXCXCXCXCXCXCXCXCXCXCXCXCXCXCXCXCXCXCXCXCXCXCXCXCXCXCXCXCXCXCXCXCXCXCXCXCXCXCXCXCXCXCXCXCXCXCXCXCXCXCXCXCXCXCXCXCXCXCXCXCXCXCXCX",
"CXCXCXCXCXCXCXCXCXCXCXCXCXCXCXCXCXCXCXCXCXCXCXCXCXCXCXCXCXCXCXCXCXCXCXCXCXCXCXCXCXCXCXCXCXCXCXCXCXCXCXCXCXCXCXCXCXCXCXCXCXCXCXCXCXCXCXCXCXCXCXCXCXCXCXCXCXCXCXCX",
"CXCXCXCXCXCXCXCXCXCXCXCXCXCXCXCXCXCXCXCXCXCXCXCXCXCXCXCXCXCXCXCXCXCXCXCXCXCXCXCXCXCXCXCXCXCXCXCXCXCXCXCXCXCXCXCXCXCXCXCXCXCXCXCXCXCXCXCXCXCXCXCXCXCXCXCXCXCXCXCX",
"CXCXCXCXCXCXCXCXCXCXCXCXCXCXCXCXCXCXCXCXCXCXCXCXCXCXCXCXCXCXCXCXCXCXCXCXCXCXCXCXCXCXCXCXCXCXCXCXCXCXCXCXCXCXCXCXCXCXCXCXCXCXCXCXCXCXCXCXCXCXCXCXCXCXCXCXCXCXCXCX"
};
