/* XPM */
static char *paulinol11675337815[] = {
/* columns rows colors chars-per-pixel */
"80 80 256 2 ",
"   c #020105",
".  c #0C0F16",
"X  c #37300B",
"o  c #141822",
"O  c #2D2D2E",
"+  c #472C03",
"@  c #553403",
"#  c #4D330A",
"$  c #6E370C",
"%  c #49392C",
"&  c #3C472C",
"*  c #644718",
"=  c #724B11",
"-  c #574A29",
";  c #524F33",
":  c #784828",
">  c #78552A",
",  c #655837",
"<  c #765636",
"1  c #6E4D2B",
"2  c #61592E",
"3  c #293446",
"4  c #5B5646",
"5  c #544E4F",
"6  c #6E5B4D",
"7  c #676648",
"8  c #776748",
"9  c #676757",
"0  c #766956",
"q  c #6C7456",
"w  c #79775A",
"e  c #717248",
"r  c #7A7864",
"t  c #6D6E69",
"y  c #576066",
"u  c #960E00",
"i  c #933A18",
"p  c #B33319",
"a  c #B03E2A",
"s  c #982F24",
"d  c #C93B2D",
"f  c #FF2B19",
"g  c #8E5414",
"h  c #946B11",
"j  c #A9741B",
"k  c #8A562A",
"l  c #855838",
"z  c #914E2D",
"x  c #AB462B",
"c  c #B74929",
"v  c #AA5A2A",
"b  c #B64938",
"n  c #AA5535",
"m  c #B55936",
"M  c #AB4C34",
"N  c #90672E",
"B  c #B6772A",
"V  c #B8663B",
"C  c #AD7134",
"Z  c #AE4D1D",
"A  c #C35132",
"S  c #F74A39",
"D  c #C7673A",
"F  c #CD6433",
"G  c #8F5646",
"H  c #AC5743",
"J  c #856A55",
"K  c #867658",
"L  c #987758",
"P  c #8F6B4E",
"I  c #BC6845",
"U  c #BA744A",
"Y  c #A67856",
"T  c #B87756",
"R  c #AA6D4A",
"E  c #837D64",
"W  c #877867",
"Q  c #897976",
"!  c #8E6F6A",
"~  c #AC7769",
"^  c #FF4B46",
"/  c #FE5856",
"(  c #FF5644",
")  c #C66947",
"_  c #D16A44",
"`  c #C77549",
"'  c #D37849",
"]  c #C97A53",
"[  c #CC6E52",
"{  c #FF635B",
"}  c #FF6355",
"|  c #F56C51",
" . c #FF5C64",
".. c #FF5B7B",
"X. c #CD796D",
"o. c #FF6363",
"O. c #FF676A",
"+. c #FF766B",
"@. c #FF6C75",
"#. c #FF6D7C",
"$. c #FF6475",
"%. c #FF7375",
"&. c #FF717A",
"*. c #FF7A78",
"=. c #E9646B",
"-. c #C75C4F",
";. c #78866A",
":. c #7C8259",
">. c #B69618",
",. c #B09017",
"<. c #B89726",
"1. c #BB8536",
"2. c #B99831",
"3. c #B18F2F",
"4. c #BAA528",
"5. c #BBA934",
"6. c #B3B339",
"7. c #95893F",
"8. c #C49836",
"9. c #C89034",
"0. c #C5A82B",
"q. c #C5A834",
"w. c #C8B439",
"e. c #D3BC3E",
"r. c #DDA321",
"t. c #F8C832",
"y. c #FFFF35",
"u. c #FFF62C",
"i. c #F6DF25",
"p. c #8B825D",
"a. c #97855C",
"s. c #A7845B",
"d. c #B58E52",
"f. c #B8A949",
"g. c #AAA758",
"h. c #B7A856",
"j. c #B6B14F",
"k. c #8D8A6D",
"l. c #888469",
"z. c #938B6C",
"x. c #978867",
"c. c #8C8B74",
"v. c #898774",
"b. c #928C71",
"n. c #988B76",
"m. c #8B9479",
"M. c #959175",
"N. c #9B9474",
"B. c #9D997B",
"V. c #97967C",
"C. c #98916E",
"Z. c #A48868",
"A. c #B88764",
"S. c #A39B7A",
"D. c #A99777",
"F. c #AE9371",
"G. c #ABA768",
"H. c #B6AC67",
"J. c #BAB56A",
"K. c #AAA879",
"L. c #B9A978",
"P. c #BAB877",
"I. c #9FA448",
"U. c #C68747",
"Y. c #C99747",
"T. c #CA8556",
"R. c #D18457",
"E. c #D28E4A",
"W. c #C7A847",
"Q. c #C8B959",
"!. c #CAB248",
"~. c #FF8D6C",
"^. c #C4B869",
"/. c #C4BB7B",
"(. c #EC9F5E",
"). c #BBC27B",
"_. c #C9C57A",
"`. c #EACF4C",
"'. c #6D7986",
"]. c #917982",
"[. c #FF5D87",
"{. c #FF6B87",
"}. c #FF7C84",
"|. c #FF7986",
" X c #FF7B96",
".X c #FF7BA0",
"XX c #989B84",
"oX c #938B8C",
"OX c #A9918F",
"+X c #9BA386",
"@X c #A8A586",
"#X c #B9B589",
"$X c #BABA96",
"%X c #B1AB90",
"&X c #B696A6",
"*X c #B198AD",
"=X c #B2ACB1",
"-X c #FF8899",
";X c #FF8B8D",
":X c #C2B986",
">X c #C1BD96",
",X c #C19DAE",
"<X c #FF89A7",
"1X c #FF94A8",
"2X c #FF98B7",
"3X c #FF8BB4",
"4X c #C6A6BB",
"5X c #CEA8B7",
"6X c #FFA6B5",
"7X c #C1868A",
"8X c #B9C397",
"9X c #BED786",
"0X c #BDC8BA",
"qX c #C7C587",
"wX c #C5C29B",
"eX c #C8C49A",
"rX c #D1CB8B",
"tX c #CECBA3",
"yX c #D2CFA9",
"uX c #FF9CC3",
"iX c #FF8ECD",
"pX c #C9A8C6",
"aX c #D5ABC8",
"sX c #C7B8C6",
"dX c #D4ADD7",
"fX c #D8B4D7",
"gX c #CFB4D0",
"hX c #FFA8C8",
"jX c #FFABD9",
"kX c #E4B8DC",
"lX c #FFB7D9",
"zX c #F4B5CC",
"xX c #E7BBE7",
"cX c #FFB6E5",
"vX c #F8BAF3",
"bX c #E9AFEA",
"nX c #D4CFD3",
"mX c #F0C2DB",
"MX c #DDE1DA",
"NX c #E1E4DE",
"BX c #E7C2E7",
"VX c #FAC4ED",
"CX c #FEC4FC",
"ZX c #FFCEFF",
"AX c #FAC6F6",
"SX c #FFD3FF",
"DX c #FFDBFF",
"FX c #F3D4F6",
"GX c #ECCBF3",
"HX c #E8EAE7",
"JX c #FFE2FF",
"KX c #FFEBFF",
"LX c #FDFEFD",
"PX c #FBF4FB",
"IX c #EBF3F0",
"UX c #DFCCF6",
/* pixels */
"ZXZXZXZXZXZXZXZXZXZXZXZXZXZXZXZXZXZXZXZXZXZXZXZXZXZXZXZXZXZXZXZXZXZXZXZXZXZXZXZXZXZXZXZXZXZXZXZXZXZXZXZXZXZXZXZXZXZXZXZXZXZXZXZXZXZXZXZXZXZXZXZXZXZXZXZXZXZXZXZX",
"ZXZXZXZXZXZXZXZXZXZXZXZXZXZXZXZXZXZXZXZXZXZXZXZXZXZXZXSXJXDXZXZXZXZXZXZXZXZXZXZXZXZXZXZXZXSXZXZXZXZXZXZXZXZXZXZXZXZXZXZXZXZXZXZXZXZXZXZXZXZXZXZXZXZXZXZXZXZXZXZX",
"ZXZXZXZXZXZXZXZXZXZXZXZXZXZXZXZXZXZXZXZXZXZXZXZXZXZXZXSXcXcXSXZXZXZXZXZXZXZXZXZXZXZXZXZXZXZXZXZXZXZXZXZXZXZXZXZXZXZXZXZXZXZXZXZXZXZXZXZXZXZXZXZXZXZXZXZXZXZXZXZX",
"ZXZXZXZXZXZXZXZXSXZXZXZXZXZXZXZXZXZXZXZXZXZXZXZXZXZXDX6X^ hXDXZXZXZXZXZXZXZXZXZXZXZXZXZXZXZXZXZXZXZXZXZXZXZXZXZXZXZXZXZXZXZXZXZXZXZXZXZXZXZXZXZXZXZXZXZXZXZXZXZX",
"ZXZXZXZXZXZXZXZXZXZXZXZXZXZXZXZXZXSXZXZXZXZXZXZXZXSXSX*./ vXDXZXZXZXZXZXZXZXZXZXZXZXZXZXZXZXZXZXZXZXZXZXZXZXZXZXZXZXZXZXZXZXZXZXZXZXZXZXZXZXZXZXZXZXZXZXZXZXZXZX",
"ZXZXZXZXZXZXZXZXZXZXZXZXZXZXZXZXSXZXZXZXZXZXZXZXZXDXCXO.%.CXDXZXZXZXZXZXZXZXZXZXZXZXZXZXZXZXZXZXZXZXZXZXZXZXZXZXZXZXZXZXZXZXZXSXSXZXZXZXZXZXZXZXZXZXZXZXZXZXZXZX",
"ZXZXZXZXZXZXZXZXZXZXZXZXZXZXZXZXSXlXcXSXZXZXZXZXZXSXZXO.}.SXZXZXZXZXZXZXZXZXZXZXZXZXZXZXZXZXZXZXZXZXZXZXZXZXZXZXZXZXZXZXZXZXZXZXZXZXZXZXZXZXZXZXZXZXZXZXZXZXZXZX",
"ZXZXZXZXZXZXZXZXZXZXZXZXZXZXZXZXJX6XhXDXZXZXZXZXZXZXSX}.;XSXZXZXZXZXZXZXZXZXZXZXZXZXZXZXZXZXZXZXZXZXZXZXZXZXZXZXZXZXZXZXZXZXZXZXZXZXZXZXZXZXZXZXZXZXZXZXZXZXZXZX",
"ZXZXZXZXZXZXZXZXZXZXZXZXZXZXZXZXJX1X6XJXZXZXZXZXZXZXDX-X#.SXZXZXZXZXZXZXZXZXZXZXZXZXZXZXZXZXZXZXZXZXZXZXZXZXZXZXZXZXZXZXZXZXZXSXZXZXZXZXZXZXZXZXZXZXZXZXZXZXZXZX",
"ZXZXZXZXZXZXZXZXZXZXZXZXZXZXZXZXDX;XzXDXZXZXZXZXZXZXJX2X .ZXDXZXZXZXZXZXZXZXZXZXZXZXZXZXZXZXZXZXZXZXZXZXZXZXZXZXZXZXZXZXZXSXCXSXSXZXZXZXZXZXZXZXZXZXZXZXZXZXZXZX",
"ZXZXZXZXZXZXZXZXZXZXZXZXZXZXZXDXzX~.SXSXZXZXZXZXZXZXDXVX .uXJXZXZXZXZXZXZXZXZXZXZXZXZXZXZXZXZXZXZXZXZXZXZXZXZXZXZXZXZXZXZXSXVX2XZXDXZXZXZXZXZXZXZXZXZXZXZXZXZXZX",
"ZXZXZXZXZXZXZXZXZXZXZXZXZXSXSXVX| +.ZXJXZXZXZXZXZXZXSXZX&. .AXDXZXZXZXZXZXZXZXZXZXZXZXZXZXZXZXZXZXZXZXZXZXZXZXZXZXZXZXZXZXZXJX1X&.DXSXZXZXZXZXZXZXZXZXZXZXZXZXZX",
"ZXZXZXZXZXZXZXZXZXZXZXZXZXZXSXAX}.S ;XSXJXSXZXZXZXZXSXSX-X^ -XJXZXZXZXZXZXZXZXZXZXZXZXSXZXZXZXZXZXZXZXZXZXZXZXZXZXZXZXZXZXZXSXZX/ 2XJXZXZXZXZXZXZXZXZXZXZXZXZXZX",
"ZXZXZXZXZXZXZXZXZXZXZXZXZXZXDXJXSX2X} } 6XSXZXZXZXZXSXSX-X} O.AXSXZXZXZXZXZXZXZXZXZXSXZXZXZXZXZXZXZXZXZXZXZXZXZXZXSXSXZXZXZXZXJX-X/ ZXSXZXZXZXZXZXZXZXZXZXZXZXZX",
"ZXZXZXZXZXZXZXZXZXZXZXZXSXDXAXAXDXKXAX-X;XVXSXZXZXZXSXSX-X/  .lXDXZXZXZXZXZXZXZXZXSXcXjXSXZXZXZXZXZXZXZXZXZXZXZXZXAXSXSXZXZXZXDXhXS jXDXZXZXZXSXZXZXZXZXZXZXZXZX",
"ZXZXZXZXZXZXZXZXZXZXSXJXZXpXr 0 oX*XFXKXDXZXZXZXZXZXSXDX<Xo.o.hXJXSXZXZXZXZXZXZXZXJX-X1XJXSXZXZXZXZXZXZXZXZXZXZXDXcX2XDXZXZXSXDXcX/ 1XJXZXZXZXZXZXZXZXZXZXZXZXZX",
"ZXZXZXZXZXZXZXZXAXDXSX,XW - 2 e e 7 p.X.pXZXSXZXZXZXZXDX-Xo./ 2XDXZXZXSXSXZXZXZXZXDX&.{.SXSXZXZXZXZXZXZXZXZXZXZXSXmXo.cXDXZXZXDXcX/ -XDXSXZXZXZXZXZXZXZXZXZXZXZX",
"ZXZXZXZXZXZXZXZXDXZXOX- 2 8 K p.p.p.a.Z < =XDXSXZXZXZXSX}.O.{ -XSXSXZXAXCXSXZXZXSXSX*.| cXJXZXZXZXZXZXZXZXZXZXZXJXhXS hXJXZXZXDXzX^ <XJXZXZXZXZXZXZXZXZXZXZXZXZX",
"ZXZXZXZXZXZXZXSXDXOX* 8 8 , a.L a.k.C.D C ;.xXDXSXZXDXAX&.@.{ -XDXSXZXCXjXSXZXZXSXZX}.i.(.vXDXZXZXZXZXZXZXZXZXZXJX<X^ hXDXZXZXJX2X^ 2XJXZXZXZXZXZXZXZXZXZXZXZXZX",
"ZXZXZXZXZXZXSXDX&X* > Y % ; a.K P p.C.D D a.oXfXJXJXKX2X .&. .1XDXZXSXZX1XVXSXZXZXDX.Xt.u.~.CXDXZXZXZXZXZXZXZXDXAX@.O.vXDXZXSXSX|./ <XDXZXZXZXZXSXZXZXZXZXZXZXZX",
"ZXZXZXZXZXZXZXDX! $ P - % N l G P p.x.U D D s.K &XkXhXO.@.&. .2XJXZXZXDX|.3XJXSXZXJXiX~.u.i.uXDXZXZXZXZXZXZXZXDXcX^ -XDXZXZXSXCXO.{ ;XSXZXZXZXZXZXZXZXZXZXZXZXZX",
"ZXZXZXZXZXZXSXSXP : l % k f p 7 p.L a.U ` U D D g x / @.&.&.o.hXDXSXZXJX1X .SXSXZXSXAX..t.u.;XSXSXZXZXZXZXZXZXJXjX( 6XJXZXZXJXjXo.o.%.ZXSXZXZXZXZXZXZXZXZXZXZXZX",
"ZXZXZXZXZXZXDXfXk z : 1 i f a 8 P l K U D T.` ` ` v b {.}.&.@.ZXPXKXDXKXcX^ 2XKXDXSXPXiX| u.6XSXZXZXZXSXZXZXZXDXzX( <XJXSXZXJX-Xo.&.o.hXJXZXZXZXZXZXZXZXZXZXZXZX",
"ZXZXZXZXZXZXJXaX$ : k : : i < G l > K Y ' ] U.U.` U x A =.| =.5XsX4X4X4X5X[ | 5XBXxXBXUX{.r.mXDXDXDXDXDXSXSXZXSXCX+./ uXDXPXcXo.@.&.o.&.SXSXZXZXZXZXZXZXZXZXZXZX",
"ZXZXZXZXZXZXJXaX$ i k z : 6 l l * : K L ' [ W.Y.[ U m z Z v z q q w :.:.;.s.F C ;.;.:.q ! S n.XX&X=X=XfXZXDXJXJXJX-X} / |.lX-X} {.%.&./ hXJXZXZXZXZXZXZXZXZXZXZX",
"ZXZXZXZXZXZXJX&X$ z z k z z : : < K l.b.T _ Y.w.U [ ` V V D Z.m.N.N.B.B.B.N.V D R :.l.:.q w q e 7 7 ; , r Q oX=XGX6X} +.o.$.%.%.#.#.%.o.@.ZXDXZXZXZXZXZXZXZXZXZX",
"ZXZXZXZXZXSXCXY g z g $ + + # 1 K l.x.C.x.[ U.e.Y.[ ` ] ] ` N.V.K.@XS.B.M.m.s.F V a.m.k.k.k.l.k.l.:.E w 7 ; ; O & xX3Xo.%.@.@.&.&.@.;X~./ <XJXSXZXZXZXZXZXZXZXZX",
"ZXZXZXZXZXDXxXN g L ~ ! ! 6 % 1 p.K x.z.m.A._ q.j.U.[ ` 1.] B.B.B.B.b.z.M.B.V.` F U b.b.C.V.B.B.M.M.m.M.v.r w 4 O =XFX{.%.&.&.&.&.{.*.`.%./ hXJXZXZXZXZXZXZXZXZX",
"ZXZXZXZXZXSXBXY OXAXDXDXJXJX*X- K a.K p.B.F.) d.w.w.W.!.U.] B.B.C.C.S.N.C.C.m.L D D Z.m.n.N.N.b.m.M.C.z.C.M.k.E r 9 t G S |.#.{.+.@.&.t.~./ -XJXSXZXZXZXZXZXZXZX",
"ZXZXZXZXZXSXZXAXDXSXSXZXZXDXJXOX8 x.J e B.B.X.[ !.w.!.w.] T C.C.x.C.x.z.k.l.m.s.` _ T m.k.z.N.S.F.T.` ` n.c.b.n.k.:.4 & p  .}.#.%.[.~.y.~...$.vXDXZXZXZXZXZXZXZX",
"ZXZXZXZXZXZXZXSXSXZXZXZXZXZXDXZXJ K P 8 x.XXA._ Y.4.0.5.) R l.z.z.z.x.C.z.N.B.C.` ) T.@XM.C.N.@XR.' ] F.c.b.M.v.k.l.E ;.7 d @.}.{...`.y.~.$./ uXJXZXZXZXZXZXZXZX",
"ZXZXZXZXZXZXZXZXZXZXZXZXZXZXSXAXK J a.8 8 XXA.) U.4.,.j c H k.C.x.p.N.S.B.B.B.F.R.R.T.S.@X@XXXF.E.R.F.XXb.b.k.N.n.l.l.r r z d O.[.~.u.u.%.{.} 1XDXZXZXZXZXZXZXZX",
"ZXZXZXZXZXZXZXZXZXZXZXZXZXZXDXAX8 e x.P 6 k.~ [ U.q.>.j c V z.z.z.C.N.S.S.B.+XL.' T.] F.@X@X@XF.D U V.c.b.b.b.n.b.v.l.E r G i -.(.y.y.(.#.{.{ -XSXSXZXZXZXZXZXZX",
"ZXZXZXZXZXZXZXZXZXZXZXZXZXZXSXSX! , K W 8 8 T _ ` q.0.3.H D a.b.D.B.x.S.N.B.+XT ' T.] D.@XB.XXF.' A.m.l.b.z.b.l.b.l.E l.q < U G.r.u.y.%.$.+.O.*.ZXSXZXZXZXZXZXZX",
"ZXZXZXZXZXZXZXZXZXZXZXZXZXZXZXJXpX2 p.x.K 8 n A C 4.5.8.) D R c.C.N.K.S.K.B.D.] ` ' ] @X+XV.V.D.' s.m.b.b.n.b.k.z.E K w q l d.Q.,.4.(.{.%.+.@.O.lXDXZXZXZXZXZXZX",
"ZXZXZXZXZXZXZXZXZXZXZXZXZXZXZXJXaX- w x.K P x a B w.Q.8.) ) F Y m.S.S.K.@X@XT._ ] U.T.D.V.B.+XD.D A.m.n.b.M.n.b.l.W E w w x h.).>.,.d. .&.*.@.o.lXDXZXZXZXZXZXZX",
"ZXZXZXZXZXZXZXZXZXZXZXZXZXZXZXDXfX1 8 K l.L V ) 8.Q._.w.' ) F F T.@XS.S.B.T.E.R.' Y.9.~ +XB.V.A.F T XXXXz.z.M.l.K E ;.r n p A.).<.,.h p o.*.#.o.lXDXZXZXZXZXZXZX",
"ZXZXZXZXZXZXZXZXZXZXZXZXZXZXZXDXkX% , 8 v.s._ ) 9.`._.e.9.) U T P 6 9 9 5 4 6 Y _ q.E.T B.+XD.U ) _ Z.m.c.l.E E ;.;.J M c m V J.j.,.,.i d %.*.o.lXDXZXZXZXZXZXZX",
"ZXZXZXZXZXZXZXZXZXZXZXZXZXZXZXSXAX6 % 7 ;.Y F _ C g.P.7.w 0 '.oXy 3 O o o . . 3 Z.e.U.D U A.` ) U ` ) P l.v.r E W R c c n D v f.).6.>.v s ( *.O.lXDXSXZXZXZXZXZX",
"ZXZXZXZXZXZXZXZXZXZXZXZXZXZXZXZXJX4X- - ; n ) W 9 y t t '.y 5 O o     . O 3 % y '.G.E.) ` D ) ) V ) V D I Y Y R V A m M m I V 0.).P.4.B z p ^ }.AXSXZXZXZXZXZXZX",
"ZXZXZXZXZXZXZXZXZXZXZXZXZXZXZXZXSXSXJ - v.&XXX=X=XoXy 5 O .     . O 5 ! ~ T.T.h.p.t ].T.R.] ` V I I C ) A U T.F V m M n n b B 5.H.P.j.,.n p S 1XDXZXZXZXZXZXZXZX",
"ZXZXZXZXZXZXZXZXZXZXZXZXZXZXZXAXFXFXnXMXLXIXXX%X%X5       . O 5 w s.T.E.Y.9.0.q.w.Z.Q T [ ] ] ] I 1.9.b m J.d.H V m m m a n 3.5.P._.j.>.v a S hXJXZXZXZXZXZXZXZX",
"SXZXZXZXZXZXZXZXZXZXSXSXCXZXFXHXIXLXLXLXHXIX=Xt Q 5 O 5 5 r s.f.w.q.w.0.q.w.0.w.!.T.T ) ] ] T.` ) 1.2.U P.J.I ) U I -.H v 3.>.f.P._.f.>.v m |.ZXSXZXZXZXZXZXZXZX",
"ZXZXZXZXZXZXZXZXSXAXCXAXDXPXLXLXLXHXnXMXPXHXOXw L I.a.K.#XrXQ.5.0.0.0.<.0.q.Q.!.w.E.[ [ ] R.] I [ 8.Q.9X#X) ) ) ) I I C <.,.3.P.P.^.J.I.i d hXJXZXZXZXZXZXZXZXZX",
"ZXZXZXZXZXZXSXSXFXGXKXPXLXLXIXnXnXMXHXHX=XQ z H b B 0.Q.qX/.P.J.H.f.d.j.^.^.rXQ.e.w.E.R.T.] ) ` 9.5._.rXQ.D U.9.d.3.<.,.,.I.g.P.P.J.).d.u b SXSXZXZXZXZXZXZXZXZX",
"ZXZXZXZXZXZXxXnXnXMXHXIXHXnXnXNXIXHXnXgXt X a c c m <.0.^.P.:X^.J.H.G.g.H././.w.q.w.e.q.8.2.9.0.>.Q._.qXQ.w.5.6.w.5.6.I.G.G.G.G.P.G.g.x u 7XKXZXZXZXZXZXZXZXZXZX",
"ZXZXZXZXZXSXpXXXnXnXMXMXHXIXNXnX4X4XdXSXxX; $ c m m V ,.>.H.P.#X:X^.H.h.g.H.H.f.<.>.>.,.>.>.>.>.W./.8XqX/.P.J.^.J.J.P.J.G.K.@XK.g.6.U u z GXDXZXZXZXZXZXZXZXZXZX",
"ZXZXZXZXZXZXAXgX=XnX=XnXnXsXpXdXxXFXSXFXDXgX4 i A n M v >.>.g._.:X#X:XJ.H.H.H.g.h.W.2.2.q.8.8.5.qXqXeXqX/.P.9XqXP.P.P.K.P.#X@XI.f.3.u s kXDXZXZXZXZXZXZXZXZXZXZX",
"ZXZXZXZXZXZXSXSXBXdXpXdXdXxXZXSXSXSXZXZXZXKXBX; $ c c b n j >.5.J.wX$X#X:X/./.J.L.^.^.^.^.^.^./.rXwXtXwXwX>X:X#XP.#X#X%X#X%XI.h zXxX~ aXKXZXZXZXZXZXZXZXZXZXZXZX",
"ZXZXZXZXZXZXZXZXSXSXZXSXSXZXZXZXZXZXZXZXZXZXKXgXO @ g c a b v j 4.j.P.wXwXwX#X#X>X:X:X/.^.:XrXeXwXyXeXwX>X>X$X#XwX#X%X$X8Xg.h N GXJXSXSXZXZXZXZXZXZXZXZXZXZXZXZX",
"ZXZXZXZXZXZXZXZXZXZXZXSXZXZXZXZXZXZXZXZXZXZXZXDXxXoX4 $ z M a c v B 3.f.J.#XwXwX#X:XF.F.:X>X>XtXtXtXwXwX$X>X$X>X#X%X8X8XG.Z N fXDXZXSXZXZXZXZXZXZXZXZXZXZXZXZXZX",
"ZXZXZXZXZXZXZXZXZXZXZXZXZXZXZXZXZXZXZXZXZXZXZXZXJXKXxXy & 7 J G H n n v B d.A.L.F./.L.L.:X:X>X>XwX$XtXeX>X>X$X>X8X8X#Xs.i G GXKXZXZXZXZXZXZXZXZXZXZXZXZXZXZXZXZX",
"ZXZXZXZXZXZXZXZXZXZXZXZXZXZXZXZXZXZXZXZXZXZXZXZXZXZXJXSXoX; & & ; 7 r 0 J P L Y Y s.F.L.#X:XtX>XeXyXtXtXeXwX>XL.A.T b i l UXDXZXZXZXZXZXZXZXZXZXZXZXZXZXZXZXZXZX",
"ZXZXZXZXZXZXZXZXZXZXZXZXZXZXZXZXZXZXZXZXZXZXZXZXZXZXZXSXSXxX4XOXoX0 , 7 q r Q v.Q J 0 0 x.XX%X@X$X%X%X@X@XS.n.L L G < Q gXSXSXZXZXZXZXZXZXZXZXZXZXZXZXZXZXZXZXZX",
"ZXZXZXZXZXZXZXZXZXZXZXZXZXZXZXZXZXZXZXZXZXZXZXZXZXZXZXZXZXDXJXJXJXAX&X9 7 7 r W r r l.v.Q b.v.XXoXc.m.v.m.v.v.;.t ;.*XFXDXZXZXZXZXZXZXZXZXZXZXZXZXZXZXZXZXZXZXZX",
"ZXZXZXZXZXZXZXZXZXZXZXZXZXZXZXZXZXZXZXZXZXZXZXZXZXZXZXZXZXZXZXZXSXDXDXAXfXOX7 7 E E l.c.XXn.XXV.XXXXoXv.v.v.E 9 r GXJXSXZXZXZXZXZXZXZXZXZXZXZXZXZXZXZXZXZXZXZXZX",
"ZXZXZXZXZXZXZXZXZXZXZXZXZXZXZXZXZXZXZXZXZXZXZXZXZXZXZXZXZXZXZXZXZXZXZXSXJXDXaX0 , w r W v.v.v.n.n.v.v.c.l.q 7 oXBXDXSXZXZXZXZXZXZXZXZXZXZXZXZXZXZXZXZXZXZXZXZXZX",
"ZXZXZXZXZXZXZXZXZXZXZXZXZXZXZXZXZXZXZXZXZXSXZXZXZXZXZXZXZXZXZXZXZXZXZXZXZXSXKXfX0 ; 7 r r E v.v.Q v.v.r ;.oX*XZXDXZXZXZXZXZXZXZXZXZXZXZXZXZXZXZXZXZXZXZXZXZXZXZX",
"ZXZXZXZXZXZXZXZXZXZXZXZXZXZXZXZXZXZXZXZXZXZXZXZXZXZXZXZXZXZXZXZXZXZXZXZXZXZXSXJXGX].7 7 , 4 0 w 9 r r q pXDXDXSXZXZXZXZXZXZXZXZXZXZXZXZXZXZXZXZXZXZXZXZXZXZXZXZX",
"ZXZXZXZXZXZXZXZXZXSXZXZXZXZXZXZXZXZXZXZXZXZXZXZXZXZXZXZXZXZXZXZXZXZXZXZXZXZXZXZXDXSXxXgX*X9 - 9 0 0 4 0 ZXDXZXZXZXZXZXZXZXZXZXZXZXZXZXZXZXZXZXZXZXZXZXZXZXZXZXZX",
"ZXZXZXZXZXZXZXZXZXZXZXZXZXZXZXZXZXZXZXZXZXZXZXZXZXZXZXZXZXZXZXZXZXZXZXZXZXZXZXZXZXSXSXJXJXGX0 , 0 e * n.DXSXZXZXZXZXZXZXZXZXZXZXZXSXZXZXZXZXZXZXZXZXZXZXZXZXZXZX",
"ZXZXZXZXZXZXZXZXZXZXZXZXZXZXZXZXZXZXZXZXZXZXZXZXZXZXZXZXZXZXZXZXZXZXZXZXZXZXZXZXZXZXZXZXZXKXpX* N N g ,XDXZXZXZXZXZXZXZXZXZXZXZXZXZXZXZXZXZXZXZXZXZXZXZXZXZXZXZX",
"ZXZXZXZXZXZXZXZXZXZXZXZXZXZXZXZXZXZXZXZXZXZXZXZXZXZXZXZXZXZXZXZXZXZXZXZXZXZXZXZXZXZXZXZXZXKXoX= 3.j > fXDXZXZXZXZXZXZXZXZXZXZXZXZXZXZXZXZXZXZXZXZXZXZXZXZXZXZXZX",
"ZXZXZXSXZXZXZXZXZXZXZXZXZXZXZXZXZXZXZXZXZXZXZXZXZXZXZXZXZXZXZXZXZXZXZXZXZXJXJXDXZXZXZXZXJXdX* B B g W FXSXZXZXZXZXZXZXZXZXZXZXZXZXZXZXZXZXZXZXZXZXZXZXZXZXZXZXZX",
"ZXZXZXZXZXZXZXZXZXZXZXZXZXZXZXZXZXZXZXZXZXZXZXZXZXZXZXZXZXZXZXZXZXZXZXSXZXaX].fXDXZXZXZXDX0 g U.j 8 xXDXSXZXZXZXZXZXZXZXZXSXZXZXZXZXZXZXZXZXZXZXZXZXZXZXZXZXZXZX",
"ZXZXZXZXZXZXZXZXZXZXZXZXZXZXZXZXZXZXZXZXZXZXZXZXZXZXZXZXZXZXSXZXZXZXZXJXaXX @ J DXSXZXKXdX= 9.j N xXDXZXZXZXZXZXZXZXZXZXZXZXZXZXZXZXZXZXZXZXZXZXZXZXZXZXZXZXZXZX",
"ZXZXZXZXZXZXZXZXZXZXZXZXZXZXZXZXZXZXZXZXZXZXZXZXZXZXZXZXZXZXZXZXSXZXZXSXFXOX= = dXPXDXSX, h 9.h *XJXSXZXZXZXZXZXZXZXZXZXZXZXZXZXZXZXZXZXZXZXZXZXZXZXZXZXZXZXZXZX",
"ZXZXZXZXZXZXZXZXZXZXSXZXZXZXZXZXZXZXZXZXZXZXZXZXZXZXZXZXZXZXSXJXJXJXJXDXPXJXJ = 8 kXKX].= U.j J ZXSXZXZXZXZXZXZXZXZXZXZXZXZXZXZXZXZXZXZXZXZXZXZXZXZXZXZXZXZXZXZX",
"ZXZXZXZXZXZXZXZXZXZXZXZXZXZXZXZXZXZXZXZXZXZXZXZXZXZXZXZXZXJXSXaX,X&X,X5XpXBX! = = ; 4 * 9.B = 4XJXZXZXZXZXZXZXZXZXZXZXZXZXZXZXZXZXZXZXZXZXZXZXZXZXZXZXZXZXZXZXZX",
"ZXZXZXZXZXZXZXZXZXZXZXZXZXZXZXZXZXZXZXZXZXZXZXZXZXZXZXZXDXpX- X X + + @ @ # < : : # + N U.h L JXSXZXZXZXZXZXZXZXZXZXZXZXZXZXZXZXZXZXZXZXZXZXZXZXZXZXZXZXZXZXZXZX",
"ZXZXZXZXZXZXZXZXZXZXZXZXZXZXZXZXZXZXZXZXZXZXZXZXZXZXZXZXDXQ - r n.&X&X&X=X~ > N z : k 1.B g 8 BXDXZXZXZXZXZXZXZXZXZXZXZXZXZXZXZXZXZXZXZXZXZXZXZXZXZXZXZXZXZXZXZX",
"ZXZXZXZXZXZXZXZXZXZXZXZXZXZXZXZXZXZXZXZXZXZXZXZXZXZXZXZXZXAXZXSXJXJXJXJXJXJXAXL * > g C v * @ # pXJXZXZXZXZXZXZXZXZXZXZXZXZXZXZXZXZXZXZXZXZXZXZXZXZXZXZXZXZXZXZX",
"ZXZXZXZXZXZXZXZXZXZXZXZXZXZXZXZXZXZXZXZXZXSXZXZXZXZXZXZXZXZXSXSXSXZXZXZXZXDXSX6 @ $ $ @ * ! 6 - fXDXZXZXZXZXSXZXZXZXZXZXZXZXZXZXZXZXZXZXZXZXZXZXZXZXZXZXZXZXZXZX",
"ZXZXZXZXZXZXZXZXZXZXZXZXZXZXZXZXZXZXZXZXZXZXZXZXZXZXZXZXZXZXZXZXZXZXZXZXDXBX- X - > P Q dXJXAXGXSXSXZXZXZXZXZXZXZXZXZXZXZXZXZXZXZXZXZXZXZXZXZXZXZXZXZXZXZXZXZXZX",
"ZXZXZXZXZXZXZXZXZXZXZXZXZXZXZXZXZXZXZXZXZXZXZXZXZXZXZXZXZXZXZXZXZXZXZXZXSXxXOXOXfXAXDXKXDXZXDXSXZXZXZXZXZXZXZXZXZXZXZXZXZXZXZXZXZXZXZXZXZXZXZXZXZXZXZXZXZXZXZXZX",
"ZXZXZXZXZXZXZXZXZXZXZXZXZXZXZXZXZXZXZXZXZXZXZXZXZXZXZXZXZXZXZXZXZXZXZXZXAXSXJXDXDXDXSXZXZXZXZXZXZXZXZXZXZXZXZXZXZXZXZXZXZXZXZXZXZXZXZXZXZXZXZXZXZXZXZXZXZXZXZXZX",
"ZXZXZXZXZXZXZXSXZXZXZXZXZXZXZXZXZXZXZXZXZXZXZXZXZXZXZXZXZXZXZXZXZXZXZXZXZXSXZXZXSXZXZXZXZXZXZXZXZXZXZXZXZXZXZXZXZXZXZXZXZXZXZXZXZXZXZXZXZXZXZXZXZXZXZXZXZXZXZXZX",
"ZXZXZXZXZXZXZXZXZXZXZXZXZXZXZXZXZXZXZXZXZXZXZXZXZXZXZXZXZXZXZXZXZXZXZXZXZXZXZXZXZXZXZXZXZXZXZXZXZXZXZXZXZXZXZXZXZXZXZXZXZXZXZXZXZXZXZXZXZXZXZXZXZXZXZXZXZXZXZXZX",
"ZXZXZXZXZXZXZXZXZXZXZXZXZXZXZXZXZXZXZXZXZXZXZXZXZXZXZXZXZXZXZXZXZXZXZXZXZXZXZXZXZXZXZXZXZXZXZXZXZXZXZXZXZXZXZXZXZXZXZXZXZXZXZXZXZXZXZXZXZXZXZXZXZXZXZXZXZXZXSXSX",
"ZXZXZXZXZXZXZXZXZXZXZXZXZXZXZXZXZXZXZXZXZXZXZXZXZXZXZXZXZXZXZXZXZXZXZXZXZXZXZXZXZXZXZXZXZXZXZXZXZXZXZXZXZXZXZXZXZXZXZXZXZXZXZXZXZXZXZXZXSXZXZXZXZXZXSXZXZXSXZXZX"
};
