/* XPM */
static char *_7b5fffa6b1b4f2ac8877102b639ea9bK1Fuj5xKx6TA0yRp[] = {
/* columns rows colors chars-per-pixel */
"32 32 163 2 ",
"   c None",
".  c black",
"X  c #020202",
"o  c gray1",
"O  c #020401",
"+  c #040603",
"@  c #010005",
"#  c #030104",
"$  c #000006",
"%  c #040404",
"&  c gray2",
"*  c #060606",
"=  c #080907",
"-  c #050209",
";  c #080708",
":  c gray3",
">  c #090909",
",  c gray4",
"<  c #0B0B0B",
"1  c #0C0C0C",
"2  c #0E0E0E",
"3  c gray6",
"4  c #070012",
"5  c #170C1B",
"6  c #101010",
"7  c #111111",
"8  c #131313",
"9  c #1A161C",
"0  c #181818",
"q  c #191919",
"w  c #191A18",
"e  c gray10",
"r  c gray11",
"t  c #1D1D1D",
"y  c #1E1E1E",
"u  c gray12",
"i  c #21241F",
"p  c #1A0E23",
"a  c #1B0926",
"s  c #1C0C26",
"d  c #1D0C28",
"f  c #2B172F",
"g  c #202020",
"h  c gray13",
"j  c #222222",
"k  c gray14",
"l  c #272727",
"z  c #282828",
"x  c gray16",
"c  c gray17",
"v  c gray18",
"b  c #253020",
"n  c #313130",
"m  c #323232",
"M  c gray20",
"N  c gray21",
"B  c gray23",
"V  c #361948",
"C  c #3E2145",
"Z  c #582F6D",
"A  c gray26",
"S  c gray27",
"D  c #494949",
"F  c #4C484F",
"G  c gray30",
"H  c #4E4E4E",
"J  c #555655",
"K  c #565656",
"L  c #5A5A5A",
"P  c #5B5B5B",
"I  c #60635E",
"U  c #5A4368",
"Y  c #5A4468",
"T  c #663686",
"R  c #7E43A3",
"E  c #8E4CBD",
"W  c #9A53C9",
"Q  c #B05ECC",
"!  c #A056D0",
"~  c #A357D3",
"^  c #A655D3",
"/  c #AF5DE3",
"(  c #BE67F2",
")  c #BF66F7",
"_  c #C76ADA",
"`  c #C268FC",
"'  c #C369FF",
"]  c #C670FF",
"[  c #D472FF",
"{  c #D572FF",
"}  c #D773FF",
"|  c #D874FF",
" . c #D974FF",
".. c #DB76FF",
"X. c #DC75FF",
"o. c #DE74FF",
"O. c #DF77FF",
"+. c #E279F4",
"@. c #EA7DFF",
"#. c #97A090",
"$. c gray67",
"%. c gray68",
"&. c #B1B1B1",
"*. c #B2B2B2",
"=. c gray70",
"-. c #BCBCBC",
";. c gray74",
":. c gray",
">. c gray75",
",. c #BCC4B7",
"<. c #DD88FF",
"1. c #E08BFF",
"2. c #C3C3C3",
"3. c #C4C6C3",
"4. c gray77",
"5. c #C7C7C6",
"6. c #C8C8C8",
"7. c gray79",
"8. c #CDCDCD",
"9. c #CECECE",
"0. c gray81",
"q. c #CCC4D0",
"w. c gray83",
"e. c #D5D5D5",
"r. c #D5D4D6",
"t. c gray84",
"y. c #D7D2DB",
"u. c #D8D8D8",
"i. c gray85",
"p. c #DBDCDA",
"a. c #DBDDDA",
"s. c gainsboro",
"d. c #EBD1F8",
"f. c #E1E1E1",
"g. c gray89",
"h. c gray90",
"j. c #E6E6E6",
"k. c #E6E7E6",
"l. c #EBEBEC",
"z. c #EDF0EB",
"x. c #F0F9EC",
"c. c #F2FAEC",
"v. c #F3E0FF",
"b. c #FFEFFF",
"n. c #F3F3F3",
"m. c #F4F4F4",
"M. c gray96",
"N. c #F5F7F4",
"B. c #F6F6F5",
"V. c #F6F6F7",
"C. c gray97",
"Z. c #FAF1FF",
"A. c #FFF5FF",
"S. c #F8F8F8",
"D. c #F8F9F8",
"F. c #F9F9F9",
"G. c #FCF8FF",
"H. c #FDFDFD",
"J. c #FEFCFF",
"K. c #FFFDFF",
"L. c #FEFEFE",
"P. c #FFFEFF",
"I. c white",
/* pixels */
"                                                                ",
"    . . .                                                       ",
"    . . .                                                       ",
"        . . . .                                           . .   ",
"        . . . . . .                         . . . . . . . . .   ",
"        . . . . . .   . . . . . . . . .   . . . . . . . .       ",
"        . . . . . . . . . . . . . . . . . . . . . . . .         ",
"        . . . . . . . . . . . . . . . . . . . . . . .           ",
"        . . . . . . . . . ! ` / ` ~ . . . . . . . .             ",
"          . . . . . . . W @...[ [ ..` s . . . . .               ",
"              . . . . . _ C E ..` Z +.f . . . .                 ",
"            . . . . . . s T ( [ [ E s @ . . . . .               ",
"            . . . . . . . @ ^ @. .V . . . . . . .               ",
"            . . . . . *.n.w @ s # 0 p.g.w . . . .               ",
"            . . . . %.I.I.l.,.. #.l.I.I.j.3 . . .               ",
"            . . > j.P 2.I.I.I.g.D.I.I.H.P ;.w . .               ",
"            . . 1 I.A . u.I.I.I.I.I.I.t . g.j . .               ",
"              . > I.H . w.I.I.Z.I.I.I.w . j.j .                 ",
"                > V.I.V.I.I.A.] v.I.I.D.I.F.3                   ",
"                  . 8.I.I.I.I.A.I.I.I.I.I.v                     ",
"                . . 8 w.I.V.V.c.m.V.I.I.S . .                   ",
"            @.5 . . . 3 8 7 % % % 1 7 3 . . . . Q               ",
"                    . . . . > 7.c . . . .                       ",
"                    . . . . ,.I.I.B . . %                       ",
"            % 1   . 8.F . 5.I.I.I.w.. - r.m   % =               ",
"          . w.I.H 3.I.1.d.b -.I.I.I p.<.b.c.. &.I.x             ",
"          . s.I.p.V.I.Y q.j =.I.I.K j.U y.I.2.V.I.v             ",
"          . s.I.I.I.I.j ;.F.P g.D $.I.j 5.I.I.I.I.x             ",
"            t F.I.m 0 . p.I.N % . 8.I.j . m F.I.K               ",
"              j l       r x       t x       j l                 ",
"              . .       . .       . .       . .                 ",
"                                                                "
};
